<?xml version="1.0" encoding="utf-8"?>
<!-- Generator: Adobe Illustrator 23.0.2, SVG Export Plug-In . SVG Version: 6.00 Build 0)  -->
<svg version="1.1" id="Capa_4" xmlns="http://www.w3.org/2000/svg" xmlns:xlink="http://www.w3.org/1999/xlink" x="0px" y="0px"
	 width="73px" height="38px" viewBox="0 0 73 38" style="enable-background:new 0 0 73 38;" xml:space="preserve">
<style type="text/css">
	.st0{fill:#FFFFFF;stroke:#FFFFFF;stroke-width:4;stroke-linecap:round;stroke-linejoin:round;stroke-miterlimit:10;}
	.st1{opacity:0.5;}
	.st2{fill:#FFFFFF;}
	.st3{fill:#FFC050;}
	.st4{fill:#EB9FA1;}
	.st5{fill:#282F39;}
	.st6{fill:#D38793;}
	.st7{fill:#C65F70;}
	.st8{fill:#F2B1C0;}
	.st9{fill:#C35D6E;}
	.st10{fill:#FFD789;}
	.st11{fill:#BC9C15;}
	.st12{fill:#CDA462;}
	.st13{fill:#F25763;}
	.st14{fill:#CEA35F;}
</style>
<g>
	<g>
		<g>
			<path class="st0" d="M52.7743,7.0478l-32.5485,3.8999C16.7928,11.359,14,14.315,14,17.537v13.0192
				c0,3.222,2.7928,5.5086,6.2257,5.0973l32.5485-3.8999C56.2072,31.3423,59,28.3864,59,25.1644V12.1452
				C59,8.9232,56.2072,6.6365,52.7743,7.0478z"/>
			<path class="st0" d="M52.9206,29.8084l-32.9412,3.9262C17.7817,33.9965,16,32.5454,16,30.4935V17.3866
				c0-2.052,1.7817-3.9277,3.9795-4.1896l32.9412-3.9262c2.1978-0.262,3.9795,1.1891,3.9795,3.241v13.1069
				C56.9001,27.6707,55.1184,29.5465,52.9206,29.8084z"/>
		</g>
		<g>
			<path class="st0" d="M26.3545,30.1494c0.02,0.1797-0.0376,0.3408-0.1719,0.4814c-0.1348,0.1406-0.2949,0.2217-0.4814,0.2412
				c-0.1221,0.0137-0.2363-0.0068-0.3447-0.0615c-0.1074-0.0557-0.1929-0.1475-0.2549-0.2744l-0.375-0.7803l-2.4897,0.2715
				l-0.3174,0.8477c-0.0547,0.1406-0.1328,0.248-0.2339,0.3232c-0.1021,0.0752-0.2144,0.1201-0.3359,0.1338
				c-0.1748,0.0195-0.3364-0.0205-0.4829-0.1162c-0.1479-0.0967-0.231-0.2295-0.2495-0.3984
				c-0.0117-0.1074,0.0088-0.2217,0.0591-0.3457l1.8901-4.5762c0.0635-0.1572,0.1626-0.2822,0.2974-0.374
				c0.1348-0.0928,0.2837-0.1484,0.4482-0.166s0.3174,0.0049,0.4585,0.0664c0.1406,0.0625,0.2456,0.1631,0.3145,0.2998
				l2.1973,4.2021C26.3228,30,26.3467,30.0742,26.3545,30.1494z M22.6738,28.8691l1.5508-0.1699l-0.8325-1.7344L22.6738,28.8691z"/>
			<path class="st0" d="M31.8164,24.6396c0.1338,0.1172,0.2017,0.2852,0.2046,0.5049l0.1294,4.2822
				c0.0039,0.2256-0.0566,0.4121-0.1802,0.5596c-0.123,0.1475-0.2935,0.2334-0.5112,0.2568
				c-0.2178,0.0244-0.394-0.0225-0.5298-0.1396c-0.1367-0.1152-0.2061-0.2861-0.209-0.5117l-0.0469-1.6045l-2.2822,0.249
				l0.0459,1.5957c0.0029,0.2266-0.0576,0.4131-0.1802,0.5596c-0.124,0.1484-0.2939,0.2334-0.5117,0.2578
				c-0.2227,0.0244-0.4004-0.0225-0.5342-0.1396c-0.1333-0.1152-0.2021-0.2871-0.2046-0.5117l-0.1304-4.2842
				c-0.0024-0.2236,0.0571-0.4092,0.1812-0.5537c0.1235-0.1455,0.2939-0.2295,0.5117-0.2529
				c0.2227-0.0244,0.4004,0.0215,0.5337,0.1387c0.1338,0.1162,0.2017,0.2852,0.2046,0.5039l0.0444,1.5166l2.2827-0.25
				l-0.0444-1.5078c-0.0029-0.2246,0.0576-0.4092,0.1812-0.5547c0.1235-0.1445,0.2944-0.2285,0.5117-0.252
				C31.5054,24.4775,31.6836,24.5234,31.8164,24.6396z"/>
			<path class="st0" d="M34.5444,29.6055c-0.4429-0.1758-0.7993-0.4521-1.0688-0.833c-0.27-0.3809-0.4346-0.8506-0.4956-1.4072
				c-0.0659-0.6035-0.0083-1.1504,0.1743-1.6406c0.1831-0.4893,0.4756-0.8838,0.877-1.1816
				c0.4019-0.2988,0.8867-0.4795,1.4541-0.541c0.5615-0.0615,1.064-0.0059,1.5073,0.1689c0.4429,0.1748,0.7983,0.4541,1.0688,0.8359
				c0.2705,0.3848,0.4346,0.8525,0.4951,1.4033c0.0664,0.6055,0.0068,1.1504-0.1787,1.6377
				c-0.1855,0.4863-0.4795,0.8818-0.8809,1.1826c-0.4014,0.3018-0.8838,0.4824-1.4453,0.5439
				C35.4897,29.8359,34.9868,29.7793,34.5444,29.6055z M36.8745,28.0264c0.2114-0.3662,0.2856-0.8516,0.2192-1.457
				c-0.0547-0.5039-0.2119-0.8799-0.4697-1.1309c-0.2583-0.251-0.5913-0.3545-0.9995-0.3096
				c-0.4351,0.0479-0.7583,0.2559-0.9702,0.625c-0.2114,0.3701-0.2847,0.8535-0.2192,1.4521
				c0.0557,0.5098,0.2109,0.8887,0.4658,1.1367c0.2549,0.249,0.5923,0.3506,1.0112,0.3047
				C36.3418,28.6006,36.6626,28.3936,36.8745,28.0264z"/>
			<path class="st0" d="M44.0352,27.9365c0.0586,0.0957,0.0928,0.1904,0.1035,0.2861c0.0205,0.1855-0.04,0.3525-0.1797,0.498
				c-0.1396,0.1465-0.3047,0.2314-0.4951,0.252c-0.1328,0.0146-0.2578-0.0059-0.377-0.0635
				c-0.1191-0.0566-0.2207-0.1514-0.3047-0.2812l-0.8438-1.3877c-0.1172-0.1973-0.2959-0.2822-0.5342-0.2559L40.8945,27.04
				l0.0508,1.4258c0.0088,0.2256-0.0488,0.4121-0.1719,0.5586c-0.123,0.1475-0.2959,0.2344-0.5186,0.2588
				c-0.2236,0.0234-0.4033-0.0225-0.5391-0.1396c-0.1357-0.1152-0.2051-0.2861-0.208-0.5117l-0.1309-4.291
				c-0.0029-0.2197,0.0518-0.3945,0.1641-0.5254c0.1113-0.1299,0.2754-0.207,0.4932-0.2305l2.0439-0.2236
				c0.5889-0.0635,1.0635,0.0361,1.4248,0.2988c0.3623,0.2646,0.5693,0.6445,0.624,1.1426c0.0547,0.499-0.0176,0.9053-0.2168,1.2197
				s-0.5371,0.543-1.0146,0.6875c0.1465,0.0215,0.2734,0.0703,0.3818,0.1504c0.1074,0.0791,0.2139,0.1992,0.3174,0.3604
				L44.0352,27.9365z M42.0479,25.8037c0.2588-0.0283,0.4502-0.1084,0.5732-0.2393c0.1221-0.1309,0.1709-0.3066,0.1475-0.5244
				c-0.0234-0.2119-0.0967-0.3623-0.2227-0.4541c-0.125-0.0908-0.3076-0.123-0.5459-0.0967l-1.1846,0.1289l0.0469,1.3154
				L42.0479,25.8037z"/>
			<path class="st0" d="M49.6572,27.3223c0.0586,0.0957,0.0928,0.1914,0.1035,0.2871c0.0205,0.1855-0.0391,0.3516-0.1787,0.4971
				c-0.1396,0.1475-0.3047,0.2314-0.4961,0.252c-0.1318,0.0146-0.2578-0.0059-0.377-0.0635
				c-0.1191-0.0566-0.2207-0.1504-0.3047-0.2812l-0.8438-1.3877c-0.1172-0.1973-0.2959-0.2822-0.5352-0.2559l-0.5078,0.0557
				l0.0508,1.4258c0.0088,0.2256-0.0488,0.4121-0.1729,0.5586c-0.123,0.1484-0.2959,0.2344-0.5186,0.2588
				s-0.4023-0.0225-0.5381-0.1396c-0.1367-0.1152-0.2061-0.2861-0.209-0.5117l-0.1309-4.291
				c-0.002-0.2188,0.0518-0.3945,0.1641-0.5254c0.1113-0.1289,0.2764-0.207,0.4932-0.2305l2.0449-0.2227
				c0.5879-0.0645,1.0625,0.0352,1.4248,0.2988c0.3613,0.2637,0.5693,0.6445,0.623,1.1426c0.0547,0.498-0.0176,0.9043-0.2158,1.2188
				c-0.1992,0.3145-0.5381,0.543-1.0156,0.6875c0.1465,0.0215,0.2744,0.0703,0.3818,0.1504
				c0.1084,0.0791,0.2139,0.1992,0.3174,0.3604L49.6572,27.3223z M47.6699,25.1895c0.2598-0.0283,0.4512-0.1084,0.5732-0.2393
				s0.1709-0.3057,0.1475-0.5244c-0.0234-0.2109-0.0967-0.3623-0.2227-0.4531c-0.125-0.0918-0.3066-0.124-0.5449-0.0977
				l-1.1855,0.1289l0.0479,1.3154L47.6699,25.1895z"/>
			<path class="st0" d="M56.0654,26.9043c0.0195,0.1797-0.0381,0.3398-0.1729,0.4814c-0.1348,0.1406-0.2949,0.2207-0.4805,0.2412
				c-0.1221,0.0137-0.2363-0.0078-0.3447-0.0625S54.874,27.418,54.8115,27.29l-0.374-0.7803l-2.4902,0.2725l-0.3174,0.8467
				c-0.0547,0.1416-0.1318,0.249-0.2344,0.3242c-0.1016,0.0752-0.2139,0.1201-0.335,0.1338
				c-0.1758,0.0186-0.3369-0.0205-0.4834-0.1162c-0.1484-0.0967-0.2305-0.2305-0.249-0.3994
				c-0.0117-0.1074,0.0078-0.2207,0.0586-0.3447l1.8906-4.5762c0.0635-0.1572,0.1621-0.2822,0.2969-0.375
				c0.1348-0.0918,0.2842-0.1475,0.4492-0.165c0.1641-0.0186,0.3164,0.0049,0.457,0.0664c0.1416,0.0625,0.2461,0.1631,0.3145,0.2998
				l2.1973,4.2012C56.0332,26.7549,56.0566,26.8291,56.0654,26.9043z M52.3848,25.624l1.5508-0.1699l-0.833-1.7354L52.3848,25.624z"
				/>
		</g>
		<g>
			<g>
				<g>
					<g>
						<g>
							<path class="st0" d="M24.9114,17.3773c1.1645,1.3451,2.8525,2.331,4.6368,2.5113c1.7429,0.1762,3.5196-0.2596,5.0973-0.9868
								c2.987-1.3772,5.9849-4.0644,5.7157-7.6466c-0.0055-0.0729-0.0123-0.1453-0.0198-0.2178
								c0.7716-0.2093,1.3815-0.7364,1.2915-1.6828c-0.0973-1.024-0.6167-1.964-1.1811-2.805
								c-0.158-0.2354-0.423-0.2781-0.6462-0.1018c-0.303,0.2393-0.5395,0.5578-0.8229,0.8184
								c-2.0518-3.1271-6.0519-4.5012-9.7589-2.9433c-1.8519,0.7783-3.443,1.6974-4.517,3.4006
								C22.8719,10.6334,22.5487,14.648,24.9114,17.3773z"/>
							<path class="st0" d="M37.1165,6.9474c-0.0986-0.173-0.2954-0.4313-0.5315-0.3735c-0.2439,0.0597-0.2347,0.4008-0.2173,0.5914
								c0.0192,0.2101-0.3096,0.1973-0.3287-0.0113c-0.0327-0.3575,0.0685-0.8068,0.4724-0.9007
								c0.3917-0.0911,0.7175,0.2272,0.8945,0.538C37.5108,6.9752,37.2213,7.1313,37.1165,6.9474L37.1165,6.9474z"/>
							<path class="st0" d="M31.144,6.1152c0.0458-0.009,0.0917-0.0176,0.1376-0.0257c0.1577-0.0281,0.3157-0.0544,0.4737-0.0809
								c0.4305-0.072,0.8609-0.1437,1.2905-0.2208c0.4297-0.0772,0.86-0.1557,1.2847-0.2569
								c0.2581-0.0615,0.569-0.1088,0.7899-0.2683c0.0899-0.0648,0.1414-0.2064,0.0902-0.3109
								c-0.1209-0.2466-0.2583-0.4808-0.4202-0.7025c-0.0055-0.0088-0.0117-0.0176-0.0186-0.0264
								c-0.0064-0.0087-0.0132-0.0168-0.0201-0.0244c-0.6225-0.7813-1.4861-1.2563-2.3631-1.7021
								c-0.0994-0.0505-0.2535-0.0132-0.3154,0.081c-0.6659,1.0132-1.3982,2.0564-1.3231,3.3275
								C30.7611,6.0905,30.9921,6.1958,31.144,6.1152z M31.226,6.0403c-0.0033,0.0052-0.0073,0.01-0.0115,0.0146
								C31.2183,6.05,31.2225,6.0457,31.226,6.0403z"/>
							<path class="st0" d="M40.4297,7.4566c0.383,0.3884,0.4943,0.9793,0.7017,1.4668c0.1587,0.373-0.4366,0.552-0.4933,0.1858
								c-0.0821-0.5307-0.3323-1.0107-0.4292-1.5334C40.1858,7.4508,40.3374,7.363,40.4297,7.4566L40.4297,7.4566z"/>
							<path class="st0" d="M24.6897,16.1752c-0.3178,0.8579-0.9885,1.5533-1.9376,1.1484
								c-0.3303-0.1409-0.7209-0.3856-0.8294-0.7532c-0.0966-0.3275,0.086-0.684,0.422-0.7764
								c0.7596-0.2089,0.7663,0.9624,0.4241,1.3429c-0.3396,0.3775-0.869,0.538-1.3657,0.4873
								c-0.4163-0.0425-0.9562-0.2476-1.0954-0.6791c-0.0273-0.0845,0.0665-0.1534,0.1422-0.1332
								c0.5582,0.1488,0.9653,0.5324,1.5898,0.3244c0.245-0.0816,0.523-0.2552,0.5745-0.5258
								c0.0233-0.1224-0.0832-0.638-0.221-0.2934c-0.1296,0.3242,0.5821,0.6448,0.8009,0.7156
								c0.6328,0.2049,1.1144-0.4112,1.349-0.9228C24.5812,16.0267,24.7215,16.0895,24.6897,16.1752L24.6897,16.1752z"/>
						</g>
						<path class="st0" d="M35.4957,16.3593c0.6439-0.5389,1.3713-0.9121,2.1539-1.2063c0.2721-0.1023,0.5515-0.1809,0.834-0.2482
							c0.0837-0.02,0.1674-0.04,0.2511-0.0599c0.0619-0.0148,0.1667-0.0651,0.1746-0.0552
							c0.0773-0.0399,0.1724-0.0308,0.2168,0.0726c0.2352,0.5475,0.4287,1.1146,0.6541,1.667
							c0.1226,0.3003,0.3645,0.6953,0.3734,1.03c0.0061,0.2317-0.1527,0.404-0.2914,0.5708
							c-0.2474,0.2979-0.5352,0.5496-0.8467,0.778c-0.5227,0.3832-1.3658,0.9259-1.9472,0.3588
							c-0.2859-0.2789-0.4312-0.729-0.5871-1.0861c-0.2129-0.4878-0.6422-0.8411-0.9985-1.2261
							C35.3351,16.795,35.3177,16.5084,35.4957,16.3593z"/>
						<path class="st0" d="M29.8995,19.3778c0.6439-0.5389,1.3713-0.9121,2.1539-1.2063c0.2721-0.1022,0.5515-0.1809,0.834-0.2482
							c0.0837-0.0199,0.1674-0.0399,0.2511-0.0599c0.0619-0.0148,0.1667-0.0651,0.1746-0.0551
							c0.0774-0.0399,0.1724-0.0308,0.2169,0.0726c0.2352,0.5475,0.4287,1.1146,0.6541,1.667
							c0.1226,0.3003,0.3645,0.6952,0.3735,1.03c0.006,0.2318-0.1528,0.4041-0.2915,0.5708
							c-0.2475,0.2979-0.5352,0.5496-0.8466,0.778c-0.5227,0.3832-1.3659,0.9259-1.9473,0.3588
							c-0.2859-0.279-0.4312-0.729-0.5871-1.0861c-0.2129-0.4878-0.6421-0.8411-0.9985-1.2261
							C29.7387,19.8136,29.7214,19.527,29.8995,19.3778z"/>
					</g>
					<path class="st0" d="M25.0197,9.1119c-0.7472,1.2897-0.7442,2.6954-0.5399,4.1332c0.0527,0.3709-0.5077,0.5113-0.5762,0.1323
						c-0.2519-1.3936-0.3075-3.444,0.8685-4.4645C24.9078,8.795,25.1128,8.9512,25.0197,9.1119L25.0197,9.1119z"/>
					<path class="st0" d="M29.5271,5.2212l-0.5276-0.6134c0,0-2.6641,0.4344-3.5912,2.3841l0.349,0.5465
						C25.7573,7.5383,26.8363,5.401,29.5271,5.2212z"/>
					<path class="st0" d="M29.7488,5.4735l-0.5284-0.6129c0,0-2.6964,0.4553-3.6378,2.4141l0.353,0.557
						C25.9355,7.8317,27.0395,5.6652,29.7488,5.4735z"/>
					<g>
						<path class="st0" d="M27.9956,3.0788c0.5383,0.998,0.1656,2.2435-0.8324,2.7819c-0.9979,0.5383-2.2434,0.1656-2.7818-0.8324
							c-0.5383-0.998-0.1656-2.2435,0.8323-2.7818C26.2118,1.7082,27.4573,2.0809,27.9956,3.0788z"/>
						<g class="st1">
							<path class="st0" d="M26.9331,5.5493c-0.7838,0.4228-1.7656,0.129-2.1884-0.6548s-0.129-1.7656,0.6548-2.1884
								s1.7656-0.129,2.1884,0.6548C28.0107,4.1448,27.7169,5.1266,26.9331,5.5493z M25.6148,3.1052
								c-0.5639,0.3041-0.7751,1.0102-0.471,1.5741c0.3041,0.5638,1.0102,0.7751,1.5741,0.471
								c0.5638-0.3041,0.7751-1.0102,0.471-1.5741C26.8847,3.0124,26.1786,2.8011,25.6148,3.1052z"/>
						</g>
						<g>
							<path class="st0" d="M26.2875,3.8254c-0.0633-0.1174-0.1912-0.1344-0.3023-0.0745c-0.046,0.0248-0.0941,0.0876-0.0641,0.1432
								c0.0881,0.1633,0.6958-0.2136,0.8969,0.1592c0.1335,0.2475-0.0503,0.4612-0.2391,0.563
								C26.56,4.6265,26.54,4.6353,26.5218,4.6431l0.0548,0.1015L26.475,4.7995l-0.0676-0.1253
								c-0.0923,0.0149-0.1766-0.001-0.2387-0.0248l0.0484,0.1315l-0.2776,0.1497l-0.2157-0.3998l0.295-0.1591
								c0.0719,0.1333,0.2172,0.0836,0.2855,0.0508c0.0555-0.0299,0.128-0.0854,0.092-0.152
								c-0.0667-0.1238-0.6476,0.2572-0.8658-0.1473c-0.1267-0.2348,0.0381-0.4609,0.1936-0.5447
								c0.0238-0.0128,0.0484-0.0241,0.0739-0.0338l-0.0633-0.1174l0.1016-0.0548l0.0761,0.1412
								c0.0801-0.0104,0.1596,0,0.2305,0.0478L26.087,3.4196l0.2729-0.1472l0.2148,0.3982L26.2875,3.8254z"/>
						</g>
					</g>
				</g>
			</g>
			<g>
				<path class="st0" d="M24.6017,15.0398"/>
				<g>
					<path class="st0" d="M24.6017,15.5742c0.6877,0,0.6888-1.0687,0-1.0687C23.914,14.5055,23.9129,15.5742,24.6017,15.5742
						L24.6017,15.5742z"/>
				</g>
			</g>
			<g>
				<path class="st0" d="M18.5641,16.0032c0.644-0.3145,1.219-0.7245,1.7933-1.1406c0.5727-0.4149,1.2224-0.7648,1.6745-1.3346
					c0.0385-0.0486-0.0631-0.1902-0.1214-0.1693c-0.6479,0.2326-1.1589,0.7028-1.7045,1.0906
					c-0.6102,0.4335-1.2189,0.8642-1.7511,1.4017C18.4055,15.901,18.5009,16.034,18.5641,16.0032L18.5641,16.0032z"/>
			</g>
			<g>
				<path class="st0" d="M17.0237,18.2918c0.851-0.5269,1.8241-1.0339,2.4764-1.8127c0.0521-0.0622-0.0168-0.1583-0.0924-0.1288
					c-0.9466,0.3684-1.7387,1.128-2.5103,1.7654C16.7894,18.2047,16.9047,18.3654,17.0237,18.2918L17.0237,18.2918z"/>
			</g>
			<g>
				<path class="st0" d="M21.2593,24.2543c0.8342-0.4074,1.579-0.9385,2.323-1.4775c0.7419-0.5375,1.5835-0.9907,2.1691-1.7287
					c0.0499-0.0629-0.0817-0.2464-0.1573-0.2192c-0.8393,0.3013-1.5012,0.9104-2.2079,1.4127
					c-0.7904,0.5615-1.5789,1.1195-2.2683,1.8157C21.0538,24.1221,21.1775,24.2944,21.2593,24.2543L21.2593,24.2543z"/>
			</g>
			<g>
				<path class="st0" d="M18.7201,24.047c0.851-0.5269,1.8241-1.0339,2.4764-1.8127c0.0521-0.0622-0.0168-0.1583-0.0924-0.1288
					c-0.9466,0.3684-1.7387,1.128-2.5103,1.7654C18.4858,23.9599,18.6011,24.1206,18.7201,24.047L18.7201,24.047z"/>
			</g>
			<g>
				<path class="st0" d="M18.8311,20.8866c0.851-0.5269,1.8241-1.0339,2.4764-1.8127c0.0521-0.0622-0.0168-0.1583-0.0924-0.1288
					c-0.9466,0.3684-1.7387,1.128-2.5103,1.7654C18.5968,20.7996,18.7121,20.9603,18.8311,20.8866L18.8311,20.8866z"/>
			</g>
		</g>
		<g>
			<path class="st0" d="M34.547,22.6323l-19.9784,4.2203c-0.8582,0.1813-1.6111-0.3748-1.6817-1.2419l-0.8398-10.3184
				c-0.0706-0.8672,0.5679-1.7172,1.4261-1.8984l19.9784-4.2203c0.8582-0.1813,1.6111,0.3748,1.6817,1.242l0.8398,10.3184
				C36.0436,21.6011,35.4052,22.451,34.547,22.6323z"/>
		</g>
		<g>
			<path class="st0" d="M16.6025,22.9707c-0.1392-0.0967-0.2251-0.2617-0.2588-0.4951l-0.6309-4.5996
				c-0.0283-0.2354,0.0098-0.4287,0.1152-0.582c0.1045-0.1533,0.2725-0.2544,0.5024-0.3052l1.6943-0.3726
				c0.5962-0.1309,1.1401-0.1304,1.6304,0c0.4922,0.1309,0.9043,0.3789,1.2383,0.7446c0.3335,0.3657,0.5625,0.8325,0.6875,1.3999
				c0.1455,0.6631,0.1387,1.2607-0.0215,1.79c-0.1606,0.5312-0.4624,0.9736-0.9053,1.3301
				c-0.4434,0.3564-1.0137,0.6123-1.7104,0.7656l-1.7871,0.3926C16.9263,23.0898,16.7417,23.0664,16.6025,22.9707z M18.5264,21.4297
				c0.6582-0.1445,1.1099-0.4053,1.3574-0.7812c0.248-0.374,0.2988-0.8936,0.1523-1.5576c-0.1094-0.5-0.3311-0.8506-0.6641-1.0508
				c-0.3325-0.2012-0.7603-0.2441-1.2827-0.1294l-0.7593,0.167l0.4883,3.5073L18.5264,21.4297z"/>
			<path class="st0" d="M23.0601,21.6084c-0.1641-0.0869-0.2622-0.2461-0.2944-0.4756l-0.3994-2.9429
				c-0.0283-0.2344,0.0205-0.4282,0.146-0.5801c0.1265-0.1504,0.2959-0.25,0.5093-0.2974c0.2139-0.0469,0.4004-0.0254,0.5615,0.062
				c0.1611,0.0884,0.2554,0.251,0.2832,0.4854l0.3994,2.9438c0.0332,0.2295-0.0122,0.4189-0.1353,0.5693
				c-0.1226,0.1504-0.291,0.249-0.5044,0.2959C23.4121,21.7158,23.2236,21.6963,23.0601,21.6084z M23.106,16.8521
				c-0.1011,0.022-0.1909,0.0103-0.269-0.0371c-0.0781-0.0483-0.1289-0.1235-0.1509-0.2241
				c-0.0171-0.0781-0.0151-0.1611,0.0073-0.249l0.1572-0.9717c0.0361-0.1313,0.0938-0.2373,0.1738-0.3164
				s0.1699-0.1294,0.2715-0.1519c0.1465-0.0322,0.2891-0.0103,0.4297,0.0645c0.1401,0.0757,0.2266,0.1855,0.2588,0.332
				c0.0293,0.1348,0,0.2827-0.0889,0.4434l-0.4077,0.7969C23.3901,16.7129,23.2632,16.8174,23.106,16.8521z"/>
			<path class="st0" d="M27.918,16.6509c0.3726,0.208,0.6201,0.5894,0.7422,1.145c0.0259,0.1182,0.0439,0.2119,0.0527,0.2803
				l0.2314,1.6987c0.0317,0.2236-0.0068,0.4097-0.1147,0.561c-0.1089,0.1504-0.272,0.249-0.4912,0.2969
				c-0.1855,0.041-0.3491,0.0234-0.4893-0.0547c-0.1411-0.0781-0.2358-0.2002-0.2847-0.3672
				c-0.0601,0.208-0.1719,0.3838-0.3354,0.5254c-0.1626,0.1416-0.3647,0.2393-0.6069,0.293
				c-0.2695,0.0586-0.5273,0.0586-0.7725,0.002c-0.2461-0.0586-0.4531-0.168-0.6206-0.3281
				c-0.168-0.1611-0.2769-0.3564-0.3276-0.5869c-0.0703-0.3203-0.0479-0.5947,0.0664-0.8232
				c0.1143-0.228,0.334-0.4258,0.6572-0.5908c0.3228-0.1641,0.7676-0.3096,1.3359-0.4341l0.3037-0.0669l-0.0049-0.0615
				c-0.0654-0.4043-0.3311-0.5547-0.7979-0.4521c-0.2246,0.0498-0.5234,0.1919-0.896,0.4268
				c-0.0864,0.0596-0.1782,0.1016-0.2734,0.1221c-0.1406,0.0312-0.2661,0.0088-0.3774-0.0674
				c-0.1108-0.0762-0.1802-0.1782-0.209-0.3071c-0.022-0.1016-0.0146-0.2075,0.0225-0.3193
				c0.0381-0.1118,0.1108-0.2148,0.2197-0.3091c0.3652-0.3213,0.854-0.5493,1.4668-0.6841
				C27.0444,16.4111,27.5459,16.4453,27.918,16.6509z M27.2773,19.6069c0.1006-0.1724,0.1338-0.3755,0.1006-0.6094l-0.0127-0.0947
				l-0.2275,0.0503c-0.3369,0.0742-0.5693,0.1621-0.6973,0.2637c-0.1274,0.1016-0.1729,0.2397-0.1348,0.4136
				c0.0264,0.1182,0.0879,0.2046,0.1855,0.2603c0.0977,0.0552,0.2139,0.0684,0.3486,0.0391
				C27.0312,19.8877,27.1768,19.7798,27.2773,19.6069z"/>
			<path class="st0" d="M30.5786,17.2773c0.1357,0.042,0.3433,0.0737,0.6226,0.0942c0.2837,0.0239,0.5195,0.0571,0.7065,0.0986
				c0.187,0.043,0.3594,0.1279,0.5171,0.2549c0.1572,0.1274,0.2627,0.3149,0.3164,0.561c0.0767,0.3477,0.022,0.6631-0.1641,0.9443
				c-0.1855,0.2832-0.4717,0.4946-0.8584,0.6382l0.0361,0.2739c0.0195,0.126,0,0.2344-0.0581,0.3232
				c-0.0586,0.0879-0.1479,0.1455-0.269,0.1719c-0.125,0.0273-0.2344,0.0107-0.3281-0.0508
				c-0.0928-0.0615-0.1484-0.1484-0.165-0.2646l-0.0347-0.2676c-0.418,0.0547-0.7656,0.0479-1.0435-0.0225
				c-0.0825-0.0225-0.1489-0.0645-0.1992-0.125c-0.0503-0.0615-0.084-0.1304-0.1006-0.2085
				c-0.0269-0.1211-0.0146-0.2354,0.0386-0.3403c0.0522-0.1055,0.1353-0.1709,0.2485-0.1958
				c0.0664-0.0142,0.1406-0.0122,0.2227,0.0063c0.1787,0.0303,0.3511,0.0469,0.5176,0.0488c0.166,0.0024,0.3535-0.019,0.5601-0.0645
				c0.2109-0.0464,0.3608-0.1152,0.4497-0.2031c0.0889-0.0894,0.1187-0.2031,0.0889-0.3398
				c-0.0244-0.1094-0.0996-0.1821-0.2266-0.2168c-0.126-0.0366-0.3232-0.0649-0.5908-0.0879
				c-0.2871-0.0229-0.5283-0.0562-0.7217-0.0996c-0.1943-0.043-0.373-0.1309-0.5371-0.2627s-0.2734-0.3228-0.3286-0.5728
				c-0.0493-0.2236-0.0381-0.439,0.0327-0.646c0.0713-0.209,0.1934-0.3945,0.3662-0.5576c0.1738-0.1621,0.3867-0.2905,0.6406-0.3833
				l-0.041-0.2734c-0.0156-0.1235,0.0078-0.231,0.0693-0.3228c0.062-0.0913,0.1514-0.1499,0.2695-0.1758
				c0.125-0.0273,0.2324-0.0112,0.3232,0.0488c0.0908,0.0596,0.1436,0.1494,0.1572,0.2695l0.043,0.2793
				c0.4067-0.0322,0.7432,0.0044,1.0073,0.1104c0.1226,0.0557,0.1987,0.1465,0.2271,0.2754
				c0.0254,0.1172,0.0078,0.2319-0.0537,0.3438c-0.0615,0.1113-0.1523,0.1816-0.2734,0.2085
				c-0.0708,0.0151-0.147,0.0107-0.2305-0.0122c-0.2041-0.0327-0.3799-0.0532-0.5293-0.0615s-0.3057,0.0059-0.4697,0.042
				c-0.1763,0.0386-0.3076,0.1035-0.3936,0.1938c-0.0869,0.0918-0.1167,0.1968-0.0898,0.3179
				C30.3604,17.1523,30.4424,17.2363,30.5786,17.2773z"/>
		</g>
		<circle class="st0" cx="51" cy="12" r="6"/>
		<g>
			<path class="st0" d="M55.2857,12.3571c0,0.5334-0.4319,0.9653-0.9653,0.9653h-2.7122v2.7122
				c0,0.5334-0.4319,0.9653-0.9653,0.9653c-0.5331,0-0.9653-0.4319-0.9653-0.9653v-2.7122h-2.7122
				c-0.5331,0-0.9653-0.4319-0.9653-0.9653c0-0.5331,0.4322-0.9653,0.9653-0.9653h2.7122V8.6796
				c0-0.5331,0.4322-0.9653,0.9653-0.9653c0.5334,0,0.9653,0.4322,0.9653,0.9653v2.7122h2.7122
				C54.8538,11.3918,55.2857,11.8237,55.2857,12.3571z"/>
		</g>
		<g>
			<path class="st0" d="M56,11.6429c0,0.5334-0.4319,0.9653-0.9653,0.9653h-2.7122v2.7122c0,0.5334-0.4319,0.9653-0.9653,0.9653
				c-0.5331,0-0.9653-0.4319-0.9653-0.9653v-2.7122h-2.7122c-0.5331,0-0.9653-0.4319-0.9653-0.9653
				c0-0.5331,0.4322-0.9653,0.9653-0.9653h2.7122V7.9653C50.3918,7.4322,50.824,7,51.3571,7c0.5334,0,0.9653,0.4322,0.9653,0.9653
				v2.7122h2.7122C55.5681,10.6775,56,11.1095,56,11.6429z"/>
		</g>
	</g>
	<g>
		<path class="st2" d="M52.7743,8.0478l-32.5485,3.8999C16.7928,12.359,14,15.315,14,18.537v13.0192
			c0,3.222,2.7928,5.5086,6.2257,5.0973l32.5485-3.8999C56.2072,32.3423,59,29.3864,59,26.1644V13.1452
			C59,9.9232,56.2072,7.6365,52.7743,8.0478z"/>
		<path class="st3" d="M52.9206,30.8084l-32.9412,3.9262C17.7817,34.9965,16,33.5454,16,31.4935V18.3866
			c0-2.052,1.7817-3.9277,3.9795-4.1896l32.9412-3.9262c2.1978-0.262,3.9795,1.1891,3.9795,3.241v13.1069
			C56.9001,28.6707,55.1184,30.5465,52.9206,30.8084z"/>
		<g>
			<path class="st2" d="M24.4834,31.4385c0.0254,0.1816-0.0293,0.3467-0.1621,0.4922c-0.1323,0.1465-0.293,0.2334-0.4795,0.2588
				c-0.124,0.0176-0.2412-0.002-0.3521-0.0537c-0.1108-0.0537-0.1997-0.1436-0.2661-0.2715l-0.4014-0.7803l-2.5166,0.3447
				l-0.2983,0.8682c-0.0513,0.1436-0.1274,0.2549-0.2285,0.335c-0.1011,0.0791-0.2129,0.127-0.3359,0.1436
				c-0.1772,0.0244-0.3418-0.0107-0.4937-0.1045c-0.1519-0.0928-0.2397-0.2256-0.2632-0.3975
				c-0.0146-0.1064,0.0015-0.2236,0.0498-0.3496l1.7891-4.6914c0.0601-0.1621,0.1572-0.292,0.291-0.3887
				c0.1338-0.0977,0.2837-0.1582,0.4497-0.1807c0.166-0.0234,0.3218-0.0049,0.4663,0.0557
				c0.1445,0.0586,0.2534,0.1572,0.3271,0.2939l2.3442,4.1982C24.4463,31.2871,24.4736,31.3633,24.4834,31.4385z M20.7163,30.2432
				l1.5674-0.2148l-0.8926-1.7373L20.7163,30.2432z"/>
			<path class="st2" d="M29.8667,25.7012c0.1387,0.1152,0.2124,0.2832,0.2207,0.5059l0.251,4.3389
				c0.0093,0.2275-0.0464,0.4189-0.1675,0.5713c-0.1206,0.1533-0.291,0.2451-0.5107,0.2754
				c-0.2197,0.0293-0.4004-0.0127-0.5415-0.127s-0.2163-0.2861-0.2261-0.5137l-0.0913-1.626l-2.3071,0.3164l0.0908,1.6182
				c0.0093,0.2275-0.0469,0.418-0.1675,0.5713c-0.1206,0.1523-0.2915,0.2451-0.5112,0.2744
				c-0.2246,0.0312-0.4062-0.0117-0.5454-0.126c-0.1387-0.1143-0.2124-0.2861-0.2217-0.5137l-0.2505-4.3379
				c-0.0098-0.2285,0.0464-0.418,0.1675-0.5684c0.1216-0.1504,0.292-0.2402,0.5117-0.2705c0.2251-0.0303,0.4067,0.0107,0.5454,0.125
				c0.1382,0.1162,0.2119,0.2842,0.2207,0.5068l0.0879,1.5361l2.3066-0.3164l-0.0864-1.5273
				c-0.0098-0.2285,0.0464-0.417,0.1675-0.5684c0.1211-0.1504,0.292-0.2402,0.5117-0.2695
				C29.5464,25.5449,29.7285,25.5869,29.8667,25.7012z"/>
			<path class="st2" d="M32.7695,30.6582c-0.4541-0.1631-0.8228-0.4346-1.1064-0.8145c-0.2847-0.3789-0.4648-0.8496-0.542-1.4121
				c-0.084-0.6113-0.0396-1.166,0.1318-1.668c0.1719-0.5,0.457-0.9082,0.856-1.2227c0.3989-0.3135,0.8853-0.5107,1.459-0.5889
				c0.5684-0.0781,1.0786-0.0342,1.5322,0.1299c0.4541,0.165,0.8232,0.4375,1.1069,0.8184
				c0.2852,0.3818,0.4648,0.8506,0.5415,1.4082c0.0835,0.6104,0.0381,1.166-0.1362,1.6641c-0.1748,0.5-0.4609,0.9072-0.8599,1.2236
				c-0.3994,0.3174-0.8823,0.5137-1.4502,0.5918C33.7339,30.8652,33.2231,30.8223,32.7695,30.6582z M35.0879,28.9941
				c0.2046-0.3779,0.2656-0.8721,0.1816-1.4824c-0.0698-0.5088-0.2388-0.8867-0.5068-1.1348
				c-0.2695-0.2461-0.6099-0.3418-1.0225-0.2861c-0.4395,0.0605-0.7612,0.2822-0.9653,0.6611
				c-0.2046,0.3799-0.2656,0.873-0.1826,1.4785c0.0708,0.5146,0.2383,0.8936,0.5044,1.1387
				c0.2646,0.2451,0.6094,0.3369,1.0327,0.2793C34.564,29.5889,34.8828,29.3711,35.0879,28.9941z"/>
			<path class="st2" d="M42.3438,28.7031c0.0625,0.0957,0.0996,0.1914,0.1133,0.2881c0.0254,0.1865-0.0303,0.3564-0.168,0.5098
				c-0.1367,0.1523-0.3018,0.2412-0.4951,0.2676c-0.1338,0.0186-0.2617,0.001-0.3838-0.0537
				c-0.123-0.0537-0.2275-0.1455-0.3164-0.2754l-0.8936-1.3838c-0.125-0.1963-0.3086-0.2773-0.5498-0.2441l-0.5146,0.0703
				l0.0918,1.4463c0.0146,0.2266-0.0381,0.417-0.1592,0.5693c-0.1211,0.1533-0.2939,0.2451-0.5186,0.2764
				c-0.2256,0.0312-0.4092-0.0117-0.5498-0.126c-0.1406-0.1133-0.2168-0.2852-0.2266-0.5127l-0.251-4.3477
				c-0.0088-0.2227,0.042-0.4004,0.1514-0.5361c0.1094-0.1348,0.2744-0.2178,0.4941-0.248l2.0654-0.2832
				c0.5957-0.082,1.0791,0.0068,1.4531,0.2646c0.373,0.2568,0.5947,0.6367,0.6641,1.1406c0.0693,0.5049,0.0068,0.918-0.1855,1.2422
				c-0.1934,0.3232-0.5303,0.5635-1.0107,0.7246c0.1504,0.0156,0.2803,0.0645,0.3916,0.1416s0.2227,0.1963,0.332,0.3555
				L42.3438,28.7031z M40.2705,26.5957c0.2617-0.0352,0.4541-0.1201,0.5742-0.2578c0.1211-0.1367,0.165-0.3145,0.1357-0.5342
				c-0.0293-0.2139-0.1094-0.3662-0.2383-0.4551c-0.1299-0.0889-0.3154-0.1162-0.5566-0.083l-1.1973,0.1641l0.084,1.3311
				L40.2705,26.5957z"/>
			<path class="st2" d="M48.0264,27.9248c0.0615,0.0947,0.0996,0.1914,0.1133,0.2881c0.0254,0.1865-0.0312,0.3564-0.168,0.5098
				c-0.1377,0.1514-0.3027,0.2412-0.4961,0.2676c-0.1338,0.0186-0.2617,0.001-0.3828-0.0537
				c-0.123-0.0537-0.2285-0.1465-0.3164-0.2764l-0.8945-1.3838c-0.125-0.1953-0.3076-0.2773-0.5488-0.2441l-0.5146,0.0713
				l0.0918,1.4453c0.0146,0.2266-0.0391,0.417-0.1602,0.5703c-0.1201,0.1523-0.293,0.2451-0.5186,0.2754
				c-0.2246,0.0312-0.4082-0.0107-0.5498-0.125c-0.1406-0.1143-0.2158-0.2861-0.2256-0.5137l-0.251-4.3467
				c-0.0088-0.2227,0.041-0.4004,0.1514-0.5361c0.1094-0.1357,0.2744-0.2188,0.4941-0.249l2.0654-0.2832
				c0.5947-0.0811,1.0791,0.0078,1.4531,0.2646c0.373,0.2578,0.5947,0.6367,0.6641,1.1406c0.0684,0.5049,0.0068,0.918-0.1865,1.2422
				s-0.5303,0.5645-1.0098,0.7246c0.1494,0.0166,0.2803,0.0654,0.3916,0.1426s0.2227,0.1963,0.3311,0.3555L48.0264,27.9248z
				 M45.9521,25.8174c0.2627-0.0361,0.4541-0.1211,0.5742-0.2578c0.1211-0.1367,0.166-0.3154,0.1357-0.5352
				c-0.0293-0.2139-0.1084-0.3662-0.2383-0.4551c-0.1299-0.0879-0.3154-0.1152-0.5557-0.083l-1.1982,0.165l0.085,1.3301
				L45.9521,25.8174z"/>
			<path class="st2" d="M54.5107,27.3223c0.0244,0.1816-0.0293,0.3477-0.1621,0.4932c-0.1328,0.1465-0.293,0.2334-0.4805,0.2588
				c-0.123,0.0166-0.2402-0.002-0.3516-0.0547s-0.1992-0.1436-0.2656-0.2705l-0.4023-0.7803l-2.5156,0.3447l-0.2988,0.8682
				c-0.0508,0.1436-0.1279,0.2549-0.2285,0.335c-0.1006,0.0781-0.2129,0.127-0.3359,0.1436
				c-0.1768,0.0244-0.3408-0.0107-0.4932-0.1045s-0.2402-0.2256-0.2637-0.3975c-0.0146-0.1064,0.002-0.2246,0.0498-0.3506
				l1.79-4.6914c0.0586-0.1611,0.1562-0.291,0.29-0.3877c0.1338-0.0977,0.2842-0.1582,0.4502-0.1816
				c0.166-0.0225,0.3213-0.0039,0.4668,0.0557c0.1436,0.0596,0.2529,0.1572,0.3262,0.2949l2.3447,4.1982
				C54.4727,27.1719,54.5,27.2471,54.5107,27.3223z M50.7441,26.1279l1.5674-0.2148l-0.8936-1.7373L50.7441,26.1279z"/>
		</g>
	</g>
	<g>
		<g>
			<g>
				<g>
					<g>
						<path class="st4" d="M24.9114,17.3773c1.1645,1.3451,2.8525,2.331,4.6368,2.5113c1.7429,0.1762,3.5196-0.2596,5.0973-0.9868
							c2.987-1.3772,5.9849-4.0644,5.7157-7.6466c-0.0055-0.0729-0.0123-0.1453-0.0198-0.2178
							c0.7716-0.2093,1.3815-0.7364,1.2915-1.6828c-0.0973-1.024-0.6167-1.964-1.1811-2.805
							c-0.158-0.2354-0.423-0.2781-0.6462-0.1018c-0.303,0.2393-0.5395,0.5578-0.8229,0.8184
							c-2.0518-3.1271-6.0519-4.5012-9.7589-2.9433c-1.8519,0.7783-3.443,1.6974-4.517,3.4006
							C22.8719,10.6334,22.5487,14.648,24.9114,17.3773z"/>
						<path class="st5" d="M37.1165,6.9474c-0.0986-0.173-0.2954-0.4313-0.5315-0.3735c-0.2439,0.0597-0.2347,0.4008-0.2173,0.5914
							c0.0192,0.2101-0.3096,0.1973-0.3287-0.0113c-0.0327-0.3575,0.0685-0.8068,0.4724-0.9007
							c0.3917-0.0911,0.7175,0.2272,0.8945,0.538C37.5108,6.9752,37.2213,7.1313,37.1165,6.9474L37.1165,6.9474z"/>
						<path class="st6" d="M31.144,6.1152c0.0458-0.009,0.0917-0.0176,0.1376-0.0257c0.1577-0.0281,0.3157-0.0544,0.4737-0.0809
							c0.4305-0.072,0.8609-0.1437,1.2905-0.2208c0.4297-0.0772,0.86-0.1557,1.2847-0.2569
							c0.2581-0.0615,0.569-0.1088,0.7899-0.2683c0.0899-0.0648,0.1414-0.2064,0.0902-0.3109
							c-0.1209-0.2466-0.2583-0.4808-0.4202-0.7025c-0.0055-0.0088-0.0117-0.0176-0.0186-0.0264
							c-0.0064-0.0087-0.0132-0.0168-0.0201-0.0244c-0.6225-0.7813-1.4861-1.2563-2.3631-1.7021
							c-0.0994-0.0505-0.2535-0.0132-0.3154,0.081c-0.6659,1.0132-1.3982,2.0564-1.3231,3.3275
							C30.7611,6.0905,30.9921,6.1958,31.144,6.1152z M31.226,6.0403c-0.0033,0.0052-0.0073,0.01-0.0115,0.0146
							C31.2183,6.05,31.2225,6.0457,31.226,6.0403z"/>
						<path class="st7" d="M40.4297,7.4566c0.383,0.3884,0.4943,0.9793,0.7017,1.4668c0.1587,0.373-0.4366,0.552-0.4933,0.1858
							c-0.0821-0.5307-0.3323-1.0107-0.4292-1.5334C40.1858,7.4508,40.3374,7.363,40.4297,7.4566L40.4297,7.4566z"/>
						<path class="st4" d="M24.6897,16.1752c-0.3178,0.8579-0.9885,1.5533-1.9376,1.1484
							c-0.3303-0.1409-0.7209-0.3856-0.8294-0.7532c-0.0966-0.3275,0.086-0.684,0.422-0.7764
							c0.7596-0.2089,0.7663,0.9624,0.4241,1.3429c-0.3396,0.3775-0.869,0.538-1.3657,0.4873
							c-0.4163-0.0425-0.9562-0.2476-1.0954-0.6791c-0.0273-0.0845,0.0665-0.1534,0.1422-0.1332
							c0.5582,0.1488,0.9653,0.5324,1.5898,0.3244c0.245-0.0816,0.523-0.2552,0.5745-0.5258
							c0.0233-0.1224-0.0832-0.638-0.221-0.2934c-0.1296,0.3242,0.5821,0.6448,0.8009,0.7156
							c0.6328,0.2049,1.1144-0.4112,1.349-0.9228C24.5812,16.0267,24.7215,16.0895,24.6897,16.1752L24.6897,16.1752z"/>
					</g>
					<path class="st4" d="M35.4957,16.3593c0.6439-0.5389,1.3713-0.9121,2.1539-1.2063c0.2721-0.1023,0.5515-0.1809,0.834-0.2482
						c0.0837-0.02,0.1674-0.04,0.2511-0.0599c0.0619-0.0148,0.1667-0.0651,0.1746-0.0552c0.0773-0.0399,0.1724-0.0308,0.2168,0.0726
						c0.2352,0.5475,0.4287,1.1146,0.6541,1.667c0.1226,0.3003,0.3645,0.6953,0.3734,1.03c0.0061,0.2317-0.1527,0.404-0.2914,0.5708
						c-0.2474,0.2979-0.5352,0.5496-0.8467,0.778c-0.5227,0.3832-1.3658,0.9259-1.9472,0.3588
						c-0.2859-0.2789-0.4312-0.729-0.5871-1.0861c-0.2129-0.4878-0.6422-0.8411-0.9985-1.2261
						C35.3351,16.795,35.3177,16.5084,35.4957,16.3593z"/>
					<path class="st4" d="M29.8995,19.3778c0.6439-0.5389,1.3713-0.9121,2.1539-1.2063c0.2721-0.1022,0.5515-0.1809,0.834-0.2482
						c0.0837-0.0199,0.1674-0.0399,0.2511-0.0599c0.0619-0.0148,0.1667-0.0651,0.1746-0.0551
						c0.0774-0.0399,0.1724-0.0308,0.2169,0.0726c0.2352,0.5475,0.4287,1.1146,0.6541,1.667
						c0.1226,0.3003,0.3645,0.6952,0.3735,1.03c0.006,0.2318-0.1528,0.4041-0.2915,0.5708
						c-0.2475,0.2979-0.5352,0.5496-0.8466,0.778c-0.5227,0.3832-1.3659,0.9259-1.9473,0.3588
						c-0.2859-0.279-0.4312-0.729-0.5871-1.0861c-0.2129-0.4878-0.6421-0.8411-0.9985-1.2261
						C29.7387,19.8136,29.7214,19.527,29.8995,19.3778z"/>
				</g>
				<path class="st2" d="M25.0197,9.1119c-0.7472,1.2897-0.7442,2.6954-0.5399,4.1332c0.0527,0.3709-0.5077,0.5113-0.5762,0.1323
					c-0.2519-1.3936-0.3075-3.444,0.8685-4.4645C24.9078,8.795,25.1128,8.9512,25.0197,9.1119L25.0197,9.1119z"/>
				<path class="st8" d="M29.5271,5.2212l-0.5276-0.6134c0,0-2.6641,0.4344-3.5912,2.3841l0.349,0.5465
					C25.7573,7.5383,26.8363,5.401,29.5271,5.2212z"/>
				<path class="st9" d="M29.7488,5.4735l-0.5284-0.6129c0,0-2.6964,0.4553-3.6378,2.4141l0.353,0.557
					C25.9355,7.8317,27.0395,5.6652,29.7488,5.4735z"/>
				<g>
					<path class="st10" d="M27.9956,3.0788c0.5383,0.998,0.1656,2.2435-0.8324,2.7819c-0.9979,0.5383-2.2434,0.1656-2.7818-0.8324
						c-0.5383-0.998-0.1656-2.2435,0.8323-2.7818C26.2118,1.7082,27.4573,2.0809,27.9956,3.0788z"/>
					<g class="st1">
						<path class="st11" d="M26.9331,5.5493c-0.7838,0.4228-1.7656,0.129-2.1884-0.6548s-0.129-1.7656,0.6548-2.1884
							s1.7656-0.129,2.1884,0.6548C28.0107,4.1448,27.7169,5.1266,26.9331,5.5493z M25.6148,3.1052
							c-0.5639,0.3041-0.7751,1.0102-0.471,1.5741c0.3041,0.5638,1.0102,0.7751,1.5741,0.471
							c0.5638-0.3041,0.7751-1.0102,0.471-1.5741C26.8847,3.0124,26.1786,2.8011,25.6148,3.1052z"/>
					</g>
					<g>
						<path class="st12" d="M26.2875,3.8254c-0.0633-0.1174-0.1912-0.1344-0.3023-0.0745c-0.046,0.0248-0.0941,0.0876-0.0641,0.1432
							c0.0881,0.1633,0.6958-0.2136,0.8969,0.1592c0.1335,0.2475-0.0503,0.4612-0.2391,0.563
							C26.56,4.6265,26.54,4.6353,26.5218,4.6431l0.0548,0.1015L26.475,4.7995l-0.0676-0.1253
							c-0.0923,0.0149-0.1766-0.001-0.2387-0.0248l0.0484,0.1315l-0.2776,0.1497l-0.2157-0.3998l0.295-0.1591
							c0.0719,0.1333,0.2172,0.0836,0.2855,0.0508c0.0555-0.0299,0.128-0.0854,0.092-0.152
							c-0.0667-0.1238-0.6476,0.2572-0.8658-0.1473c-0.1267-0.2348,0.0381-0.4609,0.1936-0.5447
							c0.0238-0.0128,0.0484-0.0241,0.0739-0.0338l-0.0633-0.1174l0.1016-0.0548l0.0761,0.1412
							c0.0801-0.0104,0.1596,0,0.2305,0.0478L26.087,3.4196l0.2729-0.1472l0.2148,0.3982L26.2875,3.8254z"/>
					</g>
				</g>
			</g>
		</g>
		<g>
			<path class="st2" d="M24.6017,15.5742c0.6877,0,0.6888-1.0687,0-1.0687C23.914,14.5055,23.9129,15.5742,24.6017,15.5742
				L24.6017,15.5742z"/>
		</g>
		<g>
			<path class="st13" d="M18.5641,16.0032c0.644-0.3145,1.219-0.7245,1.7933-1.1406c0.5727-0.4149,1.2224-0.7648,1.6745-1.3346
				c0.0385-0.0486-0.0631-0.1902-0.1214-0.1693c-0.6479,0.2326-1.1589,0.7028-1.7045,1.0906
				c-0.6102,0.4335-1.2189,0.8642-1.7511,1.4017C18.4055,15.901,18.5009,16.034,18.5641,16.0032L18.5641,16.0032z"/>
		</g>
		<g>
			<path class="st13" d="M17.0237,18.2918c0.851-0.5269,1.8241-1.0339,2.4764-1.8127c0.0521-0.0622-0.0168-0.1583-0.0924-0.1288
				c-0.9466,0.3684-1.7387,1.128-2.5103,1.7654C16.7894,18.2047,16.9047,18.3654,17.0237,18.2918L17.0237,18.2918z"/>
		</g>
		<g>
			<path class="st13" d="M21.2593,24.2543c0.8342-0.4074,1.579-0.9385,2.323-1.4775c0.7419-0.5375,1.5835-0.9907,2.1691-1.7287
				c0.0499-0.0629-0.0817-0.2464-0.1573-0.2192c-0.8393,0.3013-1.5012,0.9104-2.2079,1.4127
				c-0.7904,0.5615-1.5789,1.1195-2.2683,1.8157C21.0538,24.1221,21.1775,24.2944,21.2593,24.2543L21.2593,24.2543z"/>
		</g>
		<g>
			<path class="st13" d="M18.7201,24.047c0.851-0.5269,1.8241-1.0339,2.4764-1.8127c0.0521-0.0622-0.0168-0.1583-0.0924-0.1288
				c-0.9466,0.3684-1.7387,1.128-2.5103,1.7654C18.4858,23.9599,18.6011,24.1206,18.7201,24.047L18.7201,24.047z"/>
		</g>
		<g>
			<path class="st13" d="M18.8311,20.8866c0.851-0.5269,1.8241-1.0339,2.4764-1.8127c0.0521-0.0622-0.0168-0.1583-0.0924-0.1288
				c-0.9466,0.3684-1.7387,1.128-2.5103,1.7654C18.5968,20.7996,18.7121,20.9603,18.8311,20.8866L18.8311,20.8866z"/>
		</g>
	</g>
	<g>
		<path class="st13" d="M34.547,22.6323l-19.9784,4.2203c-0.8582,0.1813-1.6111-0.3748-1.6817-1.2419l-0.8398-10.3184
			c-0.0706-0.8672,0.5679-1.7172,1.4261-1.8984l19.9784-4.2203c0.8582-0.1813,1.6111,0.3748,1.6817,1.242l0.8398,10.3184
			C36.0436,21.6011,35.4052,22.451,34.547,22.6323z"/>
		<g>
			<path class="st2" d="M14.8975,23.2529c-0.1592-0.124-0.25-0.3271-0.2744-0.6074l-0.4351-5.5059
				c-0.0176-0.2812,0.0415-0.5098,0.1768-0.6836c0.1343-0.1738,0.3413-0.2842,0.6182-0.3291l2.0386-0.3262
				c0.7168-0.1152,1.3623-0.0781,1.9375,0.1113c0.5742,0.1885,1.0474,0.5117,1.4189,0.9697c0.3711,0.457,0.6123,1.0264,0.7217,1.709
				c0.1279,0.7988,0.0781,1.5068-0.1489,2.126c-0.2271,0.6182-0.6157,1.126-1.166,1.5186c-0.5503,0.3936-1.2456,0.6572-2.0835,0.791
				l-2.1504,0.3447C15.2734,23.416,15.0557,23.377,14.8975,23.2529z M17.2881,21.5527c0.791-0.127,1.3462-0.4043,1.666-0.833
				c0.3193-0.4297,0.415-1.043,0.2871-1.8408c-0.0962-0.6016-0.3354-1.0342-0.7168-1.2959
				c-0.3818-0.2598-0.8867-0.3408-1.5156-0.2402l-0.9131,0.1465l0.3403,4.1992L17.2881,21.5527z"/>
			<path class="st2" d="M22.6611,22.0752c-0.1885-0.1143-0.2944-0.3096-0.3174-0.583l-0.2734-3.5244
				c-0.0171-0.2822,0.0542-0.5078,0.2144-0.6787c0.1592-0.1729,0.3682-0.2783,0.625-0.3193s0.478-0.0049,0.6626,0.1133
				c0.1851,0.1152,0.2861,0.3135,0.3037,0.5957l0.2734,3.5244c0.0229,0.2725-0.0435,0.4961-0.2002,0.666
				c-0.1562,0.1709-0.3633,0.2764-0.6201,0.3174C23.0718,22.2285,22.8496,22.1904,22.6611,22.0752z M23.041,16.4287
				c-0.1216,0.0195-0.2275-0.0029-0.3174-0.0645c-0.0894-0.0615-0.144-0.1533-0.1636-0.2754
				c-0.0151-0.0947-0.0063-0.1924,0.0259-0.2939l0.2534-1.1436c0.0513-0.1543,0.1274-0.2764,0.228-0.3652
				c0.1001-0.0879,0.2109-0.1426,0.3325-0.1611c0.1758-0.0283,0.3447,0.0068,0.5059,0.1045
				c0.1621,0.0996,0.2568,0.2373,0.2852,0.4121c0.0259,0.1621-0.019,0.3369-0.1353,0.5215l-0.5391,0.918
				C23.3887,16.2832,23.23,16.3984,23.041,16.4287z"/>
			<path class="st2" d="M28.772,16.5195c0.4287,0.2715,0.6963,0.7412,0.8037,1.4102c0.0225,0.1426,0.0371,0.2549,0.0435,0.3369
				l0.1592,2.0352c0.022,0.2656-0.0366,0.4854-0.1753,0.6562c-0.1392,0.1719-0.3408,0.2783-0.6045,0.3203
				c-0.2231,0.0361-0.4155,0.0029-0.5771-0.0996c-0.1626-0.1016-0.2666-0.2539-0.3125-0.4551
				c-0.0859,0.2441-0.231,0.4443-0.4346,0.6006c-0.2036,0.1582-0.4507,0.2598-0.7417,0.3066
				c-0.3242,0.0518-0.6304,0.0352-0.9175-0.0518c-0.2886-0.085-0.5259-0.2285-0.7148-0.4307
				c-0.188-0.2021-0.3047-0.4424-0.3491-0.7197c-0.0615-0.3848-0.0166-0.709,0.1357-0.9727
				c0.1514-0.2637,0.4253-0.4834,0.8203-0.6572c0.3945-0.1738,0.9336-0.3154,1.6172-0.4248l0.3652-0.0586l-0.0015-0.0732
				c-0.0503-0.4844-0.356-0.6826-0.9165-0.5918c-0.2705,0.043-0.6357,0.1914-1.0938,0.4463
				c-0.1074,0.0654-0.2188,0.1074-0.334,0.126c-0.1689,0.0264-0.3164-0.0078-0.4429-0.1064
				c-0.127-0.0967-0.2026-0.2227-0.2275-0.3789c-0.0195-0.123-0.0034-0.2471,0.0483-0.3779
				c0.0522-0.1289,0.146-0.2471,0.2822-0.3516c0.4556-0.3574,1.0522-0.5947,1.7896-0.7129
				C27.7505,16.1738,28.3438,16.248,28.772,16.5195z M27.8086,19.9873c0.1309-0.1982,0.1851-0.4375,0.1606-0.7168l-0.0078-0.1143
				l-0.2739,0.0439c-0.4053,0.0645-0.688,0.1543-0.8462,0.2656c-0.1597,0.1113-0.2217,0.2734-0.188,0.4824
				c0.0225,0.1426,0.0898,0.25,0.2021,0.3213c0.1113,0.0723,0.2495,0.0957,0.4116,0.0693
				C27.4971,20.3027,27.6777,20.1855,27.8086,19.9873z"/>
			<path class="st2" d="M31.8896,17.4453c0.1587,0.0586,0.4028,0.1104,0.7334,0.1523c0.335,0.0488,0.6128,0.1045,0.8325,0.168
				c0.2202,0.0635,0.4189,0.1768,0.5972,0.3369c0.1777,0.1631,0.29,0.3926,0.3374,0.6885c0.0669,0.418-0.0195,0.7881-0.2593,1.1113
				c-0.2402,0.3223-0.5947,0.5547-1.063,0.6982l0.0239,0.3291c0.0143,0.1515-0.016,0.2784-0.0917,0.379
				c-0.0747,0.1016-0.1855,0.1641-0.3311,0.1875c-0.1504,0.0244-0.2788-0.0039-0.3857-0.083
				c-0.1064-0.0791-0.1665-0.1885-0.1787-0.3252l-0.0229-0.3223c-0.4995,0.0371-0.9126,0.0039-1.2378-0.0986
				c-0.0967-0.0322-0.1729-0.0869-0.228-0.1611c-0.0557-0.0752-0.0908-0.1611-0.106-0.2549
				c-0.0234-0.1455-0.001-0.2793,0.0693-0.4014c0.0698-0.1221,0.1724-0.1943,0.3086-0.2158
				c0.0801-0.0127,0.168-0.0049,0.2646,0.0225c0.21,0.0488,0.4136,0.0791,0.6113,0.0938s0.4204,0.002,0.6694-0.0381
				c0.2544-0.041,0.437-0.1113,0.5488-0.21c0.1118-0.1006,0.1543-0.2334,0.1279-0.3984c-0.021-0.1309-0.106-0.2227-0.2534-0.2744
				c-0.1479-0.0498-0.3799-0.0986-0.6958-0.1436c-0.3403-0.0479-0.6235-0.1035-0.8511-0.168s-0.4346-0.1807-0.6201-0.3496
				c-0.1855-0.166-0.3027-0.4014-0.3511-0.7021c-0.043-0.2686-0.0151-0.5225,0.0835-0.7666
				c0.0981-0.2412,0.2559-0.4531,0.4727-0.6348c0.2163-0.1826,0.479-0.3184,0.7871-0.4121l-0.0312-0.3271
				c-0.0083-0.1484,0.0269-0.2744,0.1064-0.3789c0.0801-0.1045,0.1899-0.168,0.3311-0.1904
				c0.1504-0.0244,0.2773,0.0029,0.3818,0.0801c0.1035,0.0771,0.1597,0.1865,0.1689,0.3311l0.0312,0.334
				c0.4854-0.0098,0.8813,0.0566,1.189,0.2002c0.1416,0.0742,0.2256,0.1885,0.2505,0.3438
				c0.0225,0.1406-0.0068,0.2754-0.0869,0.4033c-0.0811,0.1289-0.1943,0.2051-0.3398,0.2285
				c-0.085,0.0137-0.1748,0.0039-0.272-0.0283c-0.2397-0.0537-0.4487-0.0908-0.6255-0.1094
				c-0.1768-0.0205-0.3633-0.0137-0.5605,0.0176c-0.2119,0.0342-0.3721,0.1006-0.4805,0.2031
				c-0.1099,0.1025-0.1523,0.2256-0.1289,0.3721C31.6392,17.2822,31.7305,17.3867,31.8896,17.4453z"/>
		</g>
	</g>
	<g>
		<circle class="st2" cx="51" cy="13" r="6"/>
		<path class="st14" d="M55.2857,13.3571c0,0.5334-0.4319,0.9653-0.9653,0.9653h-2.7122v2.7122
			c0,0.5334-0.4319,0.9653-0.9653,0.9653c-0.5331,0-0.9653-0.4319-0.9653-0.9653v-2.7122h-2.7122
			c-0.5331,0-0.9653-0.4319-0.9653-0.9653c0-0.5331,0.4322-0.9653,0.9653-0.9653h2.7122V9.6796
			c0-0.5331,0.4322-0.9653,0.9653-0.9653c0.5334,0,0.9653,0.4322,0.9653,0.9653v2.7122h2.7122
			C54.8538,12.3918,55.2857,12.8237,55.2857,13.3571z"/>
	</g>
	<g>
		<path class="st3" d="M56,12.6429c0,0.5334-0.4319,0.9653-0.9653,0.9653h-2.7122v2.7122c0,0.5334-0.4319,0.9653-0.9653,0.9653
			c-0.5331,0-0.9653-0.4319-0.9653-0.9653v-2.7122h-2.7122c-0.5331,0-0.9653-0.4319-0.9653-0.9653
			c0-0.5331,0.4322-0.9653,0.9653-0.9653h2.7122V8.9653C50.3918,8.4322,50.824,8,51.3571,8c0.5334,0,0.9653,0.4322,0.9653,0.9653
			v2.7122h2.7122C55.5681,11.6775,56,12.1095,56,12.6429z"/>
	</g>
</g>
</svg>
