<?xml version="1.0" encoding="utf-8"?>
<!-- Generator: Adobe Illustrator 21.0.0, SVG Export Plug-In . SVG Version: 6.00 Build 0)  -->
<svg version="1.1" xmlns="http://www.w3.org/2000/svg" xmlns:xlink="http://www.w3.org/1999/xlink" x="0px" y="0px"
	 width="1815.1815px" height="690.069px" viewBox="0 0 1815.1815 690.069" style="enable-background:new 0 0 1815.1815 690.069;"
	 xml:space="preserve">
<style type="text/css">
	.st0{fill:#E8679C;}
	.st1{fill:#FF7BAC;}
	.st2{fill:#FFB125;}
	.st3{fill:#FFFFFF;}
	.st4{fill:none;stroke:#1C476B;stroke-width:100;stroke-linecap:round;stroke-miterlimit:10;}
	.st5{fill:#DD7219;}
</style>
<g id="Capa_1">
	<g>
		<path class="st0" d="M635.5258,298.8579c-3.118-3.3529-5.7246-6.9422-7.8046-10.6995
			c-11.7905,2.2475-20.9754,3.1408-21.4745,3.1888c-5.3891,0.4857-10.0899-3.4991-10.4352-8.9077
			c-0.3328-5.2096,3.8036-9.6306,8.9986-10.1395c5.6272-0.5519,11.4317-1.3705,17.1238-2.401
			c-0.6494-6.3429,0.0125-12.8449,2.0435-19.2586c4.4796-14.1495,15.0712-24.9216,26.9854-27.4419
			c9.3876-1.9901,18.7222,1.3498,25.6137,9.1505c9.9949,11.3104,9.2376,20.9209,6.8411,26.9914
			c-4.0433,10.244-15.8364,18.1697-35.9564,24.1187c0.6267,0.7983,1.308,1.5987,2.0499,2.3958
			c13.2386,14.2359,27.7316,16.505,37.0005,16.1169c5.4265-0.2277,10.0905,3.789,10.5021,9.204l0.0035,0.0466
			c0.406,5.3408-3.4779,10.0186-8.7952,10.6673c-0.6825,0.0835-1.395,0.1555-2.1378,0.2119
			C674.3868,322.9908,655.2843,320.1035,635.5258,298.8579z M654.9167,241.8796c-4.3331,0.917-10.0983,6.2001-12.7339,14.5225
			c-0.621,1.9593-1.3749,5.1836-1.3093,9.1295c12.9691-3.735,22.9094-8.4504,24.783-13.2034
			c0.8313-2.107-1.7655-5.5007-3.388-7.3376c-2.5714-2.9095-4.7723-3.3766-6.3989-3.2529
			C655.5259,241.7637,655.2071,241.817,654.9167,241.8796z"/>
		<path class="st1" d="M50.9349,340.9868l3.3776,44.4293c0.8736,11.4911,9.0729,21.1019,20.2827,23.775l44.2203,10.5459
			c4.8336,1.1521,9.0052,4.1222,11.8127,8.2218c21.0659,30.7636,52.179,53.7862,88.8627,69.4511
			c1.5522,0.662,2.7219,1.9901,3.1598,3.6194l19.3937,72.1631c1.7291,6.4203,7.7796,10.7039,14.4096,10.1998l44.9557-3.4177
			c6.63-0.504,11.9647-5.6531,12.7021-12.261l4.5827-41.0419c0.3304-2.949,2.9414-5.0824,5.901-4.8629
			c20.1414,1.4952,40.6508,1.4531,61.0708-0.0993c15.2769-1.1614,30.1609-3.1426,44.5331-5.9282
			c2.8414-0.5516,5.6306,1.1586,6.3826,3.9544l10.1998,37.892c1.729,6.4204,7.7796,10.7039,14.4096,10.1999l44.9557-3.4177
			c6.6299-0.504,11.9647-5.6531,12.702-12.261l8.0559-70.1609c0.1898-1.6505,1.1244-3.1157,2.5268-4.0074
			c57.0115-36.2384,91.2976-94.0869,85.3361-172.5046C604.424,169.4141,490.4399,116.111,355.6107,126.3611
			c-115.2452,8.7613-226.3145,62.4915-249.6941,162.8801c-1.5312,6.5757-6.1258,12.0168-12.3818,14.5577l-26.1406,10.6196
			C56.716,318.7556,50.0651,329.4954,50.9349,340.9868z"/>
		<g>
			<path class="st0" d="M52.5609,329.7108c-1.3199,3.5257-1.9176,7.356-1.6192,11.2817l3.3778,44.4307
				c0.8736,11.491,9.0728,21.1019,20.2826,23.775l21.6601,5.166l22.559,5.38l0.0013-0.0001l0.1599,0.0385
				c4.7163,1.1243,8.7894,4.0158,11.5346,8.0112c0.5011,0.728,1.0008,1.4549,1.5307,2.1617
				c0.8922,1.1921,1.7199,2.436,2.6121,3.6281c0.7189,0.9609,1.4746,1.8912,2.2125,2.8354c0.6956,0.888,1.3721,1.7913,2.0844,2.6666
				c0.7613,0.9362,1.5594,1.8404,2.341,2.7598c0.7259,0.854,1.4339,1.722,2.1765,2.5621c0.8077,0.9136,1.6511,1.7967,2.479,2.6936
				c0.7535,0.8165,1.4878,1.6471,2.2565,2.4484c0.8458,0.8816,1.7248,1.7341,2.5883,2.5992
				c0.7854,0.7874,1.5543,1.5901,2.3564,2.3636c0.8786,0.8475,1.7905,1.6658,2.687,2.498c0.8201,0.7607,1.625,1.5366,2.4606,2.2847
				c0.9185,0.8217,1.8675,1.6118,2.8037,2.4169c0.8482,0.7295,1.6784,1.473,2.5407,2.1888c0.9434,0.7831,1.9188,1.537,2.8787,2.3036
				c0.887,0.7076,1.7574,1.4303,2.6574,2.1242c0.9646,0.7447,1.9597,1.4592,2.9408,2.1874c0.9261,0.6881,1.8367,1.39,2.7768,2.0631
				c1.0205,0.7316,2.0718,1.4342,3.1088,2.1494c0.9288,0.6411,1.8422,1.2959,2.7839,1.9233
				c1.0392,0.6934,2.1077,1.3568,3.1633,2.0338c0.9678,0.6216,1.9215,1.257,2.9023,1.865c1.0525,0.6519,2.1305,1.274,3.197,1.9109
				c1.0095,0.6032,2.0075,1.2213,3.0299,1.8109c1.0832,0.623,2.1922,1.2187,3.2881,1.8268
				c1.0326,0.5737,2.0523,1.1609,3.0977,1.7209c1.1643,0.6231,2.3555,1.2177,3.5349,1.8245
				c1.0003,0.5153,1.9877,1.0443,2.9984,1.5474c1.2278,0.6095,2.48,1.1905,3.7216,1.7824c0.9881,0.4706,1.9621,0.9576,2.9595,1.4174
				c1.1495,0.5293,2.3222,1.0302,3.4833,1.546c1.1099,0.4918,2.2084,0.9996,3.33,1.4779c0.0169,0.0063,0.0306,0.0192,0.0476,0.0268
				c0.0196,0.0086,0.0414,0.012,0.0758-0.002c0.9667,0.39,1.3573,0.5477,2.3229,0.939l0.7135,2.6556l0,0l7.9572,29.6112
				l2.7703,10.3059l4.4164,16.4338l4.2502,15.8133c0.2168,0.8028,0.4994,1.5715,0.8437,2.3026
				c0.3443,0.7311,0.7477,1.4235,1.2047,2.0712c0.3563,0.506,0.7542,0.976,1.1708,1.4255c0.1187,0.129,0.2315,0.2635,0.3549,0.3871
				c0.3165,0.3153,0.6505,0.6115,0.9949,0.8943c0.1093,0.0892,0.2219,0.1705,0.3336,0.257c0.2488,0.1913,0.5009,0.376,0.7611,0.55
				c0.1294,0.0864,0.26,0.1714,0.3929,0.2538c0.2658,0.166,0.5372,0.3201,0.8143,0.4674c0.1254,0.0665,0.2471,0.1357,0.3734,0.1982
				c0.4012,0.1974,0.8103,0.3816,1.2302,0.5409c0.0025-0.0002,0.0039,0.001,0.0065,0.0021c0.4198,0.158,0.8503,0.2912,1.2872,0.4086
				c0.137,0.0364,0.2772,0.0651,0.4152,0.0976c0.3082,0.0741,0.6208,0.1377,0.9363,0.1897c0.1577,0.026,0.3178,0.0493,0.4776,0.0701
				c0.3184,0.0403,0.6396,0.0679,0.9626,0.0864c0.1462,0.0079,0.2903,0.021,0.4375,0.025c0.4644,0.0129,0.9313,0.0078,1.4034-0.0281
				c0.0025-0.0002,0.005-0.0004,0.0076-0.0006l44.9557-3.4177c6.6299-0.504,11.9647-5.6531,12.702-12.261l2.2907-20.5209
				l2.2907-20.5209c0.0417-0.3679,0.1185-0.7232,0.2269-1.0632c0.0103-0.0312,0.0273-0.0577,0.0377-0.0877
				c0.7824-2.3173,3.0385-3.9058,5.5715-3.7172c1.2493,0.0937,2.5044,0.1628,3.7566,0.2437
				c1.1376,0.0731,2.2747,0.1563,3.4155,0.2203c2.3602,0.1308,4.7225,0.2399,7.0898,0.3309
				c0.0153,0.0014,0.0306,0.0027,0.0471,0.0027c5.1752,0.1979,10.3668,0.2959,15.5688,0.2968
				c0.0557-0.0005,0.1103,0.0017,0.166,0.0013c2.3717-0.0005,4.7465-0.0278,7.1213-0.0703
				c0.2668-0.0051,0.5316-0.0037,0.7984-0.0088c2.6147-0.0519,5.2302-0.1279,7.8462-0.2292
				c5.1095-0.1998,10.2195-0.4933,15.3248-0.8814c3.8186-0.2903,7.6143-0.632,11.382-1.0248
				c2.5114-0.2618,5.0053-0.5541,7.4918-0.8608c0.6247-0.0779,1.2481-0.1556,1.8714-0.236
				c2.4743-0.3173,4.9411-0.6492,7.3904-1.0114c0.0125-0.0022,0.0238-0.0031,0.0363-0.0053
				c2.4493-0.3622,4.8823-0.7561,7.3055-1.1632c0.6077-0.1019,1.2152-0.2051,1.8214-0.3107
				c2.4234-0.4197,4.8383-0.8528,7.233-1.3172c0.3194-0.0623,0.6379-0.0878,0.9528-0.0927c0.1479-0.0037,0.2908,0.0108,0.4371,0.02
				c0.1515,0.01,0.3016,0.0201,0.4502,0.0417c0.1959,0.0281,0.3851,0.0682,0.5749,0.1158c0.0775,0.0195,0.1526,0.0416,0.2291,0.0649
				c0.793,0.2373,1.5305,0.627,2.1399,1.1808c0.2244,0.2032,0.4254,0.4324,0.6146,0.6725c0.0561,0.0717,0.1061,0.1464,0.1586,0.2209
				c0.1319,0.1862,0.2505,0.3811,0.3598,0.5856c0.0443,0.0827,0.0895,0.1616,0.129,0.2473
				c0.1331,0.2849,0.2519,0.5811,0.3366,0.8962l0.0001,0.0013l10.1998,37.892c0.4323,1.6058,1.1342,3.077,2.0483,4.3738
				c0.6855,0.9724,1.4903,1.8469,2.3886,2.6042c0.5994,0.5052,1.2405,0.9592,1.9164,1.3561c0.6747,0.397,1.3857,0.738,2.1236,1.0162
				c1.8448,0.6968,3.859,1.0071,5.9313,0.8496l44.9557-3.4177c0.0025-0.0002,0.005-0.0004,0.0075-0.0006
				c0.4708-0.037,0.9343-0.1027,1.3916-0.1843c0.1436-0.0261,0.2854-0.0597,0.4287-0.0909
				c0.3166-0.0671,0.6299-0.1428,0.9385-0.2309c0.1549-0.0447,0.3096-0.0919,0.4628-0.1415
				c0.3041-0.0978,0.6033-0.2092,0.8969-0.3278c0.1315-0.053,0.2657-0.1025,0.3956-0.1592c0.4118-0.1807,0.816-0.3761,1.2058-0.5957
				c0.0061-0.003,0.011-0.0059,0.0171-0.0089c0.3898-0.2196,0.7652-0.4622,1.1294-0.7178c0.1154-0.0809,0.2266-0.1679,0.3392-0.2524
				c0.2505-0.1862,0.4953-0.3808,0.7331-0.5837c0.1188-0.1027,0.2363-0.2067,0.3523-0.313c0.2296-0.2112,0.451-0.4307,0.6667-0.6572
				c0.0961-0.1023,0.1962-0.2011,0.2908-0.3058c0.2977-0.3316,0.5832-0.6736,0.8483-1.0344
				c0.2341-0.3179,0.4548-0.6462,0.6608-0.9848c0.2062-0.336,0.3976-0.6824,0.5745-1.0377s0.3392-0.7184,0.4857-1.0905
				c0.1465-0.3721,0.2772-0.7517,0.3921-1.1391c0.2298-0.7747,0.3942-1.5773,0.4858-2.4036l8.056-70.161
				c0.0426-0.3717,0.1345-0.7295,0.2497-1.0789c0.034-0.1026,0.0759-0.2008,0.1164-0.3014c0.0999-0.252,0.2183-0.494,0.3538-0.7272
				c0.0536-0.094,0.1035-0.1877,0.1638-0.2771c0.2011-0.3027,0.4234-0.5932,0.6822-0.8534
				c0.2883-0.2891,0.6093-0.5478,0.9595-0.7707c1.6029-1.0184,3.1813-2.0602,4.7487-3.1139
				c0.4638-0.3113,0.9235-0.6286,1.3845-0.9435c1.1627-0.7962,2.3184-1.6021,3.4667-2.4201
				c0.4396-0.3133,0.8807-0.6241,1.3176-0.941c1.5182-1.0993,3.023-2.2103,4.5032-3.3434c1.6442-1.2583,3.2641-2.5376,4.8594-3.8391
				c3.1921-2.6018,6.2853-5.2872,9.2773-8.0561c2.9919-2.7689,5.8826-5.6213,8.6667-8.558
				c1.3928-1.4684,2.7585-2.9576,4.0975-4.4675c0.0023-0.0027,0.0058-0.0067,0.0081-0.0095
				c1.2013-1.3551,2.3743-2.7321,3.5312-4.1205c0.3447-0.4124,0.6827-0.8307,1.0234-1.2466
				c0.8435-1.0303,1.6761-2.0712,2.4954-3.1212c0.3358-0.4308,0.6755-0.8593,1.0071-1.2935
				c1.0955-1.4306,2.1761-2.8728,3.2261-4.3366c0.0091-0.0134,0.0195-0.0268,0.0286-0.0402
				c1.0488-1.4625,2.0667-2.948,3.0698-4.4438c0.2945-0.4403,0.5836-0.8852,0.8753-1.329c0.7399-1.1275,1.4664-2.2642,2.1797-3.4087
				c0.2844-0.456,0.5714-0.9121,0.8517-1.3716c2.9319-4.8081,5.6312-9.7784,8.0866-14.9074
				c0.166-0.3482,0.3333-0.6965,0.4979-1.0458c0.7565-1.6087,1.4917-3.231,2.2003-4.8703c0.1118-0.2617,0.2196-0.5257,0.3314-0.7875
				c0.6488-1.5271,1.278-3.0615,1.8824-4.6055c0.1081-0.2767,0.2215-0.5512,0.3282-0.8291
				c0.6474-1.6777,1.2669-3.3735,1.8639-5.0815c0.13-0.372,0.2572-0.7477,0.3857-1.1221c1.207-3.5285,2.3076-7.1236,3.2994-10.7838
				c0.1474-0.5431,0.288-1.0919,0.4301-1.6384c0.3568-1.3706,0.6979-2.7465,1.0224-4.1248c0.1311-0.557,0.2648-1.113,0.3907-1.6734
				c2.3083-10.245,3.7962-20.9722,4.3818-32.1917c0.4789-9.1575,0.3622-18.6382-0.383-28.4409
				c-0.1472-1.9351-0.3218-3.8491-0.5107-5.7519c-0.1183-1.1737-0.2521-2.3336-0.3859-3.4935
				c-0.0724-0.6353-0.1412-1.2746-0.2183-1.9056c-0.1878-1.5205-0.39-3.031-0.604-4.5305
				c-0.0227-0.1654-0.0454-0.3308-0.0693-0.4949c-0.0051-0.0338-0.0089-0.0664-0.0139-0.099
				c-0.2421-1.6683-0.4996-3.324-0.7739-4.9658c-0.0001-0.0012-0.0002-0.0025-0.0002-0.0038
				c-1.1287,67.8375-34.1617,118.616-85.9682,151.5475c-1.4023,0.8917-2.3369,2.357-2.5267,4.0074l-8.0559,70.1609
				c-0.7386,6.6079-6.0721,11.757-12.7021,12.261l-44.9557,3.4177c-6.6299,0.504-12.6818-3.7794-14.4096-10.1999l-10.1998-37.8921
				c-0.7533-2.7957-3.5412-4.506-6.384-3.9555c-14.3721,2.7856-29.2549,4.7668-44.5331,5.9283
				c-20.4212,1.5525-40.9307,1.5947-61.0708,0.0993c-2.9596-0.2208-5.5705,1.9139-5.8997,4.8628l-4.5827,41.0419
				c-0.7386,6.608-6.0721,11.757-12.7021,12.261l-32.4058,2.4636c-8.0262,0.6102-15.2029-4.9617-16.6096-12.8881
				c-1.8294-10.3053-4.5738-24.835-7.7231-38.4095c-4.4166-19.0359-16.0556-35.4993-32.2828-46.3879
				c-13.7639-9.2359-26.1635-19.8798-36.8362-31.9619c-8.7163-9.8665-20.1272-16.9666-32.9323-20.0199l0,0
				c-28.1993-7.2331-48.6571-31.6292-50.864-60.6583l-1.7764-23.3661l-19.3798,7.8719c-4.0032,1.6263-7.4416,4.1531-10.1288,7.2826
				c-0.0339,0.038-0.0623,0.0807-0.096,0.12c-1.5515,1.8287-2.8365,3.8651-3.8423,6.0411
				C53.0475,328.4659,52.7916,329.0805,52.5609,329.7108z"/>
			<path class="st0" d="M170.2737,256.1153c-30.2069-14.2021-48.3321-120.9148-30.0841-132.3147
				c14.5718-9.1032,75.5473,11.9303,99.5245,20.7747c6.2406,2.3026,11.1404,7.3574,13.0011,13.7437
				C279.6324,250.6925,199.451,269.8334,170.2737,256.1153z"/>
			<path class="st0" d="M144.2462,307.4667c-0.3997-5.2576,3.5381-9.8434,8.7957-10.2431
				c5.2576-0.3997,9.8434,3.5381,10.2431,8.7957c0.5067,6.6652,6.3414,11.6743,13.0067,11.1676
				c6.664-0.5066,11.6744-6.3402,11.1677-13.0054c-0.3997-5.2577,3.5381-9.8434,8.7957-10.2431
				c5.2576-0.3997,9.8434,3.5381,10.2431,8.7957c1.3048,17.1629-11.5974,32.1882-28.7603,33.493
				C160.5737,337.532,145.5485,324.6298,144.2462,307.4667z"/>
			<path class="st0" d="M299.3314,203.7616c-2.0461-4.8602,0.2344-10.4584,5.0946-12.5045
				c54.3924-22.9015,115.8638-27.5748,173.0932-13.1591c5.1137,1.2878,8.2143,6.4769,6.9264,11.5906
				c-1.2865,5.1136-6.477,8.213-11.5893,6.9263c-53.2363-13.4099-110.422-9.0625-161.0192,12.2412
				c-0.9755,0.411-1.9807,0.647-2.9816,0.7231C304.8733,209.882,300.9677,207.6463,299.3314,203.7616z"/>
			<path class="st1" d="M225.9215,228.1912c0.7813,2.3314,3.7641,3.0404,5.4446,1.2437c1.4427-1.5431,2.7673-3.176,3.9574-4.8937
				c10.1781-14.6954,11.5425-36.2412,3.9477-62.3041c-0.5927-2.0329-2.2396-3.7249-4.4035-4.5227
				c-39.6295-14.6203-72.4591-23.078-85.6737-22.0733C140.5823,136.2957,208.6049,176.4881,225.9215,228.1912z"/>
		</g>
	</g>
</g>
<g id="Capa_3">
	<path class="st2" d="M1155.5334,351.0603l-631.8905,52.2942c-40.7827,3.3751-75.8251-26.3021-74.1653-62.8102l5.6876-125.0994
		c1.3545-29.7911,27.0578-53.9431,60.3373-56.6955l638.0416-52.77c27.655-2.196,51.2841,17.8714,50.1611,42.5687l-7.4771,164.4579
		C1195.3231,332.9171,1178.0065,349.2043,1155.5334,351.0603"/>
	<path class="st2" d="M1354.0914,592.528l-801.9211,51.1429c-51.7566,3.3008-97.1381-24.6476-96.0473-59.1513l3.7375-118.2312
		c0.89-28.1555,32.8947-51.0487,75.1291-53.7406l809.7283-51.6093c35.0991-2.1507,65.7013,16.7479,64.9635,40.0893l-4.9135,155.4288
		C1404.1731,575.2745,1382.6117,590.7128,1354.0914,592.528"/>
	<path class="st3" d="M637.9091,318.8585c0.5338,4.9375-1.0132,9.0991-4.1893,12.971c-3.4099,3.8615-7.2236,5.8385-11.9249,6.3804
		c-3.2901,0.3559-6.0805-0.2077-8.8391-1.7044c-2.7584-1.5014-5.0172-3.92-7.0021-7.4998l-11.4421-21.4633l-67.415,6.3604
		l-7.3551,23.3991c-1.0632,3.7076-3.0301,6.4524-5.4486,8.7112c-2.4105,2.0225-5.2568,3.096-8.5469,3.4519
		c-4.7013,0.5418-9.1048-0.7793-13.2105-3.9633c-4.1137-2.9502-6.3167-7.0034-6.8504-11.9409
		c-0.1461-2.5782,0.1837-5.3789,0.9891-8.3929l42.9176-125.4395c1.313-4.1673,3.7715-7.5954,7.1336-10.0585
		c3.362-2.4607,7.1598-3.9699,11.3853-4.2939c4.2255-0.3216,8.1853,0.2796,11.8713,2.0445
		c3.6859,1.7649,6.8641,4.6854,8.8411,8.4968l66.3173,114.8883C636.6816,313.6654,637.5291,316.2723,637.9091,318.8585
		 M537.0779,282.1666l41.3441-3.9729L552.8832,230.73L537.0779,282.1666z"/>
	<path class="st3" d="M738.9811,225.1438c6.5424,7.2476,10.6024,18.625,12.1639,34.6021l4.6848,47.9219
		c0.5099,5.6368-0.5854,10.2821-3.7454,13.6863c-2.9342,3.646-7.2157,5.607-13.0863,6.1089
		c-5.6367,0.5098-10.2822-0.583-13.9281-3.5196c-3.646-2.9342-5.607-7.2157-6.3507-12.8604l-4.6528-48.8597
		c-1.0437-10.5719-5.7872-15.6485-14.4802-14.7747c-5.4028,0.5155-9.7003,2.9442-12.6425,6.8241
		c-2.9502,4.1137-4.0614,9.2268-3.3416,15.5731l4.3527,43.935c0.5099,5.6344-0.5853,10.2797-3.7454,13.6839
		c-2.9343,3.6483-7.2157,5.607-13.0862,6.1089c-5.6368,0.5122-10.2821-0.5853-13.9281-3.5196
		c-3.646-2.9342-5.607-7.2157-6.3508-12.8581l-11.9587-122.8653c-0.5259-5.1667,0.7952-9.5725,3.9633-13.2082
		c3.1682-3.6404,7.4576-5.8352,13.0944-6.3451c5.4028-0.5179,9.8143,0.5694,13.4603,3.5036c3.6539,2.7027,5.623,6.748,6.1488,11.917
		l4.3369,44.4004c3.232-5.509,7.3594-9.8142,12.6243-13.1465c5.257-3.1007,11.4174-5.2317,18.2234-5.7016
		C723.4137,214.7782,732.4386,217.8961,738.9811,225.1438"/>
	<path class="st3" d="M799.3624,315.0082c-9.001-3.8195-16.0511-9.9138-21.6262-18.0626
		c-5.3411-8.1455-8.7555-17.8595-9.7593-29.6007c-1.0117-11.5097,0.2753-21.7678,4.0948-30.7688
		c3.8195-9.001,9.68-16.0591,17.5972-21.6421c7.9093-5.3492,17.6176-8.5296,28.8991-9.7832
		c11.2734-1.0197,21.2977,0.2616,30.2986,4.0811c8.767,3.8115,16.0591,9.6776,21.4003,17.8208
		c5.3412,8.1431,8.7555,17.8595,9.7673,29.3668c1.0118,11.5074-0.2753,21.7679-4.0947,30.7664
		c-3.8195,9.001-9.688,16.2953-17.5972,21.6421c-7.9173,5.583-17.6257,8.7635-28.8992,9.7856
		C818.3796,320.3406,808.3633,318.8278,799.3624,315.0082 M843.6093,260.3263c-1.7156-18.3214-9.1536-26.7703-22.306-25.5806
		c-13.1525,1.1921-18.8748,11.0622-16.9254,29.3916c1.7155,18.3214,9.1535,26.7703,22.306,25.5806
		C839.8442,288.2944,845.5587,278.6558,843.6093,260.3263"/>
	<path class="st3" d="M967.592,195.0217c2.9603,2.4425,4.7034,6.2506,5.2213,11.6512c0.5019,5.8706-0.3516,10.2924-2.5602,13.2608
		c-2.2086,2.966-6.7319,5.1529-13.3281,6.3324l-6.1285,1.1979c-6.8459,1.6369-11.6192,4.2859-14.1016,8.4132
		c-2.7163,4.1217-3.5936,9.2428-2.8819,15.823l3.625,37.8225c0.494,6.1021-0.8351,10.7395-3.9952,14.1436
		c-3.1601,3.4041-7.4417,5.3675-12.6107,5.8933c-5.1689,0.5235-9.8143-0.5717-13.4683-3.272
		c-3.8879-2.706-6.0827-6.9978-6.5767-13.1023l-7.444-76.8176c-0.5099-5.6344,0.8112-10.0403,3.9792-13.6759
		c3.1601-3.4041,7.2078-5.3755,12.3767-5.899c5.169-0.5258,9.3467,0.5511,12.7667,3.2457c3.4202,2.69,5.3892,6.74,5.915,11.909
		l0.324,4.2256c1.6349-6.7365,4.6251-12.0196,9.446-16.067c4.5872-4.0578,9.8203-6.4569,15.231-7.2063l2.8304-0.6081
		C960.6718,191.978,964.3978,192.5712,967.592,195.0217"/>
	<path class="st3" d="M1054.0387,186.7363c2.9603,2.4425,4.7034,6.2506,5.2213,11.6512c0.502,5.8706-0.3514,10.2901-2.5602,13.2608
		c-2.2086,2.966-6.7319,5.1529-13.328,6.3324l-6.1285,1.1979c-6.8459,1.6369-11.6193,4.2859-14.1016,8.4132
		c-2.7163,4.1217-3.5936,9.2428-2.8819,15.823l3.6251,37.8201c0.4938,6.1045-0.8353,10.7419-3.9953,14.146
		c-3.1602,3.4041-7.4416,5.3651-12.6107,5.8933c-5.1689,0.5235-9.8142-0.5717-13.4682-3.2721
		c-3.8879-2.7083-6.0828-6.9978-6.5767-13.1023l-7.444-76.8176c-0.5099-5.6368,0.8112-10.0403,3.9792-13.6783
		c3.1602-3.4041,7.2077-5.3731,12.3767-5.8966c5.1691-0.5282,9.3467,0.5511,12.7668,3.2434c3.4202,2.6924,5.389,6.7423,5.915,11.909
		l0.3238,4.2279c1.6326-6.7366,4.6251-12.0196,9.4462-16.067c4.8212-4.0522,9.8202-6.4569,15.2286-7.2088l2.8328-0.6057
		C1047.3605,183.4644,1051.0784,184.2938,1054.0387,186.7363"/>
	<path class="st3" d="M1148.4225,185.9785c8.1796,7.3035,13.1589,19.1806,14.9385,35.6311l4.5067,46.2816
		c0.5099,5.6367-0.5853,10.2821-3.2777,13.7022c-2.6923,3.4201-6.9738,5.3788-12.3846,6.1328
		c-4.9352,0.5338-8.879-0.5374-12.2991-3.2298c-3.4202-2.6924-5.397-6.5085-6.1648-11.4492
		c-1.3611,5.5728-4.3192,9.9204-8.4148,13.2926c-4.3295,3.3642-9.5463,5.2932-15.8926,6.0107
		c-7.048,0.6982-13.5723-0.2271-19.5729-2.7735c-6.0007-2.5464-10.792-6.2221-14.5999-11.2714
		c-3.8081-5.0446-5.947-10.9712-6.6508-17.7876c-0.6719-7.7472,0.4872-14.2635,3.937-19.2967
		c3.45-5.0356,8.9727-9.0591,17.028-11.8277c8.0552-2.7687,19.1349-4.9681,33.2307-6.3573l5.6367-0.5099l-0.146-2.5805
		c-0.5259-5.1691-2.0431-8.733-4.3099-10.9176c-2.5006-2.1926-6.2264-2.7882-11.3955-2.2624
		c-5.6367,0.5099-13.7,3.5124-24.1738,8.5398c-3.0962,1.5332-5.7006,2.3785-7.8134,2.5428
		c-3.524,0.3479-6.2985-0.6834-8.5573-3.1019c-2.2588-2.4185-3.7838-5.7509-4.1-10.208c-0.3558-3.2901-0.0261-6.0885,0.9813-8.1613
		c1.0073-2.0728,2.9501-4.1137,5.3606-6.1386c4.5554-3.1247,10.5059-5.9629,17.6096-8.2958
		c7.1039-2.3328,14.1758-3.7303,21.2238-4.4261C1127.9359,175.6815,1140.009,178.667,1148.4225,185.9785 M1126.5272,258.0501
		c2.7162-4.1217,3.8195-9.0009,3.3256-15.1054l-0.146-2.5828l-3.2902,0.3582c-8.9268,0.8658-15.0632,2.2951-18.6431,4.2801
		c-3.58,1.985-5.0869,4.9749-4.755,8.969c0.3558,3.2901,1.6632,6.1444,3.7041,8.0872c2.2747,1.9508,4.8153,2.9742,8.1053,2.6182
		C1119.9891,264.3827,1123.8108,262.1718,1126.5272,258.0501"/>
	<g>
		<path class="st3" d="M789.3912,558.4324c-10.4161-9.0919-16.0646-21.916-16.9466-38.4688
			c-0.58-10.8922,1.3109-20.6407,5.6773-29.246c4.364-8.603,10.7781-15.3987,19.2387-20.3917
			c8.4595-4.9901,18.276-7.7844,29.4542-8.3799c5.9425-0.3165,11.9254,0.1458,17.9509,1.3842
			c6.0255,1.2423,11.373,3.1552,16.0541,5.7424c4.5266,2.4559,6.941,6.4406,7.235,11.9582
			c0.2341,4.3871-0.6041,8.0127-2.5054,10.8807c-1.9059,2.8686-4.4863,4.3889-7.7388,4.5624
			c-2.1226,0.113-4.1911-0.0963-6.2054-0.6272c-2.0165-0.5309-4.2591-1.3692-6.7311-2.5135
			c-2.8997-1.123-5.3544-1.9503-7.3687-2.4812c-2.0165-0.5309-4.2245-0.7327-6.6285-0.6047
			c-14.0076,0.7466-20.5531,9.6816-19.6411,26.7982c0.452,8.4883,2.6011,14.8649,6.4452,19.1292
			c3.8452,4.2649,9.1628,6.2158,15.955,5.8537c2.404-0.128,4.6143-0.5656,6.6343-1.3109c2.0142-0.7454,4.2649-1.8229,6.7438-3.2324
			c2.7614-1.424,5.0074-2.502,6.7438-3.2324c1.7341-0.731,3.663-1.1536,5.7856-1.2666c3.2526-0.1729,5.9783,1.0648,8.1782,3.715
			c2.1964,2.649,3.4152,6.169,3.6492,10.5527c0.143,2.6888-0.294,5.1602-1.3086,7.412c-1.017,2.2552-2.4835,3.9997-4.4033,5.2363
			c-9.4441,6.4619-21.1711,10.0662-35.1776,10.8127C813.5048,571.6191,799.805,567.5272,789.3912,558.4324z"/>
		<path class="st3" d="M972.4542,459.2935c3.5616,2.9326,5.4859,7.0863,5.7719,12.4615l3.9121,73.4273
			c0.264,4.9538-1.2902,9.1138-4.6546,12.4851c-3.369,3.3725-7.8818,5.2092-13.5396,5.5107
			c-5.0927,0.2709-9.3415-0.8861-12.7416-3.4717c-3.4025-2.585-5.2991-6.2083-5.6865-10.8698
			c-2.985,5.2668-6.9156,9.3795-11.7939,12.3335c-4.8795,2.9534-10.574,4.6068-17.0803,4.9538
			c-13.4427,0.716-23.6132-2.4662-30.5161-9.5473c-6.9041-7.0811-10.7585-18.1884-11.5656-33.3293l-2.4421-45.8381
			c-0.2859-5.3752,1.1841-9.7099,4.4148-13.0045c3.2296-3.2912,7.7423-5.0945,13.5453-5.4035
			c5.7995-0.309,10.483,1.0042,14.0434,3.9334c3.5604,2.9326,5.4847,7.0862,5.7707,12.4615l2.487,46.6879
			c0.543,10.1866,5.2,15.0464,13.973,14.5789c5.0939-0.2715,9.1662-2.3307,12.2263-6.1852
			c3.0566-3.8504,4.4274-8.7483,4.1115-14.6902l-2.2391-42.0194c-0.2859-5.3752,1.1853-9.7099,4.4148-13.0045
			c3.2307-3.2912,7.7435-5.0945,13.5464-5.4035C964.2115,455.0511,968.8938,456.3644,972.4542,459.2935z"/>
		<path class="st3" d="M1087.8186,525.5055c2.1848,2.438,3.3885,5.7084,3.6077,9.8102c0.3009,5.6606-2.2264,10.1221-7.5867,13.3873
			c-4.6835,2.6628-10.2697,4.9821-16.761,6.9583c-6.4913,1.975-12.4972,3.113-18.0143,3.407
			c-11.6024,0.618-21.8352-1.0348-30.6982-4.9625c-8.8642-3.923-15.8478-9.8661-20.9544-17.8246
			c-5.1066-7.9544-7.9532-17.4527-8.5413-28.4885c-0.558-10.468,1.1726-19.9611,5.1862-28.4742
			c4.017-8.5136,9.8972-15.2822,17.6476-20.3075c7.7446-5.0212,16.6423-7.8034,26.6894-8.3384
			c9.7623-0.5206,18.4327,1.1461,26.0171,4.9982c7.5808,3.8527,13.5983,9.564,18.0454,17.1282
			c4.447,7.5682,6.949,16.5851,7.5071,27.0542c0.1741,3.256-0.4347,5.8053-1.8275,7.6518
			c-1.3916,1.8505-3.5028,2.8473-6.3311,2.9983l-56.0259,2.9851c1.3513,6.738,3.8048,11.5022,7.3584,14.2919
			c3.5546,2.7902,8.6543,4.0089,15.3058,3.6544c3.5339-0.1885,6.7704-0.7506,9.7001-1.688c2.9298-0.9339,6.1938-2.2085,9.7981-3.821
			c2.0778-0.961,4.1232-1.8154,6.142-2.5613c2.0154-0.7454,3.8752-1.1639,5.5736-1.255
			C1082.9092,521.9364,1085.6301,523.0687,1087.8186,525.5055z M1029.1823,481.4908c-2.8005,3.3413-4.3248,8.0709-4.5646,14.1823
			l33.3177-1.775c-1.5115-12.4027-7.2223-18.344-17.1229-17.8159C1035.858,476.3456,1031.9829,478.1483,1029.1823,481.4908z"/>
		<path class="st3" d="M1118.7682,553.2261c-6.5847-1.0665-12.4362-3.0255-17.552-5.8756c-2.0361-0.882-3.6814-2.4974-4.9393-4.8443
			c-1.2626-2.3434-1.9694-5.0022-2.1284-7.9734c-0.2029-3.8204,0.6537-7.0217,2.5746-9.6084
			c1.9186-2.5827,4.4332-3.9605,7.5475-4.126c2.1227-0.1136,4.1162,0.03,5.9817,0.4255c1.8644,0.4001,4.1715,1.0913,6.9214,2.0788
			c4.6085,1.3179,8.6681,2.3054,12.1824,2.9689c3.5098,0.6647,7.9521,0.8532,13.332,0.5667
			c3.8187-0.2035,6.7957-0.8936,8.9333-2.0725c2.1354-1.1777,3.1522-2.7545,3.0474-4.737c-0.083-1.556-0.6792-2.7314-1.7837-3.5229
			c-1.1069-0.7927-3.1672-1.4972-6.1788-2.1187c-3.0128-0.6174-8.094-1.4476-15.2426-2.4864
			c-12.722-1.7329-22.0046-4.8933-27.8527-9.4764c-5.8502-4.5826-9.0105-11.3316-9.4856-20.2447
			c-0.347-6.5057,1.3571-12.4851,5.1101-17.9359c3.7529-5.4473,9.0854-9.8482,16.0034-13.1965
			c6.9144-3.3477,14.7571-5.2559,23.5302-5.7234c6.3667-0.339,12.5963,0.1107,18.6934,1.345
			c6.0958,1.2389,11.5541,3.1459,16.3735,5.7252c4.5197,2.3134,6.9329,6.3016,7.235,11.9582
			c0.2109,3.9628-0.6722,7.3451-2.6508,10.144c-1.9808,2.8029-4.5289,4.2851-7.6385,4.4505
			c-3.6803,0.196-8.1273-0.7708-13.3503-2.9067c-3.4763-1.3744-6.5468-2.3809-9.2043-3.0208
			c-2.6611-0.6364-5.7592-0.8636-9.2942-0.6751c-3.5386,0.1885-6.2688,0.8653-8.192,2.0327
			c-1.9254,1.1662-2.8329,2.7412-2.7279,4.7209c0.1211,2.2645,1.5934,3.9582,4.4216,5.0841
			c2.826,1.1265,8.3811,2.2512,16.671,3.3684c13.8521,1.6765,23.7377,4.8005,29.6571,9.3801
			c5.9183,4.5797,9.1237,11.4682,9.6136,20.6632c0.5511,10.329-3.2917,18.7971-11.5206,25.4072
			c-8.2335,6.6107-19.5638,10.3008-33.9946,11.0693C1133.3811,554.5751,1125.3494,554.2909,1118.7682,553.2261z"/>
		<path class="st3" d="M1278.3208,532.541c0.264,4.9532-1.4492,8.7327-5.1411,11.3408c-3.6919,2.6075-9.0867,3.8884-16.1821,3.8412
			l-5.9656-0.1078c-12.7843-0.3096-22.6481-3.6509-29.5833-10.0217c-6.9376-6.3679-10.7263-15.5665-11.3673-27.5933l-2.0005-37.5626
			l-6.1547,0.328c-11.3199,0.603-17.2256-3.7639-17.7236-13.1014c-0.49-9.1956,4.9221-14.0958,16.2421-14.6989l6.1547-0.328
			l-0.7356-13.7938c-0.2859-5.3752,1.1841-9.7473,4.4091-13.1112c3.2261-3.3644,7.7377-5.2011,13.5394-5.5101
			c5.7996-0.309,10.4854,1.0377,14.0492,4.0401c3.5651,3.0018,5.4905,7.1929,5.7765,12.5681l0.7356,13.7943l11.6729-0.622
			c11.3165-0.603,17.222,3.6936,17.7122,12.8898c0.498,9.3369-4.9141,14.3074-16.2306,14.9104l-11.6729,0.6215l2.171,40.7465
			c0.1429,2.6888,1.0758,4.91,2.8018,6.6602c1.7225,1.7543,3.866,2.634,6.4187,2.6375l6.1777,0.0969
			C1272.9307,520.6284,1277.8989,524.6188,1278.3208,532.541z"/>
		<path class="st3" d="M1366.7712,445.5205c8.1194,7.3024,12.5999,18.8023,13.4369,34.506l2.3624,44.3531
			c0.2871,5.3787-1.0803,9.6713-4.1023,12.8817c-3.0208,3.2134-7.3629,4.9683-13.0195,5.2698
			c-4.9543,0.264-9.0958-0.9328-12.428-3.595c-3.3345-2.6582-5.2726-6.3864-5.811-11.1828
			c-1.7111,5.1994-4.8218,9.3386-9.3416,12.4159c-4.5173,3.0773-10.0332,4.7913-16.5385,5.1377
			c-7.2153,0.3845-13.8024-0.7212-19.7563-3.3102c-5.9575-2.5891-10.7343-6.3777-14.3328-11.3667
			c-3.5996-4.9861-5.5724-10.7332-5.9194-17.2424c-0.3989-7.4973,1.2256-13.5799,4.8817-18.2431
			c3.6515-4.6644,9.6702-8.2104,18.0535-10.6455c8.3845-2.4317,19.7898-4.0343,34.2218-4.8028l5.7291-0.3055l-0.136-2.5464
			c-0.2629-4.9509-1.5889-8.4612-3.9663-10.536c-2.3809-2.0719-6.2607-2.9655-11.6348-2.679
			c-5.803,0.3096-14.1852,2.7441-25.1501,7.299c-3.196,1.3075-5.924,2.0183-8.1862,2.1388
			c-3.5374,0.1885-6.4348-0.9345-8.6912-3.3679c-2.2576-2.434-3.4971-5.6992-3.715-9.8044
			c-0.166-3.1102,0.3344-5.6906,1.5023-7.7417c1.168-2.0477,3.1223-3.9242,5.8711-5.6335
			c4.8159-2.8104,10.9303-5.1907,18.3485-7.1497c7.4137-1.9543,14.7306-3.1257,21.946-3.5103
			C1346.5237,435.0007,1358.6461,438.2221,1366.7712,445.5205z M1341.13,513.4995c3.0612-3.7807,4.4413-8.5004,4.1404-14.1604
			l-0.1361-2.5464l-3.3955,0.181c-9.0555,0.4825-15.4478,1.6413-19.181,3.4693c-3.7346,1.8321-5.4987,4.6563-5.2946,8.475
			c0.173,3.256,1.3397,5.8883,3.5062,7.9008c2.1619,2.0131,4.8713,2.9327,8.1274,2.7597
			C1333.9907,519.307,1338.0665,517.2806,1341.13,513.4995z"/>
	</g>
	<g>
		<path class="st3" d="M559.3486,556.6315c1.1437,1.2747,1.7733,2.9863,1.8875,5.132c0.158,2.9597-1.1646,5.2933-3.9686,7.0009
			c-2.4478,1.3928-5.3706,2.6063-8.7661,3.6394c-3.3944,1.0331-6.5352,1.628-9.4222,1.7819
			c-6.067,0.3234-11.4203-0.5407-16.0554-2.5953c-4.6373-2.0518-8.29-5.1602-10.9603-9.3225
			c-2.6715-4.1605-4.1588-9.1282-4.4667-14.9c-0.2917-5.4755,0.6134-10.4409,2.713-14.8937
			c2.0996-4.4528,5.1758-7.9931,9.2296-10.6207c4.0516-2.6271,8.705-4.0816,13.9592-4.3611
			c5.1055-0.2722,9.6401,0.5989,13.6087,2.6138c3.964,2.0149,7.1116,5.0016,9.4384,8.9581c2.3244,3.9582,3.6342,8.6751,3.9259,14.15
			c0.09,1.7036-0.2283,3.037-0.9558,4.0026c-0.7287,0.9679-1.8321,1.4891-3.3125,1.5681l-29.302,1.5611
			c0.7056,3.5241,1.9901,6.0163,3.8486,7.4754c1.8598,1.4591,4.5255,2.0961,8.0052,1.9111c1.8483-0.0986,3.5408-0.392,5.072-0.882
			c1.5323-0.4889,3.2399-1.1553,5.1262-1.9987c1.0873-0.5032,2.1561-0.9501,3.2122-1.3398
			c1.0538-0.3903,2.0269-0.6093,2.9147-0.6566C556.7821,554.7648,558.2048,555.3574,559.3486,556.6315z M528.6804,533.6104
			c-1.4643,1.7473-2.2621,4.2216-2.3867,7.4177l17.4262-0.9282c-0.791-6.4867-3.7772-9.594-8.9553-9.3184
			C532.1727,530.9199,530.1458,531.8625,528.6804,533.6104z"/>
		<path class="st3" d="M615.167,518.9836c3.3886,3.7155,5.2957,9.5329,5.7165,17.4499l1.2775,23.9752
			c0.1498,2.8133-0.6203,5.0807-2.3083,6.8021c-1.6891,1.7226-4.0516,2.6646-7.0851,2.826
			c-3.0347,0.1614-5.4825-0.5235-7.3457-2.0569c-1.8609-1.5323-2.8675-3.7051-3.0173-6.5184l-1.2303-23.0869
			c-0.1729-3.2554-0.874-5.592-2.0995-7.0125c-1.2268-1.4182-2.9863-2.0667-5.2795-1.9445
			c-2.9597,0.158-5.2599,1.2262-6.8972,3.2059c-1.6384,1.9791-2.3729,4.5618-2.2034,7.7423l1.1703,21.9771
			c0.1499,2.8133-0.6191,5.0806-2.3094,6.8021c-1.6891,1.7225-4.0504,2.664-7.0839,2.826c-3.0347,0.1614-5.4824-0.524-7.3445-2.0575
			c-1.8632-1.5318-2.8698-3.7046-3.0197-6.5179l-2.0454-38.4048c-0.1384-2.5891,0.6733-4.7664,2.4351-6.5305
			c1.7606-1.7635,4.1208-2.7239,7.0817-2.8819c2.811-0.1493,5.0916,0.5085,6.8395,1.9739c1.7479,1.4648,2.6888,3.4567,2.8225,5.9713
			c1.7733-2.9142,4.1369-5.1907,7.0932-6.8337c2.9551-1.6413,6.2826-2.5608,9.9825-2.7579
			C606.8275,513.5848,611.7784,515.2687,615.167,518.9836z"/>
		<path class="st3" d="M659.3194,565.2742c-1.967-1.4147-3.0312-3.64-3.1937-6.6752l-3.2584-61.159
			c-0.1614-3.0329,0.6595-5.3781,2.4628-7.0326c1.8044-1.6545,4.1116-2.5562,6.9237-2.7061
			c2.8121-0.1499,5.2034,0.5015,7.1739,1.9549c1.9693,1.4533,3.0346,3.6982,3.196,6.7311l3.2584,61.159
			c0.1625,3.0352-0.6595,5.3608-2.4651,6.9767c-1.8068,1.6182-4.1161,2.5014-6.9283,2.6513S661.2875,566.6913,659.3194,565.2742z"/>
		<path class="st3" d="M724.7871,513.3663c4.2465,3.8187,6.5905,9.8338,7.0275,18.0477l1.2371,23.1981
			c0.1499,2.8133-0.5661,5.0582-2.1457,6.7363c-1.5807,1.6811-3.851,2.5989-6.8107,2.7568
			c-2.5908,0.1378-4.7561-0.4883-6.5017-1.8799c-1.7433-1.3905-2.7556-3.3402-3.037-5.8486
			c-0.8959,2.7188-2.5239,4.8835-4.8852,6.493c-2.3636,1.6102-5.2484,2.506-8.6508,2.6871
			c-3.7737,0.2012-7.2189-0.3765-10.3342-1.7307s-5.6139-3.3367-7.4955-5.9454c-1.884-2.6075-2.9148-5.6139-3.0958-9.0181
			c-0.2098-3.9219,0.6399-7.103,2.5527-9.5421c1.9094-2.4397,5.0582-4.2937,9.443-5.5684
			c4.3836-1.2712,10.3503-2.1094,17.8989-2.5118l2.9966-0.1597l-0.0715-1.3323c-0.1372-2.5891-0.8301-4.4252-2.0754-5.5107
			c-1.2452-1.0827-3.2733-1.5502-6.0843-1.4009c-3.0358,0.162-7.4194,1.4354-13.1544,3.8181
			c-1.6707,0.6837-3.0992,1.0549-4.2822,1.1183c-1.8506,0.0986-3.3644-0.4888-4.5451-1.7617
			c-1.1807-1.2723-1.8286-2.9805-1.9427-5.1279c-0.0865-1.6269,0.1741-2.9764,0.7852-4.0493
			c0.6122-1.0699,1.6338-2.0517,3.0716-2.9459c2.5181-1.47,5.7153-2.7153,9.5963-3.7397c3.8787-1.0221,7.7043-1.6344,11.478-1.8356
			C714.1981,507.8642,720.5372,509.5487,724.7871,513.3663z M711.3755,548.9203c1.6015-1.9767,2.3245-4.4453,2.1665-7.4062
			l-0.0704-1.3311l-1.7767,0.0951c-4.7365,0.252-8.0801,0.8578-10.0321,1.8137c-1.9532,0.9581-2.8767,2.4351-2.7706,4.4332
			c0.0911,1.7036,0.7033,3.079,1.8344,4.1323c1.131,1.0527,2.5481,1.5334,4.2522,1.4424
			C707.6422,551.9578,709.7729,550.8988,711.3755,548.9203z"/>
	</g>
	<g>
		<g>
			<path class="st2" d="M1685.4968,402.341h73.1519c8.037-0.0026,14.5504-6.5193,14.5479-14.5564
				c-0.0009-4.1217-1.7505-8.049-4.8124-10.8081l-145.5184-130.9655c-5.3341-4.7893-13.361-4.9812-18.9176-0.451l-160.0697,130.9663
				c-6.2201,5.0886-7.1375,14.2563-2.049,20.4771c2.7566,3.3697,6.8774,5.3282,11.2311,5.3376h72.5115
				c-3.7396,114.9596-52.881,186.6995-149.8839,219.0343c-5.9344,1.9833-9.9359,7.5383-9.9385,13.795
				c-0.0026,0.7844,0.0614,1.5688,0.1893,2.3431c1.1484,7.0394,7.2295,12.209,14.3628,12.209
				C1551.6639,649.7216,1677.5519,546.5643,1685.4968,402.341z"/>
		</g>
	</g>
</g>
<g id="Capa_2">
	<g>
		
			<ellipse transform="matrix(0.993 -0.1177 0.1177 0.993 -9.8839 48.3058)" class="st2" cx="404.0203" cy="107.831" rx="70.8653" ry="70.8653"/>
		<path class="st5" d="M406.4655,142.1198c-12.0078,1.2271-20.8943-4.2864-21.4556-9.0221c-0.275-2.32,1.3763-5.7503,3.7927-6.0367
			c3.1897-0.3781,6.6009,6.0784,16.5516,5.6831l-2.6923-22.7137c-9.0653-2.0615-19.1433-4.3955-20.6098-16.7674
			c-1.4435-12.1784,7.1658-18.0995,16.2333-20.1547l-0.3322-2.8027c-0.1375-1.1596,0.8962-2.3603,2.5399-2.5552
			c1.4496-0.1718,3.0258,0.7195,3.1633,1.8792l0.3094,2.6099c6.5952-0.5855,16.115,0.344,16.6764,5.0804
			c0.2177,1.8366-0.7002,5.6694-3.6,6.0131c-2.3193,0.2749-5.1994-2.5198-12.0224-2.2012l2.3256,19.6203
			c8.7754,2.0959,18.4617,5.2605,20.0198,18.4057c1.4092,11.8884-4.9639,19.3084-15.2309,21.996l0.3895,3.2861
			c0.1375,1.1596-1.1861,2.3947-2.6364,2.5666c-1.643,0.1947-2.9294-0.731-3.0669-1.8906L406.4655,142.1198L406.4655,142.1198z
			 M402.0044,99.5236l-2.0851-17.591c-5.3325,1.3178-8.912,4.1924-8.3162,9.2187
			C392.2562,96.6603,396.6526,98.1978,402.0044,99.5236z M408.0366,111.5498l2.4173,20.3937
			c5.1045-1.5855,8.024-5.0676,7.371-10.5773C417.1032,115.278,413.0136,113.0184,408.0366,111.5498z"/>
	</g>
</g>
</svg>
