<?xml version="1.0" encoding="utf-8"?>
<!-- Generator: Adobe Illustrator 23.0.2, SVG Export Plug-In . SVG Version: 6.00 Build 0)  -->
<svg version="1.1" id="Capa_1" xmlns="http://www.w3.org/2000/svg" xmlns:xlink="http://www.w3.org/1999/xlink" x="0px" y="0px"
	 viewBox="0 0 800 800" style="enable-background:new 0 0 800 800;" xml:space="preserve">
<style type="text/css">
	.st0{clip-path:url(#SVGID_2_);}
	.st1{clip-path:url(#SVGID_2_);fill:#BF0811;}
	.st2{clip-path:url(#SVGID_2_);fill:#FFFFFF;}
	.st3{fill:#211915;}
	.st4{fill:#FFFFFF;}
	.st5{clip-path:url(#SVGID_2_);fill:#AACCEC;}
	.st6{clip-path:url(#SVGID_2_);fill:#060800;}
</style>
<g>
	<defs>
		<rect id="SVGID_1_" width="800" height="800"/>
	</defs>
	<clipPath id="SVGID_2_">
		<use xlink:href="#SVGID_1_"  style="overflow:visible;"/>
	</clipPath>
	<path class="st0" d="M90.01,40.78l652.16,105c0,0,5.74,0.69,6.02,8.09c0.41,11.3,22.3,502.53,22.3,502.53
		c0.12,5.39-5.71,10.6-7.37,11.72c0,0,0.94,1.64,0.97,4.14c0.16,12.3-1.84,62.65-1.71,68.51c0.29,13.29-7.3,27.85-23.87,27.85H60.99
		c-9.39,0-31.23-5.44-31.23-38.87c0.7-14.77,5.81-654.89,5.81-654.89V63.09c0-6.97,6.81-10.22,24.81-18
		c8.27-3.58,17.01-6.75,22.49-7.29C88.01,37.3,87.17,38.58,90.01,40.78"/>
	<path class="st1" d="M94.88,599.05l665.46,16.59l1.88,39.56l-72.64,3.75c0,0-2.98,0.11-4.44,1.83c-1.46,1.73-1.21,4.18-1.21,4.18
		l-0.15,61.06L94.88,721.8V599.05z"/>
	<polygon class="st2" points="694.08,721.11 693.94,669.45 750.39,666.21 	"/>
	<polygon class="st2" points="95.54,46.61 94.88,599.05 760.34,615.64 738.88,153.99 	"/>
	<path class="st0" d="M538.5,166.63c-4.97,6.97-14.44,6.86-22.26,2.9c-9.07-4.6-12.7-14.53-9.3-21.36c3.4-6.83,13.54-8.7,22.64-4.17
		C538.69,148.52,542.93,160.41,538.5,166.63"/>
	<path class="st0" d="M316.47,112.07c5.27,8.31,4.57,17.52-2.7,22.14c-7.27,4.62-19.87,1.74-25.15-6.57s-4.15-18.28,3.12-22.9
		C299.02,100.12,311.2,103.76,316.47,112.07"/>
	<polygon class="st0" points="200.74,308.8 309.13,319.86 309.13,354.05 241.98,347.11 242.71,378.5 305.48,383.61 306.29,415.39 
		242.79,411.37 243.26,473.13 202.34,472.65 	"/>
	<polygon class="st0" points="320.57,320.72 361.59,324.79 365.12,478.12 323.55,476.39 	"/>
	<polygon class="st0" points="381.96,326.69 427.88,331.04 495.52,431.02 492.26,337.29 529.48,341.36 535.19,485.08 487.64,483.72 
		421.46,385.05 424.14,480.58 385.77,479.37 	"/>
	<path class="st1" d="M590.53,391.09c-1.4,8.57-9.75,14.31-20.13,12.62c-10.38-1.7-18.06-11.01-16.66-19.58
		c1.4-8.57,9.93-12.93,20.3-11.23C584.42,374.59,591.93,382.52,590.53,391.09"/>
	<path class="st1" d="M593.68,455.03c-1.4,8.59-9.75,14.34-20.13,12.65c-10.38-1.7-18.06-11.02-16.66-19.61
		c1.4-8.59,9.93-12.96,20.31-11.26C587.57,438.5,595.08,446.44,593.68,455.03"/>
	<path class="st0" d="M290.55,253.5c-2.54-4.23-11.01-10.35-17.17-12.14c-1.84-0.53-2.58-0.61-3.36-1.49
		c4.01-0.52,12.54-4.48,15.11-8.14c3.85-5.49,4.86-9.46,4.86-17.22c0-20.98-15.4-30.54-29.48-33.1
		c-13.62-2.48-62.11-9.26-62.11-9.26l0.4,127.62c0,0,40.05,5,60.36,5c27.64,0,36.22-17.64,36.22-30.35
		C295.38,266.05,293.91,259.08,290.55,253.5 M229.75,201.47l12.97,1.64c9.59,1.67,12.4,7.6,12.33,11.42
		c-0.07,4.12,0.05,6.46-1.78,9.21c-1.61,2.42-4.13,4.32-8.97,4.04c-4.23-0.24-14.24-1.43-14.24-1.43L229.75,201.47z M258.16,275.94
		c-2.27,2.44-7.34,3.69-11.67,3.15c-5.46-0.69-15.83-2-15.83-2l0.03-26.55l15.76,1.47c5.95,0.76,8.89,2.87,11.09,5.22
		C263.69,263.77,260.43,273.5,258.16,275.94"/>
	<path class="st0" d="M382.03,198.76l31.4,4.34l2.37,62.28c0,7.55,0.5,15.08-0.65,22c-1.16,6.97-4.21,14.15-9.01,19.18
		c-4.8,5.02-11.86,12.4-39.96,12.4c-17.54,0-36.24-6.08-47.33-15.75c-13.41-11.68-14.72-32.77-14.72-39.04l-0.72-76.9l30.39,4.56
		l2.23,76.48c0,17.27,15.12,23.98,25.32,23.98c8.38,0,14.47-0.97,18.16-4.83c3.69-3.86,4.56-8.26,4.56-15.33L382.03,198.76z"/>
	<polygon class="st0" points="429.54,205.47 515.48,218.1 516.27,242.35 461.88,235.13 462,255.8 513.84,262.32 514.41,285.88 
		463.37,279.8 463.55,301.66 519.68,307.36 520.18,332.21 433.43,323.45 	"/>
	<polygon class="st0" points="528.85,220.27 564.37,225.29 617.59,303.03 614.63,232.76 643.55,237.15 648.96,344.94 612.35,341.4 
		559.53,264.65 562.03,336.4 533.38,333.5 	"/>
	<path class="st1" d="M607.34,360.32c0,0,8.06-1.98,14.54,6.09c6.48,8.06,25.56,30.93,25.56,65.02c0,22.82-16.76,50.46-25.23,53.41
		c0,0-12.88,1.88-9.92-2.56c1.81-2.71,6.33-11.63,7.76-15.93c2.42-7.27,7.08-12.51,7.08-45.26c0-14.51-9.08-39.59-18.82-54.42
		C608.31,366.67,604.06,361.53,607.34,360.32"/>
	<g class="st0">
		<path class="st3" d="M166.19,532.56l0.56-23.47l4.69,0.12c2.25,0.06,4.02,0.33,5.31,0.83c1.39,0.49,2.64,1.3,3.75,2.42
			c2.25,2.27,3.34,5.2,3.25,8.8c-0.09,3.61-1.36,6.5-3.81,8.67c-1.23,1.08-2.52,1.83-3.85,2.23c-1.25,0.41-3,0.58-5.27,0.52
			L166.19,532.56z M169.65,529.32l1.52,0.04c1.51,0.04,2.78-0.1,3.79-0.41c1.01-0.33,1.93-0.87,2.76-1.62
			c1.7-1.55,2.58-3.6,2.64-6.16c0.06-2.58-0.71-4.68-2.31-6.33c-1.44-1.47-3.6-2.24-6.47-2.31l-1.52-0.04L169.65,529.32z"/>
		<path class="st3" d="M191.65,509.72l-0.56,23.47l-3.37-0.08l0.56-23.47L191.65,509.72z"/>
		<path class="st3" d="M209.57,513.67l-2.78,1.63c-0.49-0.95-0.96-1.57-1.42-1.86c-0.48-0.34-1.09-0.51-1.85-0.53
			c-0.94-0.02-1.72,0.24-2.35,0.78c-0.63,0.53-0.96,1.21-0.98,2.04c-0.03,1.15,0.76,2.09,2.36,2.83l2.21,1.01
			c1.8,0.82,3.1,1.79,3.91,2.92c0.81,1.13,1.2,2.5,1.16,4.11c-0.05,2.16-0.78,3.92-2.18,5.3c-1.41,1.38-3.14,2.05-5.19,2
			c-1.94-0.05-3.53-0.69-4.76-1.93c-1.22-1.24-1.95-2.96-2.21-5.15l3.43-0.7c0.12,1.38,0.37,2.34,0.74,2.88
			c0.67,1.03,1.67,1.56,3,1.6c1.05,0.03,1.93-0.32,2.65-1.04c0.71-0.72,1.08-1.65,1.11-2.79c0.01-0.46-0.04-0.88-0.15-1.26
			c-0.11-0.38-0.29-0.74-0.54-1.06c-0.25-0.33-0.57-0.63-0.97-0.92c-0.4-0.29-0.88-0.57-1.43-0.83l-2.13-1
			c-3.03-1.44-4.51-3.46-4.44-6.08c0.04-1.76,0.72-3.22,2.03-4.37c1.31-1.16,2.92-1.72,4.83-1.67
			C206.2,509.63,208.18,511,209.57,513.67z"/>
		<path class="st3" d="M225.37,513.9l-7.78-0.2l-0.14,5.64l7.51,0.19l-0.08,3.33l-7.51-0.19l-0.27,11.17l-3.37-0.08l0.56-23.47
			l11.16,0.28L225.37,513.9z"/>
		<path class="st3" d="M236.6,524.33l6.68,10.18l-4.12-0.1l-6.15-9.77l-0.61-0.02l-0.23,9.61l-3.37-0.08l0.56-23.47l3.95,0.1
			c2.95,0.08,5.07,0.71,6.35,1.91c1.42,1.33,2.1,3.06,2.05,5.19c-0.04,1.66-0.53,3.08-1.46,4.25
			C239.31,523.3,238.1,524.03,236.6,524.33z M232.47,521.53l1.07,0.03c3.19,0.08,4.82-1.16,4.88-3.73c0.06-2.4-1.47-3.64-4.57-3.72
			l-1.2-0.03L232.47,521.53z"/>
		<path class="st3" d="M250.25,511.2l-0.34,14.14c-0.05,2.02,0.23,3.5,0.83,4.45c0.9,1.37,2.2,2.08,3.9,2.12
			c1.71,0.04,3.05-0.6,4.01-1.92c0.65-0.89,1-2.35,1.05-4.4l0.34-14.14l3.37,0.08l-0.36,15.11c-0.06,2.47-0.84,4.49-2.35,6.05
			c-1.69,1.74-3.74,2.58-6.14,2.52s-4.4-1-6-2.83c-1.43-1.64-2.11-3.69-2.05-6.17l0.36-15.11L250.25,511.2z"/>
		<path class="st3" d="M274.85,515.15l-0.48,20.14l-3.37-0.08l0.48-20.14l-5.14-0.13l0.08-3.33l13.63,0.34l-0.08,3.33L274.85,515.15
			z"/>
		<path class="st3" d="M294.55,530.1l-9.57-0.24l-2.63,5.64l-3.63-0.09l11.66-24.67l10.06,25.22l-3.69-0.09L294.55,530.1z
			 M293.25,526.74l-3.12-8.07l-3.67,7.89L293.25,526.74z"/>
		<path class="st3" d="M316.32,512.87l-0.48,20.14l6.57,0.17l-0.08,3.33l-9.94-0.25l0.56-23.47L316.32,512.87z"/>
		<path class="st3" d="M323.81,524.69c0.08-3.3,1.3-6.11,3.66-8.43c2.35-2.31,5.14-3.43,8.36-3.35c3.18,0.08,5.88,1.35,8.1,3.79
			c2.23,2.45,3.3,5.35,3.22,8.71c-0.08,3.38-1.3,6.21-3.65,8.5c-2.36,2.3-5.17,3.41-8.44,3.33c-2.88-0.07-5.45-1.19-7.7-3.34
			C324.91,531.53,323.72,528.45,323.81,524.69z M327.21,524.83c-0.06,2.59,0.72,4.75,2.33,6.46c1.61,1.71,3.49,2.6,5.66,2.65
			c2.34,0.06,4.34-0.74,5.99-2.4c1.65-1.68,2.51-3.76,2.57-6.23c0.06-2.5-0.69-4.62-2.24-6.35c-1.54-1.74-3.48-2.64-5.81-2.7
			c-2.32-0.06-4.31,0.74-5.95,2.4C328.12,520.29,327.26,522.35,327.21,524.83z"/>
		<path class="st3" d="M359.48,537.45l5.31-25.12l7.23,18.44l8.38-18.04l3.62,25.34l-3.46-0.09l-1.82-14.22l-6.98,15.08l-6.06-15.43
			l-2.74,14.12L359.48,537.45z"/>
		<path class="st3" d="M402.02,532.82l-9.57-0.24l-2.63,5.64l-3.63-0.09l11.66-24.67l10.07,25.22l-3.69-0.09L402.02,532.82z
			 M400.72,529.45l-3.12-8.07l-3.67,7.9L400.72,529.45z M403.09,508.75l-6.01,4.05l-1.57-1.46l4.76-4.78L403.09,508.75z"/>
		<path class="st3" d="M423.82,519.08l-2.78,1.63c-0.49-0.95-0.96-1.57-1.42-1.86c-0.47-0.34-1.09-0.51-1.86-0.53
			c-0.94-0.02-1.72,0.24-2.35,0.78c-0.63,0.53-0.96,1.21-0.98,2.04c-0.03,1.15,0.76,2.09,2.37,2.83l2.21,1.01
			c1.79,0.82,3.1,1.79,3.91,2.92c0.81,1.13,1.2,2.5,1.16,4.11c-0.05,2.16-0.78,3.92-2.18,5.3c-1.42,1.38-3.14,2.05-5.19,2
			c-1.94-0.05-3.53-0.69-4.76-1.93c-1.21-1.24-1.95-2.96-2.21-5.15l3.43-0.7c0.12,1.38,0.37,2.34,0.74,2.88
			c0.67,1.03,1.67,1.56,3,1.6c1.05,0.03,1.93-0.32,2.65-1.04c0.71-0.72,1.08-1.65,1.11-2.79c0.01-0.46-0.04-0.88-0.15-1.26
			c-0.11-0.38-0.29-0.74-0.54-1.06c-0.25-0.33-0.57-0.63-0.97-0.92c-0.4-0.29-0.88-0.57-1.43-0.83l-2.13-1
			c-3.02-1.44-4.5-3.46-4.44-6.08c0.04-1.76,0.72-3.22,2.03-4.37c1.31-1.16,2.92-1.72,4.83-1.67
			C420.46,515.04,422.44,516.41,423.82,519.08z"/>
		<path class="st3" d="M437.13,539.41l0.56-23.47l3.36,0.08c1.5,0.04,2.68,0.19,3.57,0.45c0.89,0.27,1.64,0.7,2.24,1.29
			c0.61,0.61,1.09,1.37,1.44,2.27c0.36,0.91,0.52,1.83,0.5,2.75c-0.04,1.68-0.69,3.09-1.94,4.23c1.18,0.46,2.09,1.22,2.75,2.3
			c0.67,1.07,0.99,2.31,0.95,3.71c-0.04,1.83-0.7,3.37-1.96,4.61c-0.76,0.76-1.61,1.28-2.54,1.56c-1.02,0.27-2.29,0.38-3.82,0.34
			L437.13,539.41z M440.58,536.16l2.08,0.05c1.53,0.04,2.65-0.25,3.38-0.86c0.77-0.66,1.17-1.51,1.19-2.56
			c0.02-1.01-0.32-1.87-1.02-2.58c-0.69-0.7-1.94-1.07-3.75-1.11l-1.71-0.04L440.58,536.16z M440.83,526.1l1.06,0.03
			c1.25,0.03,2.18-0.24,2.78-0.8c0.6-0.57,0.91-1.42,0.94-2.55c0.03-1.11-0.25-1.95-0.84-2.54s-1.45-0.9-2.58-0.92l-1.19-0.03
			L440.83,526.1z"/>
		<path class="st3" d="M467.59,534.47l-9.57-0.24l-2.63,5.64l-3.63-0.09l11.65-24.67l10.07,25.22l-3.69-0.09L467.59,534.47z
			 M466.3,531.11l-3.12-8.07l-3.67,7.89L466.3,531.11z"/>
		<path class="st3" d="M484.09,530.58l6.68,10.18l-4.12-0.1l-6.15-9.77l-0.61-0.02l-0.23,9.61l-3.37-0.08l0.56-23.47l3.95,0.1
			c2.95,0.08,5.07,0.71,6.35,1.91c1.42,1.33,2.1,3.06,2.05,5.19c-0.04,1.66-0.53,3.08-1.46,4.25
			C486.8,529.55,485.58,530.29,484.09,530.58z M479.96,527.79l1.07,0.03c3.19,0.08,4.82-1.16,4.88-3.73
			c0.06-2.4-1.47-3.64-4.57-3.72l-1.2-0.03L479.96,527.79z"/>
		<path class="st3" d="M507.39,535.48l-9.57-0.24l-2.63,5.64l-3.63-0.09l11.65-24.67l10.07,25.22l-3.69-0.09L507.39,535.48z
			 M506.09,532.12l-3.12-8.07l-3.67,7.89L506.09,532.12z"/>
		<path class="st3" d="M521.48,521.38L521,541.53l-3.37-0.08l0.48-20.14l-5.14-0.13l0.08-3.33l13.63,0.34l-0.08,3.33L521.48,521.38z
			"/>
		<path class="st3" d="M527.62,529.84c0.08-3.3,1.3-6.11,3.66-8.43c2.35-2.31,5.14-3.43,8.36-3.35c3.18,0.08,5.89,1.35,8.1,3.79
			c2.23,2.45,3.3,5.35,3.22,8.71c-0.08,3.38-1.3,6.21-3.65,8.5c-2.36,2.3-5.17,3.41-8.44,3.33c-2.88-0.07-5.45-1.19-7.7-3.34
			C528.72,536.68,527.53,533.6,527.62,529.84z M531.02,529.98c-0.06,2.59,0.72,4.75,2.33,6.46c1.61,1.71,3.49,2.6,5.66,2.65
			c2.34,0.06,4.34-0.74,5.99-2.4c1.65-1.68,2.51-3.76,2.57-6.23c0.06-2.5-0.69-4.62-2.24-6.35c-1.54-1.74-3.48-2.64-5.81-2.7
			c-2.33-0.06-4.31,0.74-5.95,2.4C531.93,525.45,531.08,527.5,531.02,529.98z"/>
		<path class="st3" d="M564.07,542.62l0.56-23.47l4.69,0.12c2.25,0.06,4.02,0.33,5.31,0.83c1.39,0.49,2.64,1.3,3.75,2.42
			c2.25,2.27,3.34,5.2,3.25,8.8c-0.09,3.61-1.36,6.5-3.81,8.67c-1.23,1.08-2.51,1.83-3.85,2.23c-1.25,0.41-3,0.58-5.27,0.52
			L564.07,542.62z M567.53,539.37l1.52,0.04c1.51,0.04,2.78-0.1,3.79-0.41c1.01-0.33,1.93-0.87,2.76-1.62
			c1.7-1.55,2.58-3.6,2.64-6.15c0.06-2.58-0.71-4.68-2.31-6.33c-1.44-1.46-3.6-2.23-6.47-2.31l-1.52-0.04L567.53,539.37z"/>
		<path class="st3" d="M598.41,523.33l-8.96-0.23l-0.14,5.64l8.7,0.22l-0.08,3.33l-8.7-0.22l-0.19,7.84l8.96,0.23l-0.08,3.33
			l-12.33-0.31l0.56-23.47l12.33,0.31L598.41,523.33z"/>
		<path class="st3" d="M606.29,520.2l-0.48,20.14l6.57,0.17l-0.08,3.33l-9.94-0.25l0.56-23.47L606.29,520.2z"/>
		<path class="st3" d="M637.9,538.78l-9.57-0.24l-2.63,5.64l-3.63-0.09l11.66-24.67l10.07,25.22l-3.69-0.09L637.9,538.78z
			 M636.6,535.41l-3.12-8.07l-3.67,7.89L636.6,535.41z"/>
		<path class="st3" d="M646.59,544.7l0.6-25.07l15.86,18.32l0.39-16.31l3.37,0.09l-0.6,24.9l-15.86-18.28l-0.4,16.43L646.59,544.7z
			 M652.92,519.02l-1.86-1.74l0.43-0.61c0.28-0.4,0.55-0.73,0.81-1.01s0.52-0.49,0.78-0.67c0.26-0.17,0.54-0.29,0.82-0.36
			c0.28-0.07,0.59-0.1,0.92-0.09c0.75,0.02,1.62,0.3,2.6,0.86c0.99,0.56,1.63,0.85,1.92,0.85c0.54,0.01,1.15-0.52,1.83-1.6l1.8,1.66
			c-0.97,1.92-2.25,2.86-3.83,2.82c-0.54-0.01-1.42-0.32-2.63-0.92c-0.87-0.49-1.52-0.74-1.95-0.75
			C654.04,517.46,653.49,517.98,652.92,519.02z"/>
		<path class="st3" d="M670.95,533.47c0.08-3.3,1.3-6.11,3.66-8.43c2.35-2.31,5.14-3.43,8.36-3.35c3.18,0.08,5.88,1.35,8.1,3.79
			c2.23,2.45,3.3,5.35,3.22,8.71c-0.08,3.38-1.3,6.21-3.65,8.5c-2.36,2.3-5.17,3.41-8.43,3.33c-2.88-0.07-5.45-1.19-7.7-3.34
			C672.05,540.3,670.86,537.23,670.95,533.47z M674.35,533.6c-0.06,2.59,0.72,4.75,2.34,6.46c1.61,1.71,3.49,2.6,5.66,2.65
			c2.34,0.06,4.34-0.74,5.99-2.4c1.65-1.68,2.51-3.76,2.57-6.23c0.06-2.5-0.69-4.62-2.24-6.35c-1.54-1.74-3.48-2.64-5.81-2.7
			c-2.33-0.06-4.31,0.74-5.95,2.4C675.26,529.07,674.41,531.12,674.35,533.6z"/>
	</g>
	<g class="st0">
		<path class="st3" d="M223.3,551.23l-8.96-0.23l-0.14,5.64l8.7,0.22l-0.08,3.33l-8.7-0.22l-0.19,7.84l8.96,0.23l-0.08,3.33
			l-12.33-0.31l0.56-23.47l12.33,0.31L223.3,551.23z"/>
		<path class="st3" d="M227.25,571.49l0.6-25.07l15.86,18.32l0.39-16.31l3.37,0.08l-0.6,24.9l-15.86-18.27l-0.4,16.43L227.25,571.49
			z"/>
		<path class="st3" d="M268.06,552.36l-0.48,20.14l-3.37-0.08l0.48-20.14l-5.14-0.13l0.08-3.33l13.63,0.34l-0.08,3.33L268.06,552.36
			z"/>
		<path class="st3" d="M279.65,549.33l-0.56,23.47l-3.37-0.08l0.56-23.47L279.65,549.33z"/>
		<path class="st3" d="M297.26,553.1l-8.96-0.23l-0.14,5.64l8.7,0.22l-0.08,3.33l-8.7-0.22l-0.19,7.84l8.96,0.23l-0.08,3.33
			l-12.33-0.31l0.56-23.47l12.33,0.31L297.26,553.1z"/>
		<path class="st3" d="M301.21,573.36l0.6-25.07l15.86,18.32l0.39-16.31l3.37,0.08l-0.6,24.9l-15.86-18.27l-0.4,16.43L301.21,573.36
			z"/>
		<path class="st3" d="M326.23,573.99l0.56-23.47l4.69,0.12c2.25,0.06,4.02,0.33,5.31,0.83c1.39,0.49,2.64,1.3,3.75,2.42
			c2.25,2.27,3.33,5.2,3.25,8.8c-0.09,3.61-1.36,6.5-3.81,8.67c-1.23,1.08-2.52,1.83-3.85,2.23c-1.25,0.41-3,0.58-5.27,0.52
			L326.23,573.99z M329.68,570.75l1.52,0.04c1.51,0.04,2.78-0.1,3.79-0.41c1.01-0.33,1.93-0.87,2.76-1.62
			c1.7-1.55,2.58-3.6,2.64-6.15c0.06-2.57-0.71-4.68-2.31-6.33c-1.44-1.46-3.6-2.23-6.47-2.31l-1.52-0.04L329.68,570.75z"/>
		<path class="st3" d="M359.91,569.14l-9.56-0.24l-2.63,5.64l-3.63-0.09l11.66-24.67l10.07,25.22l-3.69-0.09L359.91,569.14z
			 M358.62,565.77l-3.12-8.06l-3.67,7.89L358.62,565.77z"/>
		<path class="st3" d="M389.39,555.43l-7.79-0.2l-0.14,5.64l7.51,0.19l-0.08,3.33l-7.51-0.19l-0.27,11.17l-3.37-0.08l0.56-23.47
			l11.16,0.28L389.39,555.43z"/>
		<path class="st3" d="M396.75,552.29l-0.56,23.47l-3.37-0.08l0.56-23.47L396.75,552.29z M400.65,546.07l-5.66,4.05l-1.57-1.45
			l4.53-4.78L400.65,546.07z"/>
		<path class="st3" d="M414.66,556.24l-2.78,1.63c-0.49-0.95-0.96-1.57-1.42-1.86c-0.47-0.34-1.09-0.51-1.86-0.53
			c-0.94-0.02-1.72,0.24-2.35,0.78c-0.63,0.53-0.96,1.21-0.98,2.04c-0.03,1.15,0.76,2.09,2.37,2.83l2.21,1.01
			c1.79,0.82,3.1,1.79,3.91,2.92c0.81,1.13,1.2,2.5,1.16,4.11c-0.05,2.16-0.78,3.92-2.18,5.3c-1.42,1.38-3.14,2.05-5.19,2
			c-1.94-0.05-3.53-0.69-4.76-1.93c-1.21-1.24-1.95-2.95-2.21-5.15l3.43-0.71c0.12,1.38,0.37,2.34,0.74,2.88
			c0.67,1.03,1.67,1.56,3,1.6c1.05,0.03,1.93-0.32,2.65-1.04c0.71-0.72,1.08-1.65,1.11-2.79c0.01-0.46-0.04-0.88-0.15-1.26
			c-0.11-0.38-0.29-0.74-0.54-1.06c-0.25-0.32-0.57-0.63-0.97-0.92c-0.4-0.29-0.87-0.57-1.43-0.83l-2.13-1
			c-3.03-1.44-4.51-3.46-4.44-6.08c0.04-1.76,0.72-3.22,2.03-4.38c1.31-1.16,2.92-1.72,4.83-1.67
			C411.3,552.2,413.28,553.56,414.66,556.24z"/>
		<path class="st3" d="M422.77,552.94l-0.56,23.47l-3.37-0.08l0.56-23.47L422.77,552.94z"/>
		<path class="st3" d="M444.62,554.76l-0.1,4.2c-1.91-1.76-3.9-2.67-5.99-2.72c-2.3-0.06-4.25,0.76-5.87,2.45
			c-1.62,1.68-2.46,3.77-2.53,6.26c-0.06,2.46,0.68,4.56,2.22,6.29c1.54,1.73,3.46,2.63,5.76,2.69c1.19,0.03,2.2-0.15,3.04-0.53
			c0.47-0.19,0.95-0.45,1.46-0.78c0.5-0.33,1.04-0.74,1.6-1.21l-0.1,4.27c-1.96,1.1-4,1.62-6.12,1.57
			c-3.19-0.08-5.89-1.32-8.09-3.72c-2.19-2.42-3.25-5.3-3.17-8.63c0.07-2.99,1.08-5.63,3.01-7.92c2.38-2.81,5.42-4.17,9.09-4.08
			C440.85,552.94,442.77,553.56,444.62,554.76z"/>
		<path class="st3" d="M462.13,571.72l-9.57-0.24l-2.63,5.64l-3.63-0.09l11.66-24.67l10.07,25.22l-3.69-0.09L462.13,571.72z
			 M460.84,568.35l-3.12-8.06l-3.67,7.89L460.84,568.35z"/>
		<path class="st3" d="M479.14,566c0.08-3.3,1.3-6.11,3.66-8.42c2.35-2.31,5.14-3.43,8.36-3.35c3.18,0.08,5.89,1.34,8.11,3.79
			c2.23,2.45,3.3,5.35,3.22,8.71c-0.08,3.38-1.3,6.21-3.65,8.5c-2.36,2.3-5.17,3.41-8.44,3.33c-2.88-0.07-5.45-1.19-7.7-3.34
			C480.24,572.84,479.05,569.76,479.14,566z M482.54,566.13c-0.06,2.6,0.72,4.75,2.33,6.46c1.61,1.71,3.49,2.6,5.66,2.65
			c2.34,0.06,4.34-0.74,5.99-2.4c1.65-1.68,2.51-3.76,2.57-6.23c0.06-2.5-0.69-4.62-2.24-6.35c-1.54-1.74-3.48-2.64-5.81-2.7
			c-2.33-0.06-4.31,0.74-5.95,2.4C483.45,561.6,482.6,563.66,482.54,566.13z"/>
		<path class="st3" d="M528.41,558.94l-8.96-0.23l-0.14,5.64l8.7,0.22l-0.08,3.33l-8.7-0.22l-0.19,7.84l8.96,0.23l-0.08,3.33
			l-12.33-0.31l0.56-23.47l12.33,0.31L528.41,558.94z"/>
		<path class="st3" d="M532.35,579.2l0.6-25.07l15.86,18.32l0.39-16.31l3.37,0.08l-0.6,24.9l-15.86-18.27l-0.4,16.43L532.35,579.2z"
			/>
		<path class="st3" d="M570.45,556.67l-0.48,20.14l6.57,0.17l-0.08,3.33l-9.94-0.25l0.56-23.47L570.45,556.67z"/>
		<path class="st3" d="M583.59,557.01l-0.56,23.47l-3.37-0.08l0.56-23.47L583.59,557.01z M587.49,550.79l-5.66,4.05l-1.57-1.45
			l4.53-4.78L587.49,550.79z"/>
		<path class="st3" d="M588.4,580.61l0.6-25.07l15.86,18.32l0.39-16.31l3.37,0.09l-0.6,24.9l-15.86-18.27l-0.4,16.43L588.4,580.61z"
			/>
		<path class="st3" d="M626.23,561.42l-8.96-0.23l-0.14,5.64l8.7,0.22l-0.08,3.33l-8.7-0.22l-0.19,7.84l8.96,0.23l-0.08,3.33
			l-12.33-0.31l0.57-23.47l12.33,0.31L626.23,561.42z"/>
		<path class="st3" d="M643.44,576.3l-9.56-0.24l-2.63,5.64l-3.63-0.09l11.66-24.67l10.06,25.22l-3.69-0.09L643.44,576.3z
			 M642.14,572.94l-3.12-8.07l-3.67,7.89L642.14,572.94z"/>
	</g>
	<g class="st0">
		<path class="st4" d="M154.41,678.39l-3.09-2.33l8.98-12.31l-0.1-0.11c-1.11,0.32-2.19,0.47-3.26,0.44
			c-3.43-0.09-6.28-1.43-8.57-4.04c-2.28-2.61-3.38-5.72-3.3-9.32c0.09-3.74,1.44-6.89,4.05-9.45c2.61-2.56,5.69-3.79,9.25-3.7
			c3.56,0.09,6.58,1.48,9.06,4.16c2.48,2.69,3.68,5.9,3.59,9.64c-0.07,2.94-1.31,6.07-3.72,9.4L154.41,678.39z M164.43,644.52
			c-1.67-1.84-3.72-2.8-6.15-2.86c-2.43-0.06-4.52,0.79-6.28,2.54c-1.76,1.76-2.67,3.91-2.73,6.46c-0.06,2.55,0.73,4.73,2.39,6.54
			c1.65,1.81,3.71,2.74,6.17,2.81c2.43,0.06,4.52-0.77,6.28-2.49c1.76-1.72,2.66-3.86,2.73-6.41
			C166.91,648.56,166.1,646.36,164.43,644.52z"/>
		<path class="st4" d="M188.76,663.99l10.23,0.26l-0.09,3.88l-10.23-0.26L188.76,663.99z"/>
		<path class="st4" d="M224.68,675.39l15.87,0.4l-0.1,4.09l-24.35-0.62l18.14-21.42c1.75-2.09,2.65-4.27,2.7-6.54
			c0.05-2.17-0.64-4-2.06-5.51c-1.43-1.5-3.17-2.28-5.24-2.34c-2.23-0.06-4.05,0.67-5.47,2.17c-1.42,1.5-2.19,3.42-2.31,5.76
			l-4.19-0.11c0.15-3.49,1.35-6.37,3.6-8.64c2.25-2.27,5.02-3.36,8.32-3.28c3.23,0.08,5.98,1.26,8.25,3.54
			c2.27,2.28,3.37,5.1,3.29,8.45c-0.08,3.25-1.09,6-3.04,8.26L224.68,675.39z"/>
		<path class="st4" d="M254.99,642.04c1.83-1.3,3.87-1.92,6.14-1.86c2.26,0.06,4.28,0.78,6.04,2.17c1.76,1.39,3.14,3.17,4.12,5.32
			c0.98,2.16,1.71,4.38,2.19,6.67c0.48,2.29,0.69,4.51,0.64,6.68c-0.06,2.48-0.43,4.91-1.1,7.29c-0.67,2.38-1.58,4.53-2.73,6.46
			c-1.15,1.93-2.61,3.48-4.38,4.64c-1.78,1.16-3.7,1.71-5.76,1.66c-2.06-0.05-3.95-0.7-5.67-1.95c-1.72-1.25-3.1-2.87-4.15-4.85
			c-1.05-1.98-1.86-4.18-2.41-6.59c-0.56-2.41-0.81-4.86-0.75-7.34c0.05-2.17,0.37-4.38,0.96-6.64c0.59-2.26,1.42-4.44,2.5-6.55
			C251.71,645.04,253.16,643.34,254.99,642.04z M265.4,646.15c-1.25-1.22-2.71-1.85-4.37-1.89s-3.15,0.52-4.46,1.67
			s-2.33,2.63-3.05,4.41c-0.73,1.78-1.27,3.56-1.63,5.34c-0.36,1.77-0.54,3.43-0.54,4.97c0,1.57,0.14,3.21,0.43,4.92
			c0.29,1.7,0.75,3.44,1.37,5.2c0.62,1.76,1.55,3.23,2.79,4.4c1.24,1.17,2.67,1.77,4.3,1.81c1.63,0.04,3.09-0.49,4.38-1.59
			c1.29-1.1,2.29-2.52,3-4.25c0.71-1.73,1.25-3.44,1.62-5.12c0.37-1.69,0.59-3.32,0.67-4.89c0.07-1.54-0.03-3.2-0.3-4.99
			c-0.27-1.79-0.73-3.59-1.37-5.41C267.6,648.89,266.66,647.37,265.4,646.15z"/>
		<path class="st4" d="M294.69,681.25l0.95-39.53l7.09,0.18c3.13,0.08,5.83,0.48,8.11,1.2c2.28,0.72,4.43,2.04,6.45,3.94
			c4.07,3.88,6.03,8.95,5.88,15.2c-0.14,5.98-2.31,10.83-6.49,14.58c-2.14,1.9-4.36,3.17-6.66,3.79c-2.3,0.62-5.07,0.89-8.33,0.81
			L294.69,681.25z M298.98,677.27l3.04,0.08c2.56,0.06,4.79-0.17,6.68-0.7c1.89-0.53,3.66-1.56,5.29-3.09
			c3.2-3,4.86-6.82,4.97-11.47c0.12-4.89-1.42-8.88-4.61-11.97c-1.56-1.54-3.26-2.6-5.09-3.17c-1.83-0.57-4-0.89-6.49-0.95
			l-3.04-0.08L298.98,677.27z"/>
		<path class="st4" d="M328.53,682.11l0.95-39.53l19.51,0.49l-0.1,4.09l-15.32-0.39l-0.28,11.74l14.87,0.38l-0.1,4.09l-14.87-0.38
			l-0.37,15.52l15.32,0.39l-0.1,4.09L328.53,682.11z"/>
		<path class="st4" d="M370.79,683.17l0.99-41.2L400.35,675l0.74-30.62l4.19,0.11l-0.99,41.31l-28.57-32.98l-0.73,30.46
			L370.79,683.17z"/>
		<path class="st4" d="M416.85,650.11c3.94-3.9,8.6-5.79,13.99-5.65c5.39,0.14,9.96,2.25,13.7,6.35c3.75,4.1,5.55,8.98,5.41,14.64
			c-0.14,5.66-2.17,10.43-6.11,14.3c-3.94,3.87-8.6,5.74-13.99,5.6c-5.39-0.14-9.96-2.24-13.7-6.3c-3.75-4.06-5.55-8.93-5.42-14.59
			C410.87,658.8,412.91,654.02,416.85,650.11z M441.55,653.62c-2.92-3.27-6.52-4.97-10.81-5.07c-4.29-0.11-7.97,1.4-11.04,4.52
			c-3.07,3.12-4.66,6.94-4.77,11.45c-0.11,4.47,1.3,8.36,4.24,11.65c2.93,3.29,6.53,4.99,10.79,5.1c4.26,0.11,7.93-1.41,11.02-4.55
			c3.09-3.14,4.69-6.95,4.79-11.42C445.88,660.79,444.47,656.89,441.55,653.62z"/>
		<path class="st4" d="M457.17,645.81l10,30.41l11.45-29.87l4.54,0.11l-16.28,41.5l-14.26-42.27L457.17,645.81z"/>
		<path class="st4" d="M491.55,646.67l-0.95,39.53l-4.19-0.11l0.95-39.53L491.55,646.67z"/>
		<path class="st4" d="M498.24,686.39l0.95-39.53l19.51,0.49l-0.1,4.09l-15.32-0.39L503,662.8l14.87,0.38l-0.1,4.09l-14.87-0.38
			l-0.37,15.52l15.32,0.39l-0.1,4.09L498.24,686.39z"/>
		<path class="st4" d="M522.14,687l8.64-41.59l12.88,33.53l14.52-32.84l6.63,41.97l-4.29-0.11l-4.2-26.86l-0.1,0l-12.81,28.06
			l-11.39-28.67l-0.1,0l-5.48,26.61L522.14,687z"/>
		<path class="st4" d="M569.59,688.2l0.95-39.53l6.19,0.16c3.76,0.1,6.77,1.01,9.05,2.75c2.27,1.74,3.36,4.49,3.27,8.27
			c-0.08,3.43-1.38,5.96-3.88,7.61c2.18,0.61,3.89,1.88,5.13,3.8c1.24,1.92,1.83,4.08,1.77,6.5c-0.09,3.74-1.4,6.48-3.94,8.21
			c-2.54,1.74-5.8,2.55-9.8,2.45L569.59,688.2z M574.23,669.96l-0.34,14.26l4.19,0.11c6.42,0.16,9.69-2.17,9.8-6.99
			c0.11-4.68-3.22-7.11-10.01-7.28L574.23,669.96z M574.64,652.87l-0.32,13.32l1.6,0.04c1.4,0.04,2.55,0,3.45-0.12
			c0.9-0.12,1.81-0.37,2.71-0.77c0.91-0.4,1.59-1.06,2.04-1.99c0.45-0.93,0.7-2.13,0.74-3.6c0.07-2.73-0.6-4.53-1.99-5.4
			c-1.39-0.87-3.59-1.35-6.58-1.42L574.64,652.87z"/>
		<path class="st4" d="M602.54,671.67l-0.42,17.35l-4.19-0.11l0.95-39.53l5.44,0.14c1.93,0.05,3.66,0.25,5.18,0.6
			c1.52,0.35,2.96,0.93,4.3,1.73c1.34,0.8,2.37,1.96,3.06,3.46c0.7,1.5,1.02,3.32,0.97,5.46c-0.07,3.04-0.98,5.54-2.73,7.48
			c-1.74,1.95-4.07,3.01-6.97,3.18l11.55,18.02l-5.14-0.13l-10.96-17.64L602.54,671.67z M602.98,653.58l-0.34,14.21l1.3,0.03
			c1.33,0.03,2.5-0.02,3.53-0.17c1.02-0.15,2.02-0.45,3.02-0.9c0.99-0.45,1.76-1.15,2.3-2.12c0.54-0.96,0.83-2.18,0.86-3.65
			c0.03-1.26-0.13-2.34-0.47-3.24c-0.34-0.9-0.78-1.61-1.3-2.13c-0.52-0.52-1.23-0.93-2.12-1.23s-1.74-0.5-2.56-0.59
			c-0.81-0.09-1.8-0.15-2.97-0.18L602.98,653.58z"/>
		<path class="st4" d="M624.98,689.6l0.95-39.53l19.51,0.49l-0.1,4.09l-15.32-0.39l-0.28,11.74l14.87,0.38l-0.1,4.09l-14.87-0.38
			l-0.37,15.52l15.32,0.39l-0.1,4.09L624.98,689.6z"/>
	</g>
	<path class="st5" d="M645.84,481.7c-3.13,0-5.99-1.44-7.85-3.96l-35.03-47.47c-2.56-3.47-2.56-8.12,0-11.59l35.03-47.46
		c1.86-2.52,4.72-3.96,7.85-3.96c3.13,0,5.99,1.44,7.85,3.96l26.24,35.56c7.81,10.59,7.81,24.82,0,35.41l-26.24,35.56
		C651.83,480.25,648.97,481.7,645.84,481.7"/>
	<path class="st6" d="M645.84,370.75c1.89,0,3.78,0.85,5.03,2.54l26.24,35.56c6.86,9.29,6.86,21.96,0,31.25l-26.24,35.56
		c-1.25,1.69-3.14,2.54-5.03,2.54c-1.89,0-3.78-0.85-5.04-2.54l-35.03-47.47c-1.63-2.21-1.63-5.22,0-7.43l35.03-47.46
		C642.05,371.6,643.95,370.75,645.84,370.75 M645.84,363.75c-4.25,0-8.14,1.96-10.67,5.39l-35.03,47.46
		c-3.48,4.71-3.48,11.04,0,15.75l35.03,47.46c2.53,3.42,6.41,5.38,10.67,5.38c4.25,0,8.14-1.96,10.67-5.38l26.24-35.56
		c8.73-11.83,8.73-27.73,0-39.57l-26.24-35.55C653.98,365.71,650.09,363.75,645.84,363.75"/>
</g>
</svg>
