<?xml version="1.0" encoding="utf-8"?>
<!-- Generator: Adobe Illustrator 16.0.0, SVG Export Plug-In . SVG Version: 6.00 Build 0)  -->
<!DOCTYPE svg PUBLIC "-//W3C//DTD SVG 1.1//EN" "http://www.w3.org/Graphics/SVG/1.1/DTD/svg11.dtd">
<svg version="1.1" id="Capa_1" xmlns="http://www.w3.org/2000/svg" xmlns:xlink="http://www.w3.org/1999/xlink" x="0px" y="0px"
	 width="73px" height="38px" viewBox="0 0 73 38" enable-background="new 0 0 73 38" xml:space="preserve">
<g>
	<g>
		<g>
			<g>
				<g>
					<g>
						
							<path fill="#FFFFFF" stroke="#FFFFFF" stroke-width="3" stroke-linecap="round" stroke-linejoin="round" stroke-miterlimit="10" d="
							M47.7432,25.0068c-0.2139,0.123-0.416,0.2822-0.6455,0.3643c-0.6494,0.2334-1.3564-0.2236-1.3936-0.9141
							c-0.0166-0.2881,0.042-0.5977,0.1465-0.8652c0.3037-0.7793,0.6387-1.541,0.9746-2.3057
							c0.1865-0.4209,0.4678-0.7422,0.958-0.8408c0.6943-0.1406,1.3477,0.416,1.249,1.1211
							c-0.0732,0.5156,0.0381,0.958,0.2939,1.418c0.3457,0.6201,0.6934,1.2734,0.8711,1.9541
							c0.4063,1.5879-0.8018,3.0938-2.4336,3.1328c-0.5293,0.0166-1.0596,0.0059-1.5889,0.0039
							c-0.6162,0-0.9795-0.2041-1.1318-0.6318c-0.1895-0.5303-0.0273-1.1455,0.3916-1.4971
							c0.2813-0.2393,0.6045-0.3369,0.9629-0.3486c0.3594-0.0049,0.7197,0.002,1.0781-0.0156
							C47.8184,25.5596,47.916,25.334,47.7432,25.0068z"/>
					</g>
				</g>
				<g>
					<g>
						
							<path fill="#FFFFFF" stroke="#FFFFFF" stroke-width="3" stroke-linecap="round" stroke-linejoin="round" stroke-miterlimit="10" d="
							M45.5068,22.8232c0.1543-0.5244-0.0723-1.0059-0.4785-1.2393c-0.4346-0.2529-1.0469-0.207-1.4063,0.1855
							c-0.2422,0.2666-0.4385,0.5977-0.5762,0.9316c-0.3291,0.8145-0.6094,1.6426-0.915,2.4678
							c-0.1133,0.3125-0.3535,0.458-0.6973,0.4258c0.0342-0.0928,0.0684-0.1777,0.0977-0.2646
							c0.2773-0.8232,0.5771-1.6357,0.8223-2.4658c0.165-0.5605-0.1006-1.123-0.5518-1.3223
							c-0.5273-0.2363-1.1748-0.0928-1.5049,0.3789c-0.1934,0.2754-0.3672,0.5732-0.4824,0.8867
							c-0.3574,0.9707-0.6836,1.9492-1.0205,2.9248c-0.3076-0.0439-0.6357-0.0938-0.9902-0.1494
							c0.0313-0.0918,0.0586-0.1943,0.0928-0.29c0.2715-0.7754,0.5605-1.5498,0.8105-2.335
							c0.1582-0.4922,0.0723-0.957-0.3604-1.2861c-0.4336-0.3301-0.8984-0.2891-1.3779-0.0713
							c-0.1074,0.0518-0.2832,0.041-0.3916-0.0146c-0.4365-0.2275-0.8877-0.3125-1.3799-0.248
							c-0.8281,0.1074-1.4443,0.5576-1.957,1.1826c-0.1816,0.2217-0.3447,0.4619-0.5732,0.7686
							c0.0107-0.1768,0.0078-0.2578,0.0195-0.3359c0.1455-1.0449,0.165-2.083-0.085-3.1201
							c-0.376-1.5493-1.6475-2.7524-3.2373-2.9004c-1.0928-0.1025-2.1963-0.1172-3.2959-0.1172
							c-0.7822,0-1.3379,0.564-1.4375,1.3467c-0.0938,0.7529,0.3555,1.2793,1.1133,1.3042
							c0.0928,0.0034,0.1865,0.0098,0.2939,0.0146c-0.0264,0.1001-0.041,0.1812-0.0693,0.2593
							c-0.8984,2.4971-1.8027,4.9922-2.6895,7.4932c-0.083,0.2275-0.1934,0.2715-0.4121,0.2754
							c-0.9297,0.0186-1.8662,0.0078-2.7881,0.1094c-1.333,0.1494-2.2832,1.0537-2.5781,2.3662
							c-0.2881,1.2793-0.0879,2.4629,0.9492,3.3584c1.4717,1.2725,3.9453,0.958,5.123-0.6768
							c0.5029-0.7002,0.8613-1.499,1.2676-2.2617c0.0977-0.1816,0.1885-0.2549,0.4004-0.2646
							c1.1504-0.0576,2.2617-0.3057,3.2969-0.8311c1.5713-0.8008,2.6514-2.0645,3.3701-3.6572
							c0.0439-0.0986,0.1123-0.1865,0.208-0.3369c0.041,0.3564,0.0557,0.6201,0.1045,0.8799
							c0.1455,0.7646,0.4775,1.4385,1.2441,1.7178c0.748,0.2705,1.5313,0.2861,2.29-0.0459c0.084-0.0371,0.1982-0.0264,0.292-0.0059
							c0.3037,0.0625,0.6025,0.1719,0.9092,0.209c0.2979,0.0391,0.6025,0.0098,0.9385,0.0098
							c-0.0459,0.0752-0.0537,0.1123-0.0771,0.127c-1.002,0.6553-1.3438,1.6279-1.2695,2.7656
							c0.0703,1.082,0.5801,1.9238,1.5566,2.415c0.96,0.4912,1.9287,0.4248,2.8438-0.1357
							c0.8359-0.5107,1.2627-1.3418,1.6377-2.2041c0.1406-0.3174,0.1816-0.7627,0.4209-0.9297
							c0.2402-0.167,0.6709-0.0576,1.0166-0.0762c0.876-0.0459,1.4805-0.8672,1.2676-1.7148
							c-0.1094-0.4336-0.4043-0.6895-0.8486-0.7305c-0.1836-0.0146-0.3711-0.0225-0.582-0.0352
							c0.2715-0.7441,0.5371-1.4463,0.7842-2.1523C44.9414,24.5498,45.2539,23.6943,45.5068,22.8232z M20.6084,31.4063
							c-0.2783-0.0313-0.4951-0.2695-0.5098-0.5547c-0.0215-0.376,0.0918-0.5996,0.4189-0.6387
							c0.4893-0.0605,0.9893-0.0586,1.5107-0.0859C21.999,30.7314,21.1406,31.4746,20.6084,31.4063z M29.9385,23.2598
							c-0.334,1.1973-0.833,2.3076-1.7686,3.1709c-0.6221,0.5732-1.3447,0.9248-2.25,1.0537
							c0.9805-2.6963,1.9395-5.3408,2.9004-7.9824c0.6563,0,1.1914,0.5137,1.3184,1.2773
							C30.2744,21.6201,30.166,22.4463,29.9385,23.2598z M35.748,24.0313c-0.1523,0.4355-0.3242,0.8701-0.4736,1.3076
							c-0.0947,0.2734-0.3066,0.332-0.5273,0.2588c-0.0908-0.0273-0.1738-0.2383-0.1738-0.3691
							c0.001-0.6094,0.29-1.0918,0.7588-1.46c0.1074-0.085,0.2754-0.0928,0.4814-0.1533
							C35.7852,23.8135,35.7861,23.9277,35.748,24.0313z M39.833,30.9922c-0.1602,0.2109-0.416,0.2266-0.6357,0.1514
							c-0.1055-0.0381-0.1973-0.2148-0.2256-0.3438c-0.0527-0.2354,0.0449-0.4756,0.2705-0.5518
							c0.3486-0.1201,0.7207-0.1699,1.085-0.248c0.0254,0.0449,0.0527,0.0928,0.0801,0.1348
							C40.2168,30.4219,40.0381,30.7178,39.833,30.9922z"/>
					</g>
				</g>
				<g>
					<g>
						<g>
							
								<path fill="#FFFFFF" stroke="#FFFFFF" stroke-width="3" stroke-linecap="round" stroke-linejoin="round" stroke-miterlimit="10" d="
								M52.46,21.9717L52.46,21.9717l-0.1621-0.0029c-1.1006-0.0361-2.1104-0.5137-2.8379-1.3438
								c-0.7422-0.8438-1.1025-1.9834-0.9912-3.123c0.0391-0.4102,0.1211-0.792,0.2441-1.1436
								c-0.1152-0.0054-0.2275-0.0142-0.3418-0.0278l-0.0234,0.0669c-0.4053,1.1206-0.8037,2.228-1.2139,3.3311
								c-0.1484,0.4004-0.3594,0.7852-0.6064,1.1025c-0.4131,0.5391-1.0986,0.8623-1.8359,0.8623c-0.3506,0-0.6963-0.0752-1-0.2178
								c-0.9609-0.4502-1.4287-1.499-1.1367-2.5493c0.248-0.8857,0.5518-1.7588,0.8438-2.5767
								c0.6719-1.8872,1.3535-3.769,2.0332-5.6519l0.4736-1.312c0.0771-0.2144,0.1709-0.4751,0.3193-0.7324
								c0.5469-0.9658,1.7617-1.4336,2.8164-1.1113c1.2627-0.4814,2.623-0.1147,3.3994,0.8579
								c0.0029-0.0039,0.0068-0.0098,0.0098-0.0137c0.6094-0.8647,1.8809-1.1826,2.8887-0.7324
								c0.2178,0.0967,0.4121,0.2314,0.5791,0.3936c0.2451-0.2119,0.5537-0.3955,0.9453-0.5039
								c0.8984-0.249,1.835,0.0278,2.3848,0.6973c0.4121,0.5068,0.5723,1.1909,0.4316,1.8755
								c-0.1279,0.6235-0.332,1.1992-0.5293,1.7559l-0.1133,0.3271c-0.1963,0.5581-0.4033,1.1133-0.6064,1.668
								c0.7549,0.4102,1.1904,1.2285,1.0811,2.1704c-0.1514,1.3462-1.165,2.2671-2.5146,2.2915l-0.1738,0.0015
								c-0.0146,0.0259-0.0264,0.0518-0.0391,0.0796c-0.2568,0.5283-0.5186,1.0728-0.8389,1.5947
								C55.1709,21.2734,53.9346,21.9717,52.46,21.9717z M52.8037,12.6514c0.0771,0.1328,0.1289,0.2822,0.1475,0.4424
								c0.0625,0.5088,0.1104,0.7163,0.2637,0.8633c0.2969,0.2822,0.4199,0.7012,0.3213,1.0986
								c-0.0977,0.3975-0.3984,0.7124-0.7939,0.8247l-0.1309,0.0391c-0.1182,0.0356-0.2041,0.0601-0.2949,0.0781
								c-1.0068,0.2065-1.4785,0.7217-1.5752,1.7251c-0.0527,0.5229,0.1035,1.0205,0.4355,1.397
								c0.3066,0.3501,0.7324,0.5493,1.1973,0.5669l0.0859,0.002c0.6846,0,1.1758-0.2773,1.54-0.8735
								c0.2568-0.4253,0.4863-0.897,0.7275-1.3975c0.1182-0.2451,0.2373-0.4932,0.3652-0.7446
								c0.1943-0.3838,0.5889-0.625,1.0195-0.625l0.4834,0.0015l0.3613-0.0034c0.1699-0.0029,0.2422-0.0464,0.2725-0.1831
								c-0.0713-0.0083-0.1328-0.0112-0.1992-0.0161l-0.1885-0.0146c-0.3379-0.0278-0.6465-0.2051-0.8408-0.4834
								c-0.1953-0.2793-0.2559-0.6299-0.166-0.957l0.0273-0.0996c0.0293-0.1191,0.0596-0.2197,0.0938-0.3169l0.3242-0.8784
								c0.2041-0.5479,0.4063-1.0967,0.5986-1.6479l0.1201-0.3398c0.1631-0.4604,0.3174-0.8979,0.417-1.3242
								c-0.0625,0.0493-0.127,0.1499-0.2119,0.3765c-0.209,0.5562-0.4121,1.1143-0.6162,1.6724l-0.3125,0.8521
								c-0.2842,0.7671-0.9336,1.2261-1.7373,1.2261c-0.0215,0-0.1045-0.0029-0.1279-0.0039
								c-0.3555-0.021-0.6816-0.2075-0.8809-0.5034c-0.2002-0.2959-0.248-0.668-0.1338-1.0063l0.3271-0.9648
								c0.1816-0.5342,0.3662-1.0674,0.5254-1.6079c-0.1318,0.1846-0.248,0.4092-0.3516,0.6543
								c-0.1221,0.293-0.2256,0.5928-0.3262,0.8926c-0.0586,0.1729-0.1172,0.3457-0.1807,0.5156
								c-0.043,0.1221-0.0996,0.2295-0.1621,0.3354C53.127,12.3979,52.9766,12.5464,52.8037,12.6514z M48.3203,9.7168
								c-0.0762,0-0.1045,0.0508-0.1143,0.0664c-0.0469,0.0859-0.0967,0.2217-0.1484,0.3662l-0.4795,1.3247
								c-0.6797,1.8794-1.3584,3.7583-2.0283,5.6411c-0.251,0.7036-0.5107,1.4463-0.7275,2.1812
								c0.0566-0.0986,0.1191-0.2271,0.1689-0.3618c0.4102-1.0986,0.8066-2.1987,1.207-3.3115l0.373-1.0303
								c0.1035-0.2881,0.3193-0.522,0.5967-0.6504c0.2793-0.1265,0.5977-0.1372,0.8828-0.0283
								c0.5742,0.2188,1.1016,0.2222,1.6807,0.0078c0.4209-0.1567,0.6963-0.5435,1.0879-1.248
								c0.0947-0.1709,0.2285-0.3105,0.3867-0.4097c-0.0234-0.0425-0.0439-0.0869-0.0625-0.1323
								c-0.1143-0.2925-0.1289-0.54-0.1377-0.688c-0.0205-0.187-0.0352-0.3315-0.0488-0.4756
								c-0.0303-0.3018-0.0596-0.5859-0.127-0.8032c-0.082-0.2534-0.2568-0.5566-0.6377-0.5566
								c-0.1465,0-0.3115,0.0449-0.4775,0.1279c-0.3916,0.1997-0.9072,0.1938-1.3145-0.001
								C48.375,9.7231,48.3477,9.7168,48.3203,9.7168z"/>
						</g>
					</g>
					<g>
						<g>
							
								<path fill="#FFFFFF" stroke="#FFFFFF" stroke-width="3" stroke-linecap="round" stroke-linejoin="round" stroke-miterlimit="10" d="
								M38.3975,21.6914c-0.6934,0-1.3311-0.3018-1.751-0.8262c-0.3994-0.5-0.5488-1.1514-0.4053-1.7886
								c0.1465-0.644,0.3564-1.2485,0.5586-1.8345l0.1377-0.3979c0.0576-0.167,0.1152-0.3325,0.1758-0.4995
								c-0.2324-0.0244-0.4863-0.0732-0.7529-0.1689c-0.752,0.2686-1.5654,0.2842-2.5869,0.0322
								c-0.9326-0.23-1.6406-0.9111-1.9951-1.917c-0.6377-1.814-0.3125-3.5786,0.9619-5.2446
								c0.7295-0.9536,1.6348-1.519,2.6904-1.6802c0.6621-0.103,1.2803-0.0264,1.835,0.2222
								c0.7539-0.2817,1.6309-0.1567,2.2373,0.3262c0.2168,0.1724,0.3965,0.3711,0.5303,0.5894
								c0.5938-0.8696,1.6514-1.2593,2.6963-0.9546c0.3789-0.1533,0.7715-0.2324,1.1689-0.2324c1.376,0,2.5449,0.9595,2.9063,2.3862
								c0.4063,1.6079,0.1973,3.1675-0.623,4.6396c-0.7217,1.2949-1.9766,2.0078-3.5293,2.0078l0,0
								c-0.1641,0-0.333-0.0078-0.501-0.0225c-0.0225-0.0024-0.0381-0.0044-0.0596-0.0063l-0.6006,1.6597
								c-0.2344,0.647-0.4648,1.2925-0.708,1.9346c-0.4609,1.2354-1.334,1.6289-1.9814,1.7422
								C38.666,21.6787,38.5313,21.6914,38.3975,21.6914z M39.2363,14.1377c0.1758,0.0825,0.334,0.2104,0.4492,0.375
								c0.2168,0.3062,0.2705,0.6968,0.1406,1.0488l-0.2334,0.6426c-0.1699,0.4604-0.3369,0.915-0.4922,1.375l-0.1436,0.4146
								c-0.1621,0.4692-0.3193,0.918-0.4326,1.3594c0.0322-0.0386,0.0742-0.1084,0.1221-0.2393
								c0.2383-0.6343,0.4668-1.2705,0.6953-1.9053l0.9395-2.5869c0.1953-0.5303,0.751-0.8389,1.3008-0.7271
								c0.1133,0.0229,0.2217,0.0479,0.3271,0.0728c0.1543,0.0356,0.2998,0.0732,0.4482,0.0854
								c0.0977,0.0103,0.1973,0.0151,0.2949,0.0151l0,0c0.7402,0,1.2119-0.2588,1.5342-0.8369
								c0.5332-0.9585,0.6689-1.9292,0.4043-2.9678c-0.1465-0.5835-0.6172-0.8203-1.1357-0.5332
								c-0.3848,0.2104-0.8896,0.2207-1.2813,0.042c-0.0918-0.041-0.1533-0.0469-0.1729-0.0469
								c-0.0684,0-0.126,0.1475-0.1436,0.1909c-0.1396,0.3857-0.2793,0.7734-0.415,1.1606l-0.8486,2.3467
								C40.3926,13.9771,39.8037,14.2861,39.2363,14.1377z M35.9951,9.6045c-0.0723,0-0.1455,0.0068-0.2188,0.0176
								c-0.4717,0.0728-0.8496,0.3232-1.2246,0.8105c-0.7988,1.0449-0.9951,2.0298-0.6191,3.1011
								c0.0928,0.2622,0.2246,0.4175,0.3877,0.458c0.6826,0.1689,1.1113,0.1523,1.4717-0.0596
								c0.3721-0.2192,0.8369-0.209,1.1992,0.0249c0.1182,0.0767,0.2637,0.1274,0.5869,0.1274c0.1699,0,0.3418-0.0117,0.5156-0.0239
								c0.2148-0.0137,0.4316-0.0278,0.6504-0.0298c0.041-0.0039,0.084,0.002,0.1299,0.0063l-0.918-0.2534
								c-0.3027-0.0835-0.5576-0.2876-0.7041-0.564c-0.1475-0.2773-0.1738-0.6025-0.0742-0.8999l0.3682-1.0469
								c0.1797-0.5073,0.3604-1.0137,0.5254-1.5259c0.0039-0.0132,0.0059-0.0249,0.0088-0.0347
								c-0.0127,0.0127-0.0352,0.0215-0.0625,0.0376c-0.5186,0.3184-1.0879,0.3101-1.5908-0.0225
								C36.2988,9.6421,36.166,9.6045,35.9951,9.6045z"/>
						</g>
					</g>
					<g>
						<g>
							
								<path fill="#FFFFFF" stroke="#FFFFFF" stroke-width="3" stroke-linecap="round" stroke-linejoin="round" stroke-miterlimit="10" d="
								M47.0654,29.2217l-0.8926-0.0039c-1.4883,0-2.0205-0.873-2.2051-1.3926c-0.3477-0.9717-0.0645-2.0635,0.7061-2.7324
								c-0.0615-0.1807-0.0996-0.375-0.1113-0.5752c-0.0215-0.4365,0.0566-0.9131,0.2256-1.3428
								c0.3193-0.8213,0.6777-1.6309,0.9941-2.3486c0.4561-1.0322,1.2158-1.3857,1.7715-1.4995
								c0.8184-0.165,1.5957,0.1216,2.1094,0.7075c0.4033,0.4648,0.584,1.0801,0.5,1.6865c-0.0293,0.207-0.0127,0.3965,0.1602,0.707
								c0.3848,0.6865,0.7725,1.4219,0.9785,2.2275c0.2764,1.0762,0.0508,2.2002-0.6201,3.085
								c-0.6875,0.9082-1.7422,1.4463-2.8926,1.4746C47.5527,29.2197,47.3096,29.2217,47.0654,29.2217z M46.1113,26.9336
								c0.0186,0,0.0391,0.002,0.0635,0.002l0.8906,0.0039c0.2217,0,0.4443-0.002,0.666-0.0078
								c0.4531-0.0127,0.8643-0.2188,1.1309-0.5693c0.1436-0.1924,0.3682-0.5938,0.2285-1.1416
								c-0.1396-0.54-0.4395-1.1035-0.7598-1.6797c-0.332-0.5957-0.4834-1.1855-0.46-1.7959c-0.001,0-0.001,0.002-0.002,0.0039
								c-0.3057,0.6934-0.6543,1.4795-0.9561,2.2559c-0.0254,0.0693-0.0449,0.1416-0.0557,0.2139
								c0.0186-0.0176,0.042-0.0322,0.0664-0.0488c0.085-0.0518,0.1689-0.1055,0.2549-0.1553
								c0.2666-0.1523,0.585-0.1904,0.8818-0.1035c0.2949,0.0859,0.5449,0.2871,0.6895,0.5586
								c0.2754,0.5146,0.29,1.0693,0.041,1.5137c-0.2422,0.4365-0.6963,0.7051-1.2441,0.7373
								c-0.25,0.0127-0.4951,0.0146-0.7383,0.0166l-0.3848,0.0039c-0.167,0.0039-0.2217,0.0498-0.25,0.0752
								C46.1426,26.8408,46.1221,26.8828,46.1113,26.9336z"/>
						</g>
					</g>
					<g>
						<g>
							
								<path fill="#FFFFFF" stroke="#FFFFFF" stroke-width="3" stroke-linecap="round" stroke-linejoin="round" stroke-miterlimit="10" d="
								M20.6387,35.2666L20.6387,35.2666c-1.1016,0-2.1436-0.3779-2.9355-1.0596c-0.8867-0.7686-1.8359-2.166-1.3184-4.4756
								c0.4043-1.7988,1.7705-3.0459,3.5645-3.249c0.7773-0.0859,1.5459-0.0967,2.2881-0.1074h0.1357
								c0.6406-1.8027,1.2881-3.6035,1.9375-5.4014l0.2461-0.6846c-0.2109-0.1191-0.3984-0.2754-0.5566-0.46
								c-0.4092-0.4795-0.5898-1.1226-0.5-1.8096c0.1729-1.3804,1.2305-2.3462,2.5684-2.3462c1.0908,0,2.2559,0.0156,3.4014,0.1226
								c2.04,0.1914,3.7412,1.7056,4.2422,3.7666c0.0781,0.3252,0.1338,0.6514,0.1719,0.9883
								c0.3652-0.1768,0.7529-0.291,1.165-0.3438c0.623-0.082,1.2012-0.0029,1.7646,0.2305
								c0.8115-0.2773,1.5898-0.1553,2.2256,0.3271c0.1553,0.1182,0.2891,0.248,0.4063,0.3916
								c0.6328-0.8018,1.8564-1.0908,2.8232-0.6572c0.2266,0.1035,0.4287,0.2412,0.6025,0.4082
								c0.6914-0.6699,1.877-0.8066,2.7285-0.3125c0.8965,0.5176,1.2988,1.542,1.002,2.5488
								c-0.2188,0.7568-0.4795,1.498-0.7324,2.2178l-0.1455,0.4219c-0.1104,0.3086-0.2207,0.6133-0.335,0.9248
								c0.5,0.2686,0.8574,0.7344,1.0088,1.3408c0.1855,0.7363,0.0361,1.5039-0.4121,2.1123
								c-0.4482,0.6074-1.1406,0.9785-1.8994,1.0195l-0.1475,0.0059c-0.0605,0-0.124-0.0049-0.1875-0.0078
								c-0.0361,0.1143-0.0742,0.2236-0.1201,0.3252c-0.4121,0.9492-0.9502,2.0254-2.085,2.7207
								c-1.2695,0.7734-2.6699,0.835-3.96,0.1797c-1.3057-0.6602-2.0801-1.8535-2.1768-3.3574
								c-0.0498-0.7705,0.0586-1.4092,0.2617-1.9395c-0.8281,0.2305-1.7207,0.1914-2.5928-0.123
								c-0.4121-0.1494-0.8867-0.4229-1.2813-0.9297c-0.7441,0.958-1.6621,1.7207-2.7422,2.2715
								c-1.0176,0.5186-2.123,0.8232-3.3691,0.9248c-0.0381,0.0752-0.0742,0.1494-0.1123,0.2217
								c-0.3145,0.6182-0.6406,1.2559-1.0742,1.8594C23.627,34.5449,22.1836,35.2666,20.6387,35.2666z M25.7607,18.3252
								c0.0068,0,0.0156,0.0005,0.0225,0.0015l0.3018,0.0142c0.3447,0.0195,0.6699,0.1914,0.8711,0.4707
								c0.2002,0.2793,0.2744,0.6367,0.1846,0.9678c-0.043,0.1699-0.0674,0.2607-0.0986,0.3467l-0.583,1.623
								c-0.7051,1.9531-1.4092,3.9072-2.1045,5.8672c-0.1367,0.377-0.5039,1.0137-1.4658,1.0342l-0.6221,0.0088
								c-0.7178,0.0107-1.3994,0.0186-2.0615,0.0928c-0.832,0.0947-1.3975,0.6201-1.5908,1.4805
								c-0.293,1.2939,0.1582,1.8809,0.5811,2.2471c0.3789,0.3252,0.8896,0.5039,1.4434,0.5039l0,0
								c0.8125,0,1.5645-0.3672,2.0078-0.9854c0.3311-0.4629,0.6055-0.9961,0.8945-1.5635c0.0947-0.1895,0.1914-0.3789,0.293-0.5635
								c0.2891-0.5459,0.7422-0.8379,1.3438-0.8721c1.084-0.0527,2.0098-0.2861,2.8398-0.708
								c1.2637-0.6436,2.1953-1.6611,2.8496-3.1094c0.0527-0.1201,0.1211-0.2305,0.2139-0.3691l0.0703-0.1094
								c0.1826-0.2871,0.4814-0.4746,0.8066-0.5195c-0.2842-0.2256-0.4512-0.5791-0.4307-0.9561l0.0068-0.1504
								c0.0049-0.1172,0.0098-0.1963,0.0195-0.2764c0.1475-1.0576,0.1289-1.9131-0.0615-2.7002
								c-0.2695-1.1152-1.167-1.9321-2.2334-2.0308c-0.9961-0.0942-1.9951-0.1128-3.1904-0.1128c-0.0645,0-0.2607,0-0.3057,0.3477
								C25.7617,18.312,25.7617,18.3193,25.7607,18.3252z M37.8945,26.9395c0.4072,0,0.7871,0.2178,0.9893,0.5732
								c0.2051,0.3555,0.2021,0.793-0.0078,1.1445c-0.0869,0.1748-0.2627,0.3887-0.4258,0.498
								c-0.3955,0.2607-0.8301,0.6865-0.7627,1.7441c0.0459,0.7031,0.3398,1.1709,0.9326,1.4688
								c0.5957,0.3057,1.1396,0.2715,1.7324-0.0908c0.5186-0.3164,0.8252-0.8564,1.1865-1.6855
								c0.0293-0.0664,0.0469-0.1377,0.0684-0.209c0.1035-0.3438,0.2598-0.8604,0.7461-1.2002
								c0.4287-0.3018,0.9111-0.3018,1.0684-0.3018c0.1055,0,0.2158,0.0059,0.3252,0.0127
								c0.0635,0.0049,0.1299,0.0078,0.1914,0.0078c0.1221-0.0059,0.1787-0.0547,0.209-0.0977
								c0.0146-0.0186,0.0303-0.0459,0.0381-0.0801c-0.0508-0.0029-0.1035-0.0068-0.1572-0.0088l-0.2402-0.0146
								c-0.3584-0.0234-0.6865-0.2148-0.8848-0.5166c-0.1963-0.3008-0.2383-0.6768-0.1152-1.0156l0.2412-0.6523
								c0.1836-0.5049,0.3643-0.9951,0.5371-1.4854l0.1484-0.4258c0.2334-0.6592,0.4531-1.2891,0.6426-1.9268
								c-0.0947,0.1201-0.1826,0.2803-0.2529,0.4521c-0.2207,0.5449-0.4189,1.0986-0.6172,1.6523l-0.2832,0.7832
								c-0.291,0.7871-0.9951,1.2559-1.8838,1.165c-0.3525-0.0352-0.6689-0.2334-0.8555-0.5352
								c-0.1885-0.2988-0.2256-0.6719-0.1016-1.002l0.3291-0.9355c0.1924-0.5566,0.3857-1.1133,0.5537-1.6758
								c-0.0117,0-0.0195,0-0.0195,0c-0.1563,0.2227-0.2725,0.4336-0.3438,0.623c-0.2461,0.6699-0.4785,1.3477-0.709,2.0254
								l-0.3027,0.877c-0.1797,0.5215-0.707,0.8398-1.25,0.7559L37.6299,26.71c-0.3301-0.0518-0.6201-0.2422-0.7949-0.5254
								c-0.1758-0.2832-0.2197-0.6279-0.1191-0.9443l0.0273-0.0859c0.0225-0.0781,0.0469-0.1563,0.0732-0.2344l0.2529-0.7109
								c0.1904-0.5313,0.3799-1.0615,0.5518-1.5977c0.0039-0.0117,0.0059-0.0215,0.0078-0.0293
								c-0.0352,0-0.0938,0.0156-0.1846,0.0586c-0.1875,0.0859-0.4141,0.1348-0.6465,0.1367c-0.1895,0-0.4727-0.0332-0.7549-0.1836
								c-0.2275-0.1191-0.4482-0.1582-0.6973-0.125c-0.4551,0.0605-0.832,0.2988-1.2236,0.7754
								c-0.1045,0.1289-0.2041,0.2695-0.3184,0.4219l-0.2207,0.3047c-0.1875,0.25-0.4619,0.4082-0.7598,0.4492
								c0.2324,0.1816,0.3887,0.4531,0.4248,0.7598l0.04,0.3574c0.0156,0.1621,0.0303,0.3066,0.0557,0.4473
								c0.1357,0.7148,0.3896,0.8086,0.5098,0.8535c0.5156,0.1855,0.9902,0.1836,1.4434-0.0176
								c0.2949-0.1289,0.6211-0.1523,0.9785-0.0801c0.1436,0.0293,0.2832,0.0684,0.4238,0.1055
								c0.1318,0.0352,0.2656,0.0742,0.3984,0.0938c0.0723,0.0059,0.1436,0.0059,0.2178,0.0059l0.2471-0.0039
								C37.6689,26.9414,37.7822,26.9395,37.8945,26.9395z"/>
						</g>
					</g>
					<g>
						<g>
							
								<path fill="#FFFFFF" stroke="#FFFFFF" stroke-width="3" stroke-linecap="round" stroke-linejoin="round" stroke-miterlimit="10" d="
								M31.1514,11.3115c0.3555-0.0132,0.7227-0.0205,1.0605-0.1206c0.5986-0.1719,0.9717-0.8457,0.9063-1.5122
								c-0.0605-0.6084-0.3779-0.8994-1.1035-1.0093c-0.042-0.0054-0.0791-0.0181-0.1426-0.0332
								c0.3096-0.8472,0.6387-1.6729,0.9043-2.5186C32.9053,5.7036,33,5.2471,32.9658,4.8198
								c-0.0537-0.687-0.7324-1.0728-1.4043-0.9063c-0.5859,0.1445-0.918,0.5469-1.1162,1.0752
								c-0.4268,1.1401-0.833,2.2876-1.2549,3.4297c-0.0313,0.0903-0.1035,0.2329-0.1631,0.2358
								c-0.3945,0.0215-0.7891,0.0122-1.2363,0.0122c0.2334-0.647,0.4561-1.229,0.6514-1.8188
								c0.1846-0.5527,0.3691-1.1069,0.4951-1.6719c0.1172-0.5288-0.1328-1.0161-0.5225-1.1895
								c-0.5811-0.2607-1.3018-0.1006-1.6836,0.4302C26.5254,4.7021,26.377,5.04,26.252,5.373
								c-0.3789,1.0107-0.7373,2.0308-1.0938,3.0498c-0.0654,0.1875-0.1592,0.252-0.3633,0.2588
								c-1.1455,0.0347-2.2813,0.1631-3.3838,0.4937c-1.6719,0.501-3.0264,1.3979-3.623,3.1235
								c-0.4111,1.1816-0.4707,2.4121-0.1865,3.6367c0.5439,2.3281,3.1357,3.5049,5.2627,2.4072
								c1.2148-0.6289,1.958-1.6777,2.457-2.8916c0.5234-1.2705,0.9482-2.5811,1.4297-3.8691
								c0.0381-0.1045,0.1582-0.2432,0.251-0.251c0.3662-0.0293,0.7363-0.0127,1.1406-0.0127
								c-0.207,0.6338-0.4277,1.208-0.584,1.7983c-0.2393,0.9067,0.25,1.7896,1.1221,1.9858
								c0.8848,0.1963,1.7881,0.1836,2.6787,0.0205c0.6416-0.1187,1.0732-0.856,0.9893-1.582
								c-0.0781-0.6606-0.4512-0.9531-1.2227-0.959c-0.2139-0.001-0.4287,0-0.6816,0c0.1416-0.3867,0.2646-0.7017,0.3682-1.0225
								C30.8672,11.3799,30.959,11.3188,31.1514,11.3115z M23.6914,12.4438c-0.3301,0.8125-0.6553,1.6279-1.0137,2.4282
								c-0.1152,0.2539-0.3105,0.4785-0.5039,0.6855c-0.3193,0.3462-0.7207,0.541-1.1973,0.3828
								c-0.4746-0.1572-0.6924-0.5532-0.7637-1.0117c-0.1758-1.1143,0.2695-1.9873,1.1309-2.6641
								c0.7881-0.6206,1.7148-0.8643,2.75-0.9272C23.9502,11.7334,23.834,12.0942,23.6914,12.4438z"/>
							
								<path fill="#FFFFFF" stroke="#FFFFFF" stroke-width="3" stroke-linecap="round" stroke-linejoin="round" stroke-miterlimit="10" d="
								M21.1699,19.8994c-2.249,0-4.1719-1.5244-4.6787-3.7061c-0.3369-1.4453-0.2646-2.8828,0.2168-4.2686
								c0.6602-1.9014,2.0928-3.1582,4.374-3.8423c0.957-0.2866,1.9756-0.4546,3.167-0.5205
								c0.3047-0.8682,0.6123-1.7314,0.9355-2.5894c0.1162-0.3179,0.3115-0.7944,0.6191-1.2241
								c0.668-0.9272,2.0166-1.2788,3.0752-0.8052c0.3975,0.1768,0.7129,0.4761,0.9258,0.8433
								c0.4512-0.605,1.0234-0.8691,1.4844-0.9819c0.1904-0.0474,0.3887-0.0713,0.584-0.0713c1.1826,0,2.1406,0.8574,2.2295,1.9961
								c0.042,0.5215-0.0361,1.0859-0.2363,1.7285c-0.1602,0.5083-0.3418,1.0068-0.5205,1.4932
								c0.6348,0.4229,0.8535,1.0674,0.9082,1.6147c0.1074,1.0776-0.4482,2.1064-1.3242,2.5625
								c0.3926,0.4331,0.5156,0.9673,0.5508,1.2793c0.1592,1.3442-0.7012,2.6152-1.9141,2.8384
								c-1.0938,0.1992-2.1533,0.1885-3.1348-0.0298c-0.708-0.1597-1.3057-0.5869-1.6777-1.2031
								c-0.0068-0.0107-0.0146-0.0215-0.0205-0.0327c-0.1162,0.3032-0.2324,0.6055-0.3555,0.9058
								c-0.6797,1.6465-1.6572,2.7822-2.9883,3.4688C22.6924,19.7158,21.9453,19.8994,21.1699,19.8994z M27.8037,5.0068
								c-0.042,0.0054-0.1074,0.022-0.1445,0.0752c-0.1465,0.2061-0.2627,0.4922-0.3369,0.6895
								c-0.3779,1.0059-0.7334,2.0171-1.0869,3.0278c-0.2168,0.627-0.7285,1.0024-1.4043,1.0234
								c-1.2168,0.0366-2.1982,0.1782-3.0928,0.4463c-1.5742,0.4717-2.459,1.2124-2.873,2.4048
								c-0.3369,0.9717-0.3877,1.9824-0.1514,3.0029c0.2646,1.1421,1.2754,1.939,2.4561,1.939c0.4082,0,0.8027-0.0977,1.1709-0.2876
								c0.8447-0.436,1.4541-1.1709,1.9258-2.311c0.3242-0.7896,0.6191-1.6221,0.9072-2.4277
								c0.167-0.4697,0.334-0.9395,0.5088-1.4058c0.1699-0.458,0.6152-0.9409,1.2275-0.9897
								c0.2031-0.0171,0.4023-0.021,0.6064-0.021l2.207,0.0039l-0.4971,1.5c-0.0654,0.2036-0.1338,0.3999-0.2002,0.5938
								c-0.1357,0.3877-0.2646,0.7598-0.3652,1.1396c-0.04,0.1533-0.0234,0.3066,0.0439,0.4175
								c0.0508,0.0854,0.126,0.1382,0.2256,0.1616c0.6816,0.1509,1.4346,0.1553,2.2236,0.0107
								c-0.0049-0.0098,0.0625-0.123,0.0625-0.272c-0.0264-0.0015-0.0586-0.0024-0.0977-0.0029l-0.2871-0.001h-2.0117l0.6885-1.9014
								c0.0771-0.2163,0.1514-0.4121,0.2158-0.6108c0.1992-0.6353,0.7051-1.0146,1.3838-1.0415
								c0.3418-0.0117,0.6016-0.022,0.7852-0.0737c0.0195-0.0166,0.0918-0.1274,0.0908-0.2715
								c-0.0361-0.0093-0.0811-0.0186-0.1416-0.0273c-0.0508-0.0063-0.1172-0.021-0.2012-0.0425l-1.2139-0.3154l0.3721-1.1938
								l0.2754-0.7417c0.2168-0.5762,0.4307-1.1489,0.6123-1.73c0.1055-0.3394,0.1387-0.5801,0.1436-0.7422
								c-0.1211,0.0269-0.2139,0.0874-0.3164,0.3564c-0.251,0.6709-0.4951,1.3452-0.7412,2.0186
								c-0.1699,0.4692-0.3379,0.938-0.5107,1.4053c-0.3057,0.8472-0.9258,0.9692-1.1787,0.9824
								c-0.2197,0.0107-0.4453,0.0146-0.6777,0.0146L26.165,9.8071l0.7705-2.125c0.1504-0.4097,0.293-0.7993,0.4238-1.1934
								C27.5371,5.9541,27.6943,5.478,27.8037,5.0068z M21.3066,17.1377c-0.2314,0-0.4629-0.0371-0.6924-0.1133
								c-0.8232-0.2759-1.3799-0.9741-1.5293-1.9189c-0.2305-1.4653,0.3057-2.7583,1.5537-3.7378
								c0.9053-0.7124,1.9805-1.0835,3.3857-1.1704l1.7354-0.106l-0.7256,2.0112c-0.0938,0.2671-0.1816,0.5205-0.2832,0.7681
								l-0.1064,0.2607c-0.2988,0.7407-0.5986,1.4805-0.9277,2.208c-0.1865,0.4155-0.4629,0.7314-0.707,0.9956
								C22.3926,16.9985,21.7422,17.1377,21.3066,17.1377z M22.2188,13.0386c-0.0596,0.0386-0.1162,0.0801-0.1699,0.124
								c-0.7549,0.5938-0.7754,1.1611-0.707,1.5884c0.001,0.0073,0.0029,0.0146,0.0039,0.0225
								c0.0781-0.0864,0.2432-0.2666,0.291-0.3716C21.8379,13.9521,22.0313,13.4961,22.2188,13.0386z"/>
						</g>
					</g>
				</g>
				<g>
					<g>
						
							<path fill="#FFFFFF" stroke="#FFFFFF" stroke-width="3" stroke-linecap="round" stroke-linejoin="round" stroke-miterlimit="10" d="
							M57.9561,11.8242c0.2227-0.6382,0.4697-1.2769,0.6055-1.9355c0.1777-0.875-0.5391-1.4819-1.3945-1.2456
							c-0.5732,0.1587-0.8398,0.6074-1.0322,1.1162c-0.3154,0.8418-0.6201,1.688-0.9316,2.5317
							c-0.125,0.3369-0.3643,0.4971-0.7275,0.4761c0.0254-0.0713,0.0498-0.1401,0.0713-0.2075
							c0.291-0.8726,0.6045-1.7368,0.8584-2.6201c0.1494-0.5195-0.124-1.0615-0.5322-1.2432
							c-0.5283-0.2373-1.1689-0.1079-1.4883,0.3447c-0.2148,0.3071-0.3955,0.6494-0.541,0.9966
							c-0.2012,0.4771-0.3506,0.9746-0.5264,1.4629c-0.0283,0.0742-0.0742,0.1416-0.1123,0.2114
							c-0.0674-0.1709-0.0518-0.3159-0.0693-0.458c-0.0635-0.4795-0.0732-0.9785-0.2188-1.4336
							c-0.3906-1.2334-1.5713-1.6855-2.7188-1.1011c-0.082,0.041-0.2197,0.0269-0.3057-0.0142
							c-0.6143-0.2925-1.3398-0.082-1.6797,0.5146c-0.0986,0.1729-0.167,0.3652-0.2324,0.5537
							c-0.8398,2.3193-1.6787,4.6357-2.5049,6.959c-0.2959,0.8267-0.584,1.6563-0.8213,2.499
							c-0.1504,0.5381,0.0996,1.0117,0.5234,1.2119c0.4707,0.2217,1.1318,0.0996,1.4473-0.3096
							c0.1836-0.2402,0.332-0.5195,0.4385-0.8022c0.5342-1.437,1.0469-2.8813,1.5811-4.3511
							c0.8506,0.3247,1.6738,0.312,2.4834,0.0122c0.834-0.3096,1.2783-1.0229,1.6904-1.7656
							c0.0703,0.5835,0.1523,1.1216,0.6094,1.5557c-0.1631,0.0474-0.252,0.0781-0.3438,0.0972
							c-1.4902,0.3057-2.334,1.2329-2.4785,2.7329c-0.166,1.6929,1.0684,3.1597,2.7324,3.2134
							c1.1387,0.0391,2.0459-0.4521,2.6338-1.415c0.4229-0.6924,0.7461-1.4438,1.1406-2.2227c0.2314,0,0.5479,0.0039,0.8633-0.001
							c0.7764-0.0137,1.3154-0.5088,1.4043-1.2793c0.0693-0.6177-0.2803-1.0762-0.8945-1.1646
							c-0.1709-0.0264-0.3457-0.0327-0.5498-0.0488c0.0381-0.1353,0.0605-0.2383,0.0947-0.3354
							C57.3408,13.5137,57.6611,12.6738,57.9561,11.8242z M49.3447,12.438c-0.0869,0.123-0.2256,0.2363-0.3633,0.2842
							c-0.124,0.0439-0.2822-0.0093-0.4238-0.019c0.0078-0.1187-0.0059-0.2451,0.0303-0.3535
							c0.127-0.3813,0.2715-0.7563,0.415-1.1328c0.0332-0.0869,0.0742-0.1978,0.1436-0.2388
							c0.1553-0.0874,0.3301-0.1709,0.502-0.1802c0.0498-0.002,0.1133,0.2495,0.1729,0.3848
							C49.7803,11.6646,49.6094,12.0723,49.3447,12.438z M52.916,18.124c-0.165,0.2236-0.4287,0.2695-0.6582,0.1782
							c-0.1191-0.0479-0.2148-0.251-0.2383-0.3975c-0.04-0.2803,0.1006-0.5142,0.376-0.5854
							c0.332-0.0874,0.6787-0.1191,1.0176-0.1748c0.0234,0.0405,0.0449,0.0791,0.0684,0.1187
							C53.292,17.5518,53.1172,17.8477,52.916,18.124z"/>
					</g>
				</g>
				<g>
					<g>
						<g>
							<g>
								
									<path fill="none" stroke="#FFFFFF" stroke-width="3" stroke-linecap="round" stroke-linejoin="round" stroke-miterlimit="10" d="
									M36.2051,10.8242c-0.1553,0.0356-0.3535,0.0239-0.4648,0.1152c-0.4346,0.3516-0.6797,0.8198-0.7119,1.1714
									c-0.0381,0.7051,0.1299,0.7271,0.5146,0.6025c0.0918-0.0308,0.167-0.1807,0.209-0.291
									c0.1553-0.3936,0.3008-0.79,0.4297-1.1904C36.2217,11.1055,36.2002,10.9604,36.2051,10.8242z"/>
							</g>
						</g>
						<g>
							<g>
								
									<path fill="none" stroke="#FFFFFF" stroke-width="3" stroke-linecap="round" stroke-linejoin="round" stroke-miterlimit="10" d="
									M43.3477,10.7969c-0.1367-0.0264-0.3262,0.0537-0.4443,0.1504c-0.1113,0.0923-0.1748,0.2583-0.2314,0.4009
									c-0.1289,0.3237-0.252,0.6504-0.3574,0.9819c-0.0361,0.1187-0.0166,0.2534-0.0234,0.3813
									c0.1514,0.0034,0.3223,0.0522,0.4521-0.0015c0.1416-0.0615,0.2959-0.1914,0.3633-0.3306l0.4678-1.147
									C43.4805,11.0381,43.4346,10.8125,43.3477,10.7969z"/>
							</g>
						</g>
					</g>
					<g>
						<g>
							
								<path fill="#FFFFFF" stroke="#FFFFFF" stroke-width="3" stroke-linecap="round" stroke-linejoin="round" stroke-miterlimit="10" d="
								M45.6963,9.9839c-0.3213-1.2715-1.5625-1.9321-2.793-1.2534c-0.0674,0.0361-0.1836,0.0361-0.2539,0.0034
								c-0.8047-0.3623-1.5537-0.0522-1.8652,0.7891c-0.2324,0.6357-0.4521,1.2754-0.6816,1.9136
								c-0.2002,0.5532-0.4033,1.1055-0.582,1.5957c-0.4404-0.1226-0.8447-0.2334-1.2607-0.3486
								c0.0371-0.106,0.0771-0.2251,0.1182-0.3442c0.2617-0.7476,0.542-1.4912,0.7803-2.2466
								c0.1572-0.4927,0.0557-0.9478-0.3682-1.2866c-0.3691-0.2939-0.915-0.3081-1.3701-0.0288
								c-0.1367,0.083-0.2246,0.0879-0.3623-0.0015c-0.4434-0.2935-0.9307-0.3633-1.4551-0.2813
								c-0.8379,0.1279-1.459,0.5977-1.9551,1.2446c-0.958,1.2534-1.3311,2.6357-0.791,4.1729
								c0.2012,0.5737,0.5889,1.0391,1.1904,1.188c0.7832,0.1934,1.5869,0.2495,2.3252-0.1846
								c0.7373,0.4771,1.5361,0.2651,2.3818,0.2568c-0.25,0.6904-0.5049,1.3604-0.7344,2.04
								c-0.2373,0.6992-0.5029,1.3955-0.6641,2.1147c-0.168,0.75,0.498,1.3359,1.252,1.2041
								c0.6016-0.1025,0.9131-0.499,1.1074-1.0166c0.3506-0.9307,0.6816-1.8691,1.0195-2.8042
								c0.208-0.5742,0.418-1.1465,0.6201-1.6973c0.3242,0.0659,0.6064,0.1509,0.8994,0.1768
								c1.207,0.1094,2.2891-0.2539,2.9297-1.4023C45.8516,12.5894,46.0342,11.3149,45.6963,9.9839z M36.1816,11.2319
								c-0.1289,0.4004-0.2744,0.7969-0.4297,1.1904c-0.042,0.1104-0.1172,0.2603-0.209,0.291
								c-0.3848,0.1245-0.5527,0.1025-0.5146-0.6025c0.0322-0.3516,0.2773-0.8198,0.7119-1.1714
								c0.1113-0.0913,0.3096-0.0796,0.4648-0.1152C36.2002,10.9604,36.2217,11.1055,36.1816,11.2319z M43.1064,12.3794
								c-0.0674,0.1392-0.2217,0.269-0.3633,0.3306c-0.1299,0.0537-0.3008,0.0049-0.4521,0.0015
								c0.0068-0.1279-0.0127-0.2627,0.0234-0.3813c0.1055-0.3315,0.2285-0.6582,0.3574-0.9819
								c0.0566-0.1426,0.1201-0.3086,0.2314-0.4009c0.1182-0.0967,0.3076-0.1768,0.4443-0.1504
								c0.0869,0.0156,0.1328,0.2412,0.2266,0.4355L43.1064,12.3794z"/>
						</g>
					</g>
				</g>
			</g>
		</g>
		<g>
			<g>
				<path fill="#0A8B9C" d="M47.9893,25.3408c-0.2217,0.126-0.4297,0.291-0.666,0.376c-0.6738,0.2402-1.4033-0.2334-1.4414-0.9473
					c-0.0156-0.2959,0.0449-0.6143,0.1514-0.8916c0.3145-0.8047,0.6592-1.5928,1.0068-2.3809
					c0.1934-0.4365,0.4834-0.7656,0.9902-0.8691c0.7168-0.1445,1.3906,0.4297,1.29,1.1543
					c-0.0752,0.5361,0.0391,0.9932,0.3037,1.4668c0.3584,0.6416,0.7188,1.3154,0.8984,2.0215
					c0.4199,1.6416-0.8271,3.1924-2.5127,3.2334c-0.5479,0.0166-1.0957,0.0059-1.6426,0.0039c-0.6348,0-1.0107-0.2109-1.167-0.6514
					c-0.1982-0.5488-0.0283-1.1836,0.4053-1.5488c0.2881-0.2432,0.624-0.3447,0.9932-0.3564
					c0.3721-0.0068,0.7441,0.002,1.1152-0.0176C48.0645,25.9121,48.1689,25.6758,47.9893,25.3408z"/>
			</g>
		</g>
		<g>
			<g>
				<path fill="#0A8B9C" d="M45.6797,23.085c0.1582-0.5449-0.0742-1.04-0.498-1.2822c-0.4482-0.2588-1.0791-0.2109-1.4512,0.1943
					c-0.25,0.2715-0.4531,0.6143-0.5928,0.9609c-0.3408,0.8379-0.6309,1.6982-0.9453,2.5498
					c-0.1182,0.3213-0.3682,0.4727-0.7217,0.4365c0.0342-0.0928,0.0703-0.1816,0.1016-0.2734
					c0.2852-0.8477,0.5947-1.6855,0.8467-2.5439c0.1729-0.5791-0.1025-1.1602-0.5674-1.3672
					c-0.5459-0.2441-1.2158-0.0947-1.5547,0.3916c-0.1992,0.2832-0.3799,0.5928-0.5,0.916
					c-0.3682,1.001-0.7041,2.0146-1.0547,3.0225c-0.3174-0.0479-0.6563-0.0996-1.0186-0.1553
					c0.0283-0.0957,0.0586-0.1992,0.0918-0.2998c0.2822-0.8018,0.5791-1.5996,0.8389-2.4121
					c0.1631-0.5059,0.0732-0.9893-0.373-1.3271c-0.4482-0.3408-0.9287-0.2998-1.4219-0.0732
					c-0.1123,0.0518-0.2939,0.043-0.4043-0.0156c-0.4531-0.2373-0.918-0.3242-1.4258-0.2578
					c-0.8555,0.1133-1.4922,0.5771-2.0225,1.2217c-0.1885,0.2305-0.3564,0.4785-0.5898,0.7949
					c0.0078-0.1855,0.0049-0.2686,0.0166-0.3477c0.1523-1.0811,0.1729-2.1494-0.0859-3.2246
					c-0.3867-1.5977-1.7021-2.8398-3.3447-2.9941c-1.1299-0.1055-2.2695-0.1206-3.4053-0.1206
					c-0.8096,0-1.3818,0.5815-1.4844,1.3911c-0.0977,0.7773,0.3682,1.3232,1.1504,1.3467c0.0967,0.0039,0.1934,0.0088,0.3037,0.0156
					c-0.0273,0.1006-0.0449,0.1875-0.0732,0.2676c-0.9287,2.5781-1.8613,5.1572-2.7783,7.7402
					c-0.083,0.2334-0.1992,0.2783-0.4248,0.2832c-0.96,0.0186-1.9277,0.0039-2.8809,0.1113
					c-1.377,0.1572-2.3604,1.0898-2.6631,2.4453c-0.2969,1.3242-0.0898,2.5449,0.9814,3.4697
					c1.5205,1.3135,4.0762,0.9883,5.292-0.7002c0.5186-0.7217,0.8926-1.5449,1.3096-2.335
					c0.1016-0.1885,0.1943-0.2627,0.4121-0.2734c1.1904-0.0596,2.3369-0.3145,3.4043-0.8584
					c1.627-0.8291,2.7412-2.1328,3.4824-3.7773c0.0459-0.1016,0.1172-0.1914,0.2148-0.3477
					c0.0449,0.3682,0.0615,0.6406,0.1113,0.9082c0.1484,0.79,0.4922,1.4854,1.2852,1.7725
					c0.7725,0.2803,1.5801,0.2979,2.3643-0.0469c0.0859-0.0371,0.2051-0.0273,0.3008-0.0049
					c0.3145,0.0645,0.624,0.1748,0.9404,0.2178c0.3057,0.0371,0.6211,0.0078,0.9688,0.0078
					c-0.0469,0.0791-0.0566,0.1162-0.0801,0.1309c-1.0352,0.6777-1.3867,1.6836-1.3105,2.8584
					c0.0723,1.1162,0.5986,1.9824,1.6084,2.4951c0.9932,0.5039,1.9922,0.4365,2.9375-0.1406
					c0.8613-0.5273,1.3037-1.3887,1.6904-2.2773c0.1455-0.3291,0.1885-0.7881,0.4365-0.9619
					c0.2461-0.1699,0.6904-0.0615,1.0498-0.0781c0.9043-0.0469,1.5293-0.8965,1.3086-1.7715
					c-0.1113-0.4482-0.416-0.7139-0.875-0.7529c-0.1924-0.0166-0.3848-0.0244-0.6025-0.0391
					c0.2813-0.7676,0.5537-1.4922,0.8076-2.2207C45.0967,24.8672,45.416,23.9854,45.6797,23.085z M19.96,31.9502
					c-0.2881-0.0332-0.5117-0.2793-0.5293-0.5752c-0.0225-0.3887,0.0957-0.6182,0.4336-0.6582
					c0.5078-0.0635,1.0205-0.0615,1.5615-0.0889C21.3955,31.251,20.5078,32.0186,19.96,31.9502z M29.5947,23.5342
					c-0.3447,1.2373-0.8604,2.3818-1.8271,3.2754c-0.6416,0.5918-1.3867,0.9551-2.3232,1.0879
					c1.0137-2.7822,2.0059-5.5156,2.9971-8.2432c0.6787-0.001,1.2295,0.5303,1.3604,1.3193
					C29.9434,21.8398,29.8301,22.6943,29.5947,23.5342z M35.5977,24.333c-0.1582,0.4512-0.334,0.8955-0.4893,1.3506
					c-0.0967,0.2803-0.3184,0.3418-0.5449,0.2676c-0.0938-0.0313-0.1787-0.25-0.1787-0.3828
					c0.001-0.6289,0.2969-1.1279,0.7822-1.5068c0.1113-0.0889,0.2842-0.0947,0.498-0.1602
					C35.6338,24.1055,35.6338,24.2236,35.5977,24.333z M39.8164,31.5205c-0.1641,0.2188-0.4287,0.2363-0.6572,0.1553
					c-0.1084-0.0391-0.2031-0.2197-0.2324-0.3525c-0.0537-0.2471,0.0479-0.4941,0.2803-0.5723
					c0.3594-0.1221,0.7461-0.1738,1.1201-0.2529c0.0283,0.0439,0.0557,0.0928,0.083,0.1406
					C40.2139,30.9326,40.0283,31.2383,39.8164,31.5205z"/>
			</g>
		</g>
		<g>
			<g>
				<path fill="none" d="M52.7354,21.0215c1.1758,0.0391,2.1113-0.4678,2.7207-1.4629c0.4355-0.7144,0.7705-1.4907,1.1758-2.2949
					c0.2393,0,0.5674,0.0039,0.8955-0.002c0.8008-0.0137,1.3564-0.5249,1.4463-1.3208c0.0732-0.6377-0.2871-1.1128-0.9209-1.2036
					c-0.1787-0.0264-0.3594-0.0327-0.5684-0.0503c0.0381-0.1392,0.0615-0.2456,0.0986-0.3462
					c0.3174-0.8735,0.6494-1.7417,0.9561-2.6196c0.2305-0.6592,0.4854-1.3184,0.624-1.998
					c0.1836-0.9043-0.5537-1.5317-1.4404-1.2871c-0.5898,0.1641-0.8672,0.6274-1.0654,1.1533
					c-0.3252,0.8696-0.6406,1.7437-0.9619,2.6138c-0.1299,0.3496-0.3779,0.5146-0.752,0.4932
					c0.0264-0.0742,0.0508-0.1445,0.0732-0.2148c0.2998-0.9014,0.625-1.7954,0.8857-2.707
					c0.1563-0.5352-0.1299-1.0962-0.5488-1.2837c-0.5459-0.2437-1.209-0.1118-1.5361,0.356
					c-0.2236,0.3184-0.4082,0.6709-0.5586,1.0293c-0.208,0.4946-0.3652,1.0073-0.5449,1.5112
					c-0.0293,0.0771-0.0771,0.1465-0.1162,0.2197c-0.0703-0.1777-0.0547-0.3276-0.0723-0.4741
					c-0.0635-0.4951-0.0762-1.0107-0.2256-1.4805c-0.4043-1.2734-1.623-1.7412-2.8096-1.1372
					c-0.082,0.042-0.2256,0.0273-0.3154-0.0146c-0.6357-0.3018-1.3848-0.084-1.7334,0.5308
					C47.3398,9.21,47.2695,9.4092,47.1992,9.604c-0.8652,2.395-1.7334,4.7896-2.5879,7.189
					c-0.3047,0.8535-0.6045,1.7124-0.8477,2.5811c-0.1543,0.5557,0.1045,1.0449,0.541,1.251
					c0.4863,0.2285,1.1699,0.1055,1.4951-0.3184c0.1904-0.2461,0.3438-0.5371,0.4531-0.8301
					c0.5527-1.4834,1.084-2.9751,1.6328-4.4927c0.8799,0.3345,1.7295,0.3218,2.5664,0.0117
					c0.8604-0.3188,1.3203-1.0566,1.7461-1.8228c0.0713,0.6025,0.1572,1.1567,0.6289,1.606
					c-0.1689,0.0493-0.2598,0.0811-0.3545,0.1011c-1.5381,0.3135-2.4102,1.2739-2.5615,2.8218
					C49.7412,19.4502,51.0146,20.9668,52.7354,21.0215z"/>
			</g>
		</g>
		<g>
			<g>
				<path fill="none" d="M45.875,9.8213c-0.333-1.3135-1.6152-1.9966-2.8867-1.2964c-0.0664,0.0381-0.1875,0.0386-0.2627,0.0049
					c-0.8291-0.375-1.6055-0.0537-1.9238,0.8154c-0.2422,0.6558-0.4697,1.3174-0.7061,1.9756
					c-0.2051,0.5718-0.417,1.1431-0.5996,1.6494c-0.4561-0.1265-0.873-0.2407-1.3047-0.3599
					c0.0381-0.1099,0.0801-0.2329,0.1221-0.3555c0.2715-0.7729,0.5605-1.5415,0.8066-2.3213
					c0.1611-0.5088,0.0576-0.9795-0.3799-1.3286c-0.3809-0.3037-0.9473-0.3188-1.416-0.0303
					c-0.1416,0.0864-0.2334,0.0913-0.374-0.0015c-0.457-0.3032-0.96-0.3745-1.5029-0.291
					c-0.8662,0.1338-1.5088,0.6177-2.0205,1.2866c-0.9922,1.2944-1.375,2.7222-0.8174,4.3096
					c0.209,0.5933,0.6094,1.0742,1.2305,1.228c0.8096,0.1997,1.6396,0.2578,2.4014-0.1909
					c0.7617,0.4932,1.5879,0.2734,2.4619,0.2656c-0.2578,0.7129-0.5215,1.4053-0.7598,2.1064
					c-0.2461,0.7231-0.5195,1.4424-0.6865,2.1851c-0.1729,0.7744,0.5176,1.377,1.2939,1.2441
					c0.623-0.1074,0.9453-0.5166,1.1445-1.0527c0.3633-0.96,0.7041-1.9287,1.0557-2.8945c0.2129-0.5928,0.4297-1.1846,0.6367-1.7529
					c0.3369,0.0679,0.6299,0.1553,0.9297,0.1831c1.2471,0.1128,2.3662-0.2627,3.0273-1.4502
					C46.0342,12.5127,46.2246,11.1963,45.875,9.8213z"/>
			</g>
		</g>
		<g>
			<g>
				<path fill="none" d="M46.3672,28.5078c0.5469,0.002,1.0947,0.0127,1.6426-0.0039c1.6855-0.041,2.9326-1.5918,2.5127-3.2334
					c-0.1797-0.7061-0.54-1.3799-0.8984-2.0215c-0.2646-0.4736-0.3789-0.9307-0.3037-1.4668
					c0.1006-0.7246-0.5732-1.2988-1.29-1.1543c-0.5068,0.1035-0.7969,0.4326-0.9902,0.8691
					c-0.3477,0.7881-0.6924,1.5762-1.0068,2.3809c-0.1064,0.2773-0.167,0.5957-0.1514,0.8916
					c0.0381,0.7139,0.7676,1.1875,1.4414,0.9473c0.2363-0.085,0.4443-0.25,0.666-0.376c0.1797,0.335,0.0752,0.5713-0.2754,0.5928
					c-0.3711,0.0195-0.7432,0.0107-1.1152,0.0176c-0.3691,0.0117-0.7051,0.1133-0.9932,0.3564
					c-0.4336,0.3652-0.6035,1-0.4053,1.5488C45.3564,28.2969,45.7324,28.5078,46.3672,28.5078z"/>
			</g>
		</g>
		<g>
			<g>
				<path fill="none" d="M17.7285,33.9492c1.5205,1.3135,4.0762,0.9883,5.292-0.7002c0.5186-0.7217,0.8926-1.5449,1.3096-2.335
					c0.1016-0.1885,0.1943-0.2627,0.4121-0.2734c1.1904-0.0596,2.3369-0.3145,3.4043-0.8584
					c1.627-0.8291,2.7412-2.1328,3.4824-3.7773c0.0459-0.1016,0.1172-0.1914,0.2148-0.3477
					c0.0449,0.3682,0.0615,0.6406,0.1113,0.9082c0.1484,0.79,0.4922,1.4854,1.2852,1.7725
					c0.7725,0.2803,1.5801,0.2979,2.3643-0.0469c0.0859-0.0371,0.2051-0.0273,0.3008-0.0049
					c0.3145,0.0645,0.624,0.1748,0.9404,0.2178c0.3057,0.0371,0.6211,0.0078,0.9688,0.0078
					c-0.0469,0.0791-0.0566,0.1162-0.0801,0.1309c-1.0352,0.6777-1.3867,1.6836-1.3105,2.8584
					c0.0723,1.1162,0.5986,1.9824,1.6084,2.4951c0.9932,0.5039,1.9922,0.4365,2.9375-0.1406
					c0.8613-0.5273,1.3037-1.3887,1.6904-2.2773c0.1455-0.3291,0.1885-0.7881,0.4365-0.9619
					c0.2461-0.1699,0.6904-0.0615,1.0498-0.0781c0.9043-0.0469,1.5293-0.8965,1.3086-1.7715
					c-0.1113-0.4482-0.416-0.7139-0.875-0.7529c-0.1924-0.0166-0.3848-0.0244-0.6025-0.0391
					c0.2813-0.7676,0.5537-1.4922,0.8076-2.2207c0.3115-0.8867,0.6309-1.7686,0.8945-2.6689c0.1582-0.5449-0.0742-1.04-0.498-1.2822
					c-0.4482-0.2588-1.0791-0.2109-1.4512,0.1943c-0.25,0.2715-0.4531,0.6143-0.5928,0.9609
					c-0.3408,0.8379-0.6309,1.6982-0.9453,2.5498c-0.1182,0.3213-0.3682,0.4727-0.7217,0.4365
					c0.0342-0.0928,0.0703-0.1816,0.1016-0.2734c0.2852-0.8477,0.5947-1.6855,0.8467-2.5439
					c0.1729-0.5791-0.1025-1.1602-0.5674-1.3672c-0.5459-0.2441-1.2158-0.0947-1.5547,0.3916
					c-0.1992,0.2832-0.3799,0.5928-0.5,0.916c-0.3682,1.001-0.7041,2.0146-1.0547,3.0225
					c-0.3174-0.0479-0.6563-0.0996-1.0186-0.1553c0.0283-0.0957,0.0586-0.1992,0.0918-0.2998
					c0.2822-0.8018,0.5791-1.5996,0.8389-2.4121c0.1631-0.5059,0.0732-0.9893-0.373-1.3271
					c-0.4482-0.3408-0.9287-0.2998-1.4219-0.0732c-0.1123,0.0527-0.2939,0.043-0.4043-0.0156
					c-0.4531-0.2373-0.918-0.3242-1.4258-0.2578c-0.8555,0.1133-1.4922,0.5771-2.0225,1.2227
					c-0.1885,0.2305-0.3564,0.4785-0.5898,0.7939c0.0078-0.1846,0.0049-0.2686,0.0166-0.3477
					c0.1523-1.0811,0.1729-2.1494-0.0859-3.2246c-0.3867-1.5977-1.7021-2.8394-3.3447-2.9937
					c-1.1299-0.106-2.2695-0.1206-3.4053-0.1206c-0.8096,0-1.3818,0.5811-1.4844,1.3906c-0.0977,0.7773,0.3682,1.3232,1.1504,1.3477
					c0.0967,0.0039,0.1934,0.0078,0.3037,0.0146c-0.0273,0.1006-0.0449,0.1875-0.0732,0.2686
					c-0.9287,2.5771-1.8613,5.1563-2.7783,7.7393c-0.083,0.2334-0.1992,0.2783-0.4248,0.2832
					c-0.96,0.0186-1.9277,0.0039-2.8809,0.1113c-1.377,0.1572-2.3604,1.0898-2.6631,2.4453
					C16.4502,31.8037,16.6572,33.0244,17.7285,33.9492z"/>
			</g>
		</g>
		<g>
			<g>
				<path fill="#EE3991" d="M31.207,11.1934c0.3662-0.0142,0.748-0.0229,1.0957-0.1245c0.6162-0.1792,1.0029-0.874,0.9365-1.5635
					c-0.0635-0.6294-0.3906-0.9287-1.1406-1.0415c-0.04-0.0063-0.082-0.019-0.1445-0.0347c0.3174-0.875,0.6572-1.7285,0.9316-2.6011
					c0.1338-0.4282,0.2295-0.9004,0.1963-1.3413c-0.0566-0.71-0.7578-1.1089-1.4512-0.937
					c-0.6074,0.1494-0.9473,0.5664-1.1514,1.1108c-0.4424,1.1772-0.8623,2.3638-1.2959,3.543
					c-0.0342,0.0938-0.1094,0.2412-0.1699,0.2441c-0.4082,0.022-0.8164,0.0112-1.2773,0.0112
					c0.2393-0.667,0.4727-1.2681,0.6738-1.8779c0.1885-0.5698,0.3818-1.1431,0.5088-1.7266c0.1201-0.5464-0.1367-1.0503-0.54-1.23
					c-0.5996-0.2681-1.3428-0.1025-1.7373,0.4443c-0.2119,0.2959-0.3662,0.6455-0.4951,0.9897
					c-0.3916,1.0439-0.7617,2.0972-1.1309,3.1494c-0.0684,0.1943-0.1641,0.2607-0.374,0.2681
					c-1.1836,0.0352-2.3574,0.1685-3.4951,0.5098c-1.7285,0.5181-3.126,1.4453-3.7441,3.2271
					c-0.4238,1.2212-0.4844,2.4917-0.1914,3.7563c0.5586,2.4043,3.2393,3.6206,5.4355,2.4863
					c1.2549-0.6494,2.0225-1.7324,2.5391-2.9858c0.54-1.313,0.9795-2.667,1.4766-3.998c0.04-0.1074,0.1631-0.2515,0.2568-0.2588
					c0.3789-0.0293,0.7646-0.0122,1.1807-0.0122c-0.2158,0.6533-0.4424,1.2476-0.6055,1.8574
					c-0.2471,0.936,0.2607,1.8477,1.1602,2.0503c0.9141,0.2041,1.8506,0.1899,2.7686,0.0215
					c0.665-0.1211,1.1084-0.8838,1.0195-1.6338c-0.0781-0.6831-0.4648-0.9854-1.2607-0.9893
					c-0.2207-0.0029-0.4424-0.001-0.7041-0.001c0.1445-0.4009,0.2725-0.7266,0.3779-1.0576
					C30.916,11.2637,31.0068,11.2007,31.207,11.1934z M23.502,12.3628c-0.3398,0.8394-0.6768,1.6816-1.0479,2.5073
					c-0.1191,0.2632-0.3223,0.4946-0.5215,0.7085c-0.3311,0.3579-0.7441,0.5601-1.2363,0.3955
					c-0.4893-0.1621-0.7158-0.5718-0.7881-1.0454c-0.1816-1.1509,0.2773-2.0527,1.166-2.7515
					c0.8184-0.6406,1.7744-0.8926,2.8408-0.958C23.7686,11.6279,23.6484,12.0005,23.502,12.3628z"/>
			</g>
		</g>
		<g>
			<g>
				<path fill="#EE3991" d="M58.5391,11.7212c0.2305-0.6592,0.4854-1.3184,0.624-1.998c0.1836-0.9043-0.5537-1.5317-1.4404-1.2871
					c-0.5898,0.1641-0.8672,0.6274-1.0654,1.1533c-0.3252,0.8696-0.6406,1.7437-0.9619,2.6138
					c-0.1299,0.3496-0.3779,0.5146-0.752,0.4932c0.0264-0.0742,0.0508-0.1445,0.0732-0.2148
					c0.2998-0.9014,0.625-1.7954,0.8857-2.707c0.1563-0.5352-0.1299-1.0962-0.5488-1.2837c-0.5459-0.2437-1.209-0.1118-1.5361,0.356
					c-0.2236,0.3184-0.4082,0.6709-0.5586,1.0293c-0.208,0.4946-0.3652,1.0073-0.5449,1.5112
					c-0.0293,0.0771-0.0771,0.1465-0.1162,0.2197c-0.0703-0.1777-0.0547-0.3276-0.0723-0.4741
					c-0.0635-0.4951-0.0762-1.0107-0.2256-1.4805c-0.4043-1.2734-1.623-1.7412-2.8096-1.1372
					c-0.082,0.042-0.2256,0.0273-0.3154-0.0146c-0.6357-0.3018-1.3848-0.084-1.7334,0.5308
					C47.3398,9.21,47.2695,9.4092,47.1992,9.604c-0.8652,2.3955-1.7334,4.7896-2.5879,7.189
					c-0.3047,0.8535-0.6045,1.7124-0.8477,2.5815c-0.1543,0.5552,0.1045,1.0444,0.541,1.2505
					c0.4863,0.2285,1.1699,0.1055,1.4951-0.3184c0.1904-0.2461,0.3438-0.5371,0.4531-0.8301
					c0.5527-1.4834,1.084-2.9751,1.6328-4.4927c0.8799,0.3345,1.7295,0.3218,2.5664,0.0117
					c0.8604-0.3188,1.3203-1.0566,1.7461-1.8228c0.0713,0.6025,0.1572,1.1567,0.6289,1.606
					c-0.1689,0.0493-0.2598,0.0811-0.3545,0.1011c-1.5381,0.3135-2.4102,1.2739-2.5615,2.8218
					c-0.1699,1.749,1.1035,3.2651,2.8242,3.3198c1.1758,0.0391,2.1113-0.4668,2.7207-1.4629
					c0.4355-0.7139,0.7705-1.4902,1.1758-2.2944c0.2393,0,0.5674,0.0039,0.8955-0.002c0.8008-0.0142,1.3564-0.5249,1.4463-1.3208
					c0.0732-0.6377-0.2871-1.1133-0.9209-1.2036c-0.1787-0.0269-0.3594-0.0327-0.5684-0.0503
					c0.0381-0.1396,0.0615-0.2456,0.0986-0.3462C57.9004,13.4673,58.2324,12.5991,58.5391,11.7212z M49.6426,12.3564
					c-0.0908,0.1265-0.2334,0.2432-0.377,0.2939c-0.1289,0.0449-0.2891-0.0103-0.4365-0.0215
					c0.0068-0.1211-0.0068-0.252,0.0322-0.3647c0.1309-0.3921,0.2793-0.7813,0.4287-1.1685
					c0.0332-0.0898,0.0752-0.2061,0.1475-0.2471c0.1602-0.0908,0.3428-0.1768,0.5186-0.187
					c0.0518-0.0024,0.1191,0.2578,0.1787,0.397C50.0908,11.5571,49.915,11.978,49.6426,12.3564z M53.3291,18.231
					c-0.167,0.229-0.4395,0.2773-0.6787,0.1821c-0.1201-0.0493-0.2207-0.2583-0.2432-0.4097
					c-0.0439-0.2886,0.1006-0.5303,0.3877-0.6055c0.3428-0.0894,0.6982-0.1221,1.0488-0.1792
					c0.0244,0.0405,0.0479,0.0811,0.0723,0.1226C53.7197,17.6382,53.54,17.9438,53.3291,18.231z"/>
			</g>
		</g>
		<g>
			<g>
				<g>
					<g>
						<path fill="none" d="M36.0703,10.6895c-0.1621,0.0361-0.3643,0.0239-0.4795,0.1191
							c-0.4502,0.3623-0.7031,0.8462-0.7383,1.2104c-0.0361,0.7271,0.1357,0.7495,0.5322,0.6216
							c0.0967-0.0313,0.1738-0.187,0.2178-0.3018c0.1592-0.4053,0.3086-0.8149,0.4434-1.2285
							C36.0879,10.98,36.0635,10.8291,36.0703,10.6895z"/>
					</g>
				</g>
				<g>
					<g>
						<path fill="none" d="M43.4473,10.6602c-0.1406-0.0264-0.3379,0.0562-0.458,0.1563c-0.1152,0.0957-0.1797,0.2666-0.2393,0.4146
							c-0.1348,0.3345-0.2607,0.6709-0.3691,1.0142c-0.0381,0.1216-0.0195,0.2622-0.0244,0.3936
							c0.1553,0.0049,0.333,0.0537,0.4658-0.0015c0.1494-0.063,0.3076-0.1978,0.377-0.3423l0.4824-1.1841
							C43.585,10.9102,43.5371,10.6772,43.4473,10.6602z"/>
					</g>
				</g>
			</g>
			<g>
				<g>
					<path fill="#EE3991" d="M45.875,9.8213c-0.333-1.3135-1.6152-1.9966-2.8867-1.2964c-0.0664,0.0381-0.1875,0.0386-0.2627,0.0049
						c-0.8291-0.375-1.6055-0.0537-1.9238,0.8154c-0.2422,0.6558-0.4697,1.3174-0.7061,1.9756
						c-0.2051,0.5718-0.417,1.1431-0.5996,1.6494c-0.4561-0.1265-0.873-0.2407-1.3047-0.3599
						c0.0381-0.1099,0.0801-0.2329,0.1221-0.3555c0.2715-0.7729,0.5605-1.5415,0.8066-2.3213
						c0.1611-0.5088,0.0576-0.9795-0.3799-1.3286c-0.3809-0.3037-0.9473-0.3188-1.416-0.0303
						c-0.1416,0.0864-0.2334,0.0913-0.374-0.0015c-0.457-0.3032-0.96-0.3745-1.5029-0.291
						c-0.8662,0.1338-1.5088,0.6177-2.0205,1.2866c-0.9922,1.2944-1.375,2.7222-0.8174,4.3096
						c0.209,0.5933,0.6094,1.0742,1.2305,1.228c0.8096,0.1997,1.6396,0.2578,2.4014-0.1909
						c0.7617,0.4932,1.5879,0.2734,2.4619,0.2656c-0.2578,0.7129-0.5215,1.4053-0.7598,2.1064
						c-0.2461,0.7231-0.5195,1.4424-0.6865,2.1851c-0.1729,0.7744,0.5176,1.377,1.2939,1.2441
						c0.623-0.1074,0.9453-0.5166,1.1445-1.0527c0.3633-0.96,0.7041-1.9287,1.0557-2.8945
						c0.2129-0.5928,0.4297-1.1846,0.6367-1.7529c0.3369,0.0679,0.6299,0.1553,0.9297,0.1831
						c1.2471,0.1128,2.3662-0.2627,3.0273-1.4502C46.0342,12.5127,46.2246,11.1963,45.875,9.8213z M36.0459,11.1104
						c-0.1348,0.4136-0.2842,0.8232-0.4434,1.2285c-0.0439,0.1147-0.1211,0.2705-0.2178,0.3018
						c-0.3965,0.1279-0.5684,0.1055-0.5322-0.6216c0.0352-0.3643,0.2881-0.8481,0.7383-1.2104
						c0.1152-0.0952,0.3174-0.083,0.4795-0.1191C36.0635,10.8291,36.0879,10.98,36.0459,11.1104z M43.1992,12.2949
						c-0.0693,0.144-0.2275,0.2793-0.377,0.3423c-0.1328,0.0552-0.3105,0.0059-0.4658,0.0015
						c0.0049-0.1313-0.0137-0.272,0.0244-0.3936c0.1084-0.3433,0.2344-0.6797,0.3691-1.0142
						c0.0596-0.1479,0.124-0.3188,0.2393-0.4146c0.1201-0.1001,0.3174-0.1826,0.458-0.1563c0.0898,0.0171,0.1377,0.25,0.2344,0.4507
						L43.1992,12.2949z"/>
				</g>
			</g>
		</g>
		<path fill="#F14ACD" d="M32.377,8.8711h-1.0996l1.3301-3.7114c0,0,0.3877-1.0894-0.5957-1.2324c0,0-0.7012-0.1421-1.041,0.5815
			l-1.6309,4.4116l-2.2666-0.0552l1.3574-3.6348c0,0,0.459-1.106-0.5244-1.291c0,0-0.7129-0.1431-1.0625,0.5635l-1.707,4.4502
			c0,0-3.0898-0.1641-5.1748,0.9199c0,0-2.8574,1.3955-2.4951,4.9102c0,0-0.2461,2.9727,2.9063,3.6621
			c0,0,3.0059,0.4932,4.4346-3.2188l1.624-4.4668h2.2666l-0.6377,1.8389c0,0-0.9873,1.7725,0.9023,2.1348l1.3623,0.0498
			c0,0,1.6094,0.3613,1.6748-0.8867c0,0,0.1475-0.9517-0.6719-0.9517h-1.5117l0.7881-2.1689h1.2314c0,0,0.7549,0.0327,0.9355-0.8379
			C32.7715,9.938,33.084,9.1992,32.377,8.8711z M23.6895,13.0371c-1.2588,3.7769-2.6582,3.4482-2.6582,3.4482
			c-2.0605-0.1089-1.6318-2.3643-1.6318-2.3643c0.3828-2.9014,3.8408-3.3179,3.8408-3.3179
			c0.6572-0.1528,1.2822-0.0767,1.2822-0.0767L23.6895,13.0371z"/>
		<g>
			<g>
				<path fill="#F14ACD" d="M38.7236,13.0928h-1.1182c0,0,0.8975-2.3726,1.1611-3.1748c0.084-0.2593,0.208-0.7114-0.252-1.062
					c0,0-0.5918-0.3394-1.0176,0.1309l-0.3076,0.3394c0,0-0.4346-0.917-1.6309-0.7002c-1.1699,0.2119-2.6719,1.6973-2.7266,3.8975
					c0,0-0.1299,2.0215,1.3691,2.252c0.3105,0.0479,1.2588,0,1.2588,0s0.7119-0.0186,0.9639-0.5879c0,0,0.0762,0.5581,0.667,0.5879
					l1.0742-0.0083c0,0,1.0176,0.144,1.1152-0.7983C39.2803,13.9683,39.5107,13.1582,38.7236,13.0928z M36.4336,11.5596
					l-0.3623,0.9395c-0.2529,0.7227-0.9512,0.5908-0.9512,0.5908c-0.8369-0.0825-0.6338-1.1001-0.6338-1.1001
					c0.1514-0.9722,0.7178-1.5547,1.208-1.7656c0.3984-0.1768,0.8428-0.0327,0.9199,0.1885
					C36.7842,10.8984,36.4336,11.5596,36.4336,11.5596z"/>
			</g>
		</g>
		<g>
			<g>
				<path fill="#05CCFF" d="M38.1123,26.3291h-1.1182c0,0,0.8975-2.374,1.1602-3.1768c0.0869-0.2588,0.207-0.71-0.251-1.0615
					c0,0-0.5908-0.3359-1.0186,0.1318l-0.3076,0.3398c0,0-0.4326-0.9189-1.6309-0.7012c-1.1699,0.2109-2.6709,1.6982-2.7256,3.9004
					c0,0-0.1299,2.0176,1.3701,2.2471c0.3105,0.0488,1.2568,0,1.2568,0s0.7139-0.0176,0.9648-0.5869c0,0,0.0771,0.5586,0.667,0.5869
					l1.0732-0.0059c0,0,1.0186,0.1426,1.1162-0.8008C38.6689,27.2021,38.8994,26.3936,38.1123,26.3291z M35.8223,24.7959
					l-0.3633,0.9365c-0.251,0.7246-0.9502,0.5928-0.9502,0.5928c-0.8369-0.0811-0.6328-1.0986-0.6328-1.0986
					c0.1494-0.9746,0.7178-1.5557,1.208-1.7646c0.3975-0.1797,0.8428-0.0352,0.9189,0.1865
					C36.1719,24.1328,35.8223,24.7959,35.8223,24.7959z"/>
			</g>
		</g>
		<g>
			<g>
				<path fill="#F14ACD" d="M50.9688,8.7422c-0.8643-0.3501-1.708,0.5366-1.708,0.5366c-0.165,0-0.1152-0.2573-0.2412-0.3833
					c-0.2852-0.2856-0.8428-0.0156-0.8428-0.0156c-0.3867,0.1904-0.418,0.5039-0.4932,0.7051
					c-0.8799,2.3921-3.4922,9.625-3.4922,9.625c-0.252,0.9795,0.1563,1.0586,0.4434,1.0996
					c0.9824,0.1367,1.2686-1.0566,1.2686-1.0566l1.8252-5.0801c0.5361,0.6182,1.0137,0.6602,1.4014,0.6563
					c2.1787-0.0156,2.6816-1.9268,2.6816-1.9268C52.7969,9.3003,50.9688,8.7422,50.9688,8.7422z M49.5967,13.0254
					c0,0-0.5303,0.3301-1.1465-0.0405c-0.1523-0.0913-0.2842-0.1699-0.0195-0.7886c0,0,0.334-0.9927,0.4521-1.3223
					c0.1055-0.2949,0.5029-0.7852,1.0068-0.7524c0,0,0.6582-0.0005,0.6895,0.8262C50.6006,11.5146,50.6729,12.2212,49.5967,13.0254z
					"/>
			</g>
		</g>
		<g>
			<g>
				<path fill="#F14ACD" d="M44.4307,8.7422c-0.8662-0.3501-1.708,0.5371-1.708,0.5371c-0.165,0-0.1152-0.2578-0.2422-0.3838
					c-0.2842-0.2856-0.8428-0.0156-0.8428-0.0156c-0.3848,0.1904-0.418,0.5039-0.4912,0.7051
					c-0.8809,2.3921-3.4932,9.625-3.4932,9.625c-0.252,0.9795,0.1553,1.0586,0.4434,1.0996
					c0.9824,0.1367,1.2676-1.0566,1.2676-1.0566l1.8252-5.0801c0.5361,0.6182,1.0137,0.6602,1.4004,0.6563
					c2.1787-0.0156,2.6836-1.9268,2.6836-1.9268C46.2588,9.3008,44.4307,8.7422,44.4307,8.7422z M43.0566,13.0254
					c0,0-0.5273,0.3301-1.1455-0.0405c-0.1504-0.0913-0.2832-0.1699-0.0176-0.7886c0,0,0.333-0.9927,0.4521-1.3223
					c0.1055-0.2949,0.502-0.7852,1.0068-0.7524c0,0,0.6582-0.0005,0.6904,0.8262C44.0635,11.5146,44.1357,12.2212,43.0566,13.0254z"
					/>
			</g>
		</g>
		<g>
			<g>
				<path fill="#F14ACD" d="M58.3145,8.8022c-0.2725-0.1021-0.7695-0.1704-1.083,0.4707c-0.3291,0.6738-1.126,2.7808-1.126,2.7808
					s-0.0352,0.9526-1.0293,1.0513c0,0-0.8916,0.2085-0.4717-0.8535c0.1846-0.4658,0.6836-1.8838,0.6836-1.8838
					s0.3125-0.8315,0.0723-1.2813c-0.1338-0.2456-0.5381-0.4917-1.1064-0.1577c-0.2051,0.1191-0.3223,0.2808-0.5254,0.7881
					c-0.3154,0.7876-0.8477,2.1016-1.0791,3.2188c-0.0947,0.4624,0.1309,1.4565,0.833,1.6973c0,0,1.0938,0.4678,1.6689-0.1763
					l0.1367,0.0181l-0.2285,0.645c0,0-2.0254-0.0537-2.9844,0.2349c-0.8262,0.249-1.9609,1.2588-1.7529,2.9292
					c0,0,0.1328,2.0854,2.3623,2.2505c1.0166,0.0732,2.3467-0.4004,3.0869-2.6343l0.4199-1.0898c0,0,0.8047-0.0229,1.167-0.0063
					c0.3018,0.0156,1.0732,0.0835,1.1152-0.8691c0.0117-0.2373,0.0439-0.8262-0.4805-0.8203H56.75l1.8838-5.0088
					C58.6338,10.1055,58.9492,9.0376,58.3145,8.8022z M53.8154,18.2612c-0.6113,0.9683-1.7217,0.5049-1.9033,0.0654
					c-0.3037-0.7251,0.4512-1.4482,0.8516-1.4878c1.2813-0.1245,1.8076-0.0015,1.8076-0.0015S54.0352,17.9238,53.8154,18.2612z"/>
			</g>
		</g>
		<g>
			<g>
				<path fill="#00CDFF" d="M44.8311,22.085c-0.2754-0.1006-0.7725-0.1699-1.084,0.4697c-0.3301,0.6777-1.1279,2.7822-1.1279,2.7822
					s-0.0342,0.9531-1.0293,1.0527c0,0-0.8896,0.209-0.4707-0.8525c0.1826-0.4678,0.6826-1.8848,0.6826-1.8848
					s0.3125-0.832,0.0732-1.2822c-0.1338-0.2461-0.5371-0.4922-1.1064-0.1572c-0.2051,0.1201-0.3223,0.2813-0.5254,0.7861
					c-0.3164,0.79-0.8496,2.1035-1.0791,3.2207c-0.0947,0.4619,0.1318,1.4541,0.832,1.6943c0,0,1.0947,0.4697,1.6699-0.1738
					l0.1357,0.0166l-0.2275,0.6455c0,0-2.0254-0.0537-2.9854,0.2354c-0.8252,0.249-1.96,1.2588-1.751,2.9277
					c0,0,0.1309,2.0889,2.3604,2.251c1.0166,0.0742,2.3477-0.3975,3.0869-2.6318l0.4199-1.0898c0,0,0.8057-0.0264,1.168-0.0049
					c0.3018,0.0127,1.0732,0.0791,1.1152-0.8721c0.0117-0.2383,0.0439-0.8252-0.4824-0.8213h-1.2412l1.8838-5.0068
					C45.1484,23.3896,45.4639,22.3203,44.8311,22.085z M40.3301,31.5449c-0.6113,0.9668-1.7217,0.5068-1.9053,0.0645
					c-0.3018-0.7246,0.4521-1.4482,0.8525-1.4873c1.2822-0.123,1.8076,0,1.8076,0S40.5498,31.2061,40.3301,31.5449z"/>
			</g>
		</g>
		<g>
			<g>
				<path fill="#00CDFF" d="M32.0762,20.9912c0,0,0.0205-3.4844-3.5156-3.6689c0,0-2.2891,0-3.0098,0
					c-0.0811,0-0.9385,0.0869-0.9688,0.8096c-0.0195,0.4556-0.1992,1.2197,1.6582,1.0073l-3.2939,9.228h-3.1104
					c0,0-2.5518-0.0645-2.7598,2.9336c0,0-0.043,2.7949,2.791,3.0117c0,0,2.2568,0.1328,3.4063-2.2021l0.9092-1.9141
					c0,0,1.5791-0.0352,3.1846-0.5254c1.1797-0.3623,2.7148-1.6084,3.6357-3.3389C31.0029,26.332,32.2295,24.0225,32.0762,20.9912z
					 M20.3604,32.3193c-0.376,0.1035-1.2998,0.1543-1.4873-0.6934c-0.0938-0.4121,0-1.4033,0.9248-1.4033h2.3525
					C22.1504,30.2227,21.5811,31.8945,20.3604,32.3193z M30.2041,22.293c0,0-0.5693,6.1943-5.4521,5.998l3.3496-9.1948
					C28.1016,19.0962,30.6309,19.0186,30.2041,22.293z"/>
			</g>
		</g>
		<g>
			<g>
				<path fill="#00CDFF" d="M47.4717,21.6104c-0.3281,0.6299-1.0957,2.626-1.0957,2.626c-0.3193,0.7549,0.3428,1.0918,0.668,1.1123
					c0.5049,0.0313,0.9619-1.0986,0.9619-1.0986c0.377,0.4199,0.4375,0.8047,0.5,1.0986c0.2295,1.0615-0.8789,1.0742-0.8789,1.0742
					h-1.2793c-0.6709,0.0791-0.79,0.9863-0.79,0.9863c0,0.4219,0.2979,0.6953,0.5107,0.6807
					c0.4971-0.0352,2.0938,0.0146,2.6738-0.0762c1.084-0.165,1.4873-1.6885,1.4141-2.4531
					c-0.1406-1.4814-1.3291-2.6836-1.3291-2.6836c-0.1328-0.2881,0.0479-1.2246,0.0479-1.2246
					c0.1143-0.5586-0.6035-0.6191-0.6396-0.623C47.8643,21.0254,47.582,21.3955,47.4717,21.6104z"/>
			</g>
		</g>
	</g>
	<ellipse fill="#FFFFFF" cx="34.8193" cy="17.9766" rx="0.4629" ry="0.7813"/>
</g>
</svg>
