<?xml version="1.0" encoding="utf-8"?>
<!-- Generator: Adobe Illustrator 23.0.1, SVG Export Plug-In . SVG Version: 6.00 Build 0)  -->
<svg version="1.1" id="Capa_1" xmlns="http://www.w3.org/2000/svg" xmlns:xlink="http://www.w3.org/1999/xlink" x="0px" y="0px"
	 width="87.4071px" height="76.5px" viewBox="0 0 87.4071 76.5" style="enable-background:new 0 0 87.4071 76.5;"
	 xml:space="preserve">
<style type="text/css">
	.st0{fill:#FFFFFF;stroke:#FFFFFF;stroke-width:2;stroke-miterlimit:10;}
	.st1{opacity:0.3;fill:#7C7C7C;enable-background:new    ;}
	.st2{fill:#527FA1;}
	.st3{fill:#042E60;}
	.st4{fill:#263238;}
	.st5{fill:#FFFFFF;}
	.st6{fill:#674675;}
	.st7{fill:#C6590E;}
	.st8{fill:#00337F;}
	.st9{opacity:0.8;fill:#FFFFFF;enable-background:new    ;}
	.st10{fill:#FB6C06;}
	.st11{opacity:0.3;fill:#A8302D;}
	.st12{fill:#661717;}
	.st13{fill:#E8F0FC;enable-background:new    ;}
	.st14{fill:#DB6719;}
	.st15{fill:#A8302D;}
	.st16{opacity:0.3;fill:#8E2323;}
	.st17{fill:#631818;}
	.st18{fill:#043268;}
	.st19{fill:#053268;}
	.st20{fill:#FF3029;}
	.st21{fill:#FFB603;}
	.st22{fill:#A50202;}
</style>
<g>
	
		<ellipse transform="matrix(0.7886 -0.6149 0.6149 0.7886 -7.2519 31.4943)" class="st20" cx="42.1755" cy="26.2935" rx="15.0092" ry="13.9558"/>
	
		<ellipse transform="matrix(0.7886 -0.6149 0.6149 0.7886 -7.3472 30.2843)" class="st21" cx="40.3681" cy="25.8271" rx="15.0092" ry="13.9558"/>
	<path class="st21" d="M51.6919,11.8678c2.6852-0.8291,5.1551-2.3393,5.221-3.2281c0.0821-1.1076-0.6052-1.2006-1.2404-1.0601
		c-0.5496,0.1216-1.0518,0.4153-1.4649,0.8004C51.9751,10.4613,51.6919,11.8678,51.6919,11.8678z"/>
	<path class="st21" d="M58.0267,19.7366c2.807,0.1361,5.6438-0.4415,6.0088-1.2546c0.4548-1.0132-0.1596-1.335-0.8047-1.4195
		c-0.5581-0.0731-1.1304,0.0318-1.6501,0.253C58.7725,18.511,58.0267,19.7366,58.0267,19.7366z"/>
	<path class="st21" d="M44.4108,7.6524c1.5656-2.3338,2.5353-5.0616,2.0274-5.7939c-0.633-0.9126-1.2258-0.5525-1.6311-0.0436
		c-0.3507,0.4403-0.5563,0.9845-0.6351,1.5438C43.7461,6.381,44.4108,7.6524,44.4108,7.6524z"/>
	<path class="st21" d="M35.1485,6.8612c-0.1286-2.8074-0.9706-5.5772-1.8145-5.8641c-1.0515-0.3575-1.3141,0.2845-1.3374,0.9347
		c-0.0202,0.5625,0.138,1.1223,0.4072,1.6189C33.8581,6.2341,35.1485,6.8612,35.1485,6.8612z"/>
	<path class="st21" d="M26.8102,13.0383c-1.0445-2.609-2.7503-4.9481-3.6415-4.9415c-1.1106,0.0081-1.1475,0.7007-0.9558,1.3224
		c0.1658,0.5379,0.4993,1.0146,0.9168,1.3951C25.3854,12.8703,26.8102,13.0383,26.8102,13.0383z"/>
	<path class="st21" d="M23.1875,20.9652c-2.3456-1.548-5.0806-2.4971-5.8091-1.9836c-0.9078,0.6398-0.5432,1.2299-0.0313,1.6314
		c0.4429,0.3473,0.9887,0.5488,1.5486,0.6234C21.9212,21.6396,23.1875,20.9652,23.1875,20.9652z"/>
	<path class="st21" d="M22.9951,30.3782c-2.7241-0.6907-5.6191-0.6878-6.1383,0.0367c-0.6469,0.9027-0.1086,1.3401,0.5069,1.551
		c0.5325,0.1824,1.1142,0.1933,1.6674,0.0796C22.0209,31.4314,22.9951,30.3782,22.9951,30.3782z"/>
</g>
<g>
	<path class="st21" d="M13.1994,27.4281L1.3884,66.1279c-0.9302,3.0478,1.2719,6.1518,4.3332,6.1078l58.4123-0.8384
		c1.4709-0.0211,2.8383-0.7948,3.6591-2.0703l16.4192-25.5145c1.798-2.7939,0.2726-6.5983-2.8944-7.2188L18.2973,24.2469
		C16.0732,23.8111,13.8869,25.1754,13.1994,27.4281z"/>
	<path class="st20" d="M14.4409,38.8301L2.4616,70.3586c-0.9434,2.4831,1.29,5.0118,4.395,4.976l59.2447-0.683
		c1.4918-0.0172,2.8787-0.6475,3.7112-1.6867l16.6531-20.7866c1.8236-2.2762,0.2765-5.3756-2.9356-5.8811L19.6115,36.2383
		C17.3557,35.8833,15.1383,36.9948,14.4409,38.8301z"/>
	<g>
		<path class="st22" d="M10.4132,55.6644c-1.1549-0.5851-1.8182-1.5668-1.9871-2.9437c-0.0168-0.1369-0.0293-0.3456-0.0349-0.6256
			l4.8764-0.5991c0.0112,0.4322,0.1145,0.7401,0.3128,0.9265c0.1983,0.1857,0.4971,0.2528,0.8965,0.2032
			c0.2472-0.03,0.4469-0.1173,0.5963-0.2618c0.1522-0.1431,0.2123-0.3324,0.1829-0.5684c-0.0405-0.3296-0.2374-0.5858-0.5879-0.7653
			c-0.3505-0.1808-0.9035-0.3791-1.6562-0.5928c-0.8253-0.2346-1.5096-0.4741-2.0486-0.7136
			c-0.5404-0.2416-1.0278-0.6012-1.4649-1.0788c-0.4357-0.4769-0.7024-1.1102-0.7988-1.895
			c-0.1271-1.032,0.0209-1.9557,0.4455-2.7712c0.4245-0.8127,1.0753-1.4698,1.9494-1.9704
			c0.8756-0.4985,1.9061-0.8211,3.0917-0.9663c1.0599-0.1306,2.0276-0.0824,2.9018,0.1466c0.8728,0.2283,1.5864,0.627,2.1394,1.1954
			c0.5516,0.567,0.8812,1.2777,0.9859,2.1338c0.014,0.1089,0.0237,0.3037,0.0293,0.5837l-4.9392,0.6068
			c0.0084-0.1697,0.0084-0.2814,0.0028-0.3372c-0.0335-0.2597-0.1341-0.4545-0.303-0.5795
			c-0.169-0.1278-0.3868-0.1739-0.6466-0.1417c-0.2346,0.0286-0.4189,0.1208-0.553,0.2779
			c-0.1355,0.1571-0.1885,0.3449-0.162,0.5656c0.0377,0.303,0.229,0.5488,0.5739,0.7359c0.3435,0.1892,0.8812,0.4064,1.6101,0.6528
			c0.8323,0.2751,1.5249,0.5453,2.0821,0.8127c0.5572,0.266,1.0557,0.65,1.4956,1.1486c0.4385,0.4978,0.7066,1.1409,0.8016,1.9243
			c0.1117,0.8965-0.0279,1.7316-0.4147,2.5066c-0.3868,0.7743-1.004,1.4216-1.8489,1.9369c-0.8462,0.516-1.881,0.849-3.1071,0.9999
			C13.0427,56.4311,11.5694,56.2496,10.4132,55.6644z"/>
		<path class="st22" d="M27.5895,44.1689c0.5027-0.3442,1.0948-0.5586,1.7749-0.6424c1.0515-0.1292,1.9411,0.1187,2.6714,0.745
			c0.7289,0.6263,1.1702,1.5626,1.3238,2.8124c0.0587,0.4706,0.0726,0.9328,0.0391,1.3888c-0.0614,1.1248-0.303,2.124-0.7234,2.9989
			c-0.4189,0.8728-0.9677,1.5682-1.645,2.0849c-0.6773,0.516-1.4244,0.8246-2.2399,0.9244
			c-0.6801,0.0838-1.2568,0.0133-1.7288-0.2109c-0.4748-0.2241-0.8267-0.5677-1.0599-1.0285l-0.3393,6.5759l-4.1195,0.5062
			l0.8267-15.805l4.1167-0.5062l-0.0838,1.46C26.6887,44.9467,27.0853,44.5124,27.5895,44.1689z M29.2079,48.5356
			c-0.0517-0.4189-0.2025-0.7317-0.4538-0.9321c-0.2514-0.2018-0.567-0.2779-0.9496-0.2304
			c-0.4469,0.0545-0.8197,0.2562-1.1227,0.6068c-0.3016,0.3505-0.4692,0.8106-0.4985,1.3797
			c-0.0098,0.1138-0.0042,0.2646,0.0182,0.4504c0.0517,0.4203,0.2039,0.7317,0.4524,0.9321
			c0.2514,0.2018,0.5684,0.2793,0.9524,0.2318c0.4455-0.0545,0.8183-0.2583,1.1199-0.6082c0.303-0.3505,0.4692-0.812,0.4999-1.3797
			C29.2373,48.8721,29.2317,48.7213,29.2079,48.5356z"/>
		<path class="st22" d="M40.6155,42.7564c0.6158-0.4462,1.2512-0.7101,1.9075-0.7904l-0.2206,4.4896l-1.1688,0.1431
			c-0.7778,0.0964-1.3587,0.3051-1.74,0.6298c-0.3812,0.3219-0.5907,0.8379-0.6284,1.5445l-0.2346,4.3792l-4.1181,0.5062
			l0.5698-10.6905l4.1181-0.5062l-0.0964,1.9711C39.4606,43.7612,39.9983,43.2019,40.6155,42.7564z"/>
		<path class="st22" d="M47.7625,41.397l-0.5698,10.6898l-4.1167,0.5069l0.5684-10.6905L47.7625,41.397z M44.1988,40.5165
			c-0.4022-0.2639-0.634-0.6431-0.694-1.1374c-0.0545-0.4329,0.014-0.8497,0.2025-1.2498c0.1899-0.3994,0.4846-0.7331,0.8853-1.0033
			c0.3994-0.2688,0.8588-0.435,1.3797-0.4985c0.6298-0.0775,1.1479,0.0189,1.5501,0.2898c0.405,0.2695,0.6368,0.6591,0.6996,1.1674
			c0.0531,0.4315-0.0168,0.8407-0.2067,1.2289c-0.1913,0.3875-0.4846,0.7157-0.8784,0.9824
			c-0.3924,0.2695-0.849,0.4364-1.3685,0.4999C45.1246,40.8747,44.6009,40.7818,44.1988,40.5165z"/>
		<path class="st22" d="M59.3809,40.7881c0.6172,0.5209,0.9887,1.2931,1.1144,2.3209c0.0447,0.3701,0.0559,0.7646,0.0321,1.1828
			l-0.331,6.1967l-4.1,0.5041l0.3016-5.6675c0-0.1997-0.0028-0.3372-0.0126-0.4127c-0.0475-0.3826-0.1913-0.6668-0.4343-0.8497
			c-0.2416-0.1843-0.5544-0.2535-0.9384-0.206c-0.4441,0.0545-0.8044,0.2451-1.0781,0.5663
			c-0.2737,0.3226-0.4315,0.7359-0.4692,1.2442l-0.2988,5.6856l-4.1181,0.5062l0.5697-10.6905l4.1181-0.5062l-0.0852,1.6108
			c0.3477-0.5439,0.8002-1.004,1.3545-1.3811c0.5572-0.3749,1.1995-0.6082,1.9285-0.6982
			C57.9481,40.0697,58.7651,40.2673,59.3809,40.7881z"/>
		<path class="st22" d="M68.0542,39.1948c0.479,0.2227,0.8337,0.5649,1.0683,1.0264l0.0838-1.46l4.0986-0.5041l-0.5544,10.4999
			c-0.0531,0.9992-0.2807,1.9299-0.6829,2.7943c-0.4022,0.8658-1.0152,1.5947-1.8405,2.1854
			c-0.8253,0.59-1.8615,0.9628-3.1099,1.1165c-1.5961,0.1962-2.8571-0.0091-3.7872-0.6158
			c-0.9272-0.6088-1.4677-1.5305-1.6199-2.7664c-0.0209-0.1732-0.0307-0.3058-0.0279-0.3924l4.0427-0.4971
			c0.0922,0.5404,0.5209,0.7639,1.2875,0.6696c0.4818-0.0593,0.8658-0.2325,1.1507-0.5181
			c0.2863-0.2863,0.4483-0.7764,0.4874-1.4719l0.0698-1.2701c-0.2863,0.5244-0.6843,0.9601-1.1954,1.305
			c-0.5097,0.3449-1.1046,0.5593-1.7847,0.6431c-1.0501,0.1292-1.9411-0.1201-2.67-0.745c-0.7317-0.6256-1.173-1.5626-1.3266-2.8124
			c-0.0573-0.4706-0.0698-0.9321-0.0391-1.3888c0.0628-1.1241,0.3044-2.124,0.7248-2.9989c0.4189-0.8721,0.9677-1.5675,1.645-2.0849
			c0.6773-0.5153,1.4244-0.8239,2.2399-0.9244C66.9943,38.9008,67.5738,38.9714,68.0542,39.1948z M68.9033,43.6564
			c-0.0517-0.4189-0.2025-0.7324-0.4538-0.9328c-0.2514-0.2011-0.567-0.2772-0.9496-0.2304
			c-0.4469,0.0552-0.8197,0.2569-1.1227,0.6075c-0.3016,0.3505-0.4678,0.8099-0.4971,1.3797
			c-0.0112,0.1131-0.0056,0.2639,0.0168,0.4497c0.0517,0.4203,0.2039,0.7317,0.4525,0.9321
			c0.2514,0.2018,0.5684,0.2793,0.9524,0.2318c0.4455-0.0545,0.8183-0.2576,1.1199-0.6082c0.303-0.3505,0.4692-0.8113,0.4999-1.3797
			C68.9326,43.993,68.927,43.8421,68.9033,43.6564z"/>
	</g>
	<g>
		<path class="st22" d="M36.0315,56.6637l-0.0926,1.9443l-4.9995,0.6677l-0.1318,3.2289l3.828-0.511l-0.0783,1.9078l-3.8458,0.5137
			l-0.2137,5.2399l-2.4303,0.3249l0.5306-12.3235L36.0315,56.6637z"/>
		<path class="st22" d="M44.1504,58.9756c0.803,0.5787,1.2784,1.4368,1.4315,2.5745c0.0499,0.3686,0.0641,0.6979,0.0463,0.9944
			c-0.0249,0.3543-0.0605,0.6641-0.1068,0.9258l-6.983,0.9321c0,0.0837,0.0089,0.2003,0.0285,0.3499
			c0.0801,0.5982,0.3169,1.0416,0.714,1.3345c0.3953,0.2911,0.8813,0.3988,1.4564,0.3223c0.4825-0.065,0.8849-0.2252,1.2072-0.4843
			c0.3223-0.2599,0.5697-0.5778,0.7425-0.9508l2.603-0.3472c-0.3027,0.9748-0.8582,1.8196-1.6701,2.5318
			c-0.8119,0.7095-1.7805,1.1404-2.9093,1.2908c-1.2178,0.162-2.2416-0.0507-3.0695-0.6436
			c-0.8297-0.5902-1.3211-1.4778-1.4778-2.6636c-0.0463-0.3454-0.0605-0.7113-0.0427-1.1003
			c0.0392-1.0113,0.2778-1.9274,0.7122-2.7446c0.4362-0.819,1.022-1.4822,1.7627-1.9932c0.7407-0.5056,1.5811-0.8252,2.5229-0.9508
			C42.3361,58.1905,43.3492,58.3997,44.1504,58.9756z M43.1355,61.8947c-0.0748-0.5519-0.3098-0.9588-0.7068-1.2223
			c-0.3988-0.2626-0.8849-0.3552-1.4582-0.2786c-0.6107,0.0819-1.1306,0.3463-1.5632,0.7976
			c-0.4309,0.4487-0.6997,1.0193-0.8065,1.7128l4.5526-0.6071C43.1533,62.1101,43.1462,61.9748,43.1355,61.8947z"/>
		<path class="st22" d="M48.2775,67.0803c-0.6-0.1611-1.0914-0.4273-1.476-0.8039c-0.3828-0.3757-0.6125-0.835-0.6837-1.3745
			c-0.0125-0.0801-0.0178-0.2154-0.0196-0.4015l2.3466-0.3134c0.0178,0.4068,0.1834,0.7149,0.4914,0.9258
			c0.3098,0.211,0.7157,0.2813,1.2232,0.2137c0.4611-0.0614,0.8315-0.1941,1.1128-0.4024c0.2813-0.2083,0.4024-0.4709,0.3597-0.795
			c-0.0392-0.2867-0.2101-0.4967-0.5163-0.6321c-0.3027-0.1335-0.7745-0.2697-1.4137-0.4077
			c-0.6374-0.1371-1.1715-0.2813-1.6024-0.4362c-0.4309-0.1531-0.8137-0.3953-1.1502-0.7238
			c-0.3365-0.3303-0.5413-0.7754-0.6178-1.3398c-0.0748-0.5626,0.0231-1.0852,0.292-1.565c0.2689-0.4798,0.6819-0.8831,1.2339-1.2
			c0.5555-0.3205,1.2107-0.5324,1.9692-0.6338c0.7264-0.097,1.3799-0.0588,1.9638,0.1095c0.584,0.1647,1.0558,0.446,1.419,0.8359
			c0.3632,0.3899,0.5804,0.8617,0.6534,1.4137c0.0196,0.1389,0.0267,0.2421,0.0267,0.3134l-2.2434,0.2991
			c-0.0196-0.4068-0.178-0.7157-0.4736-0.9205c-0.2973-0.2048-0.6979-0.2769-1.2036-0.2092
			c-0.4148,0.0552-0.7425,0.1914-0.9828,0.4051c-0.2404,0.2137-0.3419,0.4692-0.3009,0.7665
			c0.041,0.3009,0.2208,0.5252,0.5466,0.6757c0.324,0.1487,0.8119,0.2973,1.4635,0.4442c0.6534,0.1576,1.1804,0.3143,1.5811,0.4638
			c0.3988,0.1522,0.762,0.3855,1.0843,0.6988c0.3223,0.3125,0.5199,0.7336,0.5893,1.2641c0.0783,0.5858-0.032,1.1208-0.3294,1.606
			c-0.2973,0.4843-0.7425,0.8822-1.3318,1.1965c-0.5893,0.3125-1.2766,0.5208-2.0582,0.6249
			C49.5292,67.2717,48.8793,67.2388,48.2775,67.0803z"/>
		<path class="st22" d="M58.127,62.9648c-0.0018,0.0694,0.0036,0.1629,0.0196,0.2769c0.0303,0.2315,0.1193,0.3864,0.2653,0.4665
			c0.146,0.0783,0.3739,0.0988,0.6837,0.0579l1.1377-0.1522l-0.0908,2.0831l-1.5348,0.2048
			c-1.7253,0.2306-2.6814-0.3721-2.8737-1.8089c-0.0374-0.2778-0.0499-0.5493-0.0392-0.8208l0.1959-4.7129l-1.1395,0.1522
			l0.0801-2.0297l1.1555-0.154l0.0979-2.4179l2.4321-0.3249l-0.0979,2.4179l2.1205-0.2831l-0.0801,2.0297l-2.1383,0.2858
			L58.127,62.9648z"/>
	</g>
	<g>
		<path class="st5" d="M9.62,55.6651c-1.1563-0.5851-1.8182-1.5654-1.9871-2.9437c-0.0168-0.1369-0.0293-0.3449-0.0349-0.6235
			l4.8764-0.5991c0.0112,0.4308,0.1145,0.7394,0.3128,0.9251c0.1983,0.1857,0.4971,0.2535,0.8965,0.2046
			c0.2472-0.0307,0.4469-0.1187,0.5963-0.2618c0.1494-0.1445,0.2109-0.3338,0.1815-0.5684
			c-0.0405-0.3296-0.236-0.5858-0.5879-0.7666c-0.3491-0.1808-0.9021-0.3784-1.6562-0.5935
			c-0.8253-0.2339-1.5082-0.472-2.0486-0.7115c-0.5404-0.243-1.0292-0.6026-1.4649-1.0808
			c-0.4357-0.4762-0.7024-1.1081-0.7988-1.8929c-0.1257-1.0334,0.0209-1.9578,0.4469-2.7726
			c0.4231-0.8134,1.0739-1.4698,1.9494-1.9704c0.8742-0.4985,1.9047-0.8197,3.0903-0.9649
			c1.0599-0.1306,2.0276-0.0824,2.9032,0.1459c0.8728,0.2276,1.5864,0.6263,2.138,1.1947c0.553,0.5684,0.8812,1.2791,0.9873,2.1338
			c0.0126,0.1103,0.0223,0.3051,0.0279,0.5837l-4.9378,0.6068c0.007-0.1683,0.0084-0.28,0-0.3358
			c-0.0307-0.2611-0.1327-0.4559-0.3016-0.5809c-0.169-0.1271-0.3854-0.1739-0.6466-0.1417
			c-0.2332,0.0286-0.4175,0.1222-0.553,0.2779c-0.1355,0.1564-0.1885,0.3449-0.1606,0.5656
			c0.0363,0.3044,0.2276,0.5488,0.5725,0.7373c0.3449,0.1885,0.8812,0.405,1.6115,0.6507c0.8309,0.2751,1.5249,0.5474,2.0821,0.8148
			c0.5572,0.266,1.0543,0.6493,1.4942,1.1486c0.4385,0.4978,0.7066,1.1395,0.803,1.9243c0.1089,0.8951-0.0279,1.7316-0.4161,2.5059
			c-0.3882,0.7736-1.004,1.4209-1.8489,1.9369c-0.8449,0.5167-1.8824,0.8497-3.1085,1.0005
			C12.2481,56.4339,10.7763,56.2503,9.62,55.6651z"/>
		<path class="st5" d="M26.7935,44.1703c0.5041-0.3428,1.0976-0.5586,1.7763-0.6424c1.0515-0.1292,1.9411,0.1201,2.6714,0.7464
			c0.7303,0.6256,1.1716,1.5626,1.3252,2.8124c0.0587,0.4692,0.0712,0.9321,0.0391,1.3888
			c-0.0628,1.1241-0.3044,2.1226-0.7234,2.9975c-0.4203,0.8735-0.9691,1.5675-1.645,2.0849
			c-0.6787,0.5167-1.4244,0.8253-2.2413,0.9258c-0.6801,0.0838-1.2568,0.0112-1.7302-0.2109
			c-0.472-0.2255-0.8253-0.569-1.0585-1.0299l-0.3407,6.5759l-4.1167,0.5055l0.8253-15.8036l4.1181-0.5062l-0.0838,1.4593
			C25.8942,44.9495,26.2908,44.5152,26.7935,44.1703z M28.4147,48.5384c-0.0517-0.4203-0.2039-0.7317-0.4538-0.9335
			c-0.2514-0.2018-0.5684-0.2779-0.951-0.2304c-0.4455,0.0545-0.8197,0.2562-1.1213,0.6082
			c-0.3016,0.3505-0.4692,0.8106-0.4985,1.3797c-0.0126,0.1131-0.007,0.2625,0.0168,0.4483
			c0.0517,0.4217,0.2025,0.7324,0.4538,0.9342c0.2514,0.2011,0.567,0.2772,0.9524,0.2304c0.4441-0.0552,0.8183-0.2569,1.1199-0.6075
			c0.3016-0.3519,0.4678-0.8113,0.4985-1.3797C28.4427,48.8735,28.4371,48.7241,28.4147,48.5384z"/>
		<path class="st5" d="M39.8195,42.7571c0.6172-0.4455,1.254-0.7094,1.9103-0.7904l-0.2206,4.4896l-1.1688,0.1438
			c-0.7792,0.0957-1.3601,0.3058-1.74,0.6291c-0.3812,0.3233-0.5907,0.8386-0.6298,1.5445l-0.2332,4.3792l-4.1181,0.5062
			l0.5697-10.6884l4.1167-0.5062l-0.0964,1.9697C38.666,43.7639,39.2023,43.2033,39.8195,42.7571z"/>
		<path class="st5" d="M46.9693,41.3998l-0.5697,10.6884l-4.1167,0.5062l0.5684-10.6884L46.9693,41.3998z M43.4056,40.5193
			c-0.4022-0.2653-0.634-0.6438-0.6954-1.1395c-0.0531-0.4315,0.014-0.8476,0.2039-1.2484
			c0.1899-0.3987,0.4832-0.7338,0.8839-1.0047c0.4008-0.2674,0.8588-0.4343,1.3783-0.4978
			c0.6312-0.0775,1.1479,0.0189,1.5528,0.2912c0.4022,0.2695,0.6354,0.6591,0.6982,1.166c0.0531,0.4329-0.0168,0.8421-0.2067,1.2296
			c-0.1899,0.3882-0.4832,0.715-0.877,0.9824c-0.3938,0.2702-0.8504,0.435-1.3685,0.4992
			C44.3314,40.8761,43.8078,40.7832,43.4056,40.5193z"/>
		<path class="st5" d="M58.5877,40.7895c0.6144,0.5209,0.9859,1.2945,1.113,2.3209c0.0461,0.3701,0.0573,0.7639,0.0321,1.1828
			l-0.3296,6.1967l-4.1,0.5041l0.3016-5.6675c0-0.2004-0.0042-0.3372-0.014-0.4127c-0.0475-0.3826-0.1913-0.6668-0.4329-0.8497
			c-0.243-0.1843-0.5558-0.2521-0.9384-0.2046c-0.4469,0.0545-0.8057,0.243-1.0795,0.5663
			c-0.2751,0.3212-0.4315,0.7359-0.4678,1.2428l-0.2988,5.6856l-4.1195,0.5062l0.5697-10.6891l4.1181-0.5062l-0.0852,1.6094
			c0.3477-0.5432,0.7988-1.004,1.3559-1.3797c0.5558-0.3763,1.1995-0.6095,1.9285-0.6996
			C57.155,40.071,57.9705,40.2693,58.5877,40.7895z"/>
		<path class="st5" d="M67.2596,39.1962c0.479,0.2241,0.8351,0.5663,1.0669,1.0264l0.0852-1.4593l4.0986-0.5034l-0.553,10.4985
			c-0.0545,0.9985-0.2821,1.9299-0.6843,2.7957c-0.4008,0.8658-1.0152,1.5933-1.8405,2.1854
			c-0.8239,0.59-1.8615,0.9628-3.1113,1.1165c-1.5947,0.1962-2.8543-0.0091-3.7844-0.6179
			c-0.9272-0.6088-1.4691-1.5305-1.6199-2.7664c-0.0223-0.1732-0.0307-0.3037-0.0293-0.3917l4.0441-0.4971
			c0.0908,0.5404,0.5195,0.7653,1.2861,0.671c0.4832-0.0593,0.8658-0.2325,1.1507-0.5188c0.2863-0.287,0.4483-0.7764,0.4888-1.4732
			l0.0698-1.2701c-0.2877,0.5244-0.6857,0.9608-1.1954,1.3064c-0.5111,0.3435-1.106,0.56-1.7847,0.6438
			c-1.0515,0.1292-1.9439-0.1201-2.6714-0.7464c-0.7303-0.6263-1.1716-1.5626-1.3252-2.8124
			c-0.0587-0.4692-0.0712-0.9321-0.0391-1.3874c0.0628-1.1262,0.3044-2.124,0.7234-2.9989c0.4203-0.8742,0.9691-1.5682,1.645-2.0849
			c0.6773-0.5174,1.4244-0.826,2.2399-0.9258C66.2011,38.9022,66.7807,38.9741,67.2596,39.1962z M68.1101,43.6585
			c-0.0517-0.4203-0.2039-0.7317-0.4538-0.9335c-0.2514-0.2018-0.5684-0.2779-0.951-0.2304
			c-0.4455,0.0545-0.8197,0.2569-1.1213,0.6082c-0.3016,0.3505-0.4692,0.8106-0.4985,1.3797
			c-0.0126,0.1138-0.007,0.2632,0.0168,0.449c0.0517,0.4217,0.2025,0.7317,0.4538,0.9335c0.2514,0.2018,0.567,0.2779,0.9524,0.2304
			c0.4441-0.0545,0.8183-0.2562,1.1199-0.6068c0.3016-0.3519,0.4678-0.812,0.4985-1.3797
			C68.138,43.9944,68.1324,43.8442,68.1101,43.6585z"/>
	</g>
	<g>
		<path class="st5" d="M35.0166,56.6637l-0.0908,1.9425l-5.0031,0.6677l-0.13,3.2298l3.8298-0.511l-0.0801,1.906l-3.8458,0.5137
			l-0.2119,5.2417l-2.4321,0.3249l0.5324-12.3235L35.0166,56.6637z"/>
		<path class="st5" d="M43.1373,58.9756c0.8012,0.5778,1.2784,1.4342,1.4297,2.5737c0.0499,0.3686,0.0641,0.6988,0.0463,0.9944
			c-0.0231,0.3552-0.0588,0.6623-0.105,0.9258l-6.9848,0.933c0,0.0828,0.0107,0.1976,0.0303,0.3472
			c0.0801,0.5982,0.3169,1.0434,0.714,1.3345c0.3953,0.2938,0.8795,0.4006,1.4546,0.324c0.4825-0.0641,0.8849-0.227,1.2089-0.4861
			c0.3205-0.2582,0.5697-0.576,0.7407-0.949l2.6048-0.3472c-0.3027,0.9757-0.86,1.8178-1.6719,2.53
			c-0.8119,0.7104-1.7805,1.1422-2.9075,1.2926c-1.2196,0.1629-2.2416-0.0507-3.0713-0.6427
			c-0.8279-0.5911-1.3193-1.4805-1.4778-2.6645c-0.0463-0.3454-0.0605-0.7113-0.0427-1.0994
			c0.041-1.0131,0.2795-1.9274,0.714-2.7464c0.4344-0.8199,1.0202-1.4813,1.7609-1.9914c0.7407-0.5065,1.5811-0.8252,2.5247-0.9517
			C41.323,58.1905,42.3343,58.3979,43.1373,58.9756z M42.1207,61.8929c-0.073-0.5519-0.3098-0.9597-0.7068-1.2214
			c-0.397-0.2635-0.8849-0.357-1.4582-0.2795c-0.6089,0.081-1.1306,0.3463-1.5615,0.7968
			c-0.4327,0.4496-0.6997,1.0211-0.8065,1.7137l4.5526-0.608C42.1385,62.1084,42.1313,61.9748,42.1207,61.8929z"/>
		<path class="st5" d="M47.2644,67.0794c-0.6-0.1611-1.0932-0.4282-1.4778-0.803c-0.3828-0.3766-0.6107-0.835-0.6837-1.3745
			c-0.0107-0.0819-0.016-0.2154-0.0178-0.4024l2.3449-0.3125c0.0196,0.4068,0.1852,0.7149,0.4932,0.9249
			c0.308,0.211,0.7157,0.2813,1.2214,0.2137c0.4611-0.0614,0.8315-0.1959,1.1128-0.4042c0.2831-0.2056,0.4024-0.47,0.3597-0.7923
			c-0.0392-0.2884-0.2083-0.4976-0.5146-0.6347c-0.3045-0.1326-0.7763-0.2697-1.4137-0.4068
			c-0.6392-0.138-1.1733-0.2822-1.6042-0.4371c-0.4291-0.1504-0.8119-0.3935-1.1502-0.722
			c-0.3365-0.3294-0.5413-0.7754-0.616-1.3398c-0.0748-0.5626,0.0214-1.0843,0.292-1.5668
			c0.2671-0.4798,0.6801-0.8804,1.2339-1.1991c0.5537-0.3205,1.2089-0.5315,1.9692-0.633c0.7247-0.097,1.3781-0.0605,1.9639,0.1077
			c0.584,0.1665,1.0558,0.446,1.4172,0.8368c0.3632,0.3917,0.5804,0.8626,0.6552,1.4146c0.0178,0.1371,0.0249,0.243,0.0249,0.3116
			l-2.2434,0.3c-0.0196-0.4077-0.1763-0.714-0.4736-0.9205c-0.2956-0.2056-0.6979-0.2751-1.2036-0.2074
			c-0.4131,0.0552-0.7407,0.1914-0.981,0.4042c-0.2404,0.2137-0.3418,0.47-0.3009,0.7674c0.0392,0.3009,0.2208,0.5226,0.5448,0.6739
			c0.324,0.1487,0.8119,0.2973,1.4635,0.4442c0.6534,0.1594,1.1804,0.3151,1.581,0.4647c0.4006,0.1531,0.762,0.3855,1.0861,0.6997
			c0.3205,0.3116,0.5181,0.7336,0.5893,1.2623c0.0783,0.5858-0.032,1.1226-0.3294,1.6078
			c-0.2991,0.4816-0.7425,0.8822-1.3318,1.1965c-0.5911,0.3125-1.2784,0.5199-2.0582,0.6241
			C48.5161,67.2717,47.8644,67.2388,47.2644,67.0794z"/>
		<path class="st5" d="M57.1139,62.963c-0.0018,0.0703,0.0036,0.1638,0.0196,0.2778c0.0303,0.2315,0.1193,0.3864,0.2635,0.4665
			c0.146,0.0792,0.3739,0.0997,0.6837,0.0579l1.1377-0.1522l-0.089,2.0831l-1.5365,0.2056
			c-1.7235,0.2297-2.6814-0.3739-2.8737-1.8107c-0.0356-0.276-0.0499-0.5502-0.0392-0.8217l0.1959-4.712l-1.1395,0.1522
			l0.0819-2.0297l1.1555-0.1549l0.0979-2.4161l2.4321-0.324l-0.0997,2.4161l2.1223-0.2831l-0.0801,2.0288l-2.1383,0.2858
			L57.1139,62.963z"/>
	</g>
</g>
<g>
	<path class="st20" d="M40.1302,25.3006c-0.2156-0.008-0.3969,0.1604-0.4049,0.3761c-0.008,0.2157,0.1604,0.3969,0.3761,0.4049
		c0.2157,0.008,0.3969-0.1604,0.4049-0.3761C40.5142,25.4899,40.3458,25.3086,40.1302,25.3006z"/>
	<path class="st20" d="M45.5124,15.5187h-4.5199c-0.8511-0.0024-1.6679,0.3358-2.2682,0.9392l-7.9246,7.9254
		c-0.8099,0.8107-0.8099,2.1244,0,2.9351l4.6938,4.6945c0.8107,0.8099,2.1244,0.8099,2.9351,0l7.926-7.9253
		c0.5993-0.6027,0.9368-1.4174,0.9392-2.2674v-4.5199C47.2938,16.3163,46.4962,15.5187,45.5124,15.5187z M35.8352,25.1277
		c-0.6469-0.0239-1.1521-0.5677-1.1282-1.2147c0.0239-0.647,0.5677-1.1521,1.2147-1.1282c0.6469,0.0239,1.1521,0.5677,1.1282,1.2147
		C37.026,24.6464,36.4822,25.1515,35.8352,25.1277z M38.4677,27.9619c-0.008,0.2157-0.1893,0.384-0.4049,0.376
		c-0.2157-0.008-0.384-0.1892-0.3761-0.4049l0.2306-6.2476c0.008-0.2157,0.1893-0.384,0.4049-0.3761s0.384,0.1892,0.3761,0.4049
		L38.4677,27.9619z M40.4633,26.8625c-0.647-0.0239-1.1521-0.5677-1.1282-1.2147c0.0239-0.6469,0.5677-1.1521,1.2147-1.1282
		c0.647,0.0239,1.1521,0.5677,1.1282,1.2147C41.6541,26.3813,41.1103,26.8864,40.4633,26.8625z M44.1163,19.5481
		c-0.6309,0-1.1423-0.5114-1.1423-1.1423c0-0.6309,0.5114-1.1424,1.1423-1.1424c0.6309,0,1.1424,0.5114,1.1424,1.1424
		C45.2586,19.0366,44.7472,19.5481,44.1163,19.5481z"/>
	<path class="st20" d="M35.5021,23.5657c-0.2157-0.008-0.397,0.1604-0.4049,0.3761c-0.008,0.2157,0.1604,0.3969,0.3761,0.4049
		c0.2157,0.0079,0.3969-0.1604,0.4049-0.3761C35.8862,23.755,35.7178,23.5737,35.5021,23.5657z"/>
</g>
<g>
	<path class="st5" d="M39.9704,25.199c-0.2156-0.008-0.3969,0.1604-0.4049,0.3761c-0.008,0.2157,0.1604,0.3969,0.3761,0.4049
		s0.3969-0.1604,0.4049-0.3761C40.3544,25.3882,40.1861,25.2069,39.9704,25.199z"/>
	<path class="st5" d="M44.9618,15.4171h-4.5199c-0.8511-0.0024-1.6679,0.3358-2.2682,0.9392l-7.9246,7.9254
		c-0.8099,0.8107-0.8099,2.1244,0,2.9351l4.6938,4.6945c0.8107,0.8099,2.1244,0.8099,2.9351,0l7.926-7.9253
		c0.5993-0.6027,0.9368-1.4175,0.9392-2.2674v-4.5199C46.7433,16.2147,45.9457,15.4171,44.9618,15.4171z M35.2847,25.026
		c-0.6469-0.0239-1.1521-0.5677-1.1282-1.2147s0.5677-1.1521,1.2147-1.1282c0.6469,0.0239,1.1521,0.5677,1.1282,1.2147
		C36.4755,24.5448,35.9316,25.0499,35.2847,25.026z M37.9172,27.8603c-0.008,0.2157-0.1893,0.384-0.4049,0.376
		c-0.2157-0.008-0.384-0.1892-0.3761-0.4049l0.2306-6.2476c0.008-0.2157,0.1893-0.384,0.4049-0.3761s0.384,0.1892,0.3761,0.4049
		L37.9172,27.8603z M39.9128,26.7609c-0.647-0.0239-1.1521-0.5677-1.1282-1.2147c0.0239-0.6469,0.5677-1.1521,1.2147-1.1282
		c0.647,0.0239,1.1521,0.5677,1.1282,1.2147C41.1035,26.2797,40.5597,26.7848,39.9128,26.7609z M43.5658,19.4464
		c-0.6309,0-1.1423-0.5114-1.1423-1.1423c0-0.6309,0.5114-1.1424,1.1423-1.1424c0.6309,0,1.1423,0.5114,1.1423,1.1424
		C44.7081,18.935,44.1967,19.4464,43.5658,19.4464z"/>
	<path class="st5" d="M35.3423,23.4641c-0.2157-0.008-0.3969,0.1604-0.4049,0.3761c-0.008,0.2157,0.1604,0.3969,0.3761,0.4049
		c0.2157,0.0079,0.3969-0.1604,0.4049-0.3761C35.7264,23.6534,35.558,23.4721,35.3423,23.4641z"/>
</g>
</svg>
