<?xml version="1.0" encoding="utf-8"?>
<!-- Generator: Adobe Illustrator 23.0.2, SVG Export Plug-In . SVG Version: 6.00 Build 0)  -->
<svg version="1.1" id="Capa_6" xmlns="http://www.w3.org/2000/svg" xmlns:xlink="http://www.w3.org/1999/xlink" x="0px" y="0px"
	 width="61.9513px" height="38px" viewBox="0 0 61.9513 38" style="enable-background:new 0 0 61.9513 38;" xml:space="preserve">
<g>
	<g id="stroke">
		<g>
			<g>
				
					<polygon style="fill:#FFFFFF;stroke:#FFFFFF;stroke-width:7;stroke-linecap:round;stroke-linejoin:round;stroke-miterlimit:10;" points="
					44.7784,24.0438 45.0918,25.9844 48.5193,29.0056 52.9444,32.1996 53.9706,31.834 56.6343,28.6101 57.9138,26.6373 
					58.0183,25.7272 55.3024,23.2343 53.0566,21.5186 50.7749,20.0304 50.1841,19.5128 49.2178,19.5128 47.6519,19.9259 
					46.2147,20.5157 45.4052,20.8377 				"/>
				
					<path style="fill:#FFFFFF;stroke:#FFFFFF;stroke-width:7;stroke-linecap:round;stroke-linejoin:round;stroke-miterlimit:10;" d="
					M48.5398,25.2617c-0.0873,0.3333,0.1129,0.6753,0.4461,0.7626l5.3032,1.3885c0.0803,0.021,0.162,0.0256,0.241,0.0151
					c0.161-0.0214,0.3105-0.1053,0.4135-0.2398c0,0,0,0,0,0c0.0505-0.066,0.0869-0.1405,0.1081-0.2213
					c0.0423-0.1615,0.0192-0.3297-0.0651-0.4737c-0.0843-0.144-0.2196-0.2466-0.381-0.2889l-5.3032-1.3885
					C48.9692,24.7284,48.6272,24.9286,48.5398,25.2617L48.5398,25.2617z M48.9503,25.3692c0.028-0.1068,0.1377-0.171,0.2446-0.143
					l5.3031,1.3885c0.0518,0.0136,0.0952,0.0465,0.1222,0.0926c0.027,0.0462,0.0344,0.1001,0.0209,0.1519
					c-0.0069,0.026-0.0185,0.0499-0.0345,0.071c-0.0492,0.0643-0.1316,0.0926-0.21,0.0721l-5.3032-1.3885
					C48.9865,25.5857,48.9223,25.4761,48.9503,25.3692z"/>
				
					<path style="fill:#FFFFFF;stroke:#FFFFFF;stroke-width:7;stroke-linecap:round;stroke-linejoin:round;stroke-miterlimit:10;" d="
					M50.6595,24.8448c0.398,0.3047,0.8766,0.4228,1.3163,0.3644c0.3894-0.0517,0.7482-0.2416,0.9942-0.5628
					c0.5236-0.6839,0.3391-1.7076-0.4113-2.2821c-0.7504-0.5745-1.7869-0.4855-2.3105,0.1983
					C49.7247,23.2465,49.9092,24.2702,50.6595,24.8448L50.6595,24.8448z M52.6331,24.3884
					c-0.3813,0.4981-1.151,0.5517-1.7155,0.1194c-0.5646-0.4323-0.7137-1.1891-0.3323-1.6873
					c0.175-0.2286,0.4318-0.3635,0.713-0.4009c0.3316-0.044,0.697,0.0476,1.0025,0.2815
					C52.8653,23.1334,53.0144,23.8903,52.6331,24.3884z"/>
				
					<path style="fill:#FFFFFF;stroke:#FFFFFF;stroke-width:7;stroke-linecap:round;stroke-linejoin:round;stroke-miterlimit:10;" d="
					M51.1611,24.1897c0.1781,0.1363,0.3922,0.2107,0.6029,0.2094c0.035-0.0002,0.0694-0.0026,0.103-0.0071
					c0.1845-0.0245,0.3442-0.1117,0.448-0.2471c0.1226-0.1601,0.1597-0.3781,0.1017-0.5982
					c-0.0537-0.2038-0.1814-0.391-0.3594-0.5274c-0.1781-0.1363-0.3921-0.2107-0.6029-0.2094
					c-0.2278,0.0015-0.4284,0.0941-0.551,0.2542c-0.1226,0.1601-0.1597,0.3782-0.1017,0.5982
					C50.8554,23.8661,50.983,24.0534,51.1611,24.1897L51.1611,24.1897z M51.978,23.8869c-0.0423,0.0552-0.1212,0.0872-0.2167,0.0878
					c-0.1153,0.0007-0.2401-0.0437-0.3423-0.122c-0.1022-0.0782-0.1776-0.187-0.2071-0.2986
					c-0.0243-0.0923-0.014-0.1769,0.0283-0.2321c0,0,0,0,0,0c0.0345-0.0451,0.0936-0.0747,0.1662-0.0844
					c0.0162-0.0021,0.0331-0.0033,0.0505-0.0034c0.1153-0.0007,0.2401,0.0437,0.3423,0.122c0.1022,0.0782,0.1776,0.187,0.207,0.2986
					C52.0306,23.7471,52.0203,23.8317,51.978,23.8869L51.978,23.8869z"/>
				
					<path style="fill:#FFFFFF;stroke:#FFFFFF;stroke-width:7;stroke-linecap:round;stroke-linejoin:round;stroke-miterlimit:10;" d="
					M51.6621,29.2206c0.1781,0.1363,0.3921,0.2107,0.6029,0.2094c0.0351-0.0002,0.0695-0.0026,0.1031-0.0071
					c0.1845-0.0245,0.3442-0.1117,0.4479-0.2471c0.1226-0.1601,0.1597-0.3782,0.1017-0.5982
					c-0.0537-0.2038-0.1814-0.391-0.3594-0.5274c-0.1781-0.1363-0.3922-0.2107-0.6029-0.2094
					c-0.2276,0.0015-0.4284,0.0941-0.551,0.2542c-0.1226,0.1601-0.1597,0.3781-0.1016,0.5982
					C51.3563,28.897,51.484,29.0843,51.6621,29.2206L51.6621,29.2206z M52.4789,28.9178c-0.0423,0.0552-0.1214,0.0872-0.2167,0.0878
					c-0.1153,0.0007-0.2401-0.0437-0.3423-0.122c-0.1022-0.0782-0.1776-0.1871-0.207-0.2986
					c-0.0243-0.0923-0.014-0.1769,0.0282-0.232l0,0c0.0346-0.0451,0.0937-0.0748,0.1662-0.0844
					c0.0162-0.0021,0.033-0.0033,0.0504-0.0034c0.1153-0.0007,0.2401,0.0437,0.3423,0.122
					c0.1022,0.0782,0.1776,0.1871,0.2071,0.2986C52.5315,28.778,52.5212,28.8626,52.4789,28.9178L52.4789,28.9178z"/>
				
					<path style="fill:#FFFFFF;stroke:#FFFFFF;stroke-width:7;stroke-linecap:round;stroke-linejoin:round;stroke-miterlimit:10;" d="
					M52.244,30.2523c0.1015-0.0135,0.1811-0.0989,0.1839-0.2046c0.0032-0.1171-0.0892-0.2147-0.2063-0.2179
					c-0.2828-0.0077-0.568-0.1111-0.8031-0.2912c-0.5646-0.4323-0.7137-1.1891-0.3324-1.6872
					c0.3814-0.4979,1.1511-0.5516,1.7158-0.1195c0.5644,0.4324,0.7135,1.1894,0.3321,1.6875
					c-0.0658,0.0859-0.1447,0.1604-0.2345,0.2214c-0.0969,0.0658-0.1221,0.1978-0.0563,0.2947
					c0.0659,0.097,0.1979,0.1221,0.2948,0.0563c0.1275-0.0866,0.2396-0.1924,0.3331-0.3145
					c0.5235-0.6838,0.3391-1.7077-0.4111-2.2824c-0.7504-0.5743-1.7869-0.4852-2.3107,0.1985
					c-0.5236,0.6839-0.339,1.7076,0.4113,2.2822c0.3055,0.2339,0.6782,0.3683,1.0496,0.3784
					C52.2215,30.2544,52.2329,30.2538,52.244,30.2523L52.244,30.2523z"/>
				
					<path style="fill:#FFFFFF;stroke:#FFFFFF;stroke-width:7;stroke-linecap:round;stroke-linejoin:round;stroke-miterlimit:10;" d="
					M43.4624,21.216c0.3006,0.2548,0.7287,0.4994,1.2735,0.7283c-0.152,0.853-0.2014,1.6719-0.1463,2.4405
					c0.0548,0.7641,0.2009,1.3116,0.3138,1.6363c0.069,0.1985,0.1889,0.3785,0.3468,0.5207
					c2.4667,2.219,4.5696,3.8459,7.2584,5.6155c0.2611,0.1718,0.5666,0.2352,0.8588,0.1964
					c0.2727-0.0362,0.5337-0.1613,0.7362-0.3703c1.5303-1.5793,2.8767-3.338,4.0018-5.2271
					c0.3085-0.5176,0.2042-1.1841-0.2482-1.5848c-2.4088-2.1333-4.528-3.7389-7.3146-5.5419
					c-0.1778-0.1152-0.3829-0.1841-0.5929-0.1992c-0.289-0.0204-0.7651-0.0237-1.393,0.0764
					c-0.1157,0.0184-0.1946,0.1272-0.1762,0.2429c0.0184,0.1157,0.1271,0.1937,0.2429,0.1762
					c0.588-0.0939,1.0294-0.091,1.296-0.0722c0.1386,0.01,0.2744,0.0557,0.3924,0.1322c2.7678,1.7908,4.8722,3.3851,7.264,5.5034
					c0.2999,0.2656,0.3692,0.7071,0.1649,1.0499c-1.1083,1.861-2.4346,3.5934-3.942,5.1491
					c-0.2778,0.2866-0.7223,0.3349-1.0569,0.1147c-2.6698-1.7572-4.758-3.3728-7.2078-5.5765
					c-0.1048-0.0943-0.1842-0.2135-0.2298-0.3445c-0.1714-0.4932-0.5029-1.7914-0.1651-3.779
					c0.2721,0.1004,0.5637,0.1962,0.8721,0.2859c-0.0133,0.3252,0.1262,0.6518,0.4036,0.8642
					c0.2262,0.1732,0.5018,0.2382,0.7641,0.2034c0.2623-0.0348,0.5114-0.1695,0.6846-0.3957
					c0.3464-0.4524,0.2601-1.1023-0.1923-1.4487c-0.2192-0.1678-0.4906-0.2402-0.7642-0.2039
					c-0.2736,0.0363-0.5167,0.177-0.6845,0.3962c-0.0421,0.055-0.0777,0.1129-0.1071,0.1728
					c-0.319-0.0931-0.6191-0.1926-0.8962-0.297c0.0121-0.0577,0.0243-0.1156,0.0374-0.1744
					c0.0536-0.2391,0.2086-0.4416,0.4254-0.5557c0.7176-0.3777,1.4361-0.6641,2.1356-0.8512
					c0.1132-0.0303,0.1804-0.1466,0.1502-0.2598c-0.0303-0.1132-0.1467-0.1803-0.2598-0.1502
					c-0.4688,0.1254-0.9452,0.2934-1.4235,0.5013c-0.7558-0.7947-1.7973-1.2382-2.5253-1.0617
					c-0.4194,0.1016-0.7114,0.4011-0.8222,0.8433C42.8276,20.409,43.0043,20.8277,43.4624,21.216z M46.5596,22.0621
					c0.056-0.0731,0.1265-0.1307,0.2061-0.1714c0.021,0.0905,0.0375,0.1812,0.0483,0.272c-0.0785-0.0188-0.1719-0.042-0.2761-0.0691
					C46.545,22.083,46.5518,22.0724,46.5596,22.0621z M46.6729,22.9159c-0.135-0.1034-0.2145-0.2526-0.2337-0.4094
					c0.3323,0.0865,0.5502,0.1314,0.5613,0.1337c0.0235,0.0048,0.0473,0.0056,0.0705,0.0025
					c0.0387-0.0051,0.0758-0.021,0.1067-0.0463c0.0494-0.0406,0.0779-0.1013,0.0776-0.1653
					c-0.0012-0.1965-0.0236-0.3938-0.0658-0.5897c0.0802,0.0198,0.1562,0.0557,0.2238,0.1075
					c0.2666,0.2041,0.3175,0.5871,0.1133,0.8537C47.3225,23.0692,46.9395,23.12,46.6729,22.9159L46.6729,22.9159z M43.3488,20.0747
					c0.0726-0.2898,0.2444-0.4695,0.5104-0.5339c0.5495-0.1333,1.3785,0.2203,2.0149,0.8373
					c-0.1299,0.0626-0.2598,0.1279-0.3896,0.1962c-0.3271,0.1721-0.561,0.4776-0.6418,0.8383
					c-0.0079,0.0354-0.0153,0.0707-0.0229,0.106C44.1158,21.2125,43.1956,20.6864,43.3488,20.0747z"/>
			</g>
			<path style="fill:#FFFFFF;stroke:#FFFFFF;stroke-width:7;stroke-linecap:round;stroke-linejoin:round;stroke-miterlimit:10;" d="
				M40.3131,6.6752L6.144,9.7669C5.8645,9.7922,5.6152,9.5842,5.5899,9.3047L5.5871,9.2735
				C5.5618,8.994,5.7698,8.7447,6.0492,8.7194l34.1691-3.0917c0.2795-0.0253,0.5288,0.1827,0.5541,0.4622l0.0028,0.0312
				C40.8006,6.4005,40.5926,6.6499,40.3131,6.6752z"/>
			<path style="fill:#FFFFFF;stroke:#FFFFFF;stroke-width:7;stroke-linecap:round;stroke-linejoin:round;stroke-miterlimit:10;" d="
				M41.9181,29.1448L7.749,32.2365c-0.2795,0.0253-0.5288-0.1827-0.5541-0.4622L7.192,31.7432
				c-0.0253-0.2795,0.1827-0.5288,0.4622-0.5541l34.1691-3.0917c0.2795-0.0253,0.5288,0.1827,0.5541,0.4622l0.0028,0.0312
				C42.4055,28.8702,42.1976,29.1195,41.9181,29.1448z"/>
			<path style="fill:#FFFFFF;stroke:#FFFFFF;stroke-width:7;stroke-linecap:round;stroke-linejoin:round;stroke-miterlimit:10;" d="
				M19.0905,6.188L6.144,7.3594C5.8645,7.3847,5.6152,7.1767,5.5899,6.8973L5.5871,6.866C5.5618,6.5866,5.7698,6.3372,6.0492,6.3119
				l12.9465-1.1714c0.2795-0.0253,0.5288,0.1827,0.5541,0.4622l0.0028,0.0312C19.578,5.9134,19.37,6.1627,19.0905,6.188z"/>
			<path style="fill:#FFFFFF;stroke:#FFFFFF;stroke-width:7;stroke-linecap:round;stroke-linejoin:round;stroke-miterlimit:10;" d="
				M42.3626,31.8676L29.4162,33.039c-0.2795,0.0253-0.5288-0.1827-0.5541-0.4622l-0.0028-0.0312
				c-0.0253-0.2795,0.1827-0.5288,0.4622-0.5541l12.9465-1.1714c0.2795-0.0253,0.5288,0.1827,0.5541,0.4622l0.0028,0.0312
				C42.8501,31.5929,42.6421,31.8423,42.3626,31.8676z"/>
		</g>
		<g>
			<path style="fill:#FFFFFF;stroke:#FFFFFF;stroke-width:7;stroke-linecap:round;stroke-linejoin:round;stroke-miterlimit:10;" d="
				M5.9655,24.546l0.4383,3.6718l-2.0434,0.187l-0.5963-6.516l2.8654-0.2622L8.13,25.0251l0.0459-0.0042l0.7018-3.6l2.9582-0.2707
				l0.5963,6.516l-2.1352,0.1954l-0.271-3.6689L9.97,24.1887l-0.8789,3.7832l-1.5462,0.1415l-1.5332-3.5716L5.9655,24.546z"/>
			<path style="fill:#FFFFFF;stroke:#FFFFFF;stroke-width:7;stroke-linecap:round;stroke-linejoin:round;stroke-miterlimit:10;" d="
				M18.6235,24.6403c0.0382,0.4173-0.0036,0.7953-0.124,1.1345c-0.1205,0.3386-0.2976,0.6318-0.5319,0.8792
				s-0.5128,0.4444-0.8366,0.5912c-0.3238,0.1474-0.6696,0.238-1.0381,0.2717c-0.3621,0.0331-0.7154,0.0066-1.0605-0.0797
				c-0.3451-0.0856-0.6534-0.2289-0.9256-0.4299c-0.2722-0.201-0.4982-0.4574-0.6782-0.7685
				c-0.18-0.3117-0.2891-0.6759-0.3273-1.0932c-0.0376-0.4109,0.004-0.7843,0.1247-1.1203c0.1207-0.336,0.2968-0.626,0.5283-0.8698
				c0.2314-0.2439,0.5089-0.4376,0.833-0.5818s0.6668-0.2326,1.0289-0.2657c0.3685-0.0337,0.7248-0.0094,1.0697,0.0737
				s0.6542,0.223,0.9292,0.4205c0.2751,0.1975,0.5021,0.4506,0.6819,0.7591C18.4767,23.8698,18.586,24.2295,18.6235,24.6403z
				 M15.7804,24.1023c-0.233,0.0213-0.4145,0.1182-0.5437,0.2912c-0.1299,0.1724-0.1846,0.3665-0.165,0.5809
				c0.0208,0.2273,0.1123,0.4137,0.2739,0.5595c0.1616,0.1464,0.3589,0.2086,0.5926,0.1872
				c0.233-0.0213,0.4158-0.1183,0.5488-0.2917c0.1324-0.1727,0.1886-0.3727,0.1678-0.5999
				c-0.0196-0.2144-0.1119-0.395-0.2773-0.5404C16.2126,24.143,16.0141,24.0809,15.7804,24.1023z"/>
			<path style="fill:#FFFFFF;stroke:#FFFFFF;stroke-width:7;stroke-linecap:round;stroke-linejoin:round;stroke-miterlimit:10;" d="
				M19.1856,22.1665l2.071-0.1895l0.0489,0.5341l0.018-0.0016c0.1063-0.189,0.2738-0.361,0.5038-0.5148
				c0.2293-0.1543,0.5-0.2451,0.812-0.2737c0.3364-0.0308,0.6219,0.0046,0.8565,0.1068c0.2347,0.1028,0.4263,0.2445,0.5756,0.4257
				s0.2609,0.3891,0.3347,0.6232c0.0739,0.2347,0.1221,0.4717,0.144,0.7106l0.2695,2.9454l-2.1262,0.1946l-0.2358-2.5769
				c-0.0224-0.2452-0.0767-0.4138-0.1621-0.505c-0.086-0.0912-0.2054-0.1294-0.3588-0.1154
				c-0.1412,0.0129-0.251,0.0799-0.3292,0.2017c-0.0788,0.1218-0.1082,0.2895-0.0885,0.5046l0.2358,2.5769l-2.1262,0.1946
				L19.1856,22.1665z"/>
			<path style="fill:#FFFFFF;stroke:#FFFFFF;stroke-width:7;stroke-linecap:round;stroke-linejoin:round;stroke-miterlimit:10;" d="
				M25.3417,24.0255c-0.0286-0.3126-0.0092-0.6238,0.0583-0.9336c0.0675-0.3091,0.1828-0.5916,0.3445-0.8478
				c0.1623-0.2563,0.3745-0.4706,0.6371-0.6429c0.2632-0.173,0.5749-0.2753,0.937-0.3084c0.233-0.0213,0.4708,0.0016,0.7119,0.0689
				c0.2412,0.0679,0.4396,0.1779,0.596,0.3306l0.0186-0.0017l-0.2291-2.503l2.1262-0.1946l0.6367,6.9577l-1.9137,0.1751
				l-0.0463-0.5059l-0.0186,0.0017c-0.1226,0.2093-0.3145,0.3829-0.5738,0.5205c-0.2599,0.1384-0.5403,0.2216-0.8408,0.2491
				c-0.3621,0.0331-0.6879-0.0115-0.9774-0.1332c-0.2896-0.1224-0.5378-0.2958-0.7443-0.5216
				c-0.2057-0.2252-0.3708-0.4872-0.4939-0.7853C25.4471,24.6529,25.3709,24.3446,25.3417,24.0255z M27.3113,23.8453
				c0.0213,0.233,0.1066,0.422,0.2557,0.5657c0.1491,0.1443,0.3528,0.2046,0.6108,0.181c0.251-0.023,0.4447-0.121,0.5809-0.2946
				c0.1357-0.173,0.1931-0.3731,0.1723-0.6003c-0.0196-0.2144-0.1119-0.395-0.2767-0.5411
				c-0.1654-0.1454-0.3737-0.2066-0.6247-0.1836c-0.2581,0.0236-0.4472,0.1212-0.5675,0.2927
				C27.3419,23.4373,27.2917,23.6309,27.3113,23.8453z"/>
			<path style="fill:#FFFFFF;stroke:#FFFFFF;stroke-width:7;stroke-linecap:round;stroke-linejoin:round;stroke-miterlimit:10;" d="
				M34.4317,22.5535c-0.0135-0.1477-0.0742-0.2515-0.182-0.3128c-0.1079-0.0613-0.2447-0.0844-0.4103-0.0693
				c-0.1964,0.018-0.3782,0.076-0.5452,0.1755c-0.167,0.0988-0.3136,0.2093-0.4383,0.3321l-1.1546-0.9521
				c0.2688-0.3094,0.5988-0.5591,0.9898-0.7496c0.391-0.1905,0.8007-0.305,1.2302-0.3443c0.4603-0.0421,0.8469-0.0128,1.1591,0.0888
				c0.3122,0.1009,0.5667,0.2576,0.762,0.4682c0.1961,0.2112,0.3428,0.4638,0.4409,0.7578c0.0975,0.294,0.162,0.6099,0.1929,0.9475
				l0.2333,2.5493l-1.9233,0.176l-0.0354-0.3865l-0.018,0.0016c-0.1064,0.1955-0.269,0.3431-0.4889,0.4435
				c-0.2193,0.1003-0.4365,0.161-0.6515,0.1807c-0.19,0.0174-0.3877,0.0076-0.5918-0.0294
				c-0.2047-0.0369-0.3939-0.1096-0.5675-0.2174c-0.1736-0.1078-0.3218-0.2554-0.4444-0.4422
				c-0.1219-0.1863-0.1961-0.4242-0.2225-0.7124c-0.0309-0.3377,0.0313-0.6198,0.1866-0.8476
				c0.1559-0.2279,0.3628-0.4138,0.6222-0.558c0.2586-0.1447,0.5536-0.2533,0.8841-0.3269
				c0.3305-0.0736,0.6547-0.1253,0.9743-0.1545L34.4317,22.5535z M34.5474,23.6194c-0.3126,0.0286-0.5612,0.085-0.7451,0.1698
				c-0.1844,0.0855-0.2679,0.22-0.2511,0.4036c0.0062,0.068,0.0268,0.1231,0.0618,0.1659c0.035,0.0434,0.0784,0.0783,0.13,0.1046
				c0.0523,0.0263,0.1076,0.0439,0.1674,0.0539c0.0598,0.0101,0.1138,0.0129,0.1632,0.0084
				c0.2022-0.0185,0.3594-0.0976,0.4702-0.2379c0.1108-0.1403,0.1573-0.3115,0.1388-0.5137l-0.0152-0.1656L34.5474,23.6194z"/>
			<path style="fill:#FFFFFF;stroke:#FFFFFF;stroke-width:7;stroke-linecap:round;stroke-linejoin:round;stroke-miterlimit:10;" d="
				M38.9651,25.0446l-2.386-4.4697l2.356-0.2156l0.9516,2.4835l0.0366-0.0033l0.4016-2.6074l2.2732-0.208L41.08,25.3417
				c-0.0887,0.3111-0.1964,0.5915-0.3218,0.8412c-0.1254,0.2497-0.2791,0.4664-0.4603,0.65
				c-0.1813,0.1836-0.4009,0.3306-0.6601,0.441s-0.5666,0.182-0.9223,0.2145c-0.1104,0.0101-0.2245,0.0154-0.3422,0.0171
				c-0.117,0.0016-0.2305-0.0009-0.3392-0.0065c-0.1086-0.0056-0.2102-0.0118-0.3034-0.0188
				c-0.0932-0.007-0.1718-0.0166-0.2345-0.0297l0.1056-1.7814c0.0831,0.0235,0.1817,0.0403,0.2973,0.0518
				c0.1156,0.0108,0.2193,0.0123,0.3111,0.0039c0.233-0.0213,0.402-0.0847,0.507-0.1901s0.1786-0.2339,0.2204-0.3859
				L38.9651,25.0446z"/>
		</g>
		<g>
			<path style="fill:#FFFFFF;stroke:#FFFFFF;stroke-width:7;stroke-linecap:round;stroke-linejoin:round;stroke-miterlimit:10;" d="
				M8.4602,15.6756c-0.0422-0.5415,0.0157-1.0398,0.1728-1.4949c0.1565-0.4543,0.3887-0.8508,0.6958-1.1887
				s0.6785-0.609,1.1148-0.8134c0.4364-0.2037,0.9093-0.3257,1.4194-0.3655c0.5222-0.0407,1.023,0.0056,1.5016,0.1381
				c0.478,0.1332,0.8845,0.3303,1.2196,0.5928l-1.2648,1.7913c-0.1403-0.1555-0.3095-0.2691-0.5076-0.3402
				c-0.1981-0.0711-0.4148-0.0972-0.6509-0.0788c-0.1907,0.0148-0.3669,0.0621-0.5271,0.1417
				c-0.1608,0.0803-0.298,0.1883-0.4128,0.3253c-0.1141,0.1377-0.1994,0.2993-0.2553,0.4869
				c-0.0559,0.1868-0.0755,0.3923-0.0581,0.6151c0.0174,0.2234,0.0695,0.4193,0.1566,0.589
				c0.087,0.1697,0.1975,0.3134,0.3321,0.4311c0.134,0.1177,0.2863,0.2038,0.4575,0.2576c0.1706,0.0545,0.3486,0.0742,0.5334,0.0598
				c0.2614-0.0204,0.482-0.0919,0.6616-0.2152c0.1797-0.1227,0.3178-0.2616,0.4151-0.4168l1.526,1.5639
				c-0.2823,0.3299-0.6394,0.6033-1.0714,0.8194c-0.432,0.2168-0.9318,0.347-1.4986,0.3911
				c-0.5102,0.0397-0.9964-0.009-1.4593-0.146c-0.4629-0.1371-0.872-0.3508-1.228-0.6404s-0.6467-0.6454-0.8715-1.0674
				C8.6358,16.6899,8.5019,16.2112,8.4602,15.6756z"/>
			<path style="fill:#FFFFFF;stroke:#FFFFFF;stroke-width:7;stroke-linecap:round;stroke-linejoin:round;stroke-miterlimit:10;" d="
				M16.8257,18.2288l-2.4127-4.6711l2.4475-0.1905l0.9524,2.5902l0.038-0.003l0.4534-2.6996l2.3615-0.1838l-1.65,5.496
				c-0.0964,0.3215-0.2121,0.611-0.3457,0.8683s-0.2961,0.48-0.4868,0.6679c-0.1907,0.1879-0.4206,0.3374-0.6911,0.4483
				c-0.2705,0.111-0.5904,0.1808-0.9599,0.2096c-0.1147,0.0089-0.2332,0.0128-0.3553,0.0129
				c-0.1214,0.0001-0.2392-0.0042-0.3518-0.0115c-0.1126-0.0073-0.2179-0.0152-0.3145-0.0238
				c-0.0966-0.0086-0.178-0.0197-0.2429-0.0341l0.1347-1.8469c0.0859,0.0255,0.188,0.0444,0.3078,0.0579
				c0.1198,0.0128,0.2273,0.0158,0.3227,0.0084c0.2421-0.0188,0.4183-0.0822,0.5287-0.1901s0.1886-0.2401,0.2341-0.3973
				L16.8257,18.2288z"/>
			<path style="fill:#FFFFFF;stroke:#FFFFFF;stroke-width:7;stroke-linecap:round;stroke-linejoin:round;stroke-miterlimit:10;" d="
				M27.1123,15.0797c0.0258,0.3314,0.0024,0.66-0.0715,0.9865c-0.0739,0.3265-0.1964,0.6232-0.3675,0.8894
				c-0.1711,0.2669-0.3941,0.4876-0.6683,0.6633c-0.2742,0.175-0.599,0.2774-0.9738,0.3066
				c-0.3121,0.0243-0.6122-0.0121-0.9015-0.1083c-0.2886-0.0956-0.5145-0.2397-0.6764-0.4324l-0.0193,0.0015l0.0409,0.5255
				l-1.9874,0.1547l-0.5627-7.2279l2.2081-0.1719l0.2024,2.6002l0.0193-0.0015c0.1327-0.1834,0.3164-0.3306,0.5506-0.4421
				c0.2343-0.1108,0.4728-0.1757,0.7142-0.1945c0.3748-0.0292,0.7115,0.0211,1.0095,0.1522
				c0.298,0.1304,0.5517,0.3126,0.7618,0.5466s0.3766,0.5027,0.4996,0.8072C27.0135,14.4399,27.087,14.7549,27.1123,15.0797z
				 M25.0669,15.2389c-0.0173-0.2227-0.1032-0.412-0.2562-0.5671c-0.1529-0.1545-0.3634-0.2213-0.6309-0.2005
				c-0.2614,0.0204-0.4637,0.1193-0.6069,0.2968c-0.1438,0.1783-0.2067,0.3791-0.1893,0.6018
				c0.0184,0.2361,0.112,0.4307,0.2816,0.5839c0.169,0.1539,0.3842,0.2204,0.6456,0.2c0.2674-0.0208,0.4652-0.1181,0.5925-0.2917
				C25.0309,15.6892,25.0858,15.481,25.0669,15.2389z"/>
			<path style="fill:#FFFFFF;stroke:#FFFFFF;stroke-width:7;stroke-linecap:round;stroke-linejoin:round;stroke-miterlimit:10;" d="
				M33.179,14.6744c0.0065,0.0834,0.0117,0.1675,0.0151,0.2538c0.0034,0.0863,0.0043,0.1587,0.0028,0.2165l-3.3845,0.2635
				c0.013,0.0889,0.0498,0.1659,0.1093,0.2317c0.0595,0.0658,0.1309,0.1213,0.2149,0.1664
				c0.0833,0.0445,0.1757,0.0762,0.2764,0.0939c0.1007,0.0177,0.2024,0.0225,0.3044,0.0145
				c0.2041-0.0159,0.3713-0.0658,0.5029-0.1499c0.131-0.084,0.2287-0.1735,0.2918-0.2676l1.6296,0.6709
				c-0.1951,0.3809-0.4962,0.6928-0.9033,0.9365c-0.4078,0.2431-0.8918,0.3868-1.4526,0.4304
				c-0.3635,0.0283-0.7214-0.0015-1.0744-0.0895c-0.3537-0.0879-0.6711-0.2349-0.9535-0.4404
				c-0.2817-0.2055-0.5157-0.4711-0.7014-0.7968s-0.2956-0.711-0.3303-1.1572c-0.0323-0.4148,0.0119-0.7947,0.1319-1.1408
				c0.1207-0.3462,0.298-0.6452,0.5313-0.8975c0.234-0.2524,0.5161-0.4548,0.8476-0.6095c0.3309-0.1539,0.6907-0.2457,1.0795-0.2759
				c0.3955-0.0308,0.7609,0.0092,1.0964,0.1213c0.3361,0.1114,0.6298,0.2811,0.8816,0.5084
				c0.2512,0.2274,0.4539,0.5048,0.6083,0.8329C33.0563,13.9178,33.1482,14.2796,33.179,14.6744z M31.2205,14.1057
				c-0.0139-0.1781-0.0906-0.3197-0.2296-0.4243c-0.1396-0.1045-0.3215-0.1481-0.5442-0.1307
				c-0.2421,0.0188-0.425,0.1002-0.5486,0.2447c-0.1237,0.1438-0.189,0.2871-0.1974,0.4287L31.2205,14.1057z"/>
			<path style="fill:#FFFFFF;stroke:#FFFFFF;stroke-width:7;stroke-linecap:round;stroke-linejoin:round;stroke-miterlimit:10;" d="
				M33.7544,12.0519l2.1221-0.1652l0.0447,0.5735l0.0193-0.0015c0.0922-0.2118,0.2404-0.3938,0.4434-0.5438
				c0.203-0.1507,0.4479-0.2368,0.7346-0.2591c0.1721-0.0134,0.314-0.0083,0.4245,0.0146l-0.0262,1.8874
				c-0.0715-0.0139-0.1506-0.0218-0.2374-0.0245c-0.0868-0.0033-0.1652-0.0019-0.2352,0.0036
				c-0.2868,0.0223-0.5097,0.1229-0.6695,0.3024c-0.1592,0.1788-0.2293,0.3896-0.2105,0.6316l0.1898,2.4382l-2.2081,0.1719
				L33.7544,12.0519z"/>
		</g>
	</g>
	<g>
		<g>
			<g>
				<polygon style="display:none;fill:#FC1AFC;" points="44.7784,24.0438 45.0918,25.9844 48.5193,29.0056 52.9444,32.1996 
					53.9706,31.834 56.6343,28.6101 57.9138,26.6373 58.0183,25.7272 55.3024,23.2343 53.0566,21.5186 50.7749,20.0304 
					50.1841,19.5128 49.2178,19.5128 47.6519,19.9259 46.2147,20.5157 45.4052,20.8377 				"/>
				<path style="fill:#FC1AFC;" d="M48.5398,25.2617c-0.0873,0.3333,0.1129,0.6753,0.4461,0.7626l5.3032,1.3885
					c0.0803,0.021,0.162,0.0256,0.241,0.0151c0.161-0.0214,0.3105-0.1053,0.4135-0.2398c0,0,0,0,0,0
					c0.0505-0.066,0.0869-0.1405,0.1081-0.2213c0.0423-0.1615,0.0192-0.3297-0.0651-0.4737
					c-0.0843-0.144-0.2196-0.2466-0.381-0.2889l-5.3032-1.3885C48.9692,24.7284,48.6272,24.9286,48.5398,25.2617L48.5398,25.2617z
					 M48.9503,25.3692c0.028-0.1068,0.1377-0.171,0.2446-0.143l5.3031,1.3885c0.0518,0.0136,0.0952,0.0465,0.1222,0.0926
					c0.027,0.0462,0.0344,0.1001,0.0209,0.1519c-0.0069,0.026-0.0185,0.0499-0.0345,0.071c-0.0492,0.0643-0.1316,0.0926-0.21,0.0721
					l-5.3032-1.3885C48.9865,25.5857,48.9223,25.4761,48.9503,25.3692z"/>
				<path style="fill:#FC1AFC;" d="M50.6595,24.8448c0.398,0.3047,0.8766,0.4228,1.3163,0.3644
					c0.3894-0.0517,0.7482-0.2416,0.9942-0.5628c0.5236-0.6839,0.3391-1.7076-0.4113-2.2821
					c-0.7504-0.5745-1.7869-0.4855-2.3105,0.1983C49.7247,23.2465,49.9092,24.2702,50.6595,24.8448L50.6595,24.8448z
					 M52.6331,24.3884c-0.3813,0.4981-1.151,0.5517-1.7155,0.1194c-0.5646-0.4323-0.7137-1.1891-0.3323-1.6873
					c0.175-0.2286,0.4318-0.3635,0.713-0.4009c0.3316-0.044,0.697,0.0476,1.0025,0.2815
					C52.8653,23.1334,53.0144,23.8903,52.6331,24.3884z"/>
				<path style="fill:#FC1AFC;" d="M51.1611,24.1897c0.1781,0.1363,0.3922,0.2107,0.6029,0.2094
					c0.035-0.0002,0.0694-0.0026,0.103-0.0071c0.1845-0.0245,0.3442-0.1117,0.448-0.2471c0.1226-0.1601,0.1597-0.3781,0.1017-0.5982
					c-0.0537-0.2038-0.1814-0.391-0.3594-0.5274c-0.1781-0.1363-0.3921-0.2107-0.6029-0.2094
					c-0.2278,0.0015-0.4284,0.0941-0.551,0.2542c-0.1226,0.1601-0.1597,0.3782-0.1017,0.5982
					C50.8554,23.8661,50.983,24.0534,51.1611,24.1897L51.1611,24.1897z M51.978,23.8869c-0.0423,0.0552-0.1212,0.0872-0.2167,0.0878
					c-0.1153,0.0007-0.2401-0.0437-0.3423-0.122c-0.1022-0.0782-0.1776-0.187-0.2071-0.2986
					c-0.0243-0.0923-0.014-0.1769,0.0283-0.2321c0,0,0,0,0,0c0.0345-0.0451,0.0936-0.0747,0.1662-0.0844
					c0.0162-0.0021,0.0331-0.0033,0.0505-0.0034c0.1153-0.0007,0.2401,0.0437,0.3423,0.122c0.1022,0.0782,0.1776,0.187,0.207,0.2986
					C52.0306,23.7471,52.0203,23.8317,51.978,23.8869L51.978,23.8869z"/>
				<path style="fill:#FC1AFC;" d="M51.6621,29.2206c0.1781,0.1363,0.3921,0.2107,0.6029,0.2094
					c0.0351-0.0002,0.0695-0.0026,0.1031-0.0071c0.1845-0.0245,0.3442-0.1117,0.4479-0.2471
					c0.1226-0.1601,0.1597-0.3782,0.1017-0.5982c-0.0537-0.2038-0.1814-0.391-0.3594-0.5274
					c-0.1781-0.1363-0.3922-0.2107-0.6029-0.2094c-0.2276,0.0015-0.4284,0.0941-0.551,0.2542
					c-0.1226,0.1601-0.1597,0.3781-0.1016,0.5982C51.3563,28.897,51.484,29.0843,51.6621,29.2206L51.6621,29.2206z M52.4789,28.9178
					c-0.0423,0.0552-0.1214,0.0872-0.2167,0.0878c-0.1153,0.0007-0.2401-0.0437-0.3423-0.122
					c-0.1022-0.0782-0.1776-0.1871-0.207-0.2986c-0.0243-0.0923-0.014-0.1769,0.0282-0.232l0,0
					c0.0346-0.0451,0.0937-0.0748,0.1662-0.0844c0.0162-0.0021,0.033-0.0033,0.0504-0.0034
					c0.1153-0.0007,0.2401,0.0437,0.3423,0.122c0.1022,0.0782,0.1776,0.1871,0.2071,0.2986
					C52.5315,28.778,52.5212,28.8626,52.4789,28.9178L52.4789,28.9178z"/>
				<path style="fill:#FC1AFC;" d="M52.244,30.2523c0.1015-0.0135,0.1811-0.0989,0.1839-0.2046
					c0.0032-0.1171-0.0892-0.2147-0.2063-0.2179c-0.2828-0.0077-0.568-0.1111-0.8031-0.2912
					c-0.5646-0.4323-0.7137-1.1891-0.3324-1.6872c0.3814-0.4979,1.1511-0.5516,1.7158-0.1195
					c0.5644,0.4324,0.7135,1.1894,0.3321,1.6875c-0.0658,0.0859-0.1447,0.1604-0.2345,0.2214
					c-0.0969,0.0658-0.1221,0.1978-0.0563,0.2947c0.0659,0.097,0.1979,0.1221,0.2948,0.0563
					c0.1275-0.0866,0.2396-0.1924,0.3331-0.3145c0.5235-0.6838,0.3391-1.7077-0.4111-2.2824
					c-0.7504-0.5743-1.7869-0.4852-2.3107,0.1985c-0.5236,0.6839-0.339,1.7076,0.4113,2.2822
					c0.3055,0.2339,0.6782,0.3683,1.0496,0.3784C52.2215,30.2544,52.2329,30.2538,52.244,30.2523L52.244,30.2523z"/>
				<path style="fill:#FC1AFC;" d="M43.4624,21.216c0.3006,0.2548,0.7287,0.4994,1.2735,0.7283
					c-0.152,0.853-0.2014,1.6719-0.1463,2.4405c0.0548,0.7641,0.2009,1.3116,0.3138,1.6363
					c0.069,0.1985,0.1889,0.3785,0.3468,0.5207c2.4667,2.219,4.5696,3.8459,7.2584,5.6155
					c0.2611,0.1718,0.5666,0.2352,0.8588,0.1964c0.2727-0.0362,0.5337-0.1613,0.7362-0.3703
					c1.5303-1.5793,2.8767-3.338,4.0018-5.2271c0.3085-0.5176,0.2042-1.1841-0.2482-1.5848
					c-2.4088-2.1333-4.528-3.7389-7.3146-5.5419c-0.1778-0.1152-0.3829-0.1841-0.5929-0.1992
					c-0.289-0.0204-0.7651-0.0237-1.393,0.0764c-0.1157,0.0184-0.1946,0.1272-0.1762,0.2429
					c0.0184,0.1157,0.1271,0.1937,0.2429,0.1762c0.588-0.0939,1.0294-0.091,1.296-0.0722c0.1386,0.01,0.2744,0.0557,0.3924,0.1322
					c2.7678,1.7908,4.8722,3.3851,7.264,5.5034c0.2999,0.2656,0.3692,0.7071,0.1649,1.0499
					c-1.1083,1.861-2.4346,3.5934-3.942,5.1491c-0.2778,0.2866-0.7223,0.3349-1.0569,0.1147
					c-2.6698-1.7572-4.758-3.3728-7.2078-5.5765c-0.1048-0.0943-0.1842-0.2135-0.2298-0.3445
					c-0.1714-0.4932-0.5029-1.7914-0.1651-3.779c0.2721,0.1004,0.5637,0.1962,0.8721,0.2859
					c-0.0133,0.3252,0.1262,0.6518,0.4036,0.8642c0.2262,0.1732,0.5018,0.2382,0.7641,0.2034
					c0.2623-0.0348,0.5114-0.1695,0.6846-0.3957c0.3464-0.4524,0.2601-1.1023-0.1923-1.4487
					c-0.2192-0.1678-0.4906-0.2402-0.7642-0.2039c-0.2736,0.0363-0.5167,0.177-0.6845,0.3962
					c-0.0421,0.055-0.0777,0.1129-0.1071,0.1728c-0.319-0.0931-0.6191-0.1926-0.8962-0.297
					c0.0121-0.0577,0.0243-0.1156,0.0374-0.1744c0.0536-0.2391,0.2086-0.4416,0.4254-0.5557
					c0.7176-0.3777,1.4361-0.6641,2.1356-0.8512c0.1132-0.0303,0.1804-0.1466,0.1502-0.2598
					c-0.0303-0.1132-0.1467-0.1803-0.2598-0.1502c-0.4688,0.1254-0.9452,0.2934-1.4235,0.5013
					c-0.7558-0.7947-1.7973-1.2382-2.5253-1.0617c-0.4194,0.1016-0.7114,0.4011-0.8222,0.8433
					C42.8276,20.409,43.0043,20.8277,43.4624,21.216z M46.5596,22.0621c0.056-0.0731,0.1265-0.1307,0.2061-0.1714
					c0.021,0.0905,0.0375,0.1812,0.0483,0.272c-0.0785-0.0188-0.1719-0.042-0.2761-0.0691
					C46.545,22.083,46.5518,22.0724,46.5596,22.0621z M46.6729,22.9159c-0.135-0.1034-0.2145-0.2526-0.2337-0.4094
					c0.3323,0.0865,0.5502,0.1314,0.5613,0.1337c0.0235,0.0048,0.0473,0.0056,0.0705,0.0025
					c0.0387-0.0051,0.0758-0.021,0.1067-0.0463c0.0494-0.0406,0.0779-0.1013,0.0776-0.1653
					c-0.0012-0.1965-0.0236-0.3938-0.0658-0.5897c0.0802,0.0198,0.1562,0.0557,0.2238,0.1075
					c0.2666,0.2041,0.3175,0.5871,0.1133,0.8537C47.3225,23.0692,46.9395,23.12,46.6729,22.9159L46.6729,22.9159z M43.3488,20.0747
					c0.0726-0.2898,0.2444-0.4695,0.5104-0.5339c0.5495-0.1333,1.3785,0.2203,2.0149,0.8373
					c-0.1299,0.0626-0.2598,0.1279-0.3896,0.1962c-0.3271,0.1721-0.561,0.4776-0.6418,0.8383
					c-0.0079,0.0354-0.0153,0.0707-0.0229,0.106C44.1158,21.2125,43.1956,20.6864,43.3488,20.0747z"/>
			</g>
			<path style="fill:#FC1AFC;" d="M40.3131,6.6752L6.144,9.7669C5.8645,9.7922,5.6152,9.5842,5.5899,9.3047L5.5871,9.2735
				C5.5618,8.994,5.7698,8.7447,6.0492,8.7194l34.1691-3.0917c0.2795-0.0253,0.5288,0.1827,0.5541,0.4622l0.0028,0.0312
				C40.8006,6.4005,40.5926,6.6499,40.3131,6.6752z"/>
			<path style="fill:#FC1AFC;" d="M41.9181,29.1448L7.749,32.2365c-0.2795,0.0253-0.5288-0.1827-0.5541-0.4622L7.192,31.7432
				c-0.0253-0.2795,0.1827-0.5288,0.4622-0.5541l34.1691-3.0917c0.2795-0.0253,0.5288,0.1827,0.5541,0.4622l0.0028,0.0312
				C42.4055,28.8702,42.1976,29.1195,41.9181,29.1448z"/>
			<path style="fill:#FC1AFC;" d="M19.0905,6.188L6.144,7.3594C5.8645,7.3847,5.6152,7.1767,5.5899,6.8973L5.5871,6.866
				C5.5618,6.5866,5.7698,6.3372,6.0492,6.3119l12.9465-1.1714c0.2795-0.0253,0.5288,0.1827,0.5541,0.4622l0.0028,0.0312
				C19.578,5.9134,19.37,6.1627,19.0905,6.188z"/>
			<path style="fill:#FC1AFC;" d="M42.3626,31.8676L29.4162,33.039c-0.2795,0.0253-0.5288-0.1827-0.5541-0.4622l-0.0028-0.0312
				c-0.0253-0.2795,0.1827-0.5288,0.4622-0.5541l12.9465-1.1714c0.2795-0.0253,0.5288,0.1827,0.5541,0.4622l0.0028,0.0312
				C42.8501,31.5929,42.6421,31.8423,42.3626,31.8676z"/>
		</g>
	</g>
	<g>
		<g>
			<path style="fill:#00C0EA;" d="M5.9655,24.546l0.4383,3.6718l-2.0434,0.187l-0.5963-6.516l2.8654-0.2622L8.13,25.0251
				l0.0459-0.0042l0.7018-3.6l2.9582-0.2707l0.5963,6.516l-2.1352,0.1954l-0.271-3.6689L9.97,24.1887l-0.8789,3.7832l-1.5462,0.1415
				l-1.5332-3.5716L5.9655,24.546z"/>
			<path style="fill:#00C0EA;" d="M18.6235,24.6403c0.0382,0.4173-0.0036,0.7953-0.124,1.1345
				c-0.1205,0.3386-0.2976,0.6318-0.5319,0.8792s-0.5128,0.4444-0.8366,0.5912c-0.3238,0.1474-0.6696,0.238-1.0381,0.2717
				c-0.3621,0.0331-0.7154,0.0066-1.0605-0.0797c-0.3451-0.0856-0.6534-0.2289-0.9256-0.4299
				c-0.2722-0.201-0.4982-0.4574-0.6782-0.7685c-0.18-0.3117-0.2891-0.6759-0.3273-1.0932
				c-0.0376-0.4109,0.004-0.7843,0.1247-1.1203c0.1207-0.336,0.2968-0.626,0.5283-0.8698c0.2314-0.2439,0.5089-0.4376,0.833-0.5818
				s0.6668-0.2326,1.0289-0.2657c0.3685-0.0337,0.7248-0.0094,1.0697,0.0737s0.6542,0.223,0.9292,0.4205
				c0.2751,0.1975,0.5021,0.4506,0.6819,0.7591C18.4767,23.8698,18.586,24.2295,18.6235,24.6403z M15.7804,24.1023
				c-0.233,0.0213-0.4145,0.1182-0.5437,0.2912c-0.1299,0.1724-0.1846,0.3665-0.165,0.5809
				c0.0208,0.2273,0.1123,0.4137,0.2739,0.5595c0.1616,0.1464,0.3589,0.2086,0.5926,0.1872
				c0.233-0.0213,0.4158-0.1183,0.5488-0.2917c0.1324-0.1727,0.1886-0.3727,0.1678-0.5999
				c-0.0196-0.2144-0.1119-0.395-0.2773-0.5404C16.2126,24.143,16.0141,24.0809,15.7804,24.1023z"/>
			<path style="fill:#00C0EA;" d="M19.1856,22.1665l2.071-0.1895l0.0489,0.5341l0.018-0.0016
				c0.1063-0.189,0.2738-0.361,0.5038-0.5148c0.2293-0.1543,0.5-0.2451,0.812-0.2737c0.3364-0.0308,0.6219,0.0046,0.8565,0.1068
				c0.2347,0.1028,0.4263,0.2445,0.5756,0.4257s0.2609,0.3891,0.3347,0.6232c0.0739,0.2347,0.1221,0.4717,0.144,0.7106
				l0.2695,2.9454l-2.1262,0.1946l-0.2358-2.5769c-0.0224-0.2452-0.0767-0.4138-0.1621-0.505
				c-0.086-0.0912-0.2054-0.1294-0.3588-0.1154c-0.1412,0.0129-0.251,0.0799-0.3292,0.2017
				c-0.0788,0.1218-0.1082,0.2895-0.0885,0.5046l0.2358,2.5769l-2.1262,0.1946L19.1856,22.1665z"/>
			<path style="fill:#00C0EA;" d="M25.3417,24.0255c-0.0286-0.3126-0.0092-0.6238,0.0583-0.9336
				c0.0675-0.3091,0.1828-0.5916,0.3445-0.8478c0.1623-0.2563,0.3745-0.4706,0.6371-0.6429c0.2632-0.173,0.5749-0.2753,0.937-0.3084
				c0.233-0.0213,0.4708,0.0016,0.7119,0.0689c0.2412,0.0679,0.4396,0.1779,0.596,0.3306l0.0186-0.0017l-0.2291-2.503l2.1262-0.1946
				l0.6367,6.9577l-1.9137,0.1751l-0.0463-0.5059l-0.0186,0.0017c-0.1226,0.2093-0.3145,0.3829-0.5738,0.5205
				c-0.2599,0.1384-0.5403,0.2216-0.8408,0.2491c-0.3621,0.0331-0.6879-0.0115-0.9774-0.1332
				c-0.2896-0.1224-0.5378-0.2958-0.7443-0.5216c-0.2057-0.2252-0.3708-0.4872-0.4939-0.7853
				C25.4471,24.6529,25.3709,24.3446,25.3417,24.0255z M27.3113,23.8453c0.0213,0.233,0.1066,0.422,0.2557,0.5657
				c0.1491,0.1443,0.3528,0.2046,0.6108,0.181c0.251-0.023,0.4447-0.121,0.5809-0.2946c0.1357-0.173,0.1931-0.3731,0.1723-0.6003
				c-0.0196-0.2144-0.1119-0.395-0.2767-0.5411c-0.1654-0.1454-0.3737-0.2066-0.6247-0.1836
				c-0.2581,0.0236-0.4472,0.1212-0.5675,0.2927C27.3419,23.4373,27.2917,23.6309,27.3113,23.8453z"/>
			<path style="fill:#00C0EA;" d="M34.4317,22.5535c-0.0135-0.1477-0.0742-0.2515-0.182-0.3128
				c-0.1079-0.0613-0.2447-0.0844-0.4103-0.0693c-0.1964,0.018-0.3782,0.076-0.5452,0.1755
				c-0.167,0.0988-0.3136,0.2093-0.4383,0.3321l-1.1546-0.9521c0.2688-0.3094,0.5988-0.5591,0.9898-0.7496
				c0.391-0.1905,0.8007-0.305,1.2302-0.3443c0.4603-0.0421,0.8469-0.0128,1.1591,0.0888c0.3122,0.1009,0.5667,0.2576,0.762,0.4682
				c0.1961,0.2112,0.3428,0.4638,0.4409,0.7578c0.0975,0.294,0.162,0.6099,0.1929,0.9475l0.2333,2.5493l-1.9233,0.176
				l-0.0354-0.3865l-0.018,0.0016c-0.1064,0.1955-0.269,0.3431-0.4889,0.4435c-0.2193,0.1003-0.4365,0.161-0.6515,0.1807
				c-0.19,0.0174-0.3877,0.0076-0.5918-0.0294c-0.2047-0.0369-0.3939-0.1096-0.5675-0.2174
				c-0.1736-0.1078-0.3218-0.2554-0.4444-0.4422c-0.1219-0.1863-0.1961-0.4242-0.2225-0.7124
				c-0.0309-0.3377,0.0313-0.6198,0.1866-0.8476c0.1559-0.2279,0.3628-0.4138,0.6222-0.558
				c0.2586-0.1447,0.5536-0.2533,0.8841-0.3269c0.3305-0.0736,0.6547-0.1253,0.9743-0.1545L34.4317,22.5535z M34.5474,23.6194
				c-0.3126,0.0286-0.5612,0.085-0.7451,0.1698c-0.1844,0.0855-0.2679,0.22-0.2511,0.4036c0.0062,0.068,0.0268,0.1231,0.0618,0.1659
				c0.035,0.0434,0.0784,0.0783,0.13,0.1046c0.0523,0.0263,0.1076,0.0439,0.1674,0.0539c0.0598,0.0101,0.1138,0.0129,0.1632,0.0084
				c0.2022-0.0185,0.3594-0.0976,0.4702-0.2379c0.1108-0.1403,0.1573-0.3115,0.1388-0.5137l-0.0152-0.1656L34.5474,23.6194z"/>
			<path style="fill:#00C0EA;" d="M38.9651,25.0446l-2.386-4.4697l2.356-0.2156l0.9516,2.4835l0.0366-0.0033l0.4016-2.6074
				l2.2732-0.208L41.08,25.3417c-0.0887,0.3111-0.1964,0.5915-0.3218,0.8412c-0.1254,0.2497-0.2791,0.4664-0.4603,0.65
				c-0.1813,0.1836-0.4009,0.3306-0.6601,0.441s-0.5666,0.182-0.9223,0.2145c-0.1104,0.0101-0.2245,0.0154-0.3422,0.0171
				c-0.117,0.0016-0.2305-0.0009-0.3392-0.0065c-0.1086-0.0056-0.2102-0.0118-0.3034-0.0188
				c-0.0932-0.007-0.1718-0.0166-0.2345-0.0297l0.1056-1.7814c0.0831,0.0235,0.1817,0.0403,0.2973,0.0518
				c0.1156,0.0108,0.2193,0.0123,0.3111,0.0039c0.233-0.0213,0.402-0.0847,0.507-0.1901s0.1786-0.2339,0.2204-0.3859
				L38.9651,25.0446z"/>
		</g>
	</g>
	<g>
		<g>
			<path style="fill:#00C0EA;" d="M8.4602,15.6756c-0.0422-0.5415,0.0157-1.0398,0.1728-1.4949
				c0.1565-0.4543,0.3887-0.8508,0.6958-1.1887s0.6785-0.609,1.1148-0.8134c0.4364-0.2037,0.9093-0.3257,1.4194-0.3655
				c0.5222-0.0407,1.023,0.0056,1.5016,0.1381c0.478,0.1332,0.8845,0.3303,1.2196,0.5928l-1.2648,1.7913
				c-0.1403-0.1555-0.3095-0.2691-0.5076-0.3402c-0.1981-0.0711-0.4148-0.0972-0.6509-0.0788
				c-0.1907,0.0148-0.3669,0.0621-0.5271,0.1417c-0.1608,0.0803-0.298,0.1883-0.4128,0.3253
				c-0.1141,0.1377-0.1994,0.2993-0.2553,0.4869c-0.0559,0.1868-0.0755,0.3923-0.0581,0.6151
				c0.0174,0.2234,0.0695,0.4193,0.1566,0.589c0.087,0.1697,0.1975,0.3134,0.3321,0.4311c0.134,0.1177,0.2863,0.2038,0.4575,0.2576
				c0.1706,0.0545,0.3486,0.0742,0.5334,0.0598c0.2614-0.0204,0.482-0.0919,0.6616-0.2152
				c0.1797-0.1227,0.3178-0.2616,0.4151-0.4168l1.526,1.5639c-0.2823,0.3299-0.6394,0.6033-1.0714,0.8194
				c-0.432,0.2168-0.9318,0.347-1.4986,0.3911c-0.5102,0.0397-0.9964-0.009-1.4593-0.146c-0.4629-0.1371-0.872-0.3508-1.228-0.6404
				s-0.6467-0.6454-0.8715-1.0674C8.6358,16.6899,8.5019,16.2112,8.4602,15.6756z"/>
			<path style="fill:#00C0EA;" d="M16.8257,18.2288l-2.4127-4.6711l2.4475-0.1905l0.9524,2.5902l0.038-0.003l0.4534-2.6996
				l2.3615-0.1838l-1.65,5.496c-0.0964,0.3215-0.2121,0.611-0.3457,0.8683s-0.2961,0.48-0.4868,0.6679
				c-0.1907,0.1879-0.4206,0.3374-0.6911,0.4483c-0.2705,0.111-0.5904,0.1808-0.9599,0.2096
				c-0.1147,0.0089-0.2332,0.0128-0.3553,0.0129c-0.1214,0.0001-0.2392-0.0042-0.3518-0.0115
				c-0.1126-0.0073-0.2179-0.0152-0.3145-0.0238c-0.0966-0.0086-0.178-0.0197-0.2429-0.0341l0.1347-1.8469
				c0.0859,0.0255,0.188,0.0444,0.3078,0.0579c0.1198,0.0128,0.2273,0.0158,0.3227,0.0084
				c0.2421-0.0188,0.4183-0.0822,0.5287-0.1901s0.1886-0.2401,0.2341-0.3973L16.8257,18.2288z"/>
			<path style="fill:#00C0EA;" d="M27.1123,15.0797c0.0258,0.3314,0.0024,0.66-0.0715,0.9865
				c-0.0739,0.3265-0.1964,0.6232-0.3675,0.8894c-0.1711,0.2669-0.3941,0.4876-0.6683,0.6633
				c-0.2742,0.175-0.599,0.2774-0.9738,0.3066c-0.3121,0.0243-0.6122-0.0121-0.9015-0.1083
				c-0.2886-0.0956-0.5145-0.2397-0.6764-0.4324l-0.0193,0.0015l0.0409,0.5255l-1.9874,0.1547l-0.5627-7.2279l2.2081-0.1719
				l0.2024,2.6002l0.0193-0.0015c0.1327-0.1834,0.3164-0.3306,0.5506-0.4421c0.2343-0.1108,0.4728-0.1757,0.7142-0.1945
				c0.3748-0.0292,0.7115,0.0211,1.0095,0.1522c0.298,0.1304,0.5517,0.3126,0.7618,0.5466s0.3766,0.5027,0.4996,0.8072
				C27.0135,14.4399,27.087,14.7549,27.1123,15.0797z M25.0669,15.2389c-0.0173-0.2227-0.1032-0.412-0.2562-0.5671
				c-0.1529-0.1545-0.3634-0.2213-0.6309-0.2005c-0.2614,0.0204-0.4637,0.1193-0.6069,0.2968
				c-0.1438,0.1783-0.2067,0.3791-0.1893,0.6018c0.0184,0.2361,0.112,0.4307,0.2816,0.5839c0.169,0.1539,0.3842,0.2204,0.6456,0.2
				c0.2674-0.0208,0.4652-0.1181,0.5925-0.2917C25.0309,15.6892,25.0858,15.481,25.0669,15.2389z"/>
			<path style="fill:#00C0EA;" d="M33.179,14.6744c0.0065,0.0834,0.0117,0.1675,0.0151,0.2538
				c0.0034,0.0863,0.0043,0.1587,0.0028,0.2165l-3.3845,0.2635c0.013,0.0889,0.0498,0.1659,0.1093,0.2317
				c0.0595,0.0658,0.1309,0.1213,0.2149,0.1664c0.0833,0.0445,0.1757,0.0762,0.2764,0.0939
				c0.1007,0.0177,0.2024,0.0225,0.3044,0.0145c0.2041-0.0159,0.3713-0.0658,0.5029-0.1499c0.131-0.084,0.2287-0.1735,0.2918-0.2676
				l1.6296,0.6709c-0.1951,0.3809-0.4962,0.6928-0.9033,0.9365c-0.4078,0.2431-0.8918,0.3868-1.4526,0.4304
				c-0.3635,0.0283-0.7214-0.0015-1.0744-0.0895c-0.3537-0.0879-0.6711-0.2349-0.9535-0.4404
				c-0.2817-0.2055-0.5157-0.4711-0.7014-0.7968s-0.2956-0.711-0.3303-1.1572c-0.0323-0.4148,0.0119-0.7947,0.1319-1.1408
				c0.1207-0.3462,0.298-0.6452,0.5313-0.8975c0.234-0.2524,0.5161-0.4548,0.8476-0.6095c0.3309-0.1539,0.6907-0.2457,1.0795-0.2759
				c0.3955-0.0308,0.7609,0.0092,1.0964,0.1213c0.3361,0.1114,0.6298,0.2811,0.8816,0.5084
				c0.2512,0.2274,0.4539,0.5048,0.6083,0.8329C33.0563,13.9178,33.1482,14.2796,33.179,14.6744z M31.2205,14.1057
				c-0.0139-0.1781-0.0906-0.3197-0.2296-0.4243c-0.1396-0.1045-0.3215-0.1481-0.5442-0.1307
				c-0.2421,0.0188-0.425,0.1002-0.5486,0.2447c-0.1237,0.1438-0.189,0.2871-0.1974,0.4287L31.2205,14.1057z"/>
			<path style="fill:#00C0EA;" d="M33.7544,12.0519l2.1221-0.1652l0.0447,0.5735l0.0193-0.0015
				c0.0922-0.2118,0.2404-0.3938,0.4434-0.5438c0.203-0.1507,0.4479-0.2368,0.7346-0.2591c0.1721-0.0134,0.314-0.0083,0.4245,0.0146
				l-0.0262,1.8874c-0.0715-0.0139-0.1506-0.0218-0.2374-0.0245c-0.0868-0.0033-0.1652-0.0019-0.2352,0.0036
				c-0.2868,0.0223-0.5097,0.1229-0.6695,0.3024c-0.1592,0.1788-0.2293,0.3896-0.2105,0.6316l0.1898,2.4382l-2.2081,0.1719
				L33.7544,12.0519z"/>
		</g>
	</g>
</g>
</svg>
