<?xml version="1.0" encoding="utf-8"?>
<!-- Generator: Adobe Illustrator 21.0.0, SVG Export Plug-In . SVG Version: 6.00 Build 0)  -->
<svg version="1.1" id="OBJECTS" xmlns="http://www.w3.org/2000/svg" xmlns:xlink="http://www.w3.org/1999/xlink" x="0px" y="0px"
	 viewBox="0 0 680.9659 500" style="enable-background:new 0 0 680.9659 500;" xml:space="preserve">
<style type="text/css">
	.st0{fill:#C91B49;stroke:#FFFFFF;stroke-width:14;stroke-linecap:round;stroke-linejoin:round;stroke-miterlimit:10;}
	.st1{fill:#E580A0;}
	.st2{fill:#C91B49;}
	.st3{fill:#46BB74;}
	.st4{fill:#EA1B48;}
	.st5{fill:#FFFFFF;}
	.st6{fill:#FFFFFF;stroke:#FFFFFF;stroke-miterlimit:10;}
	.st7{fill:none;stroke:#FFFFFF;stroke-width:2.1628;stroke-linecap:round;stroke-linejoin:round;stroke-miterlimit:10;}
	.st8{fill:#FFFFFF;stroke:#D8D8D8;stroke-width:2;stroke-miterlimit:10;}
	.st9{fill:none;stroke:#E5E3E3;stroke-width:7;stroke-linecap:round;stroke-linejoin:round;stroke-miterlimit:10;}
</style>
<g>
	<path class="st0" d="M630.3923,165.8779c-14.6295-12.087-34.4419-3.1982-49.1267,7.0485
		c11.3979-13.2516,21.4128-31.1196,11.499-46.4965c-15.6726-24.309-46.2561-0.966-44.6849,37.3138l-11.3141-44.4933l-4.2773,8.6381
		l-12.5223-4.7695l17.1906,42.6914l-35.7112-32.1255l-15.3723,23.427l-5.5688,19.4129l95.6581,124.222l12.7216-11.412
		l26.3157-53.3176l-8.1842-7.3625l18.1044,9.9063l-3.2639-12.9961l9.0811-3.232l-42.854-16.4678
		C625.9121,211.9267,652.6895,184.3005,630.3923,165.8779z M580.1414,135.5485c9.6462,8.5372-17.45,42.2264-17.45,42.2264
		C553.6227,146.3402,570.4946,127.0113,580.1414,135.5485z M575.8672,189.7048c0,0,36.6418-22.9466,43.9855-12.3632
		C627.196,187.9253,606.0173,202.4071,575.8672,189.7048z"/>
	<polygon class="st0" points="81.0029,224.1552 32.0592,241.6327 102.1519,383.2373 114.2473,401.3016 153.9125,380.1617 
		151.7995,352.0206 	"/>
</g>
<g>
	<g>
		<polygon class="st1" points="577.2831,303.2829 481.6249,179.0609 500.022,142.75 614.2436,240.2267 		"/>
		<polygon class="st2" points="487.1939,159.648 481.6249,179.0609 490.7078,170.6684 502.9726,147.3112 		"/>
		<path class="st3" d="M593.8855,128.9662c-15.6726-24.309-46.2562-0.966-44.6849,37.3138l-11.3141-44.4933l-4.2773,8.6381
			l-12.5223-4.7695l26.423,65.6192l14.1956,3.6073C561.7054,194.8817,612.3466,157.6001,593.8855,128.9662z M581.2621,138.0846
			c9.6463,8.5372-17.4498,42.2264-17.4498,42.2264C554.7435,148.8763,571.6155,129.5474,581.2621,138.0846z"/>
		<path class="st3" d="M562.2706,192.6197l1.9131,14.5212l62.0566,33.9561l-3.2639-12.9961l9.0812-3.232l-42.854-16.4678
			c37.8292,6.0617,64.6066-21.5645,42.3094-39.987C605.2487,146.7142,562.2706,192.6197,562.2706,192.6197z M576.988,192.241
			c0,0,36.6418-22.9466,43.9855-12.3632C628.3169,190.4614,607.1382,204.9432,576.988,192.241z"/>
		<polygon class="st4" points="103.1929,385.8072 33.1002,244.2027 82.044,226.7251 152.8404,354.5906 		"/>
		<polygon class="st4" points="593.6904,256.7885 487.1939,159.648 502.5661,136.221 616.3204,238.5533 		"/>
		<polygon class="st2" points="152.8404,354.5906 154.9536,382.7317 115.2883,403.8716 103.1929,385.8072 		"/>
		<polygon class="st2" points="616.3204,238.5533 593.6904,256.7885 577.2831,303.2829 590.0047,291.8709 		"/>
	</g>
</g>
<g>
	<g>
		<path class="st3" d="M268.1542,213.5618c-0.0315,0.3322-0.33,0.4291-0.9005,0.2962c-0.5706-0.1329-1.2838-0.4047-2.1288-0.8106
			c-0.8446-0.4005-1.7649-0.9-2.7653-1.482c-0.995-0.5823-1.9104-1.1959-2.7458-1.8353s-1.5326-1.2264-2.108-1.7656
			c-0.5698-0.534-0.8634-0.9686-0.8805-1.2983c0.4935-2.2857,1.3128-4.6643,2.4584-7.1249c1.1456-2.4606,2.5373-4.8797,4.1809-7.247
			c1.6434-2.3727,3.493-4.6368,5.5487-6.7925c2.0558-2.1556,4.2268-4.0734,6.519-5.7482s4.6495-3.0331,7.0667-4.0748
			c2.4169-1.0471,4.8459-1.6559,7.2921-1.8265c0.8486-0.0442,1.7514,0.1202,2.7139,0.4929
			c0.9624,0.3727,1.8946,0.8932,2.8014,1.5506c0.907,0.6628,1.7219,1.4279,2.4507,2.3114c0.7286,0.878,1.2797,1.7816,1.6583,2.7049
			c0.5071,1.6212,0.7218,3.6642,0.6381,6.1183s-0.3661,5.1516-0.852,8.1035c-0.4808,2.9463-1.1315,6.064-1.9519,9.3586
			c-0.8204,3.2946-1.7057,6.5925-2.6668,9.8889c-0.9609,3.3019-1.9471,6.5346-2.9589,9.6928
			c-1.0115,3.1636-1.9705,6.086-2.8659,8.772c-0.5736,1.6829-1.1046,3.2497-1.5922,4.7113
			c-0.4876,1.4616-0.9026,2.7569-1.2452,3.8803c-0.3426,1.1235-0.5994,2.0202-0.7813,2.6909
			c-0.1765,0.6704-0.2368,1.0746-0.1862,1.2129l0.0146,0.2811l0.0703-0.0037c4.996-4.4982,9.751-9.7752,14.2649-15.8309
			c4.5139-6.0557,8.5724-12.5322,12.1696-19.4345c3.5973-6.9023,6.6414-14.0197,9.1374-21.3579
			c2.4907-7.3379,4.2362-14.5178,5.2363-21.5451c0.1647-0.4801,0.7052-0.5082,1.6216-0.0844s1.8922,1.056,2.9278,1.8963
			s1.9655,1.735,2.7899,2.6839c0.8244,0.9489,1.231,1.6811,1.2091,2.1971c-0.5873,3.1903-1.5578,6.7257-2.9111,10.6117
			c-1.3533,3.8859-2.9695,7.9265-4.8484,12.127c-1.8792,4.1951-3.9666,8.4499-6.2623,12.7643
			c-2.2957,4.3144-4.7076,8.4776-7.2302,12.4949c-2.5226,4.0172-5.0945,7.8148-7.7103,11.3925
			c-2.6159,3.5777-5.1723,6.7349-7.6688,9.4826c-2.4967,2.7423-4.8911,4.9535-7.1832,6.6282s-4.3711,2.6555-6.2425,2.9372
			c-0.943,0.0003-1.9186-0.2091-2.932-0.6225c-1.0136-0.4188-1.96-1.0037-2.8448-1.7597c-0.8902-0.7558-1.6507-1.6213-2.2924-2.6015
			c-0.6418-0.9801-1.0582-2.0045-1.255-3.0782c0.6277-5.1218,1.6653-10.0753,3.1127-14.8604
			c1.4474-4.7851,3.0058-9.6248,4.6859-14.5195c1.6674-5.035,3.3139-10.1611,4.9228-15.3828
			c1.6147-5.2166,2.7373-10.7218,3.3797-16.5002c0.0747-0.3345,0.1537-0.6909,0.2259-1.074
			c0.0722-0.3831,0.0649-0.5237-0.0219-0.4216c-0.6953,0.1771-1.6031,0.6471-2.7175,1.4151
			c-1.1147,0.7626-2.3383,1.7259-3.666,2.8736c-1.3275,1.153-2.7227,2.4613-4.1747,3.9298
			c-1.4576,1.4633-2.8568,3.0103-4.2138,4.6364c-1.3571,1.6261-2.6089,3.2955-3.7665,5.0033
			c-1.1577,1.7078-2.1447,3.3635-2.9558,4.9612c-0.8111,1.5977-1.3665,3.1116-1.6714,4.542
			c-0.305,1.4304-0.2821,2.7029,0.0575,3.8125l0.0326,0.627L268.1542,213.5618z"/>
		<path class="st3" d="M344.9751,210.7676c-1.2394,4.3028-3.2289,7.94-5.9684,10.9117c-2.7449,2.972-6.0522,5.2415-9.927,6.8089
			c0.3472,1.2556,0.8904,2.4251,1.6302,3.5193c0.7398,1.0942,1.6779,1.7283,2.8197,1.902l-0.1442-0.063
			c1.0015,0.1864,2.0624,0.0553,3.1943-0.3776s2.2808-1.1647,3.4574-2.1961c1.1715-1.0257,2.3059-2.3475,3.3981-3.9598
			c1.0922-1.6123,2.0995-3.502,3.0273-5.6694c0.4601-1.1567,0.8807-2.3438,1.2615-3.5668c0.3808-1.223,0.7325-2.3795,1.0546-3.4802
			c0.2979-0.6279,0.7618-0.9827,1.3917-1.0642c0.6302-0.0762,1.2272,0.0445,1.786,0.3678c0.5588,0.3232,1.006,0.7931,1.3473,1.4149
			c0.341,0.6164,0.3892,1.3347,0.1498,2.1493l-0.7816,2.5826c-0.7386,2.1576-1.6709,4.5528-2.808,7.1756
			c-1.1371,2.6227-2.6296,5.1881-4.4776,7.6906c-1.1043,1.3799-2.2727,2.465-3.5052,3.2554
			c-1.2322,0.7958-2.4257,1.3999-3.5803,1.8122c-1.1546,0.4124-2.2139,0.6788-3.1723,0.7992
			c-0.9585,0.1203-1.7243,0.1927-2.2864,0.222c-3.6647,0.1907-6.7143-0.7129-9.1539-2.7051
			c-2.4342-1.9925-4.1035-4.8052-4.9968-8.4333c-0.777-3.1627-0.9288-6.2874-0.4553-9.3742
			c0.4735-3.0868,1.5118-6.4632,3.115-10.1291c0.5497-1.2047,1.3544-2.5094,2.409-3.9084c1.0599-1.3993,2.2984-2.6994,3.7207-3.9062
			c1.4222-1.2067,2.9854-2.204,4.6839-2.997c1.7039-0.7932,3.4921-1.2169,5.3753-1.2715c1.9754-0.054,3.6899,0.5017,5.1386,1.6783
			c1.4484,1.1712,2.3953,2.8075,2.835,4.9037c0.1895,0.9332,0.2498,1.8839,0.1863,2.8519
			c-0.0688,0.9683-0.3076,2.0051-0.7216,3.1106L344.9751,210.7676z M339.1774,205.2755c-1.5341,0.4104-2.9058,1.2352-4.1096,2.4739
			c-1.2092,1.239-2.2503,2.6861-3.1295,4.3307c-0.8789,1.65-1.5794,3.3937-2.0963,5.2308
			c-0.5166,1.8425-0.8766,3.5685-1.0747,5.1776c2.7938-1.5112,5.1897-3.484,7.1819-5.9236c1.9925-2.4342,3.3987-5.304,4.2193-8.5931
			l0.0036,0.0703c0.1208-0.3857,0.1825-0.7628,0.1899-1.1426c0.0019-0.3795-0.0258-0.7032-0.0893-0.9872
			C340.0931,205.2712,339.7297,205.0571,339.1774,205.2755z"/>
		<path class="st3" d="M386.8615,222.5819c-0.4554,1.2486-1.081,2.7661-1.8822,4.553c-0.8013,1.7869-1.7619,3.5332-2.8709,5.2386
			c-1.1144,1.7056-2.3551,3.1739-3.7275,4.3997c-1.3725,1.2258-2.8612,1.8832-4.4557,1.9662
			c-0.9891,0.0515-1.993-0.0751-3.022-0.3739c-1.0291-0.2987-1.9766-0.8022-2.8322-1.5165
			c-0.8607-0.7086-1.6194-1.6447-2.2656-2.8142c-0.6516-1.1693-1.1144-2.5652-1.384-4.2042
			c-0.2139-1.4034-0.3238-2.7852-0.3244-4.1509c-0.0006-1.3658,0.0654-2.8054,0.198-4.319
			c0.1326-1.5136,0.3395-3.1611,0.6262-4.9429c0.2867-1.7818,0.6267-3.7885,1.0305-6.0262
			c0.1835-0.9526,0.3052-1.8423,0.3543-2.6687c0.0491-0.8264,0.0143-1.4966-0.1046-2.0107l-2.244,3.0164
			c-1.3739,1.7191-2.5754,3.4184-3.6207,5.0987c-1.0453,1.6803-2.0762,3.5333-3.1029,5.5704
			c-0.5078,2.9477-0.8228,5.9558-0.945,9.0243c-0.1222,3.0685,0.0109,6.1455,0.4101,9.2356
			c0.027,0.5189-0.3717,0.7727-1.1956,0.7722c-0.8241-0.0059-1.7545-0.1797-2.7861-0.5271
			c-1.0316-0.3474-2.009-0.8006-2.9327-1.3649s-1.4743-1.1481-1.6466-1.7516c-0.3424-2.1013-0.5465-4.1502-0.602-6.1526
			c-0.0551-1.997-0.0283-3.9821,0.0812-5.9389c0.1093-1.9622,0.2794-3.9005,0.5101-5.8203
			c0.2307-1.9198,0.4825-3.8515,0.7604-5.8008c0.2611-2.2736,0.5198-4.4875,0.7868-6.6477c0.2673-2.1547,0.4628-4.2298,0.598-6.2151
			c0.4556-0.3055,1.1361-0.3518,2.0415-0.1387c0.9054,0.213,1.8402,0.5763,2.8099,1.0895c0.9698,0.5132,1.8979,1.1641,2.7893,1.9415
			c0.8914,0.7774,1.5685,1.6039,2.0365,2.4738c1.3659-1.7675,2.8805-3.2825,4.5329-4.5446
			c1.6524-1.2621,3.4612-2.0174,5.4322-2.2609c0.6594-0.0343,1.4259,0.2185,2.2998,0.7638c0.8793,0.545,1.7001,1.2177,2.474,2.0283
			c0.7738,0.8106,1.416,1.6932,1.9431,2.6576c0.5217,0.9647,0.7559,1.8196,0.6977,2.576c-0.3456,2.4189-0.6992,4.6866-1.0605,6.8028
			c-0.3614,2.1163-0.6896,3.9327-0.9895,5.4604c-0.2611,1.336-0.4903,2.5565-0.692,3.6781c-0.2021,1.1161-0.356,2.219-0.4619,3.3084
			c-0.1113,1.0898-0.1566,2.1977-0.1465,3.33c0.0101,1.1322,0.1223,2.3512,0.3312,3.6574
			c-0.0073-0.1405,0.1043-0.2872,0.3294-0.4399l-0.0703,0.0037c1.1364-0.7637,2.4144-2.0334,3.829-3.8034
			c1.4146-1.77,2.7055-4.146,3.8674-7.1277c0.3393-0.771,0.6364-1.5181,0.908-2.2368c0.2661-0.7184,0.5266-1.442,0.7711-2.1593
			l0.5963-2.0797c0.1284-0.2397,0.455-0.3163,0.9799-0.2298c0.5251,0.0919,1.0771,0.2854,1.6564,0.5859s1.0806,0.6646,1.5036,1.087
			c0.4233,0.4278,0.573,0.8048,0.4496,1.1419l-0.0073-0.1405l-2.2531,6.9028l0.0022,0.0433L386.8615,222.5819z"/>
		<path class="st3" d="M383.6711,199.2857c-0.7853,0.3227-1.488,0.3593-2.1134,0.11c-0.6254-0.2493-1.1062-0.6362-1.437-1.1609
			c-0.3308-0.5247-0.481-1.1185-0.445-1.7816c0.0359-0.6631,0.3677-1.2657,1.0002-1.8189c2.8397-2.5054,5.833-4.661,8.9906-6.4729
			c0.6411-3.0955,1.1269-5.9445,1.4625-8.5581c0.3358-2.6081,0.5395-5.0468,0.6114-7.3106c0.5911-0.4101,1.473-0.4398,2.6451-0.0997
			c1.1721,0.3401,2.3179,0.9037,3.4431,1.6961c1.1249,0.7869,2.1163,1.7163,2.9736,2.7774s1.2643,2.113,1.2208,3.1504
			c-0.0776,0.3834-0.1547,0.8806-0.2419,1.4976s-0.2232,1.334-0.4197,2.141c2.8355-0.7112,5.8042-1.1529,8.9068-1.3144
			c0.4702-0.0245,1.0924-0.046,1.8722-0.0595c0.774-0.0186,1.403-0.0134,1.8758,0.0108c0.3663,0.6855,0.5792,1.444,0.6489,2.2642
			c0.0644,0.8205,0.0022,1.6042-0.198,2.3408c-0.1999,0.7421-0.4918,1.3805-0.8918,1.9216c-0.3946,0.5408-0.8787,0.8208-1.4408,0.85
			c-0.5215-0.0216-1.0366-0.0273-1.5569-0.0274c-0.52,0.0054-1.0343,0.0159-1.5532,0.0429
			c-1.6432,0.0855-3.238,0.2661-4.7798,0.5305c-1.5414,0.2699-3.0997,0.6328-4.6799,1.0944l-1.5637,6.5092l-0.2333,0.9335
			c-0.2347,0.9065-0.5494,2.1477-0.939,3.7235c-0.3895,1.5757-0.8079,3.3264-1.244,5.2569
			c-0.4415,1.9307-0.878,3.9588-1.3099,6.0733c-0.4317,2.1199-0.7967,4.1659-1.0955,6.1326
			c-0.2984,1.9721-0.4969,3.7818-0.6003,5.4402c-0.1037,1.653-0.035,2.9719,0.2053,3.9458l0.0292,0.5621l0.4919-0.0256
			c1.1971-0.5338,2.2493-1.3528,3.1562-2.4622c0.907-1.1095,1.7151-2.3493,2.4182-3.73c0.7032-1.3807,1.3367-2.8499,1.8898-4.4071
			s1.0752-3.0856,1.567-4.5691l-0.0703,0.0036c0.1186-0.4289,0.2756-0.849,0.4656-1.2599c0.19-0.4109,0.3484-0.804,0.4692-1.1897
			c0.0773-0.2858,0.3817-0.3721,0.9079-0.2586c0.5262,0.1135,1.0791,0.3232,1.6584,0.6237s1.0806,0.6646,1.5036,1.087
			c0.4233,0.4278,0.5946,0.8037,0.5199,1.1382l-1.1051,3.2389c-0.9415,2.7372-2.0111,5.5136-3.2087,8.3291
			c-1.1976,2.8156-2.6342,5.3075-4.3102,7.4705c-0.31,0.3955-0.7102,0.8282-1.2061,1.2985
			c-0.4956,0.4756-1.0579,0.9168-1.698,1.3241c-0.64,0.4073-1.3477,0.7639-2.1342,1.0649s-1.65,0.4761-2.585,0.5247
			c-2.1185,0.0127-3.8228-0.7658-5.1029-2.3468c-1.2854-1.5807-2.1744-3.5615-2.6773-5.9363
			c-0.1189-0.5141-0.207-1.0623-0.2647-1.6501c-0.0523-0.588-0.0904-1.1118-0.1148-1.582
			c-0.3004-4.8351-0.0082-9.6359,0.877-14.3918c0.8853-4.7559,1.89-9.4041,3.0197-13.9396l0.4184-1.4363
			c-0.6397,0.4127-1.2792,0.8308-1.9124,1.2648c-0.6386,0.4343-1.2767,0.8794-1.9088,1.335L383.6711,199.2857z"/>
		<path class="st3" d="M431.6299,205.6244c0.0146,0.2811-0.1027,0.5257-0.3526,0.7229c-0.2496,0.2027-0.5726,0.3495-0.9689,0.4406
			c-0.3963,0.0911-0.8282,0.1244-1.3007,0.1056c-0.4725-0.0188-0.8992-0.0941-1.2848-0.215
			c0.7733,0.3825,1.5726,0.8504,2.4033,1.3979c0.8306,0.5475,1.5548,1.1331,2.178,1.7565c0.6235,0.6288,1.1298,1.2962,1.519,2.0076
			c0.3893,0.7114,0.5766,1.3954,0.5677,2.0571c-0.0801,0.3348-0.1532,0.7017-0.2242,1.1065c-0.0765,0.405-0.147,0.8206-0.2169,1.247
			c-0.1428,0.9017-0.2924,1.8796-0.4495,2.923c-0.1571,1.0434-0.2937,2.064-0.4044,3.0615
			c-0.1161,0.9979-0.1815,1.928-0.2065,2.8019c-0.025,0.8739,0.0244,1.6138,0.148,2.2198c0.0537,0.0948,0.011,0.2108-0.1223,0.3586
			l0.4919-0.0256c1.1971-0.5338,2.2595-1.3641,3.1924-2.4966c0.9329-1.1325,1.7606-2.4113,2.4883-3.842
			c0.7279-1.4254,1.3644-2.9435,1.92-4.555c0.5505-1.6058,1.0718-3.1505,1.5634-4.6394c0.3415-0.7278,0.5627-1.3734,0.6739-1.9428
			c0.1284-0.2397,0.4659-0.3169,1.0123-0.2315c0.5467,0.0908,1.1096,0.2837,1.6888,0.5842c0.5793,0.3005,1.0968,0.6638,1.5415,1.085
			c0.445,0.4267,0.6054,0.8031,0.4821,1.1402l-0.9828,2.8803l0.0037,0.0703c-0.9368,2.8291-1.9944,5.6265-3.1672,8.3975
			c-1.1728,2.7709-2.6948,5.289-4.5552,7.5537c-0.31,0.3955-0.6886,0.8271-1.1358,1.2948c-0.4469,0.4731-0.9871,0.924-1.6257,1.3582
			c-0.6386,0.4343-1.3457,0.8017-2.1322,1.1028c-0.7864,0.3011-1.6729,0.4502-2.6644,0.4584
			c-2.3124-0.0694-4.1856-0.7578-5.6199-2.076c-1.4341-1.3128-2.4657-3.0152-3.0948-5.107
			c-1.3081,2.0463-2.7821,3.8194-4.4221,5.3193c-1.64,1.4999-3.4239,2.319-5.351,2.468c-1.8422-0.0938-3.4521-0.5141-4.8353-1.2659
			c-1.3832-0.7518-2.5476-1.6722-3.498-2.7501s-1.7052-2.2526-2.27-3.524c-0.5591-1.2662-0.9626-2.4593-1.2106-3.5791
			c-0.1942-1.0251-0.3087-1.87-0.3427-2.524c-0.1824-1.7357-0.1193-3.6467,0.1949-5.7334c0.3142-2.0867,0.8172-4.1887,1.5097-6.2951
			s1.5938-4.1586,2.7206-6.1467c1.1215-1.9878,2.3941-3.7775,3.8185-5.3583c1.4244-1.5808,3.0214-2.8671,4.7803-3.8529
			c1.7589-0.9858,3.676-1.5354,5.7462-1.6431c0.6108-0.0318,1.2241-0.0149,1.8397,0.0452c0.6158,0.0655,1.2826,0.1717,1.9948,0.3189
			c1.2413,0.3148,2.3154,0.8551,3.2286,1.6368c0.913,0.7763,1.6765,1.7013,2.3014,2.7744c0.6195,1.0734,1.1295,2.2284,1.5239,3.4544
			C431.129,203.1845,431.4258,204.4101,431.6299,205.6244z M423.3871,206.0533c0.366-0.2575,0.888-0.328,1.5764-0.2229
			c0.6884,0.1051,1.4424,0.326,2.2617,0.6573c-0.3418-0.2153-0.5175-0.4663-0.5321-0.7473
			c-0.0073-0.1405-0.0536-0.3007-0.1337-0.4863c-0.0801-0.1855-0.1494-0.3716-0.2076-0.5528
			c-0.1218-0.4652-0.2879-0.9497-0.4987-1.4591c-0.2162-0.509-0.4736-0.978-0.7777-1.4066
			c-0.3044-0.434-0.6638-0.7784-1.0784-1.0387c-0.4146-0.2603-0.926-0.4017-1.539-0.4131c-1.743,0.0419-3.2944,0.7459-4.6595,2.1123
			c-1.3652,1.3663-2.5126,3.0628-3.4477,5.0897c-0.9297,2.0266-1.6684,4.1842-2.2051,6.4722
			c-0.5421,2.2883-0.8574,4.3533-0.9512,6.1955c-0.0703,0.524-0.0693,1.1689-0.0071,1.9461
			c0.0618,0.7718,0.1883,1.5349,0.3679,2.2789c0.1968,1.0737,0.5945,1.9473,1.1935,2.6261
			c0.5987,0.6734,1.5695,0.7909,2.9173,0.3414c0.601-0.221,1.2755-0.798,2.029-1.7315s1.499-2.0237,2.2314-3.2596
			c0.7375-1.2416,1.4338-2.546,2.0938-3.9245c0.6599-1.3784,1.1915-2.6201,1.6109-3.7259c0.1568-1.4661,0.2839-2.8764,0.3817-4.2256
			c0.0924-1.3489,0.0712-2.486-0.075-3.4214L423.3871,206.0533z"/>
	</g>
</g>
<g>
	<g>
		<path class="st3" d="M231.5375,240.2339c0.5654-0.2921,1.1883-0.2458,1.8558,0.1333c0.6741,0.3851,1.3188,0.9175,1.9466,1.5965
			c1.0793,0.7162,2.2175,1.5745,3.4149,2.5813c1.197,1.0005,2.2924,1.9942,3.292,2.9744c0.9996,0.9802,1.812,1.8954,2.4489,2.732
			c0.6306,0.837,0.8945,1.461,0.7906,1.8531c-0.6567,1.0126-1.4815,2.7311-2.4803,5.1623c-0.9988,2.4311-2.0457,5.346-3.1461,8.7577
			c-1.1004,3.4117-2.2284,7.2236-3.3831,11.4486c-1.1547,4.2249-2.2499,8.6047-3.2848,13.1518
			c-1.0352,4.5408-1.9718,9.1455-2.8105,13.8016c-0.8383,4.6624-1.4824,9.1806-1.945,13.5554
			c-0.4622,4.3812-0.6943,8.4705-0.7029,12.2685c-0.0085,3.798,0.2989,7.1473,0.921,10.0291
			c0.4416,2.0568,1.045,3.7371,1.8049,5.0603c0.7596,1.3169,1.7646,2.1702,3.0209,2.5534c0.9269,0.2693,1.8306,0.4639,2.7102,0.5713
			c0.8859,0.1071,1.7801,0.1377,2.6822,0.0856c1.167-0.0674,2.3074-0.2662,3.4279-0.5904c1.1142-0.3239,2.2122-0.7101,3.2935-1.1649
			c1.0309-0.1228,1.7166,0.2426,2.0633,1.096c0.3405,0.8538,0.4158,1.8304,0.2188,2.9114s-0.6041,2.1425-1.2271,3.1911
			c-0.6234,1.0423-1.352,1.6857-2.1797,1.9297c-1.0273,0.1859-2.0749,0.3477-3.1373,0.4723
			c-1.0624,0.1247-2.2465,0.2247-3.5397,0.2994c-1.167,0.0674-2.3313,0.0714-3.506,0.0063
			c-1.1747-0.0651-2.4197-0.2527-3.7351-0.5628l0.1001,0.0891c-4.3303-0.7879-7.7095-2.7509-10.1317-5.8959
			c-2.4218-3.1386-4.1659-7.1455-5.2259-12.021c-0.7082-3.2755-1.1455-6.9022-1.3123-10.8863
			c-0.1668-3.984-0.096-8.1274,0.2058-12.436c0.3022-4.3023,0.7922-8.7483,1.4702-13.3381
			c0.6783-4.5835,1.4738-9.1105,2.3802-13.5805c0.9127-4.4705,1.8761-8.8299,2.8965-13.0787
			c1.0204-4.2488,2.074-8.2527,3.154-12.0176c-3.587,4.3021-7.0385,8.8686-10.3667,13.7064s-6.4988,9.7741-9.5237,14.8222
			c-3.0186,5.0478-5.8157,10.0954-8.3783,15.1485c-2.5689,5.0534-4.8222,9.8735-6.7658,14.4667
			c-0.6876,3.8752-1.3116,7.6454-1.8784,11.3111c-0.5664,3.672-1.056,7.0294-1.4626,10.0718
			c-0.4066,3.0425-0.6977,5.6732-0.8607,7.8915c-0.163,2.2183-0.1518,3.8379,0.0408,4.8711
			c-0.1062,0.4618-0.5349,0.6005-1.2924,0.4164c-0.7575-0.1841-1.6702-0.5365-2.7383-1.0571s-2.2268-1.1878-3.4756-1.9891
			s-2.4171-1.6325-3.5037-2.4749c-1.087-0.8486-1.9944-1.657-2.7223-2.425c-0.7279-0.7681-1.105-1.3792-1.1312-1.8334
			c0.0422-2.667,0.3416-6.14,0.9102-10.4323c0.5626-4.2857,1.2838-9.0045,2.1571-14.1563
			c0.8737-5.1454,1.8401-10.5493,2.9129-16.1936c1.0724-5.6505,2.0957-11.1654,3.0887-16.5455
			c0.7992-4.1348,1.5651-8.0778,2.2919-11.8223c0.7268-3.7445,1.3967-7.0491,2.0101-9.9073
			c0.6134-2.8582,1.1761-5.1692,1.6953-6.9207c0.5128-1.7512,0.9642-2.7013,1.3477-2.8564c-0.7836-0.0876-1.7585,0.456-2.9248,1.631
			c-1.1663,1.175-2.434,2.7862-3.8087,4.8466c-1.3747,2.0604-2.8128,4.4473-4.3139,7.1669
			c-1.5012,2.7196-2.9572,5.5632-4.3803,8.5378c-1.4231,2.9746-2.7561,5.9756-4.012,8.9976
			c-1.2555,3.0282-2.3572,5.8703-3.3054,8.5201c-0.9542,2.6564-1.6713,5.0332-2.17,7.138
			c-0.4983,2.1111-0.7097,3.7119-0.6463,4.8095l-0.1394,0.9828c-0.1175,0.2663-0.526,0.2076-1.2254-0.1761
			c-0.7057-0.3833-1.5198-1.0008-2.4428-1.8589c-0.923-0.8581-1.8911-1.8401-2.8984-2.9529
			c-1.0073-1.1127-1.9341-2.2554-2.7814-3.447c-0.8469-1.1853-1.5314-2.2976-2.0476-3.3438
			c-0.5157-1.0398-0.6933-1.922-0.5452-2.6457l-0.1843,0.2068c0.08-0.916,0.5457-2.386,1.4032-4.4165
			c0.8574-2.0305,1.9763-4.3547,3.3509-6.9657c1.3745-2.611,2.9845-5.4192,4.8243-8.4116s3.8136-5.9671,5.9154-8.9176
			s4.2638-5.7336,6.4854-8.3619c2.2153-2.628,4.3943-4.8994,6.5246-6.8072c2.1303-1.9079,4.1948-3.3119,6.1875-4.2055
			c1.9927-0.8936,3.7847-1.0983,5.3704-0.6013l-0.1956,0.0113c0.2623,0.0482,0.8003,0.3778,1.6134,0.9765
			c0.8134,0.6049,1.6731,1.3527,2.566,2.2379c0.8932,0.8914,1.73,1.9001,2.5099,3.0196c0.7802,1.1258,1.2978,2.1972,1.5535,3.2267
			c0.4226,1.7288,0.6423,3.7794,0.6465,6.1526c0.0042,2.3732-0.1374,4.9636-0.4246,7.7714c-0.2935,2.8081-0.67,5.8235-1.1368,9.0277
			c-0.4665,3.2105-0.9906,6.5193-1.5719,9.9326l-0.1562,0.6926c2.3901-4.752,4.9412-9.4563,7.6585-14.1322
			c2.7177-4.6696,5.6418-9.1613,8.7731-13.4624c3.131-4.3074,6.4375-8.3148,9.9259-12.0227
			c3.4884-3.7078,7.2279-7.0124,11.2193-9.9012L231.5375,240.2339z"/>
		<path class="st3" d="M276.7518,301.148c0.0226,0.3911-0.1355,0.723-0.4801,1.0024c-0.3383,0.279-0.7823,0.4819-1.3253,0.6145
			c-0.5433,0.1263-1.1415,0.1799-1.7949,0.1543c-0.6534-0.0255-1.2414-0.1245-1.7699-0.2902
			c1.0681,0.5206,2.1746,1.1592,3.3251,1.9029c1.1442,0.744,2.1526,1.5466,3.0125,2.4083s1.5646,1.7767,2.1083,2.7516
			c0.5436,0.9749,0.8072,1.9218,0.7962,2.8275c-0.1062,0.4618-0.2036,0.9675-0.304,1.5302
			c-0.1008,0.5564-0.1942,1.1314-0.2931,1.7195c-0.1876,1.245-0.3883,2.592-0.5965,4.0281
			c-0.2078,1.4424-0.3863,2.8451-0.5347,4.2208c-0.1484,1.3757-0.2388,2.6594-0.2642,3.8634
			c-0.0254,1.204,0.0462,2.2252,0.2271,3.0565c0.0707,0.1288,0.0168,0.2902-0.1675,0.497l0.6813-0.0393
			c1.6471-0.7407,3.1054-1.9009,4.382-3.4683c1.2766-1.5674,2.4023-3.335,3.3958-5.3101c0.9876-1.9684,1.8599-4.0695,2.6051-6.2897
			c0.7515-2.2206,1.4573-4.3563,2.1173-6.4071c0.4612-1.0013,0.7638-1.8985,0.9145-2.6857c0.177-0.333,0.639-0.442,1.3925-0.3273
			c0.7538,0.121,1.535,0.386,2.3367,0.7891c0.8021,0.4094,1.5144,0.9062,2.1301,1.4846c0.6161,0.5847,0.8422,1.1033,0.6729,1.5687
			l-1.3274,3.9754l0.0055,0.0946c-1.2679,3.9087-2.7032,7.7701-4.2986,11.5964c-1.5955,3.8263-3.6666,7.3067-6.2134,10.4411
			c-0.4243,0.5435-0.9403,1.1429-1.5547,1.7924c-0.614,0.6557-1.3564,1.2809-2.2268,1.8817
			c-0.8767,0.6013-1.8534,1.1134-2.9306,1.53c-1.0835,0.417-2.2989,0.6328-3.6651,0.6484c-3.1879-0.0754-5.7738-1.0146-7.764-2.8174
			c-1.9902-1.8028-3.4225-4.1378-4.3036-7.011c-1.7859,2.831-3.8025,5.2829-6.0558,7.3624
			c-2.2533,2.0795-4.6997,3.2271-7.3518,3.4436c-2.5382-0.1129-4.7675-0.6867-6.6747-1.7094s-3.5239-2.2775-4.844-3.7646
			c-1.3197-1.4807-2.3684-3.0911-3.1528-4.8369c-0.784-1.7395-1.3474-3.3842-1.6956-4.9211
			c-0.2779-1.4143-0.4395-2.5695-0.492-3.4779c-0.2646-2.3898-0.195-5.0204,0.227-7.9055c0.416-2.8785,1.0966-5.7785,2.0296-8.6932
			c0.9393-2.915,2.1682-5.7455,3.6994-8.4922c1.5309-2.753,3.2681-5.2204,5.2236-7.4156c1.9496-2.1886,4.1376-3.9732,6.5583-5.3472
			s5.0533-2.1463,7.9045-2.3109c0.839-0.0485,1.6879-0.0342,2.5345,0.0498c0.8466,0.084,1.7659,0.2208,2.7523,0.4233
			c1.7141,0.42,3.2001,1.1633,4.4642,2.2295c1.2641,1.0662,2.3247,2.3341,3.1947,3.8092c0.8637,1.4754,1.5755,3.0609,2.1288,4.7505
			C276.0393,297.7968,276.4657,299.481,276.7518,301.148z M265.391,301.8042c0.4987-0.3516,1.2264-0.4632,2.1713-0.3216
			c0.9512,0.1413,1.9872,0.4359,3.121,0.8894c-0.4727-0.2955-0.7206-0.6419-0.7428-1.0267
			c-0.0113-0.1956-0.0749-0.4197-0.1844-0.6729c-0.1095-0.2532-0.2065-0.5071-0.2908-0.7617
			c-0.1696-0.6358-0.3982-1.3061-0.698-2.004s-0.6598-1.3416-1.0866-1.9373c-0.4264-0.5893-0.9224-1.067-1.4938-1.4264
			c-0.5714-0.3594-1.2844-0.5398-2.1273-0.5607c-2.4007,0.0754-4.5338,1.0593-6.4055,2.9522
			c-1.8717,1.8929-3.4448,4.2433-4.7071,7.044c-1.2686,2.8011-2.2673,5.7828-2.9897,8.9448
			c-0.7287,3.1624-1.1466,6.0093-1.2595,8.5475c-0.0913,0.7205-0.0841,1.6125,0.009,2.6767
			c0.0931,1.0642,0.2675,2.1111,0.5228,3.1344c0.2815,1.4774,0.8383,2.6794,1.6703,3.6061s2.1698,1.0772,4.0197,0.4514
			c0.824-0.3071,1.7525-1.1075,2.7854-2.4014c1.0266-1.2935,2.0474-2.7955,3.0559-4.512c1.0022-1.7161,1.9547-3.5243,2.8513-5.4242
			c0.8966-1.8999,1.6264-3.6193,2.1839-5.1451c0.2059-2.0245,0.3723-3.9645,0.4926-5.8259
			c0.1203-1.8614,0.0804-3.4287-0.1271-4.7205L265.391,301.8042z"/>
		<path class="st3" d="M295.618,283.5963c0.7497-0.499,1.9014-0.5022,3.4618-0.0037c1.5538,0.4926,3.0949,1.3149,4.6231,2.4608
			c1.5282,1.1459,2.8514,2.4682,3.9819,3.9599c1.1241,1.492,1.6349,2.9942,1.5254,4.4942
			c-0.0913,0.7205-0.2844,1.8708-0.5795,3.4449c-0.3015,1.5744-0.6526,3.3858-1.0477,5.4213
			c-0.5004,2.6238-1.0303,5.5026-1.5972,8.6176s-1.1259,6.0397-1.6835,8.7682s-1.0387,5.0284-1.4555,6.9069
			c-0.4105,1.8781-0.7051,2.9142-0.8894,3.121c1.0233-0.2553,2.3339-1.4512,3.932-3.5879c1.5981-2.1366,3.2625-4.7707,5-7.8901
			c1.7376-3.1193,3.4895-6.537,5.2567-10.2403c1.7668-3.7097,3.3323-7.2874,4.6895-10.7455
			c1.3573-3.4582,2.4299-6.5834,3.2106-9.3943c0.7811-2.8046,1.066-4.8844,0.8548-6.2393c0.173-0.4024,0.7163-0.1996,1.6416,0.5887
			c0.9257,0.7946,1.8882,1.7897,2.9009,2.997s1.8942,2.4412,2.6501,3.695s1.0463,2.1168,0.877,2.5823
			c-0.9074,2.2613-2.032,5.0351-3.3672,8.3274c-1.3352,3.2923-2.8564,6.7599-4.5641,10.3965
			c-1.7077,3.6366-3.5746,7.2571-5.6076,10.8492s-4.1678,6.8483-6.4042,9.7686c-2.2364,2.9203-4.5665,5.3144-6.9906,7.1759
			c-2.4241,1.8615-4.8681,2.8318-7.3323,2.9045c-1.9429,0.1122-3.7477-0.562-5.4269-2.022c-1.673-1.4604-2.8572-3.6641-3.5468-6.618
			c-0.1886-0.9638-0.3258-2.0255-0.4311-3.1903c-0.0989-1.1652-0.0564-2.4018,0.1275-3.7099
			c0.2132-1.8984,0.5268-4.138,0.9277-6.7308c0.4012-2.5865,0.846-5.2957,1.3351-8.1151c0.3828-2.3575,0.7617-4.7845,1.1368-7.2745
			c0.3752-2.49,0.7235-4.8962,1.0448-7.2249c0.3216-2.3224,0.5684-4.5139,0.7409-6.5681c0.1725-2.0543,0.275-3.8957,0.3138-5.5245
			L295.618,283.5963z"/>
		<path class="st3" d="M335.4283,281.2971c0.8128-0.5027,1.9719-0.4873,3.4647,0.0468c1.4929,0.534,2.9643,1.3541,4.4276,2.4721
			c1.4633,1.118,2.673,2.4469,3.6413,3.9796c0.9619,1.5331,1.3284,3.0562,1.0927,4.5635c0.0554-0.1361,0.0316-0.0018-0.072,0.3966
			c-0.1099,0.3987-0.2567,0.9262-0.4466,1.5827c-0.1895,0.6628-0.4052,1.4221-0.6469,2.2779s-0.4741,1.654-0.6919,2.3754
			c-0.4831,1.7178-1.0443,3.6173-1.6709,5.6978c-0.6266,2.0805-1.2196,4.1971-1.7796,6.337
			c-0.5596,2.1462-1.1032,4.2409-1.6371,6.2844s-0.9295,3.8512-1.1991,5.43c-0.2636,1.5722-0.4185,2.8343-0.4652,3.78
			c-0.0403,0.9454,0.1317,1.4038,0.5165,1.3816l0.6813-0.0394c1.8363-0.7516,3.4787-1.9034,4.9148-3.4484
			c1.4361-1.545,2.734-3.2908,3.8871-5.2435c1.1534-1.9464,2.1864-4.006,3.1055-6.173c0.9132-2.1603,1.7992-4.2432,2.6585-6.2422
			l0.9316-2.3893c0.173-0.4024,0.6354-0.505,1.3925-0.3273c0.7575,0.1841,1.5055,0.5333,2.25,1.041
			c0.7445,0.5076,1.3795,1.0912,1.9045,1.7444c0.5251,0.6532,0.6714,1.2144,0.4386,1.6772l0.0833-0.201
			c-1.6368,4.3161-3.6355,8.7226-6.0094,13.2079c-2.3735,4.4915-4.9539,8.4697-7.7404,11.9471
			c-0.4911,0.4841-1.0782,1.0559-1.7557,1.709c-0.6771,0.6594-1.471,1.2685-2.3748,1.8397c-0.91,0.5715-1.9068,1.0658-2.9836,1.4888
			c-1.0835,0.417-2.2336,0.667-3.4637,0.738c-2.5963,0.0867-4.691-0.786-6.2901-2.6114c-1.5991-1.8253-2.7079-4.1474-3.3264-6.9661
			c-0.1922-1.0269-0.3295-2.0886-0.4311-3.1903c-0.0949-1.0958-0.11-2.2342-0.0513-3.4084l0.0055,0.0946
			c0.1348-3.2546,0.5993-7.0473,1.3868-11.3839c0.7879-4.3303,1.6448-8.671,2.5588-13.0086
			c0.5445-2.9555,1.0938-5.829,1.6477-8.6205c0.554-2.7915,0.9578-5.3338,1.2181-7.621L335.4283,281.2971z M338.7648,251.2879
			c0.5136-0.093,1.1862,0.0454,2.0243,0.4211c0.8319,0.376,1.7422,0.9057,2.7251,1.5958s1.9716,1.4811,2.9654,2.3604
			c0.9942,0.8856,1.8857,1.7455,2.6803,2.5731c0.795,0.8338,1.4535,1.6059,1.9822,2.3222c0.5287,0.7163,0.8391,1.268,0.9247,1.6555
			c0.0455,1.8835-0.1054,3.5441-0.4395,4.9937c-0.3403,1.45-0.6914,2.9324-1.0596,4.4473
			c-0.3682,1.5149-0.7156,3.0603-1.0487,4.6365c-0.333,1.5762-0.5309,3.4104-0.607,5.4908
			c-0.8503-0.1471-1.8676-0.5567-3.0397-1.2358c-1.1784-0.6788-2.2941-1.4751-3.3532-2.3886
			c-1.0591-0.9135-1.9938-1.8659-2.7979-2.8574c-0.8041-0.9915-1.29-1.8432-1.4637-2.5484
			c-0.2072-1.2855-0.321-2.7093-0.3413-4.2651c-0.0266-1.5554-0.0256-3.1821,0.0096-4.874c0.0983-1.6956,0.1254-3.4186,0.0938-5.17
			c-0.0378-1.751-0.1667-3.4334-0.3924-5.0406L338.7648,251.2879z"/>
		<path class="st3" d="M397.9529,312.952c-0.3456,1.906-0.5465,3.7974-0.5956,5.6863c-0.0555,1.8893,0.0568,3.5031,0.331,4.8543
			c0.17,0.6421,0.1526,0.9975-0.0331,1.0715l0.9714-0.0561c1.6471-0.7407,3.1054-1.9009,4.382-3.4683
			c1.2766-1.5674,2.4023-3.335,3.3958-5.3101c0.9876-1.9684,1.8599-4.0695,2.6051-6.2897c0.7515-2.2206,1.4573-4.3563,2.1173-6.4071
			c0.4612-1.0013,0.7638-1.8985,0.9145-2.6857c0.177-0.333,0.639-0.442,1.3925-0.3273c0.7538,0.121,1.535,0.386,2.3367,0.7891
			c0.8021,0.4094,1.5144,0.9062,2.13,1.4846c0.6161,0.5847,0.8422,1.1032,0.6729,1.5687l-1.3274,3.9754l0.0055,0.0946
			c-1.2679,3.9087-2.7031,7.7701-4.2986,11.5964c-1.5955,3.8264-3.6667,7.3067-6.2135,10.4412
			c-0.4243,0.5435-0.9403,1.1429-1.5547,1.7923c-0.614,0.6557-1.3564,1.2809-2.2268,1.8818
			c-0.8767,0.6013-1.8534,1.1134-2.9306,1.53c-1.0835,0.417-2.2989,0.6328-3.6651,0.6484c-3.1879-0.0754-5.7738-1.0146-7.764-2.8174
			c-1.9902-1.8028-3.4225-4.1378-4.3036-7.011c-1.7859,2.831-3.8025,5.2829-6.0558,7.3624
			c-2.2533,2.0795-4.6997,3.2271-7.3518,3.4436c-2.5382-0.1129-4.7675-0.6867-6.6747-1.7094
			c-1.9072-1.0228-3.5239-2.2775-4.844-3.7646c-1.3197-1.4807-2.3684-3.0911-3.1528-4.8369
			c-0.784-1.7395-1.3474-3.3842-1.6956-4.9211c-0.2779-1.4143-0.4396-2.5695-0.492-3.4779c-0.2646-2.3898-0.195-5.0204,0.227-7.9055
			c0.4223-2.8788,1.0966-5.7785,2.0296-8.6932c0.9392-2.915,2.1682-5.7455,3.6994-8.4922c1.5309-2.753,3.2681-5.2204,5.2236-7.4156
			c1.9496-2.1885,4.1377-3.9731,6.5583-5.3471c2.4207-1.374,5.0533-2.1463,7.9045-2.3109c0.839-0.0485,1.6879-0.0342,2.5345,0.0498
			c0.8466,0.084,1.7659,0.2208,2.7523,0.4233c1.911,0.5415,3.6253,1.5121,5.1369,2.9185l0.4129-1.2897l1.5229-5.7399
			c0.7005-2.4455,1.3199-4.9813,1.8518-7.607c0.5316-2.632,0.9844-5.2025,1.3573-7.7303c0.3734-2.5216,0.6702-4.9438,0.8971-7.2607
			c0.2206-2.3166,0.3461-4.4187,0.3637-6.3058c0.746-0.5621,1.9267-0.6113,3.5481-0.1543c1.615,0.4574,3.2346,1.2119,4.8578,2.2511
			c1.6174,1.0458,3.007,2.3137,4.1627,3.8039c1.1557,1.4902,1.6833,2.9534,1.57,4.3903c-0.0877,0.7836-0.3028,2.0998-0.6461,3.9361
			c-0.3496,1.8366-0.7804,3.9121-1.2993,6.2143c-0.519,2.3021-1.0944,4.7214-1.7264,7.258
			c-0.632,2.5365-1.2408,4.9261-1.8265,7.1688l-1.3441,5.4384l-0.0055-0.0946c-1.0578,4.1497-2.1058,8.4698-3.1509,12.9478
			c-1.0452,4.4781-1.8699,9.2663-2.4864,14.3715l-0.2018,0.0117L397.9529,312.952z M374.168,324.4586
			c0.8241-0.3071,1.7536-1.0886,2.7883-2.3509c1.0284-1.2619,2.0321-2.7313,3.0109-4.4144
			c0.9728-1.6765,1.9071-3.4709,2.8097-5.3775c0.8966-1.8999,1.6265-3.6193,2.1839-5.1451l0.384-3.4336
			c0.3307-2.1647,0.6922-4.3438,1.0841-6.5436s0.848-4.3844,1.3743-6.5604c-0.3778-0.9529-0.9499-1.7616-1.6975-2.4336
			c-0.754-0.6716-1.6864-1.0355-2.7917-1.1046c-2.4007,0.0753-4.5338,1.0593-6.4055,2.9522
			c-1.8717,1.8929-3.4448,4.2433-4.7071,7.044c-1.2686,2.8011-2.261,5.7825-2.9897,8.9449
			c-0.7288,3.1623-1.1466,6.0093-1.2595,8.5475c-0.0913,0.7205-0.0841,1.6125,0.009,2.6767
			c0.0931,1.0642,0.2675,2.1111,0.5228,3.1344c0.2815,1.4774,0.8383,2.6794,1.6703,3.6061
			C370.9806,324.9402,372.3185,325.0907,374.168,324.4586z"/>
		<path class="st3" d="M446.7424,292.21c-1.6693,5.9445-4.3855,10.9685-8.1415,15.0842c-3.756,4.1157-8.3016,7.2706-13.631,9.4582
			c0.492,1.7247,1.2498,3.3392,2.2793,4.8367s2.3265,2.3656,3.9032,2.5974l-0.201-0.0833c1.3748,0.2434,2.8454,0.0635,4.3989-0.5452
			s3.134-1.6241,4.7415-3.0523c1.6078-1.422,3.154-3.2518,4.652-5.4776c1.4914-2.2317,2.8722-4.8431,4.1232-7.8394
			c0.6232-1.593,1.193-3.2335,1.7157-4.9219c0.5164-1.6881,0.9938-3.2853,1.4247-4.8102c0.4057-0.8652,1.0419-1.3576,1.9146-1.4777
			c0.8732-0.1137,1.6926,0.0478,2.465,0.4906c0.7724,0.4427,1.3921,1.0905,1.865,1.9366s0.5428,1.8358,0.2213,2.9556l-1.0598,3.5675
			c-0.9987,2.9818-2.27,6.283-3.8134,9.9165s-3.5793,7.1751-6.1075,10.6313c-1.5166,1.9041-3.113,3.4139-4.8024,4.5179
			c-1.6894,1.1039-3.3307,1.9455-4.9175,2.5245c-1.5931,0.5793-3.0462,0.9544-4.3654,1.1255
			c-1.3192,0.1711-2.3698,0.2824-3.1457,0.3273c-5.0464,0.2914-9.2624-0.9271-12.6353-3.6563
			c-3.3728-2.7293-5.6907-6.5891-6.9536-11.5794c-1.0933-4.3546-1.3291-8.6574-0.6953-12.9156
			c0.6275-4.2578,2.0358-8.9151,4.2114-13.9838c0.7457-1.6633,1.8441-3.4673,3.2958-5.3992
			c1.4451-1.9379,3.1448-3.7386,5.0927-5.4081c1.9479-1.6695,4.0955-3.0593,6.4301-4.1689c2.3409-1.1099,4.8064-1.708,7.3964-1.7943
			c2.7224-0.0939,5.0892,0.6681,7.0993,2.2672c2.0105,1.6054,3.3238,3.8524,3.9463,6.7405c0.2702,1.2819,0.3586,2.5932,0.2774,3.927
			c-0.0875,1.3342-0.4096,2.7705-0.967,4.2964l-0.0051-0.0884L446.7424,292.21z M438.7063,284.6805
			c-2.1122,0.5777-3.9953,1.7244-5.6491,3.4465c-1.6537,1.7221-3.0825,3.7224-4.2804,5.9941
			c-1.1975,2.278-2.147,4.6873-2.8484,7.2278c-0.7014,2.5405-1.1777,4.9225-1.4417,7.1466
			c3.8407-2.1016,7.1255-4.8419,9.8547-8.2148c2.7293-3.3728,4.6399-7.3313,5.7445-11.8761l0.0055,0.0946
			c0.1656-0.5286,0.2493-1.0524,0.251-1.5715c0.0017-0.5191-0.0435-0.9722-0.1292-1.3596
			C439.9719,284.677,439.4676,284.3833,438.7063,284.6805z"/>
		<path class="st3" d="M505.0483,308.1338c-0.6155,1.7254-1.4693,3.8191-2.5609,6.2872c-1.0916,2.4681-2.3954,4.8789-3.9174,7.2389
			c-1.5219,2.36-3.2212,4.3886-5.1039,6.0923c-1.8826,1.7037-3.925,2.6128-6.1266,2.7399c-1.3563,0.0783-2.752-0.0879-4.1674-0.4872
			c-1.4221-0.4052-2.7278-1.0956-3.9167-2.0649c-1.1952-0.969-2.2443-2.2565-3.1471-3.8626
			c-0.9029-1.6061-1.552-3.5306-1.9414-5.7803c-0.3078-1.9316-0.4686-3.84-0.4759-5.7194c-0.0136-1.879,0.068-3.8647,0.2382-5.9568
			c0.1707-2.0858,0.4443-4.3611,0.8213-6.8196c0.377-2.4585,0.8311-5.2252,1.368-8.3132c0.247-1.3117,0.4038-2.5423,0.4711-3.6791
			c0.0606-1.1427,0.0074-2.0637-0.1599-2.7693l-3.0755,4.1713c-1.8752,2.3805-3.524,4.7352-4.9531,7.0583
			c-1.4228,2.3227-2.8377,4.8918-4.2325,7.7002c-0.6763,4.0707-1.0826,8.2144-1.2307,12.4445s0.0652,8.4709,0.6402,12.7289
			c0.0412,0.7128-0.508,1.0673-1.6408,1.0695c-1.1391,0.0025-2.4185-0.2337-3.838-0.7024c-1.4258-0.4683-2.7779-1.0864-4.0505-1.861
			c-1.2785-0.7679-2.0402-1.5721-2.2842-2.3997c-0.4901-2.8958-0.7861-5.7204-0.8818-8.4744
			c-0.0958-2.754-0.0699-5.4833,0.0651-8.1873c0.1349-2.704,0.3538-5.3812,0.6568-8.0253c0.3026-2.6504,0.636-5.3152,1.0003-7.9945
			c0.3377-3.1398,0.6804-6.1912,1.0276-9.167c0.3471-2.9757,0.6062-5.8325,0.7709-8.5699c0.6208-0.4283,1.56-0.4952,2.8105-0.213
			s2.5449,0.7771,3.8828,1.4783c1.338,0.7012,2.6234,1.589,3.8556,2.6508c1.2326,1.0681,2.1712,2.1974,2.8289,3.3936
			c1.8716-2.4435,3.9398-4.5503,6.212-6.3018c2.2722-1.7515,4.7557-2.8063,7.4695-3.1592c0.9084-0.0525,1.9662,0.2915,3.1798,1.0316
			c1.2136,0.74,2.3558,1.6677,3.4262,2.7768c1.0704,1.1091,1.9696,2.323,2.6977,3.6417c0.7221,1.3254,1.0563,2.5086,0.9836,3.5508
			c-0.4592,3.3367-0.9237,6.4711-1.4073,9.3851c-0.4833,2.9203-0.9208,5.4266-1.3182,7.5319
			c-0.3496,1.8366-0.6568,3.5316-0.9222,5.0723c-0.2718,1.541-0.4749,3.0654-0.616,4.5672
			c-0.1411,1.5018-0.1984,3.0305-0.1718,4.5859c0.0266,1.5554,0.1869,3.2361,0.4874,5.0415
			c-0.0113-0.1956,0.1351-0.4002,0.4522-0.6084l-0.0946,0.0055c1.5588-1.0647,3.3116-2.8242,5.2462-5.2714
			s3.6942-5.7324,5.2789-9.8555c0.4575-1.0644,0.8664-2.0944,1.2329-3.0902c0.3665-0.9958,0.7141-1.9906,1.0428-2.9843
			l0.8089-2.8695c0.177-0.333,0.6201-0.4409,1.3421-0.3243c0.7223,0.1228,1.4845,0.3889,2.2862,0.792
			c0.8021,0.4094,1.4955,0.9073,2.0859,1.4872c0.5845,0.5865,0.7917,1.1062,0.6287,1.5713l-0.0113-0.1956l-3.0572,9.531
			L505.0483,308.1338L505.0483,308.1338z M458.7,268.1333c-0.172-2.9774,0.3222-5.0503,1.4949-6.2256
			c1.1667-1.1686,2.718-1.8152,4.6608-1.9274c1.0976-0.0634,2.1261-0.0089,3.0791,0.1639c0.953,0.1728,1.9491,0.3242,3.0013,0.4596
			c1.5744,0.3015,2.9069,0.5789,3.9915,0.8391c1.0847,0.2602,2.0856,0.3859,2.9958,0.365c0.9102-0.0209,1.7991-0.3001,2.6794-0.8383
			s1.9581-1.4928,3.246-2.8647c0.4492,3.2842,0.6888,5.7893,0.7248,7.5088c0.036,1.7194-0.1382,2.9763-0.5094,3.7826
			c-0.3778,0.8003-0.933,1.2691-1.6716,1.413c-0.7389,0.1376-1.6254,0.2395-2.6599,0.2992c-1.2301,0.071-2.503-0.0517-3.8184-0.3618
			c-1.3221-0.316-2.6356-0.5946-3.9473-0.8416c-1.2527-0.32-2.4527-0.6052-3.6067-0.8613c-1.154-0.2562-2.2107-0.3597-3.1821-0.3036
			c-0.3217,0.0186-0.7567,0.1576-1.2924,0.4164s-1.1074,0.5513-1.7025,0.8768c-0.6014,0.3259-1.1461,0.6485-1.6466,0.9685
			c-0.5005,0.32-0.8459,0.5868-1.0242,0.787L458.7,268.1333z"/>
		<path class="st3" d="M541.4645,285.8596c0.0226,0.3911-0.1355,0.723-0.4801,1.0024c-0.3383,0.2791-0.7823,0.4819-1.3253,0.6145
			c-0.5433,0.1263-1.1415,0.1798-1.7949,0.1543c-0.6534-0.0256-1.2414-0.1245-1.77-0.2902
			c1.0681,0.5206,2.1746,1.1592,3.3251,1.9029c1.1443,0.744,2.1526,1.5466,3.0125,2.4083c0.8599,0.8618,1.5646,1.7767,2.1083,2.7517
			c0.5436,0.9749,0.8072,1.9217,0.7962,2.8275c-0.1063,0.4618-0.2036,0.9675-0.304,1.5302
			c-0.1008,0.5565-0.1942,1.1315-0.2931,1.7195c-0.1876,1.245-0.3883,2.592-0.5965,4.0281
			c-0.2078,1.4424-0.3863,2.8451-0.5347,4.2208c-0.1484,1.3757-0.2388,2.6594-0.2643,3.8634
			c-0.0254,1.204,0.0463,2.2252,0.2272,3.0565c0.0707,0.1288,0.0168,0.2902-0.1675,0.497l0.6813-0.0393
			c1.6471-0.7407,3.1055-1.9009,4.382-3.4683c1.2766-1.5674,2.4023-3.3349,3.3958-5.3101c0.9876-1.9684,1.8599-4.0695,2.6051-6.2897
			c0.7515-2.2206,1.4573-4.3563,2.1173-6.4071c0.4612-1.0013,0.7638-1.8986,0.9145-2.6857c0.177-0.333,0.639-0.442,1.3925-0.3273
			c0.7538,0.121,1.535,0.386,2.3367,0.7891c0.8021,0.4094,1.5143,0.9062,2.13,1.4846c0.616,0.5847,0.8422,1.1033,0.6729,1.5688
			l-1.3273,3.9754l0.0054,0.0946c-1.2679,3.9087-2.7031,7.7701-4.2986,11.5964s-3.6666,7.3067-6.2135,10.4412
			c-0.4243,0.5435-0.9403,1.1429-1.5547,1.7923c-0.6141,0.6557-1.3564,1.2809-2.2267,1.8818
			c-0.8767,0.6013-1.8535,1.1134-2.9307,1.53c-1.0835,0.417-2.2989,0.6328-3.6651,0.6484c-3.1879-0.0754-5.7738-1.0146-7.764-2.8174
			c-1.9902-1.8028-3.4225-4.1378-4.3036-7.011c-1.7859,2.831-3.8025,5.2829-6.0558,7.3624
			c-2.2533,2.0795-4.6996,3.2271-7.3517,3.4436c-2.5381-0.1129-4.7675-0.6867-6.6747-1.7094
			c-1.9072-1.0228-3.5239-2.2775-4.844-3.7646c-1.3197-1.4807-2.3684-3.0911-3.1528-4.8369
			c-0.784-1.7396-1.3474-3.3842-1.6956-4.9211c-0.2779-1.4143-0.4396-2.5695-0.492-3.4779c-0.2646-2.3898-0.195-5.0204,0.227-7.9055
			c0.4223-2.8788,1.0966-5.7786,2.0296-8.6932c0.9392-2.915,2.1682-5.7455,3.6994-8.4922c1.5309-2.753,3.2681-5.2204,5.2236-7.4156
			c1.9496-2.1885,4.1376-3.9731,6.5583-5.3471s5.0533-2.1463,7.9045-2.3109c0.839-0.0485,1.6879-0.0342,2.5345,0.0498
			c0.8467,0.084,1.766,0.2208,2.7523,0.4233c1.7141,0.42,3.2001,1.1633,4.4642,2.2295s2.3247,2.3341,3.1947,3.8092
			c0.8636,1.4754,1.5755,3.0609,2.1288,4.7505C540.752,282.5084,541.1721,284.193,541.4645,285.8596z M530.1037,286.5158
			c0.4987-0.3516,1.2264-0.4633,2.1713-0.3216c0.9512,0.1413,1.9872,0.4359,3.121,0.8894
			c-0.4728-0.2955-0.7206-0.6419-0.7429-1.0267c-0.0113-0.1956-0.0749-0.4197-0.1844-0.6729
			c-0.1096-0.2532-0.2065-0.5071-0.2908-0.7617c-0.1696-0.6357-0.3982-1.3061-0.698-2.004s-0.6597-1.3416-1.0865-1.9373
			c-0.4265-0.5893-0.9224-1.067-1.4938-1.4264c-0.5714-0.3594-1.2843-0.5398-2.1273-0.5607
			c-2.4007,0.0753-4.5338,1.0593-6.4055,2.9522c-1.8717,1.8929-3.4448,4.2433-4.7072,7.044
			c-1.2686,2.8011-2.2609,5.7825-2.9897,8.9449c-0.7288,3.1623-1.1466,6.0093-1.2595,8.5475
			c-0.0914,0.7205-0.0841,1.6125,0.009,2.6767c0.0931,1.0642,0.2675,2.1111,0.5228,3.1344
			c0.2815,1.4774,0.8383,2.6794,1.6703,3.6061s2.1698,1.0772,4.0198,0.4514c0.824-0.3071,1.7524-1.1075,2.7853-2.4014
			c1.0266-1.2935,2.0474-2.7955,3.0558-4.5119c1.0022-1.7161,1.9547-3.5243,2.8513-5.4242s1.6265-3.6193,2.1838-5.1451
			c0.2059-2.0246,0.3723-3.9646,0.4927-5.826c0.1203-1.8614,0.0804-3.4287-0.1271-4.7205L530.1037,286.5158z"/>
	</g>
</g>
<g>
	<path class="st4" d="M422.8493,188.0031c0,0,7.8715-8.5859,20.2798-7.3084c0,0,7.109-3.6387,17.7076,6.595
		c0,0,2.3858,4.4504,2.2617,6.1688c0,0,4.9825,3.8598,1.6009,10.1855c0,0,0.2116,2.1951-2.2427,6.0445l-3.7327,9.0216
		l-5.7841,0.9767l0.5931-1.6678c0,0-0.7587-8.0466-0.0005-10.0221c0,0-0.6283-1.4296-1.7411,0.6564l-0.6497,3.8159l-28.7734-18.3802
		L422.8493,188.0031z"/>
	<g>
		<path class="st8" d="M412.0812,195.8331c0.6313-1.2078-0.1082,0.1729,0.1498-0.3371c-0.7552,1.3364,3.1991-6.1515,4.7708-6.3293
			c1.2629-0.4024,3.3482-2.5287,3.5063-1.2167c0.8139-0.1786,0.8456,0.7272,1.5984,0.0594
			c0.4086-0.0002,1.0432-0.6286,0.8824,0.3105c0.3556-0.0512,0.2455,0.8201,0.7503,0.7958
			c0.0814,0.7786,0.7631,0.6842,1.2096,1.5228c-0.287,0.5477,0.5996-0.5163,0.6884,0.2621c0.1319,0.7033,0.8653,0.5857,1.5628,0.543
			c0.8268-0.2828,1.5321-0.3108,1.6871,0.4367c0.1215,0.5401,0.5215,0.8744,1.296,0.5777c0.7318-0.1993,1.1784,0.2455,1.4007,1.0141
			c0.1365,0.9484,0.5579,1.2377,1.1249,0.9672c0.0791,0.6597,0.6189,0.1222,0.4612,0.4298
			c-0.0144,0.0226-0.1163,0.5371,0.3598,0.1716c0.2896-0.0054,0.4187,0.542,0.9597,0.4725
			c0.0962,0.7783,0.9203,0.3544,1.3805,0.7247c0.7903-0.2524,1.568-0.3783,1.6218,0.9208c0.8073-0.1339,1.3285,0.3245,1.6839,1.0608
			c0.6857,0.121,1.1917,0.5648,1.5741,1.152c0.6047,0.1597,0.6486,1.3178,1.2849,1.1797c0.6724-0.1982,1.2485-0.3798,0.8091,1.1588
			c0.1506-0.2925-0.073,0.4694,0.3323,0.291c0.1612,0.2793,0.6718,0.1658,0.8914,0.7932c0.4493,0.1922,0.8375,0.6902,1.2849,1.1797
			c0.871-0.3059,0.9547,1.0001,1.5201,1.4427c0.4577,0.6453,0.6937,1.7478,1.5823,1.5902c0.9531-0.2852,1.095,0.9529,1.4862,1.6142
			c-0.0035,1.4116,0.9888,0.836,1.2244,1.5225c0.3506,0.4764,0.8271,0.5344,0.7969,1.3076
			c-0.0072,0.015-0.1827,0.9618-0.1593,1.0208c0.018,0.1705-0.3944,1.1663-0.2684,1.1491
			c-0.1425,1.1245-2.1568,5.4709-3.6174,6.8279c-0.0002-0.0074,0.083-0.3284-0.3393,0.1326
			c-0.1927,0.0259-0.2378-0.4042-0.9103,0.1878c-0.493,0.2543-0.7387-0.172-1.3243-0.1017
			c-0.8152,0.5055-1.1605-0.0825-1.5808-0.7135c-0.413-0.6387-0.9442-1.238-1.6728-1.6628c0.3874-0.7427,0.077-0.254-0.106-0.1095
			c-0.2907,0.3471-0.0164-0.4826-0.318-0.321c0.3299-1.0388-0.4251-0.0887-0.5146-0.5105c-0.1112-0.3842-0.525-0.2651-0.711-0.6777
			c-0.7241,0.6152-0.5026-0.6593-0.9068-0.8226c-0.0883-0.7561-0.279-1.4212-1.0875-0.953
			c-0.4858-0.1544-0.4637-1.3658-1.2678-1.0611c-0.2373-0.7757-1.3157-0.035-1.4477-1.1469
			c-0.6848-0.069-0.9187-1.0602-1.6125-1.2181c-0.4933-0.5555-1.3248-0.5251-1.7841-1.2595
			c-0.689-0.2992-1.4363-0.5305-1.9407-1.2863c-0.6622-0.4557-1.1316-1.3237-2.0969-1.2983
			c-0.585-0.6949-1.4649-0.8717-2.2451-1.2807c-0.6367-0.6791-1.5253-0.9226-2.3857-1.2483
			c-1.2314-1.099-2.6129-1.4819-3.7582-1.9435c-1.1524-0.4466-1.968-1.1595-2.7708-1.583c-0.7023-0.611-1.327-1.0452-1.9327-1.2568
			c-0.9068,0.3735-0.8621-0.8161-1.251-0.9574c-0.31-0.2914-0.2645-1.0426-0.7112-0.6926c-0.1956-0.1301-0.0367-0.772-0.3205-0.4547
			c-0.0402-0.1627-0.1855,0.0109-0.0864-0.251c-0.1949,0.3082-0.4318,0.7509,0.006-0.0744
			c-0.5166,0.9828-0.3922,0.0816-0.4565-0.5784C412.0545,197.1932,411.4218,197.5244,412.0812,195.8331z"/>
		<path class="st8" d="M460.3785,219.1374c-0.1841,2.4642-2.8789,4.4303-5.342,4.2388c-2.4641-0.1841-4.304-2.3289-4.1199-4.7931
			s2.3289-4.304,4.7931-4.1199C458.1739,214.6473,460.57,216.6742,460.3785,219.1374z"/>
	</g>
</g>
<path class="st9" d="M126.9962,206.6939c7.22-3.58,14.72-6.45,22.35-8.95s15.46-4.41,23.35-5.94c7.89-1.56,15.94-2.31,23.97-2.62
	c8.05-0.3,16.11,0.43,24.04,1.7"/>
<path class="st9" d="M208.1262,208.3539c-6,0.33-12,0.98-17.91,2.13c-5.93,1.06-11.78,2.53-17.58,4.22
	c-1.44,0.45-2.89,0.87-4.32,1.34"/>
<path class="st9" d="M537.7508,351.9915c0,0-44.1032,28.0692-91.0208,26.2847"/>
<path class="st9" d="M323.519,367.8755c31.12-0.72,74.84-4.43,111.99-9.99c37.15-5.56,64.51-12.83,59.68-16.58"/>
</svg>
