<?xml version="1.0" encoding="utf-8"?>
<!-- Generator: Adobe Illustrator 16.0.0, SVG Export Plug-In . SVG Version: 6.00 Build 0)  -->
<!DOCTYPE svg PUBLIC "-//W3C//DTD SVG 1.1//EN" "http://www.w3.org/Graphics/SVG/1.1/DTD/svg11.dtd">
<svg version="1.1" id="Capa_1" xmlns="http://www.w3.org/2000/svg" xmlns:xlink="http://www.w3.org/1999/xlink" x="0px" y="0px"
	 width="61.951px" height="38px" viewBox="0 0 61.951 38" enable-background="new 0 0 61.951 38" xml:space="preserve">
<g id="Capa_1_copia">
</g>
<g id="Capa_1_1_">
	<g>
		<polyline fill="none" stroke="#FC0000" stroke-linecap="round" stroke-miterlimit="10" points="13.108,30.375 10.557,30.748 
			7.199,9.304 44.919,3.362 54.433,11.374 50.978,24.623 46.845,25.406 		"/>
		
			<circle fill="none" stroke="#FC0000" stroke-width="0.75" stroke-linecap="round" stroke-miterlimit="10" cx="49.284" cy="13.23" r="1.857"/>
		<g>
			<path fill="#5D5D5D" d="M12.828,16.001c1.682-0.424,3.313-0.979,5.051-0.708c1.483,0.232,2.359,1.55,1.845,2.803
				c-0.194,0.474-0.606,0.857-0.916,1.277c0.006,0.001,0.09,0.033,0.177,0.054c1.01,0.237,1.672,0.837,1.873,1.867
				c0.204,1.052-0.167,1.911-1,2.563c-0.747,0.584-1.643,0.837-2.551,1.007c-0.844,0.159-1.705,0.234-2.557,0.354
				c-0.257,0.035-0.39-0.022-0.437-0.313C13.83,21.965,13.334,19.026,12.828,16.001z M15.785,20.705
				c0.146,0.894,0.262,1.664,0.408,2.43c0.019,0.102,0.207,0.263,0.283,0.246c0.519-0.115,1.054-0.213,1.533-0.43
				c0.534-0.242,0.733-0.772,0.623-1.305c-0.117-0.568-0.463-0.943-1.058-0.986C17.003,20.619,16.425,20.686,15.785,20.705z
				 M15.559,19.378c0.662-0.261,1.274-0.444,1.825-0.74c0.384-0.207,0.435-0.647,0.324-1.065c-0.109-0.414-0.408-0.69-0.816-0.697
				c-0.568-0.011-1.138,0.08-1.733,0.129C15.295,17.815,15.412,18.506,15.559,19.378z"/>
			<path fill="#5D5D5D" d="M35.694,11.546c0.738-0.123,1.399-0.233,2.113-0.353c0.332,1.957,0.657,3.874,0.996,5.872
				c0.445-0.986,0.859-1.886,1.258-2.793c0.102-0.232,0.22-0.355,0.494-0.39c0.697-0.09,1.39-0.228,2.156-0.359
				c-0.076,0.153-0.117,0.256-0.174,0.349c-0.502,0.81-0.995,1.626-1.518,2.424c-0.182,0.277-0.187,0.447,0.063,0.696
				c0.938,0.934,1.848,1.895,2.766,2.847c0.113,0.117,0.218,0.242,0.377,0.42c-0.843,0.142-1.608,0.282-2.379,0.386
				c-0.127,0.018-0.313-0.1-0.408-0.21c-0.623-0.72-1.23-1.455-1.871-2.219c-0.266,0.344-0.502,0.642-0.396,1.111
				c0.124,0.551,0.19,1.115,0.29,1.729c-0.698,0.119-1.373,0.233-2.109,0.358C36.8,18.124,36.251,14.859,35.694,11.546z"/>
			<path fill="#5D5D5D" d="M34.046,32.915c-0.518,0.089-1.027,0.176-1.565,0.269c-0.077-0.251-0.147-0.479-0.218-0.707
				c-0.034-0.029-0.068-0.06-0.104-0.09c-0.014,0.061-0.013,0.131-0.043,0.181c-0.765,1.229-2.362,1.48-3.474,0.548
				c-1.131-0.948-1.499-3.025-0.794-4.325c0.577-1.065,2.125-1.772,3.452-0.949c-0.169-1.04-0.333-2.05-0.504-3.097
				c0.618-0.104,1.187-0.198,1.808-0.301C33.086,27.273,33.56,30.058,34.046,32.915z M29.285,30.373
				c0.132,0.355,0.244,0.822,0.471,1.225c0.266,0.471,0.792,0.613,1.286,0.458c0.477-0.149,0.801-0.592,0.76-1.138
				c-0.033-0.441-0.115-0.885-0.227-1.314c-0.12-0.465-0.525-0.765-0.971-0.791c-0.472-0.027-0.92,0.23-1.103,0.681
				C29.405,29.73,29.375,29.994,29.285,30.373z"/>
			<path fill="#5D5D5D" d="M30.835,22.498c-0.521,0.092-1.074,0.229-1.634,0.26c-0.154,0.008-0.326-0.301-0.428-0.402
				c-0.49,0.285-0.985,0.688-1.552,0.879c-1.135,0.383-2.203-0.084-2.663-1.046c-0.492-1.026-0.232-2.221,0.761-2.854
				c0.633-0.403,1.391-0.614,2.097-0.9c0.15-0.061,0.32-0.077,0.479-0.114c-0.137-0.616-0.518-0.907-1.171-0.758
				c-0.676,0.153-1.324,0.437-2.055,0.688c-0.144-0.292-0.341-0.695-0.557-1.135c0.808-0.632,1.728-0.952,2.711-1.065
				c0.479-0.055,0.995-0.052,1.459,0.064c1.147,0.287,1.628,1.183,1.829,2.258C30.365,19.729,30.59,21.091,30.835,22.498z
				 M28.191,19.552c-0.545,0.245-1.038,0.408-1.464,0.678c-0.361,0.229-0.4,0.636-0.236,1.034c0.141,0.344,0.419,0.479,0.774,0.462
				c0.648-0.031,1.147-0.599,1.086-1.241C28.326,20.229,28.265,19.975,28.191,19.552z"/>
			<path fill="#5D5D5D" d="M44.97,24.934c-0.472,2.271-0.893,4.438-1.382,6.592c-0.216,0.947-0.698,1.779-1.546,2.332
				c-0.264,0.172-0.56,0.297-0.878,0.462c-0.229-0.524-0.431-0.983-0.604-1.378c0.409-0.395,0.803-0.729,1.142-1.113
				c0.269-0.303,0.256-0.632,0.02-1.008c-0.936-1.483-1.835-2.99-2.746-4.488c-0.063-0.102-0.115-0.208-0.197-0.357
				c0.623-0.111,1.204-0.23,1.791-0.303c0.106-0.014,0.287,0.137,0.348,0.255c0.514,1.015,1.006,2.041,1.506,3.063
				c0.044,0.089,0.093,0.176,0.207,0.393c0.059-0.776,0.106-1.413,0.154-2.049c0.045-0.584,0.098-1.166,0.131-1.75
				c0.014-0.24,0.115-0.348,0.354-0.379C43.784,25.135,44.298,25.043,44.97,24.934z"/>
			<path fill="#5D5D5D" d="M17.327,30.717c0.975-0.161,1.91-0.315,2.883-0.477c0.083,0.492,0.161,0.955,0.249,1.476
				c-0.964,0.167-1.896,0.329-2.876,0.499c0.176,1.07,0.348,2.11,0.532,3.223c-0.603,0.104-1.196,0.205-1.828,0.313
				c-0.454-2.696-0.899-5.344-1.354-8.052c1.646-0.276,3.257-0.547,4.918-0.826c0.088,0.509,0.168,0.972,0.257,1.487
				c-1.04,0.18-2.045,0.355-3.086,0.535C17.125,29.516,17.224,30.101,17.327,30.717z"/>
			<path fill="#5D5D5D" d="M34.398,28.116c-0.112-0.234-0.276-0.577-0.46-0.962c1.127-0.716,2.291-1.148,3.604-0.836
				c0.955,0.227,1.374,0.984,1.546,1.883c0.226,1.176,0.417,2.357,0.637,3.613c-0.498,0.084-1.017,0.172-1.552,0.263
				c-0.081-0.174-0.15-0.325-0.243-0.524c-0.399,0.502-0.882,0.836-1.513,0.951c-0.868,0.16-1.66-0.166-2.049-0.883
				c-0.423-0.777-0.322-1.772,0.363-2.318c0.479-0.382,1.082-0.617,1.647-0.883c0.245-0.114,0.532-0.141,0.823-0.212
				c-0.068-0.484-0.389-0.711-0.797-0.637C35.755,27.689,35.124,27.913,34.398,28.116z M37.405,29.331
				c-0.352,0.13-0.722,0.224-1.045,0.402c-0.18,0.099-0.387,0.334-0.394,0.515c-0.01,0.256,0.081,0.601,0.259,0.762
				c0.288,0.258,0.666,0.147,0.973-0.072C37.626,30.629,37.688,30.175,37.405,29.331z"/>
			<path fill="#5D5D5D" d="M35.715,14.787c0,0.566,0,1.068,0,1.6c-1.099-0.037-2.174-0.046-2.634,1.161
				c-0.303,0.792-0.152,1.582,0.446,2.185c0.857,0.865,1.833,0.517,2.823,0.105c0.152,0.451,0.312,0.879,0.434,1.318
				c0.021,0.081-0.081,0.261-0.169,0.299c-1.104,0.488-2.248,0.768-3.449,0.425c-1.427-0.407-2.118-1.458-2.34-2.854
				c-0.214-1.348,0.157-2.517,1.256-3.365C33.159,14.832,34.405,14.627,35.715,14.787z"/>
			<path fill="#5D5D5D" d="M24.128,23.633c-0.713,0.121-1.389,0.234-2.115,0.357c-0.553-3.289-1.102-6.553-1.658-9.865
				c0.707-0.12,1.38-0.234,2.116-0.358C23.026,17.073,23.574,20.334,24.128,23.633z"/>
			<path fill="#5D5D5D" d="M20.671,29.004c0.542-0.087,1.034-0.165,1.548-0.247c0.084,0.344,0.156,0.638,0.224,0.914
				c0.231-0.33,0.407-0.716,0.7-0.962c0.284-0.238,0.689-0.333,1.076-0.507c0.058,0.206,0.09,0.291,0.105,0.379
				c0.077,0.451,0.15,0.903,0.229,1.383c-0.132,0.022-0.235,0.043-0.338,0.06c-1.004,0.158-1.368,0.681-1.189,1.684
				c0.163,0.921,0.313,1.844,0.478,2.824c-0.563,0.097-1.083,0.203-1.61,0.257c-0.08,0.009-0.244-0.223-0.27-0.361
				c-0.289-1.589-0.557-3.181-0.832-4.771C20.755,29.449,20.716,29.243,20.671,29.004z"/>
			<path fill="#5D5D5D" d="M27.449,33.882c-0.626,0.102-1.199,0.194-1.821,0.296c-0.328-1.949-0.65-3.865-0.982-5.836
				c0.605-0.104,1.188-0.203,1.818-0.311C26.793,29.985,27.116,31.901,27.449,33.882z"/>
			<path fill="#5D5D5D" d="M25.258,27.491c-0.534,0.009-0.93-0.376-0.947-0.919c-0.017-0.528,0.399-0.93,0.977-0.943
				c0.565-0.013,0.975,0.381,0.973,0.934C26.257,27.084,25.828,27.482,25.258,27.491z"/>
			<path fill="#FFFFFF" d="M15.559,19.378c-0.147-0.873-0.264-1.563-0.4-2.373c0.595-0.049,1.165-0.14,1.733-0.13
				c0.408,0.008,0.707,0.284,0.816,0.698c0.111,0.418,0.06,0.858-0.324,1.065C16.833,18.935,16.221,19.117,15.559,19.378z"/>
		</g>
	</g>
</g>
</svg>
