<?xml version="1.0" encoding="utf-8"?>
<!-- Generator: Adobe Illustrator 23.0.2, SVG Export Plug-In . SVG Version: 6.00 Build 0)  -->
<svg version="1.1" id="Capa_1_copia" xmlns="http://www.w3.org/2000/svg" xmlns:xlink="http://www.w3.org/1999/xlink" x="0px"
	 y="0px" width="73px" height="38px" viewBox="0 0 73 38" style="enable-background:new 0 0 73 38;" xml:space="preserve">
<style type="text/css">
	.st0{fill:#FFFFFF;}
	.st1{fill:#F8F8F8;}
	.st2{fill:#F1E8E9;}
	.st3{fill:#009AD6;}
	.st4{fill:#6F482B;}
	.st5{fill:#95B723;}
	.st6{fill:#79522E;}
	.st7{fill:#E8D3C5;}
	.st8{fill:#E91163;}
	.st9{fill:#FF3E84;}
	.st10{fill:#FCA8A9;}
	.st11{fill:#B75004;}
	.st12{fill:#FF7E07;}
	.st13{fill:#FF165F;}
	.st14{fill:#B11650;}
	.st15{fill:#FABF2E;}
	.st16{fill:#FB1763;}
	.st17{fill:#00E9F5;}
	.st18{opacity:0.3;enable-background:new    ;}
</style>
<g>
	<g>
		<path class="st0" d="M72.5,7.7L72.5,7.7c-0.1-0.2-0.8-1.1-2.9-2.2c-0.1-0.1-0.3-0.1-0.4-0.1c-0.1-0.1-0.2-0.1-0.3-0.2
			C68.6,5.1,68.3,5,68,4.9c-0.2-0.1-0.4-0.1-0.5-0.2c-0.1,0-0.2-0.1-0.2-0.1c-0.1-0.1-0.3-0.2-0.5-0.3L65.4,4c-0.1,0-0.3,0-0.4,0
			c0,0-0.1,0-0.2,0c-0.6,0-1.1,0-1.6,0C63.7,3.5,64,3.2,64,3.2c0.3-0.3,0.4-0.7,0.2-1.1c-0.1-0.3-0.4-0.4-0.7-0.5s-1.3-0.4-2.8-0.3
			c-0.1,0-0.1,0-0.2,0c-0.2,0-0.4,0-0.5,0s-0.2,0-0.3,0.1c-0.2,0-0.5,0.1-0.7,0.1h-0.1c-0.1,0-0.2,0-0.3,0c-0.3,0.1-0.7,0.2-1.1,0.5
			l-0.1,0.1c0,0-0.1,0-0.1,0.1c-0.5,0.3-0.8,0.6-1.1,0.9c0,0-0.1-0.1-0.2-0.2s-0.1-0.1-0.2-0.2c0-0.1-0.1-0.3-0.2-0.4
			c-0.6-0.6-1.4-1.1-2.4-1.5h-0.1c-0.1-0.1-0.2-0.2-0.4-0.2l-1.2-0.3c-0.2,0-0.4,0-0.5,0c0,0,0,0-0.1,0c-0.5-0.1-1-0.1-1.4-0.1
			c-0.2,0-0.3,0-0.5,0.1c-0.1,0-0.2,0-0.3,0c-1.9,0.1-2.8,0.7-3,0.9l0,0l0,0l0,0l0,0c0,0.1-0.1,0.1-0.1,0.2c0,0-0.1,0.1-0.1,0.2v0.1
			c0,0.1,0,0.2,0,0.3v0.1c0,0.1,0,0.1,0,0.2c0.1,0.2,0.1,0.3,0.2,0.3c0,0.1,0.1,0.2,0.2,0.2c0.1,0.1,0.9,0.7,2.4,1.4
			c0.1,0,0.1,0.1,0.2,0.1c0.1,0.2,0.3,0.3,0.4,0.3c0.2,0.1,0.4,0.2,0.7,0.3l0,0C49,5,48.4,5.2,47.9,5.4c-0.1,0-0.2,0.1-0.3,0.1
			s-0.2,0-0.3,0.1C47,5.7,46.8,5.9,46.5,6c-0.2,0.1-0.3,0.2-0.5,0.3c-0.1,0.1-0.3,0.1-0.4,0.2c-0.1,0-0.3,0.1-0.4,0.2
			C44.7,7,44.3,7.3,44,7.6c-0.2,0.1-0.3,0.3-0.3,0.5c-0.1,0-0.2,0.1-0.2,0.2c-0.9,0.9-1.4,1.7-1.7,2.3c-0.7,0-1.4,0.2-2.1,0.5l0,0
			C39.5,11,39.3,11,39.1,11c-0.5-0.2-1.1-0.3-1.5-0.3c-0.5,0-0.9,0.1-1.3,0.2L36.1,11H36c-0.2-0.1-0.4-0.2-0.6-0.2H34
			c-0.9-0.1-1.5,0.1-2,0.5c-0.1,0.1-0.2,0.2-0.3,0.3c-0.4-0.4-1-0.7-1.7-0.8c-1-0.4-2.2-0.4-3.3,0.2c-0.1,0-0.1,0.1-0.1,0.1
			c-0.2-0.1-0.5-0.2-0.8-0.2c-0.5-0.2-1-0.3-1.5-0.3s-0.9,0.1-1.3,0.2l-0.2,0.1h-0.1c-0.2-0.1-0.4-0.2-0.6-0.2h-1.5
			c-0.7,0-1.3,0.3-1.8,0.7c-0.3-0.2-0.7-0.3-1.1-0.4c-1-0.5-2.2-0.2-2.9,0.5c-0.4-0.4-0.9-0.6-1.5-0.6c-0.6-0.3-1.2-0.3-1.7-0.2
			l0.3-2c0.1-0.4-0.2-0.8-0.5-1c-0.5-0.2-1-0.5-1.7-0.7L8.9,7C8.8,6.9,8.6,6.8,8.4,6.8C8,6.7,7.4,6.6,6.7,6.6C5.2,6.6,3.9,7,2.9,7.8
			c-1,0.9-1.5,2-1.5,3.7c0,0.7,0.1,1.3,0.5,2c0.3,0.6,0.8,1.2,1.5,1.8c0.4,0.4,0.7,0.7,0.9,0.9c0.1,0.2,0.1,0.4,0.1,0.4l0,0H4.3
			c-0.1,0-0.2,0-0.3,0c-0.4-0.2-0.7-0.4-1-0.6c-0.2-0.2-0.5-0.2-0.8-0.2l-0.1-0.1c-0.3-0.2-0.6-0.2-0.9-0.1
			c-0.3,0.1-0.5,0.4-0.6,0.7L0,19.7c-0.1,0.4,0.1,0.8,0.4,1c0.5,0.4,1.1,0.6,1.7,0.7h0.1c0.1,0,0.2,0.1,0.3,0.1
			c-0.1,0.5-0.3,0.9-0.4,1.4c0,0,0,0,0,0.1l0,0c-0.6,2.4-0.4,5,0.6,7.4c0.6,1.4,1.6,2.7,2.7,3.8c1.8,1.9,4.3,3.2,6.8,3.6
			c1.3,0.3,2.6,0.3,3.8,0.3c0.2,0,0.4-0.1,0.5-0.3v-0.1c1.7-0.2,3.3-0.7,4.8-1.5c0.4,0.2,0.8,0.4,1.2,0.4h0.1
			c0.2,0.1,0.5,0.2,0.7,0.2c0.6,0.1,1.3,0.3,1.9,0.3c1.7,0,3.1-0.5,4-1.4c0,0.1,0.1,0.2,0.1,0.2c0.2,0.4,0.8,1.1,2,1.2
			c0.4,0.2,0.9,0.3,1.3,0.3c0.6,0,1.2-0.2,1.7-0.5c0.2,0.1,0.3,0.2,0.5,0.2h1.8c0.4,0,0.7,0,1-0.1c0.8,0.1,1.8,0.2,2.7,0.2
			s1.8-0.1,2.6-0.4c0.2-0.1,0.3-0.1,0.5-0.2l0,0l0,0c0,0,0.1,0,0.1-0.1l0,0c0,0,0.1-0.1,0.1-0.2c0.1-0.2,0.1-0.3,0.2-0.5
			c0.6,0.6,1.3,1,2.2,1.2c0.6,0.2,1.3,0.3,2,0.3c1.3,0,2.4-0.4,3.3-1.2c0.9-0.7,1.4-1.7,1.5-3.1c0,0,0,0,0-0.1
			c0.6-0.1,1.3-0.4,2.1-0.8c1.8-1,2.1-0.6,2.4-0.2c0.1,0.3,0.3,0.7,0.4,1.1c0.2,0.9,0.5,1.6,0.9,2.1c0.4,0.9,0.7,1.4,1,1.6
			c0.3,0.2,0.6,0.3,0.9,0.3c0.2,0,0.4,0,0.5-0.1c0.6-0.3,1.1-1,1.3-1.9c0-0.6,0-1.2,0-2c0-0.7-0.1-2.2,0.1-2.7
			c0.7,0,5.9,0.2,6.7-1.5c0.1-0.2,0.3-0.8-0.2-1.5c0-0.1-0.1-0.1-0.1-0.1c-0.1-0.2-0.2-0.5-0.4-0.7c-0.3-0.3-1-0.6-2.3-1
			c-0.8-0.3-1.8-0.6-2.5-1c0.8-3.3,0.9-5,0.4-5.8c-0.1-0.1-0.2-0.2-0.3-0.3c-0.2-0.6-0.5-0.9-0.8-0.9c-1.3-0.5-2.3,1-3.5,2.7
			c-0.2,0.2-0.3,0.5-0.5,0.7c-0.5,0.7-1.3,0.7-1.9,0.4c0.2-0.1,0.4-0.2,0.5-0.5c0.1-0.1,0.9-1.9,1.1-5c0.2,0,0.4-0.1,0.9-0.1h0.1
			c0.5,0,0.9-0.4,1-0.8l0.3-1.9c0.3,0.2,0.6,0.4,0.9,0.6c0.1,0,0.1,0.1,0.2,0.1c0.1,0.1,0.1,0.1,0.2,0.2c0.2,0.1,0.4,0.2,0.5,0.3
			s0.3,0.2,0.4,0.3c0.1,0,0.1,0.1,0.2,0.1c0.2,0.2,0.5,0.3,0.7,0.4l0.1,0.1c0,0,0,0,0.1,0c0.1,0.1,0.2,0.2,0.3,0.2
			c1.1,0.6,2,0.9,2,0.9c0.1,0,0.3,0.1,0.4,0.1H67c0.4,0,0.7-0.3,0.8-0.7c0,0,0.2-0.9,0.1-1.9c0-0.2-0.1-0.3-0.2-0.5l0,0
			c0-0.4-0.2-0.8-0.3-1c0-0.1-0.1-0.1-0.1-0.2c0-0.2-0.1-0.3-0.3-0.5c-0.1-0.1-0.1-0.2-0.2-0.3c0-0.2-0.1-0.3-0.3-0.5l-0.2-0.2
			l-0.1-0.1l-0.1-0.1L65.8,10c0.3,0.1,0.2,0,0.1,0c-0.1-0.1-0.3-0.3-0.4-0.3c0,0-0.1-0.1-0.2-0.1c-0.1-0.1-0.2-0.2-0.3-0.2
			c-0.1,0-0.1-0.1-0.2-0.1l0,0c-0.1-0.1-0.1-0.1-0.2-0.2h0.1c0.2,0,0.6,0.1,0.9,0c0.1,0,0.1,0,0.2,0.1h0.3c0.7,0.1,1.3,0.2,1.9,0.2
			c0.1,0,0.3,0,0.4-0.1c0.1,0,0.2,0.1,0.3,0.1c2,0.1,3.2,0,3.2,0c0.4,0,0.8-0.4,0.9-0.8c0-0.1,0-0.2,0-0.2
			C72.6,8.1,72.6,7.9,72.5,7.7z M28.9,27.6c-0.2-0.2-0.3-0.3-0.4-0.5l0,0c0.1,0,0.2,0.1,0.3,0.1c0.2,0.1,0.3,0.2,0.5,0.3
			c0.2,0.1,0.4,0.1,0.6,0.1c0.1,0,0.2,0.1,0.3,0.1c0,0,0,0,0.1,0c-0.1,0.1-0.1,0.2-0.2,0.2c-0.1,0.2-0.2,0.3-0.3,0.5
			c-0.2-0.3-0.4-0.5-0.6-0.7L28.9,27.6z M45.9,25.1c0-1.3-0.1-2.6-0.4-3.8c0.4,0.3,0.9,0.4,1.5,0.5c0.6,0.2,1.3,0.3,2,0.3
			s1.3-0.1,1.8-0.3c0.3,1.1,1.4,2.3,2.4,3.5c0.1,0.1,0.3,0.3,0.4,0.4c-0.2,0.4-0.6,0.9-1.2,1.5c-0.1-0.1-0.1-0.2-0.2-0.3
			c-0.6-0.4-1.4-0.7-2.1-0.9c-0.7-0.2-1.3-0.4-1.9-0.4c-0.8,0-1.6,0.2-2.2,0.5c0-0.1,0-0.2,0-0.3C45.9,25.6,45.9,25.3,45.9,25.1z
			 M51.4,9.1L51.4,9.1L51.4,9.1L51.4,9.1z M51.4,9.6c0.1,0,0.3,0,0.4,0h0.1c0,0.1-0.1,0.1-0.1,0.2l0,0L51.6,10
			c-0.1,0.1-0.1,0.2-0.2,0.3c0,0-0.1,0-0.1,0.1c-0.1,0.1-0.2,0.2-0.3,0.3c0,0,0,0.1-0.1,0.1l-0.1,0.1c-0.5-0.2-1.1-0.3-1.8-0.3
			c0.3-0.1,0.5-0.2,0.5-0.2c0.6-0.2,1.1-0.4,1.6-0.6C51.3,9.7,51.3,9.6,51.4,9.6z M45.1,12.1C45,12,45,12,44.9,11.9
			c0.2-0.1,0.4-0.1,0.6-0.2C45.4,11.8,45.2,12,45.1,12.1z M35.3,21.1c0.4,0.3,0.8,0.5,1.3,0.5c1.1,0.6,2.4,0.1,3.1-0.8
			c0.3,0.3,0.7,0.5,1.1,0.6c-0.6,0.4-1,1-1.1,1.6l-0.3,1.7c-0.2,0.5-0.4,1-0.5,1.6c-0.2-0.1-0.5-0.2-0.7-0.2
			c-0.4-0.2-0.9-0.3-1.3-0.2h-1.3c-0.2,0-0.4,0.1-0.5,0.2c-0.1,0-0.2,0-0.2,0c-0.5-0.2-0.9-0.3-1.3-0.3c-0.7,0-1.4,0.2-1.9,0.5
			l0.4-2.5c0.1-0.4-0.1-0.8-0.5-1c-0.5-0.2-1-0.5-1.7-0.7L29.5,22c-0.3,0.1-0.5,0-0.6,0c-0.3-0.1-0.7-0.1-1-0.2
			c0-0.1-0.1-0.2-0.1-0.3c0.1,0,0.2,0,0.3,0c1,0.5,2.2,0.2,2.9-0.6c0.4,0.4,1,0.7,1.5,0.7C33.5,22.2,34.6,21.9,35.3,21.1z M9.5,12.7
			C9.5,12.7,9.5,12.8,9.5,12.7l-0.1,0.7c-0.2-0.3-0.5-0.5-0.7-0.7l-0.2-0.2C8.3,12.3,8.1,12.1,8,12c0.1,0,0.2,0.1,0.3,0.2
			c0.2,0.1,0.3,0.2,0.5,0.3S9.2,12.6,9.5,12.7C9.4,12.6,9.5,12.6,9.5,12.7C9.5,12.6,9.5,12.7,9.5,12.7z"/>
	</g>
	<g id="Summer_Sale_2_1_">
		<g>
			<g>
				<g>
					<g>
						<g>
							<path class="st1" d="M2.6,23.1C2,25.6,2.3,28,3.2,30.2c1.5,3.4,4.9,6.2,8.9,6.8c1.2,0.3,2.5,0.3,3.7,0.3
								c4-0.3,7.4-2.2,9.5-5.2c0.3-0.3,0.3-0.6,0.6-0.9c0.6-0.9,0.9-1.8,1.2-3.1c0.6-2.5,0.3-4.6-0.6-6.8c-0.3-0.6-0.6-1.2-0.9-1.8
								c-1.8-2.8-4.6-4.9-8.3-5.5c-1.2-0.3-2.8-0.3-4-0.3s-2.5,0.3-3.4,0.9c-2.2,0.6-3.7,1.8-5.2,3.7c-0.6,0.6-0.9,1.2-1.2,1.8
								C3.2,21.3,2.9,22.2,2.6,23.1z"/>
						</g>
					</g>
					<g>
						<path class="st2" d="M2.6,23.1C2,25.6,2.3,28,3.2,30.2c1.5,3.4,4.9,6.2,8.9,6.8c1.2,0.3,2.6,0.6,3.9,0.6
							c4-0.3,7.2-2.5,9.4-5.5c0.3-0.3,0.3-0.6,0.6-0.9c-0.3-0.3-0.6-0.6-0.9-0.9c0,0-3.4,4.6-12,4C4.5,34,3.3,27.2,4.8,19.2
							c0-0.6,0.3-0.9,0.3-1.2c-0.6,0.6-0.9,1.2-1.2,1.8C3.2,21.3,2.9,22.2,2.6,23.1z"/>
					</g>
				</g>
				<g>
					<g>
						<g>
							<g>
								<path class="st3" d="M3.9,20.3c0.3,0,0.9,0,1.2,0.3c4.9,0.9,10.2,3.1,10.5,3.4l0,0h0.3c0,0,0,0,0-0.3s0-1.2-0.3-3.1
									c-0.3-2.2-1.2-4.9-1.8-6.8c-3.4,0.3-6.2,1.8-8.3,4C4.8,18.5,4.2,19.4,3.9,20.3z"/>
							</g>
							<g>
								<path class="st3" d="M3.6,30.5c1.5,3.4,4.9,6.1,8.9,6.7c1.2,0.3,2.4,0.4,3.6,0.4c0.3-0.9,0.7-1.9,0.7-3.5
									c0.3-3.4-0.3-8-0.6-9.5l0,0c0-0.3,0-0.6,0-0.6l0,0c0,0,0,0-0.3,0l0,0c-0.6,0.3-1.5,0.9-4,2.2c-1.8,0.9-4.6,2.5-6.8,3.4
									C4.5,29.9,3.9,30.2,3.6,30.5z"/>
							</g>
							<g>
								<path class="st3" d="M15.9,23.7L15.9,23.7c0,0.3,0.3,0.3,0.6,0.6l0,0c0.6,0.6,1.8,1.8,4.6,4c1.2,0.9,2.5,1.8,3.1,2.5
									c0.6,0.6,1.2,0.9,1.8,1.2c0.9-1.2,1.5-2.5,1.8-4c0-0.6-0.4-1.4,0.3-1.8c0-1.5-0.3-3.1-0.9-4.6c-2.5,0-6.5,0.9-10.8,2.2
									C16.2,23.7,15.9,23.7,15.9,23.7z"/>
							</g>
						</g>
					</g>
					<g>
						<path class="st3" d="M3.4,30.6c1.5,3.4,5,6,9,6.6c1.2,0.3,2.5,0.4,3.7,0.4c0.3-0.9,0.6-1.9,0.6-3.5c-1.2,0-2.2,0-3.7,0
							c-4.9-0.6-7-2.2-8.2-4.4C4.1,30,3.8,30.3,3.4,30.6z"/>
					</g>
					<g>
						<path class="st3" d="M3.9,20.3c0.3,0,0.9,0,1.2,0.3c0.3-0.9,0.3-1.8,0.3-2.5C4.8,18.5,4.2,19.4,3.9,20.3z"/>
					</g>
				</g>
				<g>
					<path class="st0" d="M15.2,24c0,0.3,0.3,0.9,0.6,0.9c0.6,0,0.9-0.3,0.9-0.6s-0.3-0.9-0.6-0.9C15.5,23.4,15.2,23.7,15.2,24z"/>
				</g>
			</g>
		</g>
		<g>
			<path class="st0" d="M72.1,8c-0.1-0.1-0.7-1-2.7-2c-0.1,0-0.2-0.1-0.3,0h-0.2c0-0.1-0.1-0.2-0.2-0.3c-0.3-0.1-0.5-0.2-0.8-0.3
				c-0.2-0.1-0.4-0.1-0.6-0.2c-0.1,0-0.2,0-0.3,0l0,0c0,0,0,0,0-0.1c-0.1-0.1-0.2-0.2-0.3-0.2l-1.4-0.3c-0.1,0-0.2,0-0.3,0l0,0
				c-0.1,0-0.1-0.1-0.2-0.1c-1.1-0.1-2.1-0.1-3,0.1l0,0c0.1-0.1,0.2-0.1,0.3-0.2c-0.1,0-0.1,0,0-0.1c0.1,0,0.2-0.1,0.3-0.1
				c0.9-0.8,1.4-1.3,1.4-1.3c0.1-0.1,0.2-0.4,0.1-0.6c-0.1-0.1-0.2-0.2-0.4-0.2c-0.2-0.1-1.1-0.4-2.6-0.3c-0.1,0-0.1,0-0.2,0.1
				c-0.1-0.1-0.3-0.1-0.4,0C60.2,1.9,60,2,59.9,2c-0.2,0-0.4,0.1-0.6,0.1c-0.1,0-0.1,0-0.1,0.1c-0.1,0-0.2,0-0.2,0
				c-0.3,0.1-0.6,0.2-1,0.4l-0.1,0.1c0,0-0.1,0-0.1,0.1C57,3.1,56.5,3.5,56.2,4c-0.2-0.3-0.4-0.6-0.6-0.8c-0.1-0.1-0.1-0.1-0.2-0.2
				l-0.1-0.2c0-0.1-0.1-0.1-0.1-0.2c-0.6-0.6-1.3-1-2.2-1.4c-0.1,0-0.1,0-0.2,0C52.7,1.1,52.6,1,52.5,1l-1.2-0.3
				c-0.1,0-0.3,0-0.4,0.1c-0.1,0-0.1-0.1-0.2-0.1c-0.4-0.1-0.9-0.1-1.3-0.1c-0.1,0-0.3,0.1-0.4,0.2l0,0l0,0
				c-0.1-0.1-0.2-0.1-0.3-0.1c-1.8,0.1-2.6,0.7-2.8,0.8l0,0l0,0l-0.1,0.1l-0.1,0.1l0,0c0,0.1,0,0.1,0,0.2V2l0,0
				c0,0.1,0.1,0.1,0.1,0.2c0,0,0,0.1,0.1,0.1l0,0l0,0c0.1,0,0.8,0.6,2.3,1.3c0.1,0,0.1,0,0.2,0h0.1c0,0.2,0.1,0.3,0.3,0.4
				c0.2,0.1,0.5,0.2,0.7,0.3c0.3,0.1,0.5,0.3,0.8,0.4c0.1,0,0.2,0,0.3,0c0,0.1,0.1,0.1,0.2,0.2C51,5,51.2,5.1,51.6,5.2
				c0.4,0.1,0.7,0.2,1.1,0.5c0.1,0.1,0.2,0.1,0.4,0.1l0,0c0,0.1,0.1,0.2,0.2,0.2c0.8,0.5,1.5,1,2,1.5c-0.2,0.3-0.3,0.6-0.3,1
				c0,0.7,0.4,1.2,0.9,1.6c0.5,7.5-1.4,9.9-1.4,10c-0.1,0.1-0.2,0.3-0.1,0.5c0.1,0.2,0.2,0.3,0.4,0.3l2,0.2l0,0
				c0.2,0,0.4-0.1,0.4-0.3c0.1-0.2,1.9-4,0.8-10.4c0.4,0.4,0.8,0.7,1.4,1.1c0.1,0.1,0.2,0.1,0.3,0.1v0.1c0,0.1,0.1,0.2,0.2,0.3
				c0.1,0,0.1,0.1,0.2,0.1c0.1,0.1,0.2,0.2,0.4,0.2c0.1,0,0.2,0.1,0.3,0v0.1c0,0.1,0.1,0.1,0.1,0.1c0.4,0.3,0.8,0.6,1.2,0.8
				c0.1,0,0.2,0.1,0.3,0l0,0c0,0.1,0.1,0.1,0.2,0.2c0.2,0.1,0.3,0.2,0.5,0.3s0.3,0.2,0.5,0.3l0.1,0.1c0.2,0.2,0.5,0.3,0.6,0.4
				l0.1,0.1c0,0,0.1,0,0.2,0c0,0.1,0.1,0.2,0.2,0.2c1.1,0.6,1.9,0.9,1.9,0.9c0.1,0,0.1,0,0.2,0c0,0,0,0,0.1,0l0,0l0,0
				c0.2,0,0.4-0.2,0.4-0.3c0,0,0.2-0.8,0.1-1.7c0-0.1,0-0.2-0.1-0.2l-0.1-0.2v-0.1c0-0.3-0.1-0.6-0.2-0.8c0-0.1-0.1-0.1-0.1-0.2
				c0-0.1,0-0.2-0.1-0.3l-0.1-0.1c-0.1-0.1-0.1-0.2-0.2-0.3c0,0,0,0-0.1,0c0-0.1,0-0.3-0.1-0.3L66.3,11l-0.1-0.1c0,0,0-0.1-0.1-0.1
				l-0.3-0.3c-0.1-0.1-0.2-0.1-0.3-0.1l0,0c-0.1-0.1-0.2-0.2-0.3-0.3c-0.1,0-0.2-0.1-0.3-0.2c-0.1-0.1-0.2-0.1-0.3-0.2
				c-0.1,0-0.1-0.1-0.2-0.1l0,0c0-0.1-0.1-0.1-0.1-0.1c-0.1-0.1-0.3-0.2-0.4-0.2c-0.1-0.1-0.2-0.1-0.3-0.1h-0.1
				c0-0.1-0.1-0.1-0.2-0.1C63.2,9,63.1,9,62.9,8.9c-0.1,0-0.2-0.1-0.3-0.1s-0.1,0-0.2,0h-0.2c-0.1-0.1-0.1-0.1-0.2-0.1
				c-0.3-0.1-0.7-0.2-1-0.3c0.3,0,0.6,0,0.9,0c0.1,0,0.2,0,0.2-0.1l0.2,0.2c0.1,0.1,0.2,0.1,0.3,0.1c0.5,0,1,0,1.6,0.1
				c0.1,0,0.2,0,0.4,0c0.3,0,0.6,0.1,0.8-0.1h0.1c0.1,0.1,0.1,0.1,0.2,0.1H66c0.7,0.1,1.3,0.2,1.8,0.2c0.1,0,0.3-0.1,0.3-0.1
				l0.2,0.1c0.1,0,0.1,0,0.2,0c1.9,0.1,3.1,0,3.2,0c0.2,0,0.4-0.2,0.4-0.4V8.4C72.2,8.2,72.1,8.1,72.1,8z"/>
		</g>
		<g>
			<g>
				<g>
					<path class="st4" d="M56.3,8.7c0.9,9-1.4,11.6-1.4,11.6l1.6,0.2c0,0,2.2-4.3,0.9-11.6L56.3,8.7z"/>
				</g>
				<g>
					<g>
						<path class="st5" d="M61.8,9l-0.6,0.1l1.2,0.1c0.2,0.1,0.5,0.2,0.7,0.3l-0.2,0.2h0.7c0.1,0.1,0.3,0.1,0.4,0.2l-0.3,0.3h0.8
							c0.2,0.1,0.4,0.3,0.7,0.4l-0.4,0.2l0.8,0.1c0.1,0.1,0.2,0.2,0.3,0.3h-1.3l1.4,0.2c0.1,0.1,0.1,0.1,0.2,0.2l-0.7,0.1l0.9,0.3
							c0.1,0.1,0.2,0.3,0.3,0.4l-0.6,0.1l0.8,0.3c0.1,0.2,0.2,0.4,0.2,0.6l-0.4-0.2l0.6,0.8c0.1,0.9-0.1,1.5-0.1,1.5
							C64.6,10.6,59.3,9,57,8.7C56.9,8.5,58.9,8,61.8,9z"/>
					</g>
					<g>
						<path class="st5" d="M58,9.1l-0.3,0.4c-0.3-0.3-0.6-0.6-0.9-0.9c2.3,0.4,7.7,1.9,10.2,6.8c0,0-0.8-0.3-1.8-0.9l-0.3-0.8
							l-0.1,0.5c-0.2-0.1-0.5-0.2-0.7-0.4L64,13.2v0.6c-0.3-0.2-0.7-0.4-1-0.6l-0.5-0.9v0.6c-0.4-0.2-0.8-0.5-1.2-0.8l-0.6-1
							l0.1,0.7c-0.2-0.1-0.4-0.3-0.6-0.4L60,10.7L59.8,11c-0.6-0.4-1.1-0.8-1.5-1.3L58,9.1z"/>
					</g>
				</g>
				<g>
					<g>
						<path class="st5" d="M61.1,5.2l-0.3,0.6l1-0.7c1-0.2,1.9-0.2,2.9-0.1l-0.4,0.4L65.2,5c0.5,0.1,1,0.2,1.4,0.3l-0.2,0.5l0.8-0.2
							c0.5,0.2,1,0.3,1.4,0.5l-0.4,0.4l1.1-0.1c1.9,1,2.5,1.8,2.5,1.8C61.3,3.9,58.3,7.4,56.9,8.5C58,6.7,59.4,5.7,61.1,5.2z"/>
					</g>
					<g>
						<path class="st5" d="M71.7,8.3c0,0-1.2,0.1-3.1,0l-1.3-0.6l0.5,0.6c-0.6,0-1.3-0.1-2-0.2L65,7.6l0.1,0.6
							c-0.3,0-0.6-0.1-0.9-0.1C63.7,8,63.1,8,62.6,8l-1-0.7l0.2,0.5c-3.2,0-4.9,0.8-4.9,0.8C58.3,7.4,61.3,3.9,71.7,8.3z"/>
					</g>
				</g>
				<g>
					<g>
						<path class="st5" d="M56.4,4.7l0.2,0.5V4.3c0.3-0.5,0.8-0.9,1.3-1.2L58,3.6l0.2-0.7c0.3-0.2,0.6-0.3,0.9-0.4L59.2,3l0.2-0.6
							c0.3-0.1,0.7-0.1,1-0.2l0.1,0.5l0.4-0.5c1.5-0.1,2.4,0.3,2.4,0.3c-7.7,1.1-6.7,4.7-6.5,6.1C56.1,7,56,5.6,56.4,4.7z"/>
					</g>
					<g>
						<path class="st5" d="M63.4,2.5c0,0-0.5,0.5-1.4,1.3l-1,0.1l0.6,0.2c-0.3,0.2-0.7,0.5-1,0.7l-0.8-0.1l0.4,0.4
							c-0.2,0.1-0.3,0.2-0.5,0.3c-0.4,0.1-0.7,0.3-0.9,0.5h-1l0.6,0.4c-1.4,1.3-1.7,2.5-1.7,2.5C56.6,7.3,55.6,3.6,63.4,2.5z"/>
					</g>
				</g>
				<g>
					<g>
						<path class="st5" d="M55.3,3.5v0.6L54.9,3c-0.6-0.6-1.3-1-2-1.3L53,2.3l-0.5-0.8c-0.4-0.1-0.8-0.2-1.2-0.3v0.6l-0.6-0.6
							c-0.4-0.1-0.8-0.1-1.2-0.1l0.1,0.6l-0.8-0.5C47.2,1.4,46.4,2,46.4,2c9.2,0.1,10,4.8,10.5,6.5C56.8,6.2,56.2,4.7,55.3,3.5z"/>
					</g>
					<g>
						<path class="st5" d="M46.4,2c0,0,0.8,0.6,2.2,1.3h1.2l-0.6,0.4c0.5,0.2,1,0.5,1.4,0.7L51.4,4l-0.3,0.5
							c0.2,0.1,0.4,0.2,0.7,0.3c0.5,0.1,0.9,0.3,1.3,0.6l1-0.2l-0.4,0.5C55.9,7.1,57,8.5,57,8.5C56.4,6.8,55.6,2.1,46.4,2z"/>
					</g>
				</g>
				<g>
					<circle class="st6" cx="56.9" cy="8.5" r="1.4"/>
				</g>
			</g>
		</g>
		<g>
			<path class="st0" d="M68.9,27.8c-0.1-0.1-0.1-0.1-0.2-0.2c0-0.2-0.1-0.4-0.3-0.6c-0.3-0.3-1-0.5-2.1-0.9c-1-0.3-2.2-0.8-2.9-1.2
				c0.8-3.3,1-5.1,0.6-5.8c-0.1-0.2-0.2-0.2-0.3-0.3c0-0.3-0.2-0.7-0.5-0.8c-0.9-0.4-1.9,1-2.9,2.6c-0.2,0.2-0.3,0.5-0.5,0.7
				c-1,1.4-2.8,0.5-3.4,0.2c-0.1-0.1-0.4-0.2-0.8-0.4c-1.7-1-3.3-1.9-4.1-1.8l-0.2,0.1c-0.6,0.5-0.6,1.2,0.1,2.3
				c0.2,1,1.3,2.3,2.3,3.4c0.2,0.2,0.4,0.5,0.6,0.7c-0.1,0.6-0.8,1.3-1.6,2.2c-0.3,0.4-0.7,0.8-1.1,1.2c-0.6,0.8-0.9,1.5-0.7,2
				c0.1,0.2,0.2,0.4,0.4,0.5c0,0.4,0.1,0.7,0.4,0.9c0.6,0.5,2,0.3,3.4-0.5c1.7-0.9,2.5-0.9,3.1,0c0.1,0.4,0.3,0.8,0.4,1.2
				c0.2,0.9,0.5,1.5,0.9,2c0.3,0.8,0.6,1.2,0.9,1.4c0.2,0.2,0.4,0.2,0.7,0.2c0.1,0,0.2,0,0.4-0.1c0.5-0.2,0.9-0.8,1-1.5
				c0-0.5,0-1.2,0-1.9c0-1.2-0.1-2.8,0.3-3.1c0,0,0.1-0.1,0.2-0.1c1.8,0.1,5.8,0,6.4-1.2C69.2,28.6,69.3,28.2,68.9,27.8z"/>
		</g>
		<g>
			<g>
				<path class="st7" d="M68.6,28c-0.6-0.8-6-1.7-5.7-3s1.4-5.7,0.5-5.9c-1-0.3-2.1,1.6-3,3.2c-1.1,1.6-3,0.8-3.8,0.3
					c-0.6-0.5-3.8-2.5-4.6-1.9c-1.3,1,1.9,3.8,2.9,5.1c1,1.3-0.8,2.5-2.5,4.6c-0.3,0.5-0.5,0.8-0.6,1c-0.3,1.1,1.3,1.3,3.2,0.2
					c2.4-1.3,3.5-1.1,4.5,2.4c0.5,1.4,0.8,2.1,1.1,2.2c0.6,0.5,1.3-0.2,1.4-1.1c0.2-1.9-0.5-5.6,1-5.4C65.4,29.8,69.7,29.3,68.6,28z
					"/>
			</g>
			<g>
				<g>
					<g>
						<path class="st8" d="M56.1,21.8c0.8,0.5,2.7,1.3,3.8-0.3s2.2-3.5,3-3.2c1,0.3-0.3,4.8-0.5,5.9c-0.3,1.3,5.1,2.4,5.7,3
							c1.1,1.3-3.2,1.7-5.9,1.4c-1.3-0.2-0.8,3.5-1,5.4c-0.2,1.4-1.6,2.4-2.5-1.1c-1-3.5-2.1-3.7-4.5-2.4c-2.4,1.3-4.3,1-2.5-1.3
							c1.7-2.1,3.5-3.3,2.5-4.6c-1-1.3-4.1-4.1-2.9-5.1C52.4,19.4,55.4,21.5,56.1,21.8z"/>
					</g>
					<g>
						<path class="st9" d="M55.9,22.9c1.7,0.8,2.9,0.2,4-1.4s2.2-3.5,3-3.2c1,0.3-1.6,5.2-1.9,6.5c-0.3,1.3,5.6,1.7,6.2,2.5
							c1.1,1.3-3.3,1.6-5.9,1.3C60,28.5,61,32,60.8,33.9c-0.2,1.4-1,2.7-1.9-0.8c-1-3.5-1.7-4.8-4.1-3.5s-4.6,1.9-2.9-0.2
							c1.7-2.1,3.5-3.3,2.5-4.6c-1-1.3-4.1-4.1-2.9-5.1C52.4,19.4,55.3,22.6,55.9,22.9z"/>
					</g>
				</g>
				<g>
					<g>
						<path class="st10" d="M60,23.7c0,0.2-0.3,0.3-0.5,0.2c-0.2,0-0.3-0.3-0.2-0.5c0-0.2,0.3-0.3,0.5-0.2C60,23.2,60,23.4,60,23.7z
							"/>
					</g>
					<g>
						<path class="st10" d="M57.7,24.5c0,0.2-0.3,0.3-0.5,0.2c-0.2,0-0.3-0.3-0.2-0.5c0-0.2,0.3-0.3,0.5-0.2S57.8,24.4,57.7,24.5z"
							/>
					</g>
					<g>
						<path class="st10" d="M61.6,27.2c0,0.2-0.3,0.3-0.5,0.2c-0.2,0-0.3-0.3-0.2-0.5c0-0.2,0.3-0.3,0.5-0.2
							C61.6,26.7,61.6,27.1,61.6,27.2z"/>
					</g>
					<g>
						<path class="st10" d="M54.2,29.3c0,0.2-0.3,0.3-0.5,0.2c-0.2,0-0.3-0.3-0.2-0.5c0-0.2,0.3-0.3,0.5-0.2
							C54.2,28.8,54.3,29,54.2,29.3z"/>
					</g>
					<g>
						<path class="st10" d="M55.6,25.9c0,0.2-0.3,0.3-0.5,0.2c-0.2,0-0.3-0.3-0.2-0.5c0-0.2,0.3-0.3,0.5-0.2
							C55.6,25.5,55.6,25.6,55.6,25.9z"/>
					</g>
					<g>
						<path class="st10" d="M60.7,31.4c0,0.2-0.3,0.3-0.5,0.2c-0.2,0-0.3-0.3-0.2-0.5c0-0.2,0.3-0.3,0.5-0.2
							C60.7,31,60.7,31.2,60.7,31.4z"/>
					</g>
					<g>
						<path class="st10" d="M61.6,23.2c0,0.2-0.3,0.3-0.5,0.2c-0.2-0.2-0.3-0.3-0.2-0.5c0-0.2,0.3-0.3,0.5-0.2
							C61.6,22.9,61.6,23.1,61.6,23.2z"/>
					</g>
					<g>
						<path class="st10" d="M61.9,22c0,0.2-0.2,0.2-0.3,0.2s-0.2-0.2-0.2-0.3s0.2-0.2,0.3-0.2C61.9,21.7,61.9,21.8,61.9,22z"/>
					</g>
					<g>
						<path class="st10" d="M60.5,25.5c0,0.2-0.2,0.2-0.3,0.2c-0.2,0-0.2-0.2-0.2-0.3c0-0.2,0.2-0.2,0.3-0.2
							C60.5,25.3,60.5,25.5,60.5,25.5z"/>
					</g>
					<g>
						<path class="st10" d="M61.3,20.5c0,0.2-0.2,0.2-0.3,0.2c-0.2,0-0.2-0.2-0.2-0.3s0.2-0.2,0.3-0.2
							C61.3,20.2,61.3,20.4,61.3,20.5z"/>
					</g>
					<g>
						<path class="st10" d="M53.8,23.2c0,0.2-0.2,0.2-0.3,0.2c-0.2,0-0.2-0.2-0.2-0.3s0.2-0.2,0.3-0.2
							C53.8,23.1,53.8,23.2,53.8,23.2z"/>
					</g>
					<g>
						<path class="st10" d="M54.6,27.9c0,0.2-0.2,0.2-0.3,0.2c-0.2,0-0.2-0.2-0.2-0.3s0.2-0.2,0.3-0.2
							C54.6,27.7,54.8,27.9,54.6,27.9z"/>
					</g>
					<g>
						<path class="st10" d="M59.7,32.6c0,0.2-0.2,0.2-0.3,0.2c-0.2,0-0.2-0.2-0.2-0.3c0-0.2,0.2-0.2,0.3-0.2
							C59.7,32.3,59.7,32.5,59.7,32.6z"/>
					</g>
					<g>
						<path class="st10" d="M57.3,28.8c0,0.2-0.2,0.2-0.3,0.2c-0.2,0-0.2-0.2-0.2-0.3c0-0.2,0.2-0.2,0.3-0.2
							C57.3,28.5,57.3,28.7,57.3,28.8z"/>
					</g>
					<g>
						<path class="st10" d="M64.3,27.1c0,0.2-0.2,0.2-0.3,0.2c-0.2-0.2-0.2-0.3-0.2-0.5s0.2-0.2,0.3-0.2
							C64.3,26.7,64.3,26.9,64.3,27.1z"/>
					</g>
					<g>
						<path class="st10" d="M63.2,27.9c0,0.2-0.2,0.2-0.3,0.2c-0.2,0-0.2-0.2-0.2-0.3s0.2-0.2,0.3-0.2
							C63.2,27.7,63.2,27.9,63.2,27.9z"/>
					</g>
					<g>
						<path class="st10" d="M59.6,27.7c0,0.2-0.2,0.2-0.3,0.2c-0.2,0-0.2-0.2-0.2-0.3s0.2-0.2,0.3-0.2
							C59.6,27.5,59.7,27.5,59.6,27.7z"/>
					</g>
					<g>
						<path class="st10" d="M56.2,27.5c0,0.2-0.3,0.2-0.5,0.2s-0.2-0.3-0.2-0.5S55.8,27,56,27C56.2,27.2,56.2,27.4,56.2,27.5z"/>
					</g>
					<g>
						<path class="st10" d="M58.9,29.8c0,0.2-0.3,0.2-0.5,0.2s-0.2-0.3-0.2-0.5s0.3-0.2,0.5-0.2C58.9,29.4,58.9,29.8,58.9,29.8z"/>
					</g>
					<g>
						<path class="st10" d="M58,26.1c0,0.2-0.3,0.2-0.5,0.2s-0.2-0.3-0.2-0.5s0.3-0.2,0.5-0.2C58,25.8,58,25.9,58,26.1z"/>
					</g>
					<g>
						<path class="st10" d="M55.4,23.7c0,0.2-0.3,0.2-0.5,0.2s-0.2-0.3-0.2-0.5s0.3-0.2,0.5-0.2C55.4,23.4,55.6,23.6,55.4,23.7z"/>
					</g>
				</g>
			</g>
		</g>
		<g>
			<g>
				<path class="st0" d="M60.7,11.4c-0.1-0.1-0.2-0.2-0.4-0.2c-0.1,0-0.3,0-0.4,0c0,0,0-0.1-0.1-0.1c-0.1-0.1-0.2-0.2-0.4-0.2
					c-0.5,0-1,0.2-1.5,0.5h-0.4c0,0,0,0,0-0.1c-0.1-0.1-0.2-0.2-0.4-0.2h-1.5c0,0,0.1,0,0.1-0.1c0.3-0.4,0.6-0.9,0.8-1.3
					c0-0.1,0-0.1,0-0.2V9.4c0.1,0,0.2-0.1,0.3-0.2C56.9,9,57,8.7,57.1,8.5c0.1-0.1,0.2-0.3,0.2-0.5S57.1,7.7,57,7.6
					c-1.9-2.1-4-2.6-5.3-2.7c-0.1,0-0.3,0-0.4,0.1l-0.2-0.1c-0.1,0-0.1,0-0.2,0c-1.1,0-2.1,0.3-3,0.6c-0.1,0-0.2,0.1-0.2,0.2
					c-0.1,0-0.2,0-0.3,0c-0.3,0.1-0.5,0.2-0.7,0.4c-0.2,0.1-0.4,0.2-0.6,0.3c-0.1,0-0.2,0.1-0.3,0.3c-0.1,0-0.2,0-0.3,0.1
					c-0.5,0.4-0.9,0.7-1.2,1c-0.1,0.1-0.2,0.2-0.2,0.4c0,0,0,0,0,0.1H44c-0.1,0-0.2,0.1-0.3,0.1c-1,1-1.5,1.9-1.8,2.5
					c-0.6-0.1-1.4,0-2.1,0.4c-0.1,0.1-0.1,0.1-0.2,0.2c-0.2-0.1-0.6-0.2-0.8-0.2c-0.4-0.2-1.1-0.3-1.4-0.3c-0.4,0-0.8,0.1-1.2,0.2
					L36,11.4c-0.1,0-0.1,0-0.2,0.1c0,0,0,0-0.1,0h-0.2v-0.1c-0.1-0.1-0.2-0.2-0.4-0.2h-1.5c-0.7-0.1-1.3,0.1-1.6,0.4
					c-0.3,0.2-0.4,0.6-0.5,1c-0.1-0.3-0.3-0.5-0.4-0.7c-0.4-0.4-0.9-0.6-1.5-0.7c-0.8-0.4-1.9-0.4-2.9,0.1c-0.1,0.1-0.2,0.1-0.3,0.2
					c-0.3-0.2-0.6-0.3-1-0.3C25,11.1,24.5,11,24,11c-0.4,0-0.8,0.1-1.2,0.2l-0.2,0.1c-0.1,0-0.1,0-0.1,0.1c0,0,0,0-0.1,0h-0.2v-0.1
					c-0.1-0.1-0.2-0.2-0.4-0.2h-1.5c-0.7,0-1.4,0.4-1.7,0.9c-0.4-0.3-0.8-0.5-1.3-0.5c-0.3-0.1-0.6-0.2-0.9-0.2
					c-0.8,0-1.5,0.4-1.8,1.1c-0.1-0.1-0.1-0.2-0.2-0.3c-0.4-0.4-0.9-0.7-1.4-0.7c-0.3-0.2-0.6-0.2-0.9-0.2c-0.5,0-1,0.2-1.3,0.5
					l0.4-3c0-0.2-0.1-0.4-0.3-0.5c-0.5-0.2-1-0.5-1.6-0.6c-0.1,0-0.2,0-0.3-0.1C8.7,7.4,8.5,7.3,8.3,7.3C7.8,7.2,7.3,7,6.7,7
					C5.3,7,4.1,7.4,3.2,8.2S1.9,10,1.9,11.5c0,0.6,0.1,1.2,0.4,1.7c0.3,0.6,0.7,1.1,1.4,1.6c0.5,0.5,0.8,0.8,1,1
					c0.1,0.2,0.2,0.5,0.2,0.6c0,0.2-0.1,0.3-0.2,0.5C4.6,17,4.6,17,4.2,17c-0.1,0-0.3,0-0.4,0c-0.4-0.2-0.7-0.4-1-0.7
					c-0.1-0.1-0.3-0.1-0.5-0.1c0,0,0,0-0.1,0.1c-0.1-0.1-0.2-0.1-0.3-0.2c-0.2-0.1-0.4-0.1-0.5,0c-0.2,0.1-0.3,0.2-0.3,0.4l-0.6,3.4
					c0,0.2,0,0.4,0.2,0.5c0.5,0.3,1,0.5,1.6,0.7c0.1,0,0.1,0,0.2,0c0.2,0.1,0.4,0.2,0.7,0.2c0.6,0.1,1.2,0.2,1.8,0.2
					c1.6,0,2.9-0.4,3.7-1.3c0.3-0.3,0.5-0.6,0.7-1c0.2,0.5,0.5,0.9,0.9,1.3c0.5,0.4,1,0.6,1.7,0.7c0.5,0.2,1.2,0.3,1.9,0.3
					c1.3,0,2.5-0.4,3.3-1c0.1-0.1,0.2-0.2,0.2-0.2c0.1,0.1,0.1,0.2,0.2,0.3c0.4,0.4,0.9,0.7,1.4,0.7c0.3,0.2,0.6,0.2,0.9,0.2
					c1,0,1.8-0.7,2-1.7v-0.1c0.1,0.3,0.2,0.6,0.5,0.8c0.4,0.4,0.9,0.7,1.4,0.7c0.3,0.2,0.6,0.2,0.9,0.2c0.8,0,1.4-0.4,1.8-1.1
					l0.1,0.1c0.4,0.4,0.9,0.7,1.4,0.7c0.3,0.2,0.6,0.2,0.9,0.2c0.8,0,1.5-0.5,1.8-1.2c0.1,0.1,0.2,0.3,0.3,0.4
					c0.4,0.4,0.9,0.7,1.4,0.7c0.3,0.2,0.6,0.2,0.9,0.2c0.8,0,1.4-0.4,1.8-1.1l0.1,0.1c0.4,0.4,0.9,0.7,1.4,0.7
					c0.3,0.2,0.6,0.2,0.9,0.2c0.9,0,1.7-0.6,1.9-1.5c0.1,0.2,0.2,0.3,0.3,0.4c0.4,0.4,0.9,0.7,1.4,0.7c0.3,0.2,0.6,0.2,0.9,0.2
					c1,0,1.8-0.7,2-1.7l0.1-0.6c0.2,0.4,0.4,0.8,0.7,1.1c0.5,0.6,1.2,1,2.1,1.1c0.5,0.2,1.2,0.3,1.9,0.3c1.2,0,2.1-0.3,3-1
					c0.2-0.2,0.4-0.4,0.6-0.7c0.1,0.2,0.2,0.4,0.4,0.6c0.4,0.4,0.9,0.7,1.4,0.7c0.3,0.2,0.6,0.2,0.9,0.2c1,0,1.8-0.7,2-1.7l0.5-2.7
					c0.1-0.8,0.4-1.1,0.6-1.4c0.2-0.2,0.7-0.3,1.4-0.3h0.1c0.2,0,0.4-0.2,0.5-0.4L60.7,11.4C60.9,11.7,60.8,11.5,60.7,11.4z
					 M49.8,14.6L49.8,14.6L49.8,14.6L49.8,14.6z M43.9,11.6c0.4-0.1,0.9-0.2,1.5-0.4c0.1,0,0.1-0.1,0.2-0.1l0.2-0.2
					c0.1,0.1,0.3,0.1,0.4,0.1l0.4-0.1c0.5-0.2,1-0.3,1.5-0.6c0.1,0,0.2-0.1,0.2-0.2c0.1,0,0.2,0,0.3,0c0.3-0.1,0.6-0.2,0.8-0.3
					C50,9.7,50.5,9.5,51,9.3c0.1,0,0.1-0.1,0.2-0.1L51.3,9l0,0c0.1,0.1,0.3,0.1,0.4,0.1c0.8-0.2,1.5-0.3,2.2-0.4
					c-0.2,0.1-0.4,0.3-0.7,0.4c-0.1,0-0.1,0.1-0.2,0.2h-0.1c-0.1,0-0.1,0.1-0.2,0.1c-0.1,0.1-0.1,0.1-0.2,0.1
					c-0.1,0.1-0.2,0.1-0.3,0.2c-0.1,0.1-0.1,0.1-0.1,0.2c0,0-0.1,0-0.1,0.1l-0.2,0.2c-0.1,0.1-0.1,0.2-0.1,0.2
					c-0.1,0-0.1,0.1-0.1,0.1c-0.1,0.1-0.2,0.2-0.2,0.3s-0.1,0.1-0.1,0.2c-0.1,0.1-0.1,0.1-0.1,0.2c0,0-0.1,0-0.1,0.1c0,0,0,0,0,0.1
					c-0.1,0-0.1,0-0.2,0c-0.6-0.2-1.2-0.3-2-0.3c-1.6,0-2.8,0.6-3.7,1.7c-0.1,0-0.2,0.2-0.2,0.3c-0.1-0.4-0.3-0.8-0.6-1.1
					C44.2,11.8,44.1,11.7,43.9,11.6z M48.9,17.3L48.9,17.3L48.9,17.3C49,17.3,49,17.3,48.9,17.3z M52.4,17.3L52.4,17.3
					C52.4,17.2,52.4,17.2,52.4,17.3l0.3-0.1v0.1H52.4z M10,12.8l-0.3,1.9c-0.3-0.6-0.9-1.2-1.3-1.7l-0.2-0.2c-0.7-0.7-0.8-1-0.8-1.2
					v-0.1c0.1,0,0.2,0,0.3-0.1c0.1,0,0.2,0,0.2,0c0.1,0,0.1,0,0.2,0c0.2,0.1,0.3,0.1,0.5,0.3c0.1,0.1,0.3,0.2,0.5,0.3
					c0.1,0.1,0.3,0.1,0.4,0c0.1,0.1,0.3,0.2,0.4,0.2c0.1,0,0.2,0,0.3,0C10.1,12.4,10,12.6,10,12.8z"/>
			</g>
			<g>
				<path class="st0" d="M50,26.5c-0.6-0.2-1.2-0.3-1.8-0.3c-1.6,0-2.8,0.6-3.7,1.7l0,0l0.6-3.7c0.1-0.6,0-1.3-0.4-1.7
					c-0.3-0.4-0.9-0.7-1.4-0.7c-0.3-0.2-0.6-0.2-0.9-0.2c-1,0-2,0.7-2.1,1.7l-0.7,4.3c-0.1-0.1-0.2-0.2-0.3-0.3
					c-0.3-0.3-0.7-0.5-1.2-0.5c-0.3-0.2-0.7-0.3-1.2-0.2h-1.3c-0.2,0-0.3,0.1-0.4,0.2c-0.2-0.1-0.3-0.1-0.5-0.1
					c-0.4-0.2-0.8-0.2-1.2-0.2c-1.2,0-2.3,0.7-3.1,2c-0.2,0.4-0.4,0.8-0.6,1.2c-0.3-0.5-0.8-1-1.1-1.3L28.6,28
					c-0.7-0.7-0.8-1-0.8-1.2v-0.1c0.1,0,0.1,0,0.2,0c0.2,0,0.4,0,0.6,0c0.1,0.1,0.3,0.1,0.5,0.2c0.1,0.1,0.3,0.2,0.5,0.3
					c0.1,0.1,0.3,0.1,0.4,0c0.1,0.1,0.3,0.2,0.4,0.2c0.1,0.1,0.3,0.1,0.4,0s0.2-0.2,0.3-0.4l0.5-3.2c0-0.2-0.1-0.4-0.3-0.5
					c-0.5-0.2-1-0.5-1.6-0.6c-0.1,0-0.2,0-0.3-0.1c-0.2-0.1-0.3-0.1-0.5-0.2c-0.5-0.1-1-0.2-1.6-0.2c-1.4,0-2.6,0.4-3.5,1.2
					c-0.9,0.8-1.3,1.8-1.3,3.3c0,0.6,0.1,1.2,0.4,1.7c0.3,0.6,0.7,1.1,1.4,1.6c0.4,0.4,0.8,0.8,1,1c0.1,0.2,0.2,0.5,0.2,0.6
					c0,0.2-0.1,0.3-0.2,0.5c-0.1,0.1-0.1,0.1-0.5,0.1c-0.1,0-0.3,0-0.4-0.1c-0.4-0.2-0.7-0.4-1-0.7c-0.1-0.1-0.3-0.1-0.5-0.1
					c0,0,0,0-0.1,0.1c-0.1-0.1-0.2-0.1-0.3-0.2c-0.1-0.1-0.3-0.1-0.5-0.1c-0.2,0.1-0.3,0.2-0.3,0.4L20.9,35c0,0.2,0,0.4,0.2,0.5
					c0.5,0.3,1,0.5,1.6,0.7c0.1,0,0.1,0,0.2,0c0.2,0.1,0.4,0.2,0.7,0.2c0.6,0.1,1.2,0.2,1.8,0.2c1.6,0,2.9-0.4,3.7-1.3
					c0.2-0.2,0.3-0.4,0.4-0.5c0.1,0.3,0.2,0.6,0.4,0.9c0.3,0.4,0.8,0.9,1.7,1c0.3,0.2,0.7,0.3,1.2,0.3s1-0.2,1.4-0.4
					c0.1,0,0.2-0.1,0.2-0.2h0.1v0.1c0.1,0.1,0.2,0.2,0.4,0.2h1.8c1.4,0.1,1.8-0.6,2-1.2c0,0.1,0.1,0.1,0.1,0.2
					c0.4,0.4,0.9,0.7,1.4,0.7c0.3,0.2,0.6,0.2,0.9,0.2c1,0,1.8-0.7,2-1.7l0.1-0.8c0.2,0.5,0.4,0.9,0.7,1.3c0.5,0.6,1.2,1,2.1,1.1
					c0.5,0.2,1.2,0.3,1.9,0.3c1.2,0,2.1-0.3,3-1c0.8-0.6,1.2-1.5,1.3-2.8c0-0.1,0-0.3-0.1-0.4c-0.1-0.1-0.2-0.2-0.4-0.2h-0.5v-0.1
					l0,0h0.9c0.3,0,0.5-0.2,0.5-0.5c0-0.1,0-0.3,0.1-0.4c0-0.2,0.1-0.4,0.1-0.6V30c0-1.1-0.3-1.9-1.1-2.7
					C51.4,26.9,50.7,26.7,50,26.5z M48.2,32.5L48.2,32.5L48.2,32.5C48.3,32.4,48.3,32.5,48.2,32.5z"/>
			</g>
		</g>
		<g>
			<g id="Texto_2_">
				<g>
					<path class="st11" d="M7.9,10.9c0.4,0,0.7,0.1,1.1,0.2s0.7,0.4,1.2,0.6l0.5-3.2c-0.6-0.2-1-0.4-1.6-0.5c-0.5-0.1-1-0.2-1.5-0.2
						c-1.3,0-2.3,0.4-3.2,1.1c-0.8,0.7-1.2,1.6-1.2,2.9c0,0.6,0.1,1.1,0.4,1.5c0.2,0.5,0.6,0.9,1.3,1.5C5.4,15.3,5.7,15.6,6,16
						c0.1,0.2,0.2,0.6,0.2,0.8c0,0.4-0.1,0.6-0.4,0.8c-0.2,0.2-0.5,0.2-0.8,0.2c-0.4,0-0.8-0.1-1.3-0.2c-0.5-0.2-0.8-0.5-1.3-0.8
						l-0.6,3.4c0.4,0.2,0.8,0.5,1.4,0.6S4.4,21,5,21c1.4,0,2.6-0.4,3.4-1.2c0.8-0.8,1.3-1.9,1.3-3.2c0-0.6-0.1-1.2-0.4-1.6
						S8.6,14,8,13.4c0,0-0.1-0.1-0.2-0.2c-0.7-0.7-0.9-1.2-0.9-1.5c0-0.2,0.1-0.5,0.2-0.6C7.4,11,7.7,10.9,7.9,10.9z"/>
				</g>
				<g>
					<path class="st11" d="M17.1,12L17.1,12c-0.8,0-1.4,0.6-1.5,1.3l-0.7,4.3c0,0.2-0.1,0.4-0.2,0.5c-0.1,0.1-0.4,0.2-0.5,0.2
						s-0.4,0-0.4-0.1c-0.1-0.1-0.1-0.2-0.1-0.4v-0.1c0,0,0,0,0-0.1l0.6-3.9c0.1-0.9-0.6-1.9-1.5-1.9l0,0c-0.8,0-1.4,0.6-1.5,1.3
						l-0.6,4c0,0.2-0.1,0.4-0.1,0.6s0,0.4,0,0.6c0,0.8,0.4,1.5,0.9,2c0.6,0.5,1.4,0.7,2.5,0.7c1.3,0,2.3-0.4,3-0.9
						c0.7-0.6,1.2-1.6,1.4-2.9l0.6-3.5C18.8,12.9,18.1,12,17.1,12z"/>
				</g>
				<g>
					<path class="st11" d="M23,15c0.1-0.1,0.2-0.2,0.5-0.2c0.1,0,0.2,0,0.4,0.1C24,15,24,15.1,24,15.3c0,0,0,0.1,0,0.2v0.1L23.3,19
						c-0.1,0.9,0.6,1.9,1.5,1.9l0,0c0.8,0,1.4-0.6,1.5-1.3l0.6-3.9c0-0.2,0.1-0.5,0.2-0.7c0.1-0.1,0.2-0.2,0.5-0.2
						c0.1,0,0.2,0,0.4,0.1c0.1,0.1,0.1,0.2,0.1,0.4c0,0,0,0.1,0,0.2v0.1L27.5,19c-0.1,0.9,0.6,1.9,1.5,1.9l0,0
						c0.8,0,1.4-0.6,1.5-1.3l0.7-4.4c0-0.2,0.1-0.5,0.1-0.7s0-0.4,0-0.6c0-0.6-0.2-1.2-0.6-1.5c-0.4-0.4-0.9-0.6-1.6-0.6
						c-0.5,0-0.9,0.1-1.4,0.4s-0.7,0.6-0.9,1.2c0-0.5-0.2-0.8-0.6-1.2c-0.4-0.2-0.8-0.4-1.4-0.4c-0.5,0-0.8,0.1-1.3,0.2
						c-0.4,0.2-0.7,0.5-1.1,0.8l0.1-0.9H21c-0.8,0-1.5,0.6-1.6,1.4L18.5,19c-0.1,0.9,0.6,1.9,1.5,1.9c0.8,0,1.4-0.6,1.5-1.3l0.6-3.9
						C22.7,15.4,22.9,15.1,23,15z"/>
				</g>
				<g>
					<path class="st11" d="M40.4,15c0.1-0.1,0.2-0.2,0.5-0.2c0.1,0,0.2,0,0.4,0.1c0.1,0.1,0.1,0.2,0.1,0.4c0,0,0,0.1,0,0.2v0.1
						L40.7,19c-0.1,0.9,0.6,1.9,1.5,1.9l0,0c0.8,0,1.4-0.6,1.5-1.3l0.7-4.4c0-0.2,0.1-0.5,0.1-0.7s0-0.4,0-0.6
						c0-0.6-0.2-1.2-0.6-1.5c-0.4-0.4-0.9-0.6-1.6-0.6c-0.5,0-0.9,0.1-1.4,0.4c-0.4,0.2-0.7,0.6-0.9,1.2c-0.1-0.5-0.2-0.8-0.6-1.2
						c-0.1-0.1-0.6-0.2-1.2-0.2c-0.5,0-0.8,0.1-1.3,0.2c-0.4,0.2-0.7,0.5-1.1,0.8l0.1-0.9h-1.5c-1.3-0.1-1.6,0.5-1.6,1.4L32,19.1
						C31.9,20,32.6,21,33.5,21l0,0c0.8,0,1.4-0.6,1.5-1.3l0.6-3.9c0-0.4,0.1-0.5,0.2-0.7c0.1-0.1,0.2-0.2,0.5-0.2
						c0.1,0,0.2,0,0.4,0.1c0.1,0.1,0.1,0.2,0.1,0.4c0,0,0,0.1,0,0.2v0.1l-0.6,3.4C36.1,20,36.8,21,37.7,21l0,0
						c0.8,0,1.4-0.6,1.5-1.3l0.6-3.9C40.3,15.4,40.3,15.1,40.4,15z"/>
				</g>
				<g>
					<path class="st11" d="M49.7,11.7c-1.4,0-2.5,0.5-3.3,1.5c-0.8,1.1-1.2,2.3-1.2,4c0,1.3,0.4,2.2,0.9,2.9s1.5,1.1,2.8,1.1
						c1.2,0,2-0.4,2.7-0.9c0.7-0.6,1.1-1.4,1.2-2.5h-2.7c0,0.4-0.1,0.6-0.2,0.7c-0.1,0.1-0.4,0.2-0.7,0.2c-0.2,0-0.5-0.1-0.6-0.2
						s-0.2-0.4-0.2-0.7c0-0.1,0-0.2,0-0.4c0-0.1,0-0.4,0.1-0.7h4.7c0-0.4,0.1-0.7,0.1-1.1s0-0.6,0-0.8c0-1.1-0.4-1.8-0.9-2.3
						C51.7,12,50.9,11.7,49.7,11.7z M50.7,14.9c0,0.1,0,0.2,0,0.5h-1.9c0.1-0.6,0.2-0.9,0.5-1.2s0.5-0.4,0.7-0.4s0.5,0.1,0.6,0.2
						c0.1,0.1,0.2,0.4,0.2,0.7C50.7,14.8,50.7,14.8,50.7,14.9z"/>
				</g>
				<g>
					<path class="st11" d="M59,12.2c-0.5,0.2-0.8,0.6-1.2,1.1L58,12h-1.6c-1.4-0.1-1.5,0.2-1.6,1.4l-0.9,5.7
						C53.7,20,54.4,21,55.3,21l0,0c0.8,0,1.4-0.6,1.5-1.3l0.5-2.7c0.1-0.8,0.4-1.3,0.7-1.6s0.9-0.5,1.8-0.5h0.1l0.5-3.2
						C59.9,11.7,59.4,12,59,12.2z"/>
				</g>
				<g>
					<path class="st11" d="M28.4,26.1c0.4,0,0.7,0.1,1.1,0.2s0.7,0.4,1.2,0.6l0.5-3.2c-0.5-0.2-0.9-0.5-1.5-0.6
						c-0.5-0.1-0.9-0.2-1.5-0.2c-1.3,0-2.3,0.4-3.2,1.1c-0.8,0.7-1.2,1.6-1.2,2.9c0,0.6,0.1,1.1,0.4,1.5s0.6,0.9,1.3,1.5
						c0.5,0.5,0.8,0.8,1.1,1.2c0.1,0.2,0.2,0.6,0.2,0.8c0,0.4-0.1,0.6-0.4,0.8s-0.6,0.3-1,0.3s-0.8-0.1-1.3-0.2
						c-0.5-0.2-0.8-0.5-1.3-0.8l-0.6,3.4c0.4,0.2,0.8,0.5,1.4,0.6s1.2,0.2,1.8,0.2c1.4,0,2.6-0.4,3.4-1.2s1.3-1.9,1.3-3.2
						c0-0.6-0.1-1.2-0.4-1.6s-0.7-1.1-1.3-1.6c0,0-0.1-0.1-0.2-0.2c-0.7-0.7-0.9-1.2-0.9-1.5c0-0.2,0.1-0.5,0.2-0.6
						C27.8,26.2,28,26.1,28.4,26.1z"/>
				</g>
				<g>
					<path class="st11" d="M37.8,27.2h-1.3l-0.2,1.1c-0.2-0.5-0.5-0.7-0.8-0.9C35.1,27,34.8,27,34.4,27c-1.1,0-2,0.6-2.7,1.8
						c-0.7,1.2-1.1,2.7-1.1,4.6c0,0.9,0.2,1.8,0.6,2.3c0.4,0.6,0.9,0.8,1.6,0.8c0.4,0,0.8-0.1,1.2-0.4s0.7-0.5,1.2-0.9l-0.1,0.9H37
						c1.3,0.1,1.5-0.6,1.6-1.4l0.9-5.7C39.6,28.1,39,27,37.8,27.2z M35.5,32.8c-0.2,0.6-0.5,0.8-0.8,0.8c-0.2,0-0.4-0.1-0.5-0.2
						c-0.1-0.2-0.1-0.5-0.1-0.8c0-0.7,0.1-1.4,0.4-2s0.5-0.8,0.8-0.8c0.2,0,0.4,0.1,0.5,0.2s0.1,0.5,0.1,0.8
						C35.8,31.5,35.7,32.2,35.5,32.8z"/>
				</g>
				<g>
					<path class="st11" d="M43.2,22.2L43.2,22.2c-0.8,0-1.5,0.6-1.6,1.3L40,34.1C39.9,35,40.6,36,41.5,36l0,0c0.8,0,1.4-0.6,1.5-1.3
						l1.6-10.6C44.8,23.1,44.1,22.2,43.2,22.2z"/>
				</g>
				<g>
					<path class="st11" d="M49,26.9c-1.4,0-2.5,0.5-3.3,1.5c-0.8,1.1-1.2,2.3-1.2,4c0,1.3,0.4,2.2,0.9,2.9s1.5,1.1,2.8,1.1
						c1.2,0,2-0.4,2.7-0.9c0.7-0.6,1.1-1.4,1.2-2.5h-2.7c0,0.4-0.1,0.6-0.2,0.7c-0.1,0.1-0.4,0.2-0.7,0.2c-0.2,0-0.5-0.1-0.6-0.2
						c-0.1-0.1-0.2-0.4-0.2-0.7c0-0.1,0-0.2,0-0.4c0-0.1,0-0.4,0.1-0.7h4.7c0-0.4,0.1-0.7,0.1-1.1s0-0.6,0-0.8
						c0-1.1-0.4-1.8-0.9-2.3C51,27.3,50.1,26.9,49,26.9z M49.8,30.1c0,0.1,0,0.2,0,0.5H48c0.1-0.6,0.2-0.9,0.5-1.2
						c0.2-0.2,0.5-0.4,0.7-0.4s0.5,0.1,0.6,0.2s0.2,0.4,0.2,0.7C49.8,30,49.8,30.1,49.8,30.1z"/>
				</g>
			</g>
			<g id="Texto_1_">
				<g>
					<path class="st12" d="M7,10.7c0.4,0,0.7,0.1,1.1,0.2c0.4,0.1,0.7,0.4,1.2,0.6l0.5-3.2c-0.5-0.2-1-0.4-1.6-0.5
						C7.7,7.6,7.3,7.5,6.7,7.5c-1.3,0-2.3,0.4-3.2,1.1c-0.8,0.7-1.2,1.6-1.2,2.9c0,0.6,0.1,1.1,0.4,1.5C3,13.5,3.3,13.9,4,14.5
						c0.5,0.5,0.8,0.8,1.1,1.2c0.1,0.2,0.2,0.6,0.2,0.8c0,0.4-0.1,0.6-0.4,0.8c-0.2,0.2-0.5,0.2-0.8,0.2s-0.8-0.1-1.3-0.2
						c-0.5-0.2-0.8-0.5-1.3-0.8L1,19.9c0.4,0.2,0.8,0.5,1.4,0.6s1.2,0.2,1.8,0.2c1.4,0,2.6-0.4,3.4-1.2c0.8-0.8,1.3-1.9,1.3-3.2
						c0-0.6-0.1-1.2-0.4-1.6s-0.7-1.1-1.3-1.6c0,0-0.1-0.1-0.2-0.2c-0.8-0.7-1-1.2-1-1.5c0-0.2,0.1-0.5,0.2-0.6
						C6.6,10.8,6.8,10.7,7,10.7z"/>
				</g>
				<g>
					<path class="st12" d="M16.3,11.7L16.3,11.7c-0.8,0-1.4,0.6-1.5,1.3l-0.7,4.3c0,0.2-0.1,0.4-0.2,0.5c-0.1,0.1-0.4,0.2-0.5,0.2
						S13,18,13,17.9c-0.1-0.1-0.1-0.2-0.1-0.4v-0.1c0,0,0,0,0-0.1l0.6-3.9c0.1-0.9-0.6-1.9-1.5-1.9l0,0c-0.8,0-1.4,0.6-1.5,1.3
						l-0.6,4c0,0.2-0.1,0.4-0.1,0.6s0,0.4,0,0.6c0,0.8,0.4,1.5,0.9,2c0.6,0.5,1.4,0.7,2.5,0.7c1.3,0,2.3-0.4,3-0.9
						c0.7-0.6,1.2-1.6,1.4-2.9l0.6-3.5C17.9,12.7,17.2,11.7,16.3,11.7z"/>
				</g>
				<g>
					<path class="st12" d="M22.1,14.8c0.1-0.1,0.2-0.2,0.5-0.2c0.1,0,0.2,0,0.4,0.1c0,0.1,0,0.2,0,0.3c0,0,0,0.1,0,0.2v0.1l-0.6,3.4
						c-0.1,0.9,0.6,1.9,1.5,1.9l0,0c0.8,0,1.4-0.6,1.5-1.3l0.6-3.9c0-0.2,0.1-0.5,0.2-0.7c0.1-0.1,0.2-0.2,0.5-0.2
						c0.1,0,0.2,0,0.4,0.1c0.1,0.1,0.1,0.2,0.1,0.4c0,0,0,0.1,0,0.2v0.1l-0.6,3.4c-0.1,0.9,0.6,1.9,1.5,1.9l0,0
						c0.8,0,1.4-0.6,1.5-1.3l0.7-4.4c0-0.2,0.1-0.5,0.1-0.7s0-0.4,0-0.6c0-0.6-0.2-1.2-0.6-1.5c-0.4-0.4-0.9-0.6-1.6-0.6
						c-0.5,0-0.9,0.1-1.4,0.4S26.2,12.4,26,13c0-0.5-0.2-0.8-0.6-1.2c-0.4-0.2-0.8-0.4-1.4-0.4c-0.5,0-0.8,0.1-1.3,0.2
						c-0.4,0.2-0.7,0.5-1.1,0.8l0.1-0.9h-1.5c-0.8,0-1.5,0.6-1.6,1.4l-0.9,5.7c-0.1,0.9,0.6,1.9,1.5,1.9c0.8,0,1.4-0.6,1.5-1.3
						l0.6-3.9C21.9,15.1,22,14.9,22.1,14.8z"/>
				</g>
				<g>
					<path class="st12" d="M39.5,14.8c0.1-0.1,0.2-0.2,0.5-0.2c0.1,0,0.2,0,0.4,0.1c0.1,0.1,0.1,0.2,0.1,0.4c0,0,0,0.1,0,0.2v0.1
						l-0.6,3.4c-0.1,0.9,0.6,1.9,1.5,1.9l0,0c0.8,0,1.4-0.6,1.5-1.3l0.7-4.4c0-0.2,0.1-0.5,0.1-0.7s0-0.4,0-0.6
						c0-0.6-0.2-1.2-0.6-1.5c-0.4-0.4-0.9-0.6-1.6-0.6c-0.5,0-0.9,0.1-1.4,0.4c-0.4,0.2-0.7,0.6-0.9,1.2c-0.1-0.5-0.2-0.8-0.6-1.2
						c-0.1-0.1-0.6-0.2-1.2-0.2c-0.5,0-0.8,0.1-1.3,0.2c-0.4,0.2-0.7,0.5-1.1,0.8l0.1-0.9h-1.5c-1.3-0.1-1.6,0.5-1.6,1.4L31.1,19
						c-0.1,0.9,0.6,1.9,1.5,1.9l0,0c0.8,0,1.4-0.6,1.5-1.3l0.6-3.9c0-0.4,0.1-0.5,0.2-0.7c0.1-0.1,0.2-0.2,0.5-0.2
						c0.1,0,0.2,0,0.4,0.1c0.1,0.1,0.1,0.2,0.1,0.4c0,0,0,0.1,0,0.2v0.1L35.3,19c-0.1,0.9,0.6,1.9,1.5,1.9l0,0
						c0.8,0,1.4-0.6,1.5-1.3l0.6-3.9C39.4,15.1,39.4,14.9,39.5,14.8z"/>
				</g>
				<g>
					<path class="st12" d="M48.9,11.5c-1.4,0-2.5,0.5-3.3,1.5c-0.8,1.1-1.2,2.3-1.2,4c0,1.3,0.4,2.2,0.9,2.9
						c0.6,0.7,1.5,1.1,2.8,1.1c1.2,0,2-0.4,2.7-0.9c0.7-0.6,1.1-1.4,1.2-2.5h-2.7c0,0.4-0.1,0.6-0.2,0.7c-0.1,0.1-0.4,0.2-0.7,0.2
						c-0.2,0-0.5-0.1-0.6-0.2s-0.2-0.4-0.2-0.7c0-0.1,0-0.2,0-0.4c0-0.1,0-0.4,0.1-0.7h4.7c0-0.4,0.1-0.7,0.1-1.1c0-0.4,0-0.6,0-0.8
						c0-1.1-0.4-1.8-0.9-2.3C50.9,11.7,50,11.5,48.9,11.5z M49.8,14.6c0,0.1,0,0.2,0,0.5h-1.9c0.1-0.6,0.2-0.9,0.5-1.2
						c0.2-0.2,0.5-0.4,0.7-0.4s0.5,0.1,0.6,0.2c0.1,0.1,0.2,0.4,0.2,0.7C49.8,14.5,49.8,14.5,49.8,14.6z"/>
				</g>
				<g>
					<path class="st12" d="M58.1,12c-0.5,0.2-0.8,0.6-1.2,1.1l0.2-1.3h-1.6c-1.4-0.1-1.5,0.2-1.6,1.4L53,18.9
						c-0.1,0.9,0.6,1.9,1.5,1.9l0,0c0.8,0,1.4-0.6,1.5-1.3l0.5-2.7c0.1-0.8,0.4-1.3,0.7-1.6c0.4-0.4,0.9-0.5,1.8-0.5l0,0l0.5-3.2
						C59,11.5,58.6,11.7,58.1,12z"/>
				</g>
				<g>
					<path class="st12" d="M27.5,25.9c0.4,0,0.7,0.1,1.1,0.2s0.7,0.4,1.2,0.6l0.5-3.2c-0.5-0.2-0.9-0.5-1.5-0.6
						c-0.5-0.1-0.9-0.2-1.5-0.2c-1.3,0-2.3,0.4-3.2,1.1c-0.8,0.7-1.2,1.6-1.2,2.9c0,0.6,0.1,1.1,0.4,1.5c0.2,0.5,0.6,0.9,1.3,1.5
						c0.5,0.5,0.8,0.8,1.1,1.2c0.1,0.2,0.2,0.6,0.2,0.8c0,0.4-0.1,0.6-0.4,0.8s-0.5,0.2-0.8,0.2c-0.4,0-0.8-0.1-1.3-0.2
						c-0.5-0.2-0.8-0.5-1.3-0.8l-0.6,3.4c0.4,0.2,0.8,0.5,1.4,0.6s1.2,0.2,1.8,0.2c1.4,0,2.6-0.4,3.4-1.2s1.3-1.9,1.3-3.2
						c0-0.6-0.1-1.2-0.4-1.6s-0.7-1.1-1.3-1.6c0,0-0.1-0.1-0.2-0.2c-0.7-0.7-0.9-1.2-0.9-1.5c0-0.2,0.1-0.5,0.2-0.6
						C26.9,26,27.1,25.9,27.5,25.9z"/>
				</g>
				<g>
					<path class="st12" d="M37,26.9h-1.3L35.4,28c-0.2-0.5-0.5-0.7-0.8-0.9c-0.4-0.2-0.7-0.2-1.1-0.2c-1.1,0-2,0.6-2.7,1.8
						c-0.7,1.2-1.1,2.7-1.1,4.6c0,0.9,0.2,1.8,0.6,2.3c0.4,0.6,0.9,0.8,1.6,0.8c0.4,0,0.8-0.1,1.2-0.4s0.7-0.5,1.2-0.9L34.2,36h1.9
						c1.3,0.1,1.5-0.6,1.6-1.4l0.9-5.7C38.7,27.9,38.1,26.8,37,26.9z M34.6,32.5c-0.2,0.6-0.5,0.8-0.8,0.8c-0.2,0-0.4-0.1-0.5-0.2
						c-0.1-0.2-0.1-0.5-0.1-0.8c0-0.7,0.1-1.4,0.4-2s0.5-0.8,0.8-0.8c0.2,0,0.4,0.1,0.5,0.2s0.1,0.5,0.1,0.8
						C35,31.2,34.8,31.9,34.6,32.5z"/>
				</g>
				<g>
					<path class="st12" d="M42.3,22L42.3,22c-0.8,0-1.5,0.6-1.6,1.3l-1.6,10.6c-0.1,0.9,0.6,1.9,1.5,1.9l0,0c0.8,0,1.4-0.6,1.5-1.3
						l1.6-10.6C44,22.8,43.3,22,42.3,22z"/>
				</g>
				<g>
					<path class="st12" d="M48.2,26.7c-1.4,0-2.5,0.5-3.3,1.5c-0.8,1.1-1.2,2.3-1.2,4c0,1.3,0.4,2.2,0.9,2.9s1.5,1.1,2.8,1.1
						c1.2,0,2-0.4,2.7-0.9s1.1-1.4,1.2-2.5h-2.7c0,0.4-0.1,0.6-0.2,0.7c-0.1,0.1-0.4,0.2-0.7,0.2c-0.2,0-0.5-0.1-0.6-0.2
						c-0.1-0.1-0.2-0.4-0.2-0.7c0-0.1,0-0.2,0-0.4c0-0.1,0-0.4,0.1-0.7h4.7c0-0.4,0.1-0.7,0.1-1.1s0-0.6,0-0.8
						c0-1.1-0.4-1.8-0.9-2.3C50.2,27,49.2,26.7,48.2,26.7z M49,29.8c0,0.1,0,0.2,0,0.5h-1.9c0.1-0.6,0.2-0.9,0.5-1.2
						c0.2-0.2,0.5-0.4,0.7-0.4s0.5,0.1,0.6,0.2s0.2,0.4,0.2,0.7C49,29.7,49,29.8,49,29.8z"/>
				</g>
			</g>
			<g>
				<g>
					<path class="st5" d="M53.5,9.5h0.4l-0.8,0.3c-0.1,0.1-0.3,0.2-0.4,0.3l0.2,0.1l-0.4,0.1c-0.1,0.1-0.1,0.1-0.2,0.2l0.3,0.2
						L52,11c-0.1,0.1-0.2,0.3-0.3,0.4l0.3,0.1l-0.6,0.2c-0.1,0.1-0.1,0.1-0.1,0.3l0.8-0.3l-0.9,0.4c0,0.1-0.1,0.1-0.1,0.1h0.4
						L51,12.6c-0.1,0.1-0.1,0.3-0.1,0.3l0.4-0.1l-0.5,0.4c0,0.2,0,0.3,0,0.5l0.3-0.2l-0.2,0.7c0.1,0.8,0.4,1.2,0.4,1.2
						c0.6-4.4,4-6.5,5.6-7.2C56.8,8.3,55.3,8.3,53.5,9.5z"/>
				</g>
				<g>
					<path class="st5" d="M56.2,9l0.3,0.2c0.1-0.3,0.3-0.6,0.3-0.8c-1.5,0.7-4.9,2.8-5.6,7.2c0,0,0.4-0.3,1-1l0.1-0.6l0.2,0.3
						c0.1-0.1,0.3-0.3,0.4-0.4l-0.1-0.6l0.2,0.5c0.2-0.2,0.3-0.4,0.6-0.6l0.1-0.8l0.1,0.4c0.2-0.3,0.4-0.5,0.6-0.8l0.1-0.9l0.1,0.6
						c0.1-0.1,0.2-0.3,0.3-0.4v-0.6l0.3,0.3c0.3-0.4,0.6-0.8,0.8-1.2L56.2,9z"/>
				</g>
			</g>
			<g>
				<g>
					<path class="st5" d="M51.7,5.6l0.4,0.5l-1.2-0.5c-1,0-1.9,0.3-2.8,0.6l0.5,0.4l-1-0.2c-0.5,0.2-0.9,0.5-1.4,0.7l0.4,0.5
						l-0.9-0.2c-0.5,0.4-0.9,0.7-1.3,1L45,8.8L43.9,9c-1.5,1.5-1.8,2.7-1.8,2.7C50.8,4.4,55,7.5,56.7,8.4
						C55.2,6.5,53.3,5.7,51.7,5.6z"/>
				</g>
				<g>
					<path class="st5" d="M42.2,11.5c0,0,1.2-0.2,3.1-0.8l1.1-1l-0.3,0.8c0.6-0.2,1.3-0.4,1.9-0.7L48.5,9v0.7
						c0.3-0.1,0.6-0.2,0.8-0.3c0.6-0.2,1.1-0.4,1.5-0.6l0.8-1v0.8c3.1-0.8,5.1-0.4,5.1-0.4C55.1,7.3,50.8,4.2,42.2,11.5z"/>
				</g>
			</g>
		</g>
		<g>
			<g id="Tabla_de_surf_copia_2_3_">
				<g>
					<g>
						<path class="st13" d="M45.4,25.1c0.2,3.9-0.8,7.5-2,11.1c-1.5,0.8-3.9,0.6-5.5,0.4c-0.2,0-0.5-0.1-0.6-0.2c0-0.1,0-0.4,0-0.5
							c0.7-4.4,1.5-8.8,3.4-12.9c0.6-1.4,1.4-2.7,2.7-3.5c0.2-0.1,0.4-0.2,0.6-0.2c0.4,0,0.6,0.5,0.7,0.8
							C45.2,21.6,45.4,23.3,45.4,25.1z"/>
						<path class="st0" d="M40.6,37.3c-0.9,0-1.9-0.1-2.7-0.2l0,0c-0.3,0-0.6-0.1-0.8-0.4C37,36.6,37,36.5,37,36.4v-0.5
							c0.7-4.3,1.5-8.8,3.4-13.1c0.7-1.7,1.7-2.9,2.9-3.7c0.1-0.1,0.1-0.1,0.2-0.1c0.2-0.1,0.4-0.2,0.7-0.2c0.5,0,0.9,0.4,1.2,1.1
							c0.5,1.5,0.7,3.3,0.7,5.2c0.2,3.9-0.8,7.6-2,11.3c0,0.1-0.1,0.2-0.2,0.3C42.8,37.1,41.7,37.3,40.6,37.3z M37.8,36L37.8,36
							c1.8,0.2,3.8,0.4,5.2-0.2c1.1-3.5,2.1-7,1.9-10.7l0,0c0-1.7-0.2-3.4-0.7-4.9c-0.1-0.3-0.2-0.5-0.3-0.5c0,0,0,0-0.1,0.1
							c-0.1,0-0.1,0.1-0.2,0.1c-1,0.6-1.8,1.7-2.5,3.3c-1.9,4.2-2.7,8.6-3.4,12.7L37.8,36z M43.4,36.2L43.4,36.2L43.4,36.2z
							 M45.9,25.1L45.9,25.1L45.9,25.1z"/>
					</g>
					<g>
						<path class="st14" d="M42.7,36.4c0.2,0,0.5-0.1,0.7-0.2c1.2-3.6,2.2-7.2,2-11.1c-0.1-1.8-0.4-3.4-0.8-5c0-0.2,0-0.4-0.1-0.5
							c0.1,0.5,0.2,1.1,0.4,1.6c0.7,4.3-0.4,8.8-1.4,13c-0.1,0.5-0.2,0.9-0.4,1.4C43.1,36,43,36.2,42.7,36.4z"/>
						<path class="st0" d="M42.7,36.9c-0.2,0-0.4-0.1-0.4-0.3c-0.1-0.2,0-0.4,0.1-0.5c0.2-0.2,0.2-0.3,0.2-0.5v-0.1l0.4-1.4
							c0.9-3.7,2.1-8.4,1.4-12.8c-0.1-0.6-0.2-1.1-0.3-1.6c-0.1-0.2,0-0.4,0.2-0.5s0.4-0.1,0.6,0.1c0.2,0.2,0.3,0.5,0.3,0.7
							c0.4,1.5,0.7,3.1,0.8,5.1c0.2,3.9-0.8,7.6-2,11.3c0,0.1-0.1,0.2-0.2,0.3C43.4,36.8,43.1,36.9,42.7,36.9z"/>
					</g>
					<g>
						<path class="st15" d="M40,29.2c0,0.2,0.1,0.5,0.2,0.6c0.5,0.7,1.1,1.5,1.5,2.3c0.2,0.4,0.5,0.8,0.8,1.1c0.2-0.2,0.1-0.6,0-0.8
							c-0.5-0.7-0.7-1.5-1.1-2.2c0-0.1-0.1-0.4,0-0.5c0-0.1,0.2-0.2,0.5-0.2c0.1,0,0.4,0,0.6,0c0.1-0.1,0.2-0.1,0.2-0.2s0-0.1,0-0.2
							c0-0.2-0.2-0.6-0.4-0.8c-0.5-0.6-0.7-1.3-0.9-2c-0.1-0.2-0.1-0.5,0-0.6c0.2-0.2,0.8-0.1,0.9-0.5c0.1-0.1,0-0.4,0-0.5
							c-0.1-0.6-0.5-1.1-0.8-1.5c-0.2-0.4-0.4-0.6-0.6-0.9c-0.1,0.2-0.2,0.5-0.4,0.7c0.1,0.2,0.4,0.6,0.4,0.9
							c0.1,0.1,0.1,0.4-0.1,0.6c-0.1,0.1-0.4,0.1-0.6,0.2c-0.2,0.1-0.4,0.5-0.4,0.7s0.1,0.5,0.2,0.7c0.4,0.7,0.6,1.3,0.8,2
							c0,0,0,0.1,0,0.2s-0.2,0.2-0.4,0.2s-0.4,0-0.5,0.1C40,28.7,40,29,40,29.2z"/>
						<path class="st0" d="M42.6,33.6c-0.1,0-0.2,0-0.3-0.1c-0.4-0.2-0.6-0.6-0.8-1l-0.1-0.2c-0.4-0.6-0.8-1.3-1.2-1.8L39.9,30
							c-0.2-0.2-0.3-0.5-0.3-0.9c0-0.3,0-0.7,0.4-1c0.2-0.1,0.4-0.2,0.6-0.2c-0.2-0.7-0.4-1.2-0.7-1.8c-0.1-0.3-0.3-0.6-0.3-0.9
							c0-0.4,0.2-0.9,0.6-1.1c0.1-0.1,0.3-0.1,0.4-0.1h0.1c0-0.1-0.1-0.1-0.1-0.2c0-0.2-0.1-0.4-0.2-0.6L40.3,23
							c-0.1-0.1-0.1-0.3,0-0.4l0.4-0.7c0.1-0.2,0.2-0.3,0.4-0.3s0.3,0.1,0.4,0.2c0.1,0.2,0.2,0.3,0.3,0.5c0.1,0.1,0.2,0.3,0.3,0.4
							c0.4,0.5,0.8,1,0.9,1.7l-0.5,0.2l0.5-0.1c0,0.1,0.1,0.4-0.1,0.7c-0.2,0.4-0.6,0.5-0.8,0.5H42l0,0c0.3,0.7,0.5,1.4,0.9,1.9
							c0,0,0,0.1,0.1,0.1l0.1,0.2c0.1,0.3,0.3,0.6,0.3,0.9V29c0,0.3-0.3,0.5-0.3,0.5c-0.1,0.1-0.3,0.2-0.4,0.2H42l0,0v0.1
							c0.1,0.2,0.2,0.5,0.3,0.8c0.2,0.5,0.4,0.9,0.7,1.3c0.4,0.8,0.1,1.2-0.1,1.4C42.9,33.6,42.7,33.6,42.6,33.6z M41.7,23.9
							c0,0.3,0,0.6-0.3,0.9C41.2,24.9,41,25,40.8,25c-0.1,0-0.1,0-0.2,0.1c0,0-0.1,0.2-0.1,0.3c0,0.1,0.1,0.3,0.2,0.5
							c0.3,0.7,0.6,1.3,0.8,2.1c0,0,0,0.1,0,0.2v0.2c0,0.4-0.5,0.7-0.8,0.7c0,0-0.1,0-0.2,0c0,0,0,0.1,0,0.2s0.1,0.2,0.1,0.2L41,30
							c0,0,0,0,0,0.1c0-0.2-0.1-0.4,0-0.6c0.1-0.3,0.5-0.5,0.9-0.5h0.3c0-0.1-0.1-0.3-0.2-0.4l-0.1-0.1c-0.5-0.6-0.7-1.4-1-2.1
							c-0.2-0.4-0.2-0.8,0.1-1.1c0.2-0.2,0.5-0.3,0.7-0.3c0,0,0.1,0,0.2,0c0-0.1,0-0.2,0-0.3C42,24.4,41.8,24.1,41.7,23.9z"/>
					</g>
					<g>
						<path class="st16" d="M37.5,36.2c0.1,0.1,0.4,0.2,0.6,0.2c1.3,0.2,2.9,0.4,4.3,0.1c0-0.8-0.1-1.3-0.5-2
							c-0.9-1.6-2.2-3-3.3-4.7c-0.1,0-0.1-0.1-0.1-0.1c-0.5,2-0.8,4-1.1,6C37.5,35.9,37.4,36.1,37.5,36.2z"/>
						<path class="st0" d="M40.7,37.2c-0.9,0-1.8-0.1-2.7-0.3c-0.2,0-0.6-0.1-0.8-0.4l0,0c-0.3-0.3-0.2-0.6-0.2-0.8
							c0.2-2.1,0.6-4.1,1.1-6.1c0.1-0.2,0.3-0.4,0.5-0.4c0.1,0,0.3,0.1,0.3,0.2c0.1,0,0.1,0.1,0.1,0.1c0.5,0.7,1,1.4,1.4,2
							c0.6,0.8,1.3,1.7,1.8,2.7c0.4,0.8,0.5,1.3,0.5,2.2c0,0.2-0.2,0.4-0.4,0.5C41.9,37.1,41.3,37.2,40.7,37.2z M37.9,35.9
							L37.9,35.9c1.5,0.2,2.8,0.3,3.9,0.2c0-0.5-0.1-0.8-0.4-1.4c-0.5-0.9-1.1-1.7-1.8-2.5c-0.3-0.4-0.6-0.9-1-1.3
							c-0.3,1.6-0.6,3.3-0.8,4.9C38,35.8,37.9,35.9,37.9,35.9z M38.6,29.4L38.6,29.4L38.6,29.4z"/>
					</g>
					<g>
						<path class="st17" d="M43.4,24c0.2,0.5,0.4,1.1,0,1.5c-0.1,0.1-0.4,0.2-0.5,0.5c-0.2,0.2-0.2,0.6-0.1,0.8
							c0.1,0.4,0.2,0.6,0.5,0.8c0.1,0.1,0.4,0.4,0.6,0.5c0.2-0.4-0.1-0.9-0.1-1.4s0.4-0.8,0.6-1.3c0.2-0.6,0.2-1.2,0.1-1.8
							C44.4,23,44,22.5,43.8,22c-0.4-0.7-0.8-1.4-1.2-2.1c-0.4,0.5-0.7,0.9-1.1,1.4c0.2,0.5,0.7,0.9,0.9,1.3
							C42.9,23.1,43.2,23.6,43.4,24z"/>
						<path class="st0" d="M43.9,28.6c-0.1,0-0.1,0-0.2-0.1c-0.3-0.1-0.6-0.4-0.7-0.6c-0.3-0.3-0.5-0.6-0.6-1
							c-0.2-0.3-0.2-0.8,0.2-1.3c0.1-0.2,0.3-0.4,0.4-0.5c0,0,0.1,0,0.1-0.1c0.2-0.3,0.1-0.7-0.1-1c-0.2-0.4-0.6-0.9-0.9-1.3
							c-0.1-0.1-0.2-0.3-0.3-0.4c-0.2-0.3-0.5-0.6-0.7-0.9c-0.1-0.2-0.1-0.4,0-0.5l1.1-1.4c0.1-0.1,0.3-0.2,0.4-0.2
							c0.2,0,0.3,0.1,0.4,0.3c0.2,0.3,0.4,0.7,0.6,1c0.2,0.4,0.4,0.7,0.6,1.1c0.1,0.2,0.2,0.4,0.3,0.6c0.2,0.3,0.4,0.7,0.4,1.1
							c0.1,0.8,0.1,1.4-0.1,2c-0.1,0.2-0.2,0.3-0.3,0.5c-0.2,0.2-0.3,0.4-0.3,0.6c0,0.1,0,0.3,0.1,0.4c0.1,0.4,0.2,0.8,0,1.2
							C44.2,28.5,44.1,28.6,43.9,28.6z M43.4,26.3C43.4,26.3,43.3,26.4,43.4,26.3c-0.1,0.1-0.1,0.3-0.1,0.3s0,0,0,0.1
							C43.3,26.6,43.3,26.4,43.4,26.3z M43,26L43,26L43,26z M42.1,21.4c0.1,0.2,0.3,0.4,0.4,0.5c0.1,0.2,0.3,0.3,0.4,0.5
							c0.3,0.5,0.7,0.9,1,1.5c0.1,0.2,0.2,0.4,0.2,0.6c0-0.2,0-0.4-0.1-0.6c-0.1-0.3-0.2-0.6-0.4-0.9c-0.1-0.2-0.2-0.4-0.3-0.7
							c-0.2-0.3-0.4-0.6-0.5-1c-0.1-0.1-0.2-0.3-0.2-0.4L42.1,21.4z"/>
					</g>
					<g class="st18">
						<path class="st0" d="M39,33.2c-0.7-0.1-0.5,1.2-0.5,1.5c0,0,0.1,0.1,0.1,0.2c0,0,0.1,0.1,0.2,0.1c0.1,0,0.2-0.1,0.2-0.2
							C39.3,34.4,39.7,33.2,39,33.2z"/>
						<path class="st0" d="M38.9,35.5c-0.3,0-0.5-0.2-0.6-0.3S38.2,35,38.2,35c-0.1-0.1-0.1-0.2-0.1-0.3c0,0,0-0.1,0-0.2
							c0-0.5-0.1-1.2,0.3-1.6c0.2-0.2,0.4-0.2,0.7-0.2s0.6,0.2,0.7,0.4c0.3,0.6,0,1.4-0.2,1.8C39.5,35.3,39.2,35.5,38.9,35.5z
							 M38.2,34.9L38.2,34.9L38.2,34.9z M39,33.6L39,33.6L39,33.6z M38.9,33.6L38.9,33.6L38.9,33.6L38.9,33.6L38.9,33.6z M38.9,33.6
							L38.9,33.6l0.1-0.4L38.9,33.6z"/>
					</g>
				</g>
			</g>
			<g id="Tabla_de_surf_copia_2_2_">
				<g>
					<g>
						<path class="st9" d="M45.4,25.1c0.2,3.9-0.8,7.5-2,11.1c-1.5,0.8-3.9,0.6-5.5,0.4c-0.2,0-0.5-0.1-0.6-0.2c0-0.1,0-0.4,0-0.5
							c0.7-4.4,1.5-8.8,3.4-12.9c0.6-1.4,1.4-2.7,2.7-3.5c0.2-0.1,0.4-0.2,0.6-0.2c0.4,0,0.6,0.5,0.7,0.8
							C45.2,21.6,45.4,23.3,45.4,25.1z"/>
					</g>
					<g>
						<path class="st14" d="M42.7,36.4c0.2,0,0.5-0.1,0.7-0.2c1.2-3.6,2.2-7.2,2-11.1c-0.1-1.8-0.4-3.4-0.8-5c0-0.2,0-0.4-0.1-0.5
							c0.1,0.5,0.2,1.1,0.4,1.6c0.7,4.3-0.4,8.8-1.4,13c-0.1,0.5-0.2,0.9-0.4,1.4C43.1,36,43,36.2,42.7,36.4z"/>
					</g>
					<g>
						<path class="st15" d="M40,29.2c0,0.2,0.1,0.5,0.2,0.6c0.5,0.7,1.1,1.5,1.5,2.3c0.2,0.4,0.5,0.8,0.8,1.1c0.2-0.2,0.1-0.6,0-0.8
							c-0.5-0.7-0.7-1.5-1.1-2.2c0-0.1-0.1-0.4,0-0.5c0-0.1,0.2-0.2,0.5-0.2c0.1,0,0.4,0,0.6,0c0.1-0.1,0.2-0.1,0.2-0.2s0-0.1,0-0.2
							c0-0.2-0.2-0.6-0.4-0.8c-0.5-0.6-0.7-1.3-0.9-2c-0.1-0.2-0.1-0.5,0-0.6c0.2-0.2,0.8-0.1,0.9-0.5c0.1-0.1,0-0.4,0-0.5
							c-0.1-0.6-0.5-1.1-0.8-1.5c-0.2-0.4-0.4-0.6-0.6-0.9c-0.1,0.2-0.2,0.5-0.4,0.7c0.1,0.2,0.4,0.6,0.4,0.9
							c0.1,0.1,0.1,0.4-0.1,0.6c-0.1,0.1-0.4,0.1-0.6,0.2c-0.2,0.1-0.4,0.5-0.4,0.7s0.1,0.5,0.2,0.7c0.4,0.7,0.6,1.3,0.8,2
							c0,0,0,0.1,0,0.2s-0.2,0.2-0.4,0.2s-0.4,0-0.5,0.1C40,28.7,40,29,40,29.2z"/>
					</g>
					<g>
						<path class="st17" d="M43.4,24c0.2,0.5,0.4,1.1,0,1.5c-0.1,0.1-0.4,0.2-0.5,0.5c-0.2,0.2-0.2,0.6-0.1,0.8
							c0.1,0.4,0.2,0.6,0.5,0.8c0.1,0.1,0.4,0.4,0.6,0.5c0.2-0.4-0.1-0.9-0.1-1.4s0.4-0.8,0.6-1.3c0.2-0.6,0.2-1.2,0.1-1.8
							C44.4,23,44,22.5,43.8,22c-0.4-0.7-0.8-1.4-1.2-2.1c-0.4,0.5-0.7,0.9-1.1,1.4c0.2,0.5,0.7,0.9,0.9,1.3
							C42.9,23.1,43.2,23.6,43.4,24z"/>
					</g>
					<g class="st18">
						<path class="st0" d="M39,33.2c-0.7-0.1-0.5,1.2-0.5,1.5c0,0,0.1,0.1,0.1,0.2c0,0,0.1,0.1,0.2,0.1c0.1,0,0.2-0.1,0.2-0.2
							C39.3,34.4,39.7,33.2,39,33.2z"/>
					</g>
				</g>
			</g>
		</g>
	</g>
</g>
</svg>
