<?xml version="1.0" encoding="utf-8"?>
<!-- Generator: Adobe Illustrator 23.0.2, SVG Export Plug-In . SVG Version: 6.00 Build 0)  -->
<svg version="1.1" id="Capa_1" xmlns="http://www.w3.org/2000/svg" xmlns:xlink="http://www.w3.org/1999/xlink" x="0px" y="0px"
	 width="73px" height="38px" viewBox="0 0 73 38" style="enable-background:new 0 0 73 38;" xml:space="preserve">
<style type="text/css">
	.st0{fill:#E8D3C5;}
	.st1{fill:#FFFFFF;}
	.st2{fill:#E91163;}
	.st3{fill:#FB1763;}
	.st4{fill:#FCA8A9;}
	.st5{fill:#FF3E84;}
	.st6{fill:#6B6B6B;}
	.st7{fill:#EAEAEA;}
	.st8{fill:#F8F8F8;}
	.st9{fill:none;stroke:#FFFFFF;stroke-width:3.5;stroke-linecap:round;stroke-linejoin:round;stroke-miterlimit:10;}
	.st10{fill:#00E9F5;}
	.st11{fill:#F1E8E9;}
	.st12{fill:#DC0D1E;}
	.st13{fill:#FF165F;stroke:#FFFFFF;stroke-linecap:round;stroke-linejoin:round;stroke-miterlimit:10;}
	.st14{fill:#B11650;stroke:#FFFFFF;stroke-linecap:round;stroke-linejoin:round;stroke-miterlimit:10;}
	.st15{fill:#FABF2E;stroke:#FFFFFF;stroke-linecap:round;stroke-linejoin:round;stroke-miterlimit:10;}
	.st16{fill:#FB1763;stroke:#FFFFFF;stroke-linecap:round;stroke-linejoin:round;stroke-miterlimit:10;}
	.st17{fill:#00E9F5;stroke:#FFFFFF;stroke-linecap:round;stroke-linejoin:round;stroke-miterlimit:10;}
	
		.st18{opacity:0.3;fill:#FFFFFF;stroke:#FFFFFF;stroke-linecap:round;stroke-linejoin:round;stroke-miterlimit:10;enable-background:new    ;}
	.st19{fill:#B11650;}
	.st20{fill:#FABF2E;}
	.st21{opacity:0.3;fill:#FFFFFF;enable-background:new    ;}
</style>
<g>
	<g>
		<g>
			<path class="st0" d="M58.2,37.3c-0.2,0-0.4-0.1-0.5-0.2c-0.4-0.2-0.7-0.7-0.9-1.7c-0.4-1.6-0.8-1.6-1-1.6c-0.3,0-0.8,0.2-1.1,0.4
				c-0.6,0.3-1.2,0.5-1.7,0.5s-0.8-0.2-0.9-0.4c-0.1-0.1-0.2-0.4-0.1-0.9c0-0.2,0.2-0.4,0.5-0.8c0.3-0.3,0.5-0.6,0.8-0.9
				c0.7-0.8,1-1.2,0.8-1.4c-0.1-0.2-0.3-0.4-0.6-0.7c-0.9-1-1.6-1.8-1.5-2.5c0-0.3,0.2-0.5,0.4-0.7c0.1-0.1,0.3-0.2,0.5-0.2
				c0.7,0,1.7,0.6,2.5,1.1c0.1,0.1,0.2,0.1,0.3,0.2c0.2,0.1,0.6,0.3,1,0.3c0.3,0,0.5-0.1,0.7-0.4l0.2-0.3c0.7-1,1.3-1.9,2-1.9
				c0.1,0,0.2,0,0.3,0c0.8,0.3,0.7,1.5,0.1,4.1v0.1c0.3,0.2,1.3,0.6,1.9,0.8c0.9,0.3,1.4,0.5,1.6,0.7c0.3,0.4,0.2,0.8,0.2,0.9
				c-0.4,0.8-2.1,0.9-3.1,0.9l0,0c-0.4,0-0.7,0-1-0.1c-0.1,0.3-0.1,1.2-0.1,1.7s0,0.9,0,1.3C59.2,36.8,58.7,37.3,58.2,37.3z"/>
			<path class="st1" d="M59.6,26L59.6,26c0.7,0.2-0.1,3-0.2,3.7c-0.2,0.8,3.2,1.5,3.6,1.9c0.6,0.7-1.1,1-2.6,1c-0.4,0-0.7,0-1.1-0.1
				l0,0c-0.8,0-0.4,2.2-0.5,3.4c0,0.4-0.3,0.8-0.6,0.8c-0.1,0-0.2,0-0.3-0.1c-0.2-0.1-0.4-0.4-0.7-1.4c-0.4-1.4-0.8-1.9-1.5-1.9
				c-0.4,0-0.8,0.2-1.4,0.5c-0.6,0.3-1.1,0.5-1.5,0.5s-0.7-0.2-0.5-0.6c0-0.1,0.1-0.3,0.4-0.6c1.1-1.3,2.2-2.1,1.6-2.9
				c-0.6-0.8-2.6-2.6-1.8-3.2c0.1,0,0.1-0.1,0.2-0.1c0.7,0,2.2,1,2.6,1.2c0.3,0.2,0.8,0.4,1.3,0.4c0.4,0,0.8-0.1,1.1-0.6
				C58.4,27.1,59,26,59.6,26 M59.6,25L59.6,25L59.6,25c-1,0-1.7,1-2.4,2.1L57,27.4c-0.1,0.1-0.1,0.1-0.3,0.1s-0.5-0.1-0.8-0.3
				c-0.1,0-0.1-0.1-0.3-0.2c-1.2-0.7-2.1-1.2-2.8-1.2c-0.4,0-0.7,0.1-0.8,0.2c-0.3,0.2-0.6,0.6-0.6,1c-0.1,0.9,0.6,1.8,1.6,2.9
				c0.2,0.2,0.3,0.4,0.4,0.5c-0.1,0.2-0.5,0.6-0.7,0.9s-0.5,0.6-0.8,0.9c-0.3,0.4-0.5,0.7-0.6,1c-0.2,0.6,0,1.1,0.2,1.3
				s0.5,0.6,1.3,0.6c0.6,0,1.2-0.2,1.9-0.6c0.6-0.3,0.8-0.3,0.9-0.3l0,0c0,0,0.2,0.2,0.5,1.2c0.2,0.9,0.6,1.7,1.2,2
				c0.2,0.2,0.5,0.2,0.8,0.2c0.8,0,1.5-0.7,1.6-1.7c0-0.4,0-0.9,0-1.3c0-0.3,0-0.8,0-1.1c0.2,0,0.4,0,0.6,0c2,0,3.2-0.4,3.6-1.2
				c0.2-0.5,0.1-1-0.3-1.4c-0.3-0.4-0.8-0.5-1.8-0.9c-0.4-0.1-1.1-0.4-1.5-0.6c0.6-2.4,0.8-4.1-0.4-4.5C59.9,25,59.7,25,59.6,25
				L59.6,25L59.6,25z"/>
		</g>
		<g>
			<g>
				<g>
					<path class="st2" d="M57.9,37c-0.6,0-1.1-0.6-1.5-1.9c-0.4-1.6-0.8-1.6-1-1.6c-0.3,0-0.8,0.2-1.1,0.4c-0.6,0.3-1.2,0.5-1.7,0.5
						c-0.6,0-0.9-0.3-1-0.5c-0.2-0.4,0-0.9,0.4-1.5c0.3-0.3,0.5-0.6,0.8-0.9c0.7-0.8,1-1.2,0.8-1.4c-0.1-0.2-0.3-0.4-0.6-0.7
						c-0.9-1-1.6-1.8-1.5-2.5c0-0.3,0.2-0.5,0.4-0.7c0.1-0.1,0.3-0.2,0.5-0.2c0.7,0,1.7,0.6,2.5,1.1c0.1,0.1,0.2,0.1,0.3,0.2
						c0.2,0.1,0.6,0.3,1,0.3c0.3,0,0.5-0.1,0.7-0.4l0.2-0.4c0.7-1,1.3-1.9,2-1.9c0.1,0,0.2,0,0.3,0c0.8,0.2,0.7,1.5,0.1,4.1v0.1
						c0.3,0.2,1.3,0.6,1.9,0.8c0.9,0.3,1.4,0.5,1.6,0.7c0.3,0.4,0.2,0.8,0.2,0.9c-0.4,0.8-2.1,0.9-3.1,0.9c-0.4,0-0.7,0-1-0.1
						C59,33,59,33.9,59,34.4s0,0.9,0,1.3C58.9,36.4,58.5,37,57.9,37z"/>
					<path class="st1" d="M59.3,25.6L59.3,25.6c0.7,0.2-0.1,3-0.2,3.7c-0.2,0.8,3.2,1.5,3.6,1.9c0.6,0.7-1.1,1-2.6,1
						c-0.4,0-0.7,0-1.1-0.1l0,0c-0.8,0-0.4,2.2-0.5,3.4c0,0.4-0.3,0.8-0.6,0.8s-0.7-0.4-1-1.5c-0.4-1.4-0.8-1.9-1.5-1.9
						c-0.4,0-0.8,0.2-1.4,0.5c-0.6,0.3-1.1,0.5-1.5,0.5c-0.6,0-0.8-0.4-0.2-1.2c1.1-1.3,2.2-2.1,1.6-2.9c-0.6-0.8-2.6-2.6-1.8-3.2
						c0.1,0,0.1-0.1,0.2-0.1c0.7,0,2.2,1,2.6,1.2c0.3,0.2,0.8,0.4,1.3,0.4c0.4,0,0.8-0.1,1.1-0.6C58.1,26.7,58.8,25.6,59.3,25.6
						 M59.3,24.6c-1,0-1.7,1-2.4,2.1L56.7,27c-0.1,0.1-0.1,0.1-0.3,0.1s-0.5-0.1-0.8-0.3c-0.1,0-0.1-0.1-0.3-0.2
						c-1.2-0.7-2.1-1.2-2.8-1.2c-0.4,0-0.7,0.1-0.8,0.2c-0.3,0.2-0.6,0.6-0.6,1c-0.1,0.9,0.6,1.8,1.6,2.9c0.2,0.2,0.3,0.4,0.4,0.5
						c-0.1,0.2-0.5,0.6-0.7,0.9s-0.5,0.6-0.8,0.9c-0.6,0.8-0.8,1.4-0.5,2c0.1,0.2,0.5,0.8,1.4,0.8c0.6,0,1.2-0.2,1.9-0.6
						c0.6-0.3,0.8-0.3,0.9-0.3l0,0c0,0,0.2,0.2,0.5,1.2c0.4,1.5,1.1,2.2,2,2.2c0.8,0,1.5-0.7,1.6-1.7c0-0.4,0-0.9,0-1.3
						c0-0.3,0-0.8,0-1.1c0.2,0,0.4,0,0.6,0c2,0,3.2-0.4,3.6-1.2c0.2-0.5,0.1-1-0.3-1.4c-0.3-0.4-0.8-0.5-1.8-0.9
						c-0.4-0.1-1.1-0.4-1.5-0.6c0.6-2.4,0.8-4.1-0.4-4.5C59.6,24.7,59.5,24.6,59.3,24.6L59.3,24.6z"/>
				</g>
				<g>
					<path class="st3" d="M57.7,36.8c-0.7,0-1-0.8-1.2-1.8c-0.5-1.4-0.8-2-1.2-2c-0.2,0-0.4,0.1-0.7,0.2c-1,0.5-1.8,0.8-2.2,0.8
						s-0.6-0.3-0.7-0.4c-0.2-0.4,0.1-0.9,0.4-1.3c0.3-0.3,0.5-0.6,0.8-0.9c0.7-0.8,1-1.2,0.8-1.4c-0.1-0.2-0.3-0.4-0.6-0.7
						c-0.9-1-1.6-1.8-1.5-2.5c0-0.3,0.2-0.5,0.4-0.7c0.1-0.1,0.3-0.1,0.4-0.1c0.6,0,1.3,0.6,2.2,1.4c0.2,0.2,0.5,0.4,0.6,0.5
						c0.2,0.1,0.5,0.2,0.7,0.2c0.3,0,0.6-0.1,1.2-0.9l0.2-0.4c0.7-1,1.3-1.9,2-1.9c0.1,0,0.2,0,0.3,0c0.2,0.1,0.3,0.2,0.4,0.3
						c0.2,0.5-0.1,1.4-0.8,3.2c-0.2,0.4-0.3,0.8-0.4,1c0.3,0.2,1.3,0.5,1.9,0.6c1.1,0.3,1.6,0.4,1.8,0.7c0.3,0.4,0.2,0.8,0.2,0.9
						c-0.1,0.2-0.4,0.8-2.8,0.8c-0.5,0-0.9,0-1.3-0.1c-0.1,0.3,0,0.9,0,1.3c0,0.5,0.1,1.1,0.1,1.5C58.5,36.4,58.2,36.8,57.7,36.8
						L57.7,36.8z"/>
					<path class="st1" d="M59.3,25.6L59.3,25.6c0.7,0.2-0.9,3.3-1.1,4.1c-0.2,0.8,3.5,1.1,3.9,1.6c0.5,0.6-0.9,0.9-2.3,0.9
						c-0.5,0-1,0-1.4-0.1l0,0c-0.8,0-0.2,2.1-0.3,3.3c-0.1,0.5-0.2,0.9-0.4,0.9s-0.5-0.4-0.8-1.4c-0.5-1.6-0.9-2.5-1.7-2.5
						c-0.3,0-0.6,0.1-1,0.3c-0.8,0.4-1.6,0.8-2,0.8c-0.3,0-0.3-0.2,0.2-0.8c1.1-1.3,2.2-2.1,1.6-2.9c-0.6-0.8-2.6-2.6-1.8-3.2h0.1
						c0.6,0,2.2,1.7,2.6,1.8c0.3,0.2,0.6,0.2,0.9,0.2c0.6,0,1.1-0.4,1.6-1.1C58.1,26.7,58.8,25.6,59.3,25.6 M59.3,24.6
						c-1,0-1.7,1-2.4,2.1L56.7,27c-0.4,0.6-0.7,0.6-0.8,0.6s-0.3,0-0.4-0.1c-0.1-0.1-0.3-0.3-0.5-0.4c-1.1-0.9-1.8-1.5-2.6-1.5
						c-0.3,0-0.5,0.1-0.7,0.2c-0.3,0.2-0.6,0.6-0.6,1c-0.1,0.9,0.6,1.8,1.6,2.9c0.2,0.2,0.3,0.4,0.4,0.5c-0.1,0.2-0.5,0.6-0.7,0.9
						s-0.5,0.6-0.8,0.9s-0.9,1-0.5,1.8c0.2,0.4,0.6,0.7,1.1,0.7c0.2,0,0.8,0,2.4-0.9c0.3-0.2,0.5-0.2,0.5-0.2c0.1,0,0.3,0.3,0.7,1.8
						c0.2,0.7,0.6,2.1,1.7,2.1c0.3,0,1.3-0.1,1.4-1.8c0-0.5,0-1.1-0.1-1.6c0-0.2,0-0.5-0.1-0.8c0.3,0,0.6,0,0.9,0
						c2.5,0,3.1-0.6,3.3-1.1c0.2-0.5,0.1-1-0.3-1.4s-0.9-0.6-2.1-0.8c-0.4-0.1-1-0.2-1.4-0.4c0.1-0.2,0.2-0.4,0.2-0.6
						c0.8-2,1.1-2.9,0.8-3.6c-0.1-0.3-0.4-0.5-0.7-0.6C59.6,24.7,59.5,24.6,59.3,24.6L59.3,24.6z"/>
				</g>
			</g>
			<g>
				<g>
					<path class="st4" d="M57.4,29.6c-0.1,0-0.2,0-0.3-0.1c-0.4-0.2-0.5-0.6-0.4-1c0.1-0.3,0.4-0.4,0.7-0.4c0.1,0,0.2,0,0.3,0.1
						c0.4,0.2,0.5,0.6,0.4,1C57.9,29.4,57.6,29.6,57.4,29.6z"/>
					<path class="st1" d="M57.4,28.6C57.4,28.6,57.4,28.7,57.4,28.6c0.2,0.1,0.2,0.2,0.2,0.3c0,0.1-0.1,0.1-0.2,0.1h-0.1
						c-0.1,0-0.2-0.2-0.1-0.3C57.2,28.7,57.3,28.6,57.4,28.6 M57.4,27.6c-0.5,0-0.9,0.3-1.1,0.7c-0.1,0.3-0.1,0.6,0,0.9
						s0.3,0.5,0.6,0.7c0.2,0.1,0.3,0.1,0.5,0.1c0.5,0,0.9-0.3,1.1-0.7c0.3-0.6,0-1.3-0.6-1.6C57.7,27.7,57.5,27.6,57.4,27.6
						L57.4,27.6z"/>
				</g>
				<g>
					<path class="st4" d="M55.9,30.1c-0.1,0-0.2,0-0.3-0.1c-0.4-0.2-0.5-0.6-0.4-1c0.1-0.3,0.4-0.4,0.7-0.4c0.1,0,0.2,0,0.3,0.1
						c0.4,0.2,0.5,0.6,0.4,1C56.5,30,56.2,30.1,55.9,30.1z"/>
					<path class="st1" d="M55.9,29.2C56,29.2,56,29.2,55.9,29.2c0.2,0.1,0.2,0.2,0.2,0.3c0,0.1-0.1,0.1-0.2,0.1h-0.1
						c-0.1,0-0.2-0.2-0.1-0.3C55.8,29.2,55.9,29.2,55.9,29.2 M55.9,28.2c-0.5,0-0.9,0.3-1.1,0.7c-0.3,0.6,0,1.3,0.6,1.6
						c0.2,0.1,0.3,0.1,0.5,0.1c0.5,0,0.9-0.3,1.1-0.7c0.3-0.6,0-1.3-0.6-1.6C56.3,28.2,56.1,28.2,55.9,28.2L55.9,28.2z"/>
				</g>
				<g>
					<path class="st4" d="M58.4,31.8c-0.1,0-0.2,0-0.3-0.1c-0.2-0.1-0.3-0.2-0.4-0.4c-0.1-0.2-0.1-0.4,0-0.5
						c0.1-0.3,0.4-0.4,0.7-0.4c0.1,0,0.2,0,0.3,0.1c0.4,0.2,0.5,0.6,0.4,1C58.9,31.7,58.7,31.8,58.4,31.8z"/>
					<path class="st1" d="M58.4,30.9L58.4,30.9c0.2,0.1,0.2,0.2,0.2,0.3c0,0.1-0.1,0.1-0.2,0.1h-0.1c-0.1,0-0.2-0.2-0.1-0.3
						C58.2,30.9,58.3,30.9,58.4,30.9 M58.4,29.9L58.4,29.9c-0.5,0-0.9,0.3-1.1,0.7c-0.1,0.3-0.1,0.6,0,0.9s0.3,0.5,0.6,0.7
						c0.2,0.1,0.3,0.1,0.5,0.1c0.5,0,0.9-0.3,1.1-0.7c0.3-0.6,0-1.3-0.6-1.6C58.7,29.9,58.6,29.9,58.4,29.9L58.4,29.9z"/>
				</g>
				<g>
					<path class="st4" d="M53.7,33.1c-0.1,0-0.2,0-0.3-0.1c-0.2-0.1-0.3-0.2-0.4-0.4c-0.1-0.2-0.1-0.4,0-0.5
						c0.1-0.3,0.4-0.4,0.7-0.4c0.1,0,0.2,0,0.3,0.1c0.4,0.2,0.5,0.6,0.4,1C54.3,32.9,54,33.1,53.7,33.1z"/>
					<path class="st1" d="M53.7,32.1C53.8,32.1,53.8,32.2,53.7,32.1c0.2,0.1,0.2,0.2,0.2,0.3s-0.1,0.1-0.2,0.1h-0.1
						c-0.1,0-0.2-0.2-0.1-0.3C53.6,32.2,53.7,32.1,53.7,32.1 M53.7,31.1c-0.5,0-0.9,0.3-1.1,0.7c-0.1,0.3-0.1,0.6,0,0.9
						s0.3,0.5,0.6,0.7c0.2,0.1,0.3,0.1,0.5,0.1c0.5,0,0.9-0.3,1.1-0.7c0.1-0.3,0.1-0.6,0-0.9c-0.1-0.3-0.3-0.5-0.6-0.7
						C54.1,31.2,53.9,31.1,53.7,31.1L53.7,31.1z"/>
				</g>
				<g>
					<path class="st4" d="M54.6,31c-0.1,0-0.2,0-0.3-0.1c-0.4-0.2-0.5-0.6-0.4-1c0.1-0.3,0.4-0.4,0.7-0.4c0.1,0,0.2,0,0.3,0.1
						c0.4,0.2,0.5,0.6,0.4,1C55.1,30.8,54.9,31,54.6,31z"/>
					<path class="st1" d="M54.6,30C54.6,30,54.6,30.1,54.6,30c0.2,0.1,0.2,0.2,0.2,0.3c0,0.1-0.1,0.1-0.2,0.1h-0.1
						c-0.1,0-0.2-0.2-0.1-0.3C54.4,30.1,54.5,30,54.6,30 M54.6,29c-0.5,0-0.9,0.3-1.1,0.7c-0.3,0.6,0,1.3,0.6,1.6
						c0.2,0.1,0.3,0.1,0.5,0.1c0.5,0,0.9-0.3,1.1-0.7c0.1-0.3,0.1-0.6,0-0.9s-0.3-0.5-0.6-0.7C54.9,29.1,54.7,29,54.6,29L54.6,29z"
						/>
				</g>
				<g>
					<path class="st4" d="M57.8,34.4c-0.1,0-0.2,0-0.3-0.1c-0.2-0.1-0.3-0.2-0.4-0.4c-0.1-0.2-0.1-0.4,0-0.5
						c0.1-0.3,0.4-0.4,0.7-0.4c0.1,0,0.2,0,0.3,0.1c0.4,0.2,0.5,0.6,0.4,1C58.3,34.3,58.1,34.4,57.8,34.4z"/>
					<path class="st1" d="M57.8,33.5L57.8,33.5c0.2,0.1,0.2,0.2,0.2,0.3s-0.1,0.1-0.2,0.1h-0.1c-0.1,0-0.2-0.2-0.1-0.3
						C57.6,33.5,57.7,33.5,57.8,33.5 M57.8,32.5c-0.5,0-0.9,0.3-1.1,0.7c-0.1,0.3-0.1,0.6,0,0.9c0.1,0.3,0.3,0.5,0.6,0.7
						c0.2,0.1,0.3,0.1,0.5,0.1c0.5,0,0.9-0.3,1.1-0.7c0.1-0.3,0.1-0.6,0-0.9c-0.1-0.3-0.3-0.5-0.6-0.7
						C58.1,32.5,57.9,32.5,57.8,32.5L57.8,32.5z"/>
				</g>
				<g>
					<path class="st4" d="M58.4,29.3c-0.1,0-0.2,0-0.3-0.1c-0.2-0.1-0.3-0.2-0.4-0.4c-0.1-0.2-0.1-0.4,0-0.5
						c0.1-0.3,0.4-0.4,0.7-0.4c0.1,0,0.2,0,0.3,0.1c0.2,0.1,0.3,0.2,0.4,0.4c0.1,0.2,0.1,0.4,0,0.5C58.9,29.2,58.7,29.3,58.4,29.3z"
						/>
					<path class="st1" d="M58.4,28.4L58.4,28.4c0.2,0.1,0.2,0.2,0.2,0.3c0,0.1-0.1,0.1-0.2,0.1h-0.1c-0.1-0.1-0.2-0.2-0.1-0.3
						C58.2,28.4,58.3,28.4,58.4,28.4 M58.4,27.4c-0.5,0-0.9,0.3-1.1,0.7c-0.3,0.6,0,1.3,0.6,1.6c0.2,0.1,0.3,0.1,0.5,0.1
						c0.5,0,0.9-0.3,1.1-0.7c0.1-0.3,0.1-0.6,0-0.9s-0.3-0.5-0.6-0.7C58.7,27.4,58.5,27.4,58.4,27.4L58.4,27.4z"/>
				</g>
				<g>
					<path class="st4" d="M58.6,28.5c-0.1,0-0.2,0-0.3-0.1c-0.3-0.1-0.5-0.5-0.3-0.9c0.1-0.2,0.3-0.4,0.6-0.4c0.1,0,0.2,0,0.3,0.1
						c0.3,0.1,0.5,0.5,0.3,0.9C59.1,28.3,58.9,28.5,58.6,28.5z"/>
					<path class="st1" d="M58.6,27.7C58.6,27.7,58.7,27.7,58.6,27.7c0.1,0,0.2,0.1,0.1,0.2c0,0.1-0.1,0.1-0.1,0.1s0,0-0.1,0
						s-0.1-0.1-0.1-0.2C58.5,27.7,58.6,27.7,58.6,27.7 M58.6,26.7c-0.4,0-0.9,0.3-1,0.7c-0.3,0.6,0,1.3,0.6,1.5
						c0.2,0.1,0.3,0.1,0.5,0.1c0.4,0,0.9-0.3,1-0.7c0.3-0.6,0-1.3-0.6-1.5C58.9,26.7,58.8,26.7,58.6,26.7L58.6,26.7z"/>
				</g>
				<g>
					<path class="st4" d="M57.8,30.7c-0.1,0-0.2,0-0.3-0.1c-0.2-0.1-0.3-0.2-0.3-0.4s-0.1-0.3,0-0.5s0.3-0.4,0.6-0.4
						c0.1,0,0.2,0,0.3,0.1c0.2,0.1,0.3,0.2,0.3,0.4c0.1,0.2,0.1,0.3,0,0.5C58.3,30.6,58,30.7,57.8,30.7z"/>
					<path class="st1" d="M57.8,29.9L57.8,29.9c0.1,0,0.2,0.1,0.1,0.2c0,0.1-0.1,0.1-0.1,0.1s0,0-0.1,0s-0.1-0.1-0.1-0.2
						C57.7,30,57.7,29.9,57.8,29.9 M57.8,28.9c-0.4,0-0.9,0.3-1,0.7c-0.1,0.3-0.1,0.6,0,0.9s0.3,0.5,0.6,0.6
						c0.2,0.1,0.3,0.1,0.5,0.1c0.4,0,0.9-0.3,1-0.7c0.1-0.3,0.1-0.6,0-0.9s-0.3-0.5-0.6-0.6C58.1,29,57.9,28.9,57.8,28.9L57.8,28.9z
						"/>
				</g>
				<g>
					<path class="st4" d="M58.3,27.6c-0.1,0-0.2,0-0.3-0.1c-0.3-0.1-0.5-0.5-0.3-0.9c0.1-0.2,0.3-0.4,0.6-0.4c0.1,0,0.2,0,0.3,0.1
						c0.3,0.1,0.5,0.5,0.3,0.9C58.7,27.4,58.5,27.6,58.3,27.6z"/>
					<path class="st1" d="M58.3,26.8L58.3,26.8c0.1,0,0.2,0.1,0.1,0.2c0,0.1-0.1,0.1-0.1,0.1s0,0-0.1,0s-0.1-0.1-0.1-0.2
						C58.2,26.8,58.2,26.8,58.3,26.8 M58.3,25.8c-0.4,0-0.9,0.3-1,0.7c-0.1,0.3-0.1,0.6,0,0.9s0.3,0.5,0.6,0.6
						c0.1,0.1,0.3,0.1,0.5,0.1c0.4,0,0.9-0.3,1-0.7c0.3-0.6,0-1.3-0.6-1.5C58.6,25.8,58.4,25.8,58.3,25.8L58.3,25.8z"/>
				</g>
				<g>
					<path class="st4" d="M53.5,29.3c-0.1,0-0.2,0-0.3-0.1c-0.2-0.1-0.3-0.2-0.3-0.4s-0.1-0.3,0-0.5s0.3-0.4,0.6-0.4
						c0.1,0,0.2,0,0.3,0.1c0.2,0.1,0.3,0.2,0.3,0.4c0.1,0.2,0.1,0.3,0,0.5C54,29.2,53.8,29.3,53.5,29.3z"/>
					<path class="st1" d="M53.5,28.5C53.6,28.5,53.6,28.5,53.5,28.5c0.1,0,0.2,0.1,0.1,0.2c0,0.1-0.1,0.1-0.1,0.1s0,0-0.1,0
						s-0.1-0.1-0.1-0.2C53.4,28.6,53.5,28.5,53.5,28.5 M53.5,27.5L53.5,27.5c-0.4,0-0.9,0.3-1,0.7c-0.3,0.6,0,1.3,0.6,1.5
						c0.1,0.1,0.3,0.1,0.5,0.1c0.4,0,0.9-0.3,1-0.7c0.1-0.3,0.1-0.6,0-0.9s-0.3-0.5-0.6-0.6C53.9,27.6,53.7,27.5,53.5,27.5
						L53.5,27.5z"/>
				</g>
				<g>
					<path class="st4" d="M54.1,32.2c-0.1,0-0.2,0-0.3-0.1c-0.2-0.1-0.3-0.2-0.3-0.4c-0.1-0.2-0.1-0.3,0-0.5s0.3-0.4,0.6-0.4
						c0.1,0,0.2,0,0.3,0.1c0.2,0.1,0.3,0.2,0.3,0.4c0.1,0.2,0.1,0.3,0,0.5C54.6,32.1,54.3,32.2,54.1,32.2z"/>
					<path class="st1" d="M54.1,31.4L54.1,31.4c0.1,0,0.2,0.1,0.1,0.2c0,0.1-0.1,0.1-0.1,0.1s0,0-0.1,0s-0.1-0.1-0.1-0.2
						C54,31.5,54,31.4,54.1,31.4 M54.1,30.4c-0.4,0-0.9,0.3-1,0.7c-0.3,0.6,0,1.3,0.6,1.5c0.1,0.1,0.3,0.1,0.5,0.1
						c0.4,0,0.9-0.3,1-0.7c0.1-0.3,0.1-0.6,0-0.9s-0.3-0.5-0.6-0.6C54.4,30.5,54.3,30.4,54.1,30.4L54.1,30.4z"/>
				</g>
				<g>
					<path class="st4" d="M57.2,35.2c-0.1,0-0.2,0-0.3-0.1c-0.2-0.1-0.3-0.2-0.3-0.4c-0.1-0.2-0.1-0.3,0-0.5s0.3-0.4,0.6-0.4
						c0.1,0,0.2,0,0.3,0.1c0.2,0.1,0.3,0.2,0.3,0.4c0.1,0.2,0.1,0.3,0,0.5S57.5,35.2,57.2,35.2z"/>
					<path class="st1" d="M57.2,34.4C57.3,34.4,57.3,34.4,57.2,34.4c0.1,0,0.2,0.1,0.1,0.2c0,0.1-0.1,0.1-0.1,0.1s0,0-0.1,0
						S57,34.6,57,34.5C57.1,34.4,57.2,34.4,57.2,34.4 M57.2,33.4c-0.4,0-0.9,0.3-1,0.7c-0.1,0.3-0.1,0.6,0,0.9
						c0.1,0.3,0.3,0.5,0.6,0.6c0.1,0.1,0.3,0.1,0.5,0.1c0.4,0,0.9-0.3,1-0.7c0.1-0.3,0.1-0.6,0-0.9c-0.1-0.3-0.3-0.5-0.6-0.6
						C57.6,33.4,57.4,33.4,57.2,33.4L57.2,33.4z"/>
				</g>
				<g>
					<path class="st4" d="M55.7,32.8c-0.1,0-0.2,0-0.3-0.1c-0.2-0.1-0.3-0.2-0.3-0.4c-0.1-0.2-0.1-0.3,0-0.5s0.3-0.4,0.6-0.4
						c0.1,0,0.2,0,0.3,0.1c0.2,0.1,0.3,0.2,0.3,0.4c0.1,0.2,0.1,0.3,0,0.5C56.2,32.6,56,32.8,55.7,32.8z"/>
					<path class="st1" d="M55.7,32C55.8,32,55.8,32,55.7,32c0.1,0,0.2,0.1,0.1,0.2c0,0.1-0.1,0.1-0.1,0.1s0,0-0.1,0
						s-0.1-0.1-0.1-0.2C55.6,32,55.7,32,55.7,32 M55.7,31L55.7,31c-0.4,0-0.9,0.3-1,0.7c-0.1,0.3-0.1,0.6,0,0.9
						c0.1,0.3,0.3,0.5,0.6,0.6c0.1,0.1,0.3,0.1,0.5,0.1c0.4,0,0.9-0.3,1-0.7c0.3-0.6,0-1.3-0.6-1.5C56.1,31,55.9,31,55.7,31L55.7,31
						z"/>
				</g>
				<g>
					<path class="st4" d="M60.2,31.6c-0.1,0-0.2,0-0.3-0.1c-0.2-0.1-0.3-0.2-0.3-0.4c-0.1-0.2-0.1-0.3,0-0.5s0.3-0.4,0.6-0.4
						c0.1,0,0.2,0,0.3,0.1c0.2,0.1,0.3,0.2,0.3,0.4c0.1,0.2,0.1,0.3,0,0.5C60.6,31.5,60.4,31.6,60.2,31.6z"/>
					<path class="st1" d="M60.2,30.9L60.2,30.9c0.1,0,0.2,0.1,0.1,0.2c0,0.1-0.1,0.1-0.1,0.1s0,0-0.1,0C60,31.1,60,31,60,30.9
						C60,30.9,60.1,30.9,60.2,30.9 M60.2,29.9c-0.4,0-0.9,0.3-1,0.7c-0.3,0.6,0,1.3,0.6,1.5c0.2,0.1,0.3,0.1,0.5,0.1
						c0.4,0,0.9-0.3,1-0.7c0.1-0.3,0.1-0.6,0-0.9S61,30.1,60.7,30C60.5,29.9,60.3,29.9,60.2,29.9L60.2,29.9z"/>
				</g>
				<g>
					<path class="st4" d="M59.4,32.2c-0.1,0-0.2,0-0.3-0.1c-0.3-0.1-0.5-0.5-0.3-0.9c0.1-0.2,0.3-0.4,0.6-0.4c0.1,0,0.2,0,0.3,0.1
						c0.2,0.1,0.3,0.2,0.3,0.4c0.1,0.2,0.1,0.3,0,0.5C59.9,32.1,59.7,32.2,59.4,32.2z"/>
					<path class="st1" d="M59.4,31.4C59.5,31.4,59.5,31.4,59.4,31.4c0.1,0,0.2,0.1,0.1,0.2c0,0.1-0.1,0.1-0.1,0.1s0,0-0.1,0
						s-0.1-0.1-0.1-0.2C59.3,31.5,59.4,31.4,59.4,31.4 M59.4,30.4c-0.4,0-0.9,0.3-1,0.7c-0.1,0.3-0.1,0.6,0,0.9s0.3,0.5,0.6,0.6
						c0.1,0.1,0.3,0.1,0.5,0.1c0.4,0,0.9-0.3,1-0.7c0.1-0.3,0.1-0.6,0-0.9s-0.3-0.5-0.6-0.6C59.8,30.5,59.6,30.4,59.4,30.4
						L59.4,30.4z"/>
				</g>
				<g>
					<path class="st4" d="M57.2,32.1c-0.1,0-0.2,0-0.3-0.1c-0.3-0.1-0.5-0.5-0.3-0.9c0.1-0.2,0.3-0.4,0.6-0.4c0.1,0,0.2,0,0.3,0.1
						c0.2,0.1,0.3,0.2,0.3,0.4c0.1,0.2,0.1,0.3,0,0.5C57.7,32,57.5,32.1,57.2,32.1z"/>
					<path class="st1" d="M57.2,31.3C57.2,31.3,57.3,31.3,57.2,31.3c0.1,0,0.2,0.1,0.1,0.2c0,0.1-0.1,0.1-0.1,0.1s0,0-0.1,0
						S57,31.5,57,31.4C57.1,31.3,57.2,31.3,57.2,31.3 M57.2,30.3c-0.4,0-0.9,0.3-1,0.7c-0.3,0.6,0,1.3,0.6,1.5
						c0.2,0.1,0.3,0.1,0.5,0.1c0.4,0,0.9-0.3,1-0.7c0.3-0.6,0-1.3-0.6-1.5C57.5,30.3,57.4,30.3,57.2,30.3L57.2,30.3z"/>
				</g>
				<g>
					<path class="st4" d="M55,32c-0.1,0-0.2,0-0.3-0.1c-0.2-0.1-0.3-0.2-0.4-0.4c-0.1-0.2-0.1-0.4,0-0.5c0.1-0.2,0.4-0.4,0.6-0.4
						c0.1,0,0.2,0,0.3,0.1c0.4,0.2,0.5,0.6,0.3,0.9C55.5,31.8,55.3,32,55,32z"/>
					<path class="st1" d="M55,31.1L55,31.1c0.2,0.1,0.2,0.2,0.2,0.3c0,0.1-0.1,0.1-0.2,0.1h-0.1c-0.1,0-0.1-0.2-0.1-0.3
						C54.8,31.2,54.9,31.1,55,31.1 M55,30.1c-0.5,0-0.9,0.3-1.1,0.7c-0.3,0.6,0,1.3,0.6,1.6c0.2,0.1,0.3,0.1,0.5,0.1
						c0.5,0,0.9-0.3,1.1-0.7c0.3-0.6,0-1.3-0.6-1.6C55.3,30.1,55.2,30.1,55,30.1L55,30.1z"/>
				</g>
				<g>
					<path class="st4" d="M56.7,33.5c-0.1,0-0.2,0-0.3-0.1c-0.3-0.2-0.5-0.6-0.3-0.9c0.1-0.2,0.4-0.4,0.6-0.4c0.1,0,0.2,0,0.3,0.1
						c0.2,0.1,0.3,0.2,0.4,0.4c0.1,0.2,0.1,0.4,0,0.5C57.2,33.3,57,33.5,56.7,33.5z"/>
					<path class="st1" d="M56.7,32.6C56.7,32.6,56.8,32.6,56.7,32.6c0.2,0.1,0.2,0.2,0.2,0.3S56.8,33,56.7,33h-0.1
						c-0.1,0-0.1-0.2-0.1-0.3C56.6,32.6,56.6,32.6,56.7,32.6 M56.7,31.6c-0.5,0-0.9,0.3-1.1,0.7c-0.1,0.3-0.1,0.6,0,0.9
						c0.1,0.3,0.3,0.5,0.6,0.7c0.2,0.1,0.3,0.1,0.5,0.1c0.5,0,0.9-0.3,1.1-0.7c0.1-0.3,0.1-0.6,0-0.9c-0.1-0.3-0.3-0.5-0.6-0.7
						C57,31.6,56.9,31.6,56.7,31.6L56.7,31.6z"/>
				</g>
				<g>
					<path class="st4" d="M56.1,31.1c-0.1,0-0.2,0-0.3-0.1c-0.3-0.2-0.5-0.6-0.3-0.9c0.1-0.2,0.4-0.4,0.6-0.4c0.1,0,0.2,0,0.3,0.1
						c0.3,0.2,0.5,0.6,0.3,0.9C56.6,31,56.3,31.1,56.1,31.1z"/>
					<path class="st1" d="M56.1,30.2L56.1,30.2c0.2,0.1,0.2,0.2,0.2,0.3c0,0.1-0.1,0.1-0.2,0.1H56c-0.1,0-0.1-0.2-0.1-0.3
						C55.9,30.3,56,30.2,56.1,30.2 M56.1,29.2c-0.5,0-0.9,0.3-1.1,0.7c-0.1,0.3-0.1,0.6,0,0.9s0.3,0.5,0.6,0.7
						c0.2,0.1,0.3,0.1,0.5,0.1c0.5,0,0.9-0.3,1.1-0.7c0.1-0.3,0.1-0.6,0-0.9s-0.3-0.5-0.6-0.7C56.4,29.3,56.2,29.2,56.1,29.2
						L56.1,29.2z"/>
				</g>
				<g>
					<path class="st4" d="M54.6,29.6c-0.1,0-0.2,0-0.3-0.1c-0.2-0.1-0.3-0.2-0.4-0.4c-0.1-0.2-0.1-0.4,0-0.5
						c0.1-0.2,0.4-0.4,0.6-0.4c0.1,0,0.2,0,0.3,0.1c0.4,0.2,0.5,0.6,0.4,0.9S54.8,29.6,54.6,29.6z"/>
					<path class="st1" d="M54.6,28.7L54.6,28.7c0.2,0.1,0.2,0.2,0.2,0.3c0,0.1-0.1,0.1-0.2,0.1h-0.1c-0.1,0-0.1-0.2-0.1-0.3
						C54.4,28.8,54.5,28.7,54.6,28.7 M54.6,27.7L54.6,27.7c-0.5,0-0.9,0.3-1.1,0.7c-0.1,0.3-0.1,0.6,0,0.9s0.3,0.5,0.6,0.7
						c0.2,0.1,0.3,0.1,0.5,0.1c0.5,0,0.9-0.3,1.1-0.7c0.3-0.6,0-1.3-0.6-1.6C54.9,27.8,54.7,27.7,54.6,27.7L54.6,27.7z"/>
				</g>
			</g>
		</g>
	</g>
	<g>
		<path class="st0" d="M63,31.7c-0.4-0.5-3.8-1.1-3.6-1.9s0.9-3.6,0.3-3.7c-0.6-0.2-1.3,1-1.9,2c-0.7,1-1.9,0.5-2.4,0.2
			C55,28,53,26.7,52.5,27.1c-0.8,0.6,1.2,2.4,1.8,3.2c0.6,0.8-0.5,1.6-1.6,2.9c-0.2,0.3-0.3,0.5-0.4,0.6c-0.2,0.7,0.8,0.8,2,0.1
			c1.5-0.8,2.2-0.7,2.8,1.5c0.3,0.9,0.5,1.3,0.7,1.4c0.4,0.3,0.8-0.1,0.9-0.7c0.1-1.2-0.3-3.5,0.6-3.4C61,32.8,63.7,32.5,63,31.7z"
			/>
		<g>
			<g>
				<path class="st2" d="M55.1,27.8c0.5,0.3,1.7,0.8,2.4-0.2s1.4-2.2,1.9-2c0.6,0.2-0.2,3-0.3,3.7c-0.2,0.8,3.2,1.5,3.6,1.9
					c0.7,0.8-2,1.1-3.7,0.9c-0.8-0.1-0.5,2.2-0.6,3.4c-0.1,0.9-1,1.5-1.6-0.7s-1.3-2.3-2.8-1.5s-2.7,0.6-1.6-0.8
					c1.1-1.3,2.2-2.1,1.6-2.9c-0.6-0.8-2.6-2.6-1.8-3.2C52.8,26.3,54.7,27.6,55.1,27.8z"/>
				<path class="st5" d="M55,28.5c1.1,0.5,1.8,0.1,2.5-0.9s1.4-2.2,1.9-2c0.6,0.2-1,3.3-1.2,4.1c-0.2,0.8,3.5,1.1,3.9,1.6
					c0.7,0.8-2.1,1-3.7,0.8c-0.8-0.1-0.2,2.1-0.3,3.3c-0.1,0.9-0.6,1.7-1.2-0.5c-0.6-2.2-1.1-3-2.6-2.2s-2.9,1.2-1.8-0.1
					c1.1-1.3,2.2-2.1,1.6-2.9c-0.6-0.8-2.6-2.6-1.8-3.2C52.8,26.3,54.6,28.3,55,28.5z"/>
			</g>
			<g>
				<path class="st4" d="M57.6,29c0,0.1-0.2,0.2-0.3,0.1c-0.1,0-0.2-0.2-0.1-0.3c0-0.1,0.2-0.2,0.3-0.1C57.6,28.7,57.6,28.8,57.6,29
					z"/>
				<path class="st4" d="M56.1,29.5c0,0.1-0.2,0.2-0.3,0.1c-0.1,0-0.2-0.2-0.1-0.3c0-0.1,0.2-0.2,0.3-0.1S56.2,29.4,56.1,29.5z"/>
				<path class="st4" d="M58.6,31.2c0,0.1-0.2,0.2-0.3,0.1c-0.1,0-0.2-0.2-0.1-0.3c0-0.1,0.2-0.2,0.3-0.1
					C58.6,30.9,58.6,31.1,58.6,31.2z"/>
				<path class="st4" d="M53.9,32.5c0,0.1-0.2,0.2-0.3,0.1c-0.1,0-0.2-0.2-0.1-0.3c0-0.1,0.2-0.2,0.3-0.1
					C53.9,32.2,54,32.3,53.9,32.5z"/>
				<path class="st4" d="M54.8,30.4c0,0.1-0.2,0.2-0.3,0.1c-0.1,0-0.2-0.2-0.1-0.3c0-0.1,0.2-0.2,0.3-0.1
					C54.8,30.1,54.8,30.2,54.8,30.4z"/>
				<path class="st4" d="M58,33.8c0,0.1-0.2,0.2-0.3,0.1c-0.1,0-0.2-0.2-0.1-0.3c0-0.1,0.2-0.2,0.3-0.1C58,33.6,58,33.7,58,33.8z"/>
				<path class="st4" d="M58.6,28.7c0,0.1-0.2,0.2-0.3,0.1s-0.2-0.2-0.1-0.3c0-0.1,0.2-0.2,0.3-0.1C58.6,28.5,58.6,28.6,58.6,28.7z"
					/>
				<path class="st4" d="M58.8,27.9c0,0.1-0.1,0.1-0.2,0.1c-0.1,0-0.1-0.1-0.1-0.2s0.1-0.1,0.2-0.1C58.8,27.7,58.8,27.8,58.8,27.9z"
					/>
				<path class="st4" d="M57.9,30.1c0,0.1-0.1,0.1-0.2,0.1c-0.1,0-0.1-0.1-0.1-0.2s0.1-0.1,0.2-0.1C57.9,30,57.9,30.1,57.9,30.1z"/>
				<path class="st4" d="M58.4,27c0,0.1-0.1,0.1-0.2,0.1c-0.1,0-0.1-0.1-0.1-0.2s0.1-0.1,0.2-0.1C58.4,26.8,58.4,26.9,58.4,27z"/>
				<path class="st4" d="M53.7,28.7c0,0.1-0.1,0.1-0.2,0.1c-0.1,0-0.1-0.1-0.1-0.2s0.1-0.1,0.2-0.1C53.7,28.6,53.7,28.7,53.7,28.7z"
					/>
				<path class="st4" d="M54.2,31.6c0,0.1-0.1,0.1-0.2,0.1c-0.1,0-0.1-0.1-0.1-0.2s0.1-0.1,0.2-0.1C54.2,31.5,54.3,31.6,54.2,31.6z"
					/>
				<path class="st4" d="M57.4,34.6c0,0.1-0.1,0.1-0.2,0.1c-0.1,0-0.1-0.1-0.1-0.2c0-0.1,0.1-0.1,0.2-0.1
					C57.4,34.4,57.4,34.5,57.4,34.6z"/>
				<path class="st4" d="M55.9,32.2c0,0.1-0.1,0.1-0.2,0.1c-0.1,0-0.1-0.1-0.1-0.2c0-0.1,0.1-0.1,0.2-0.1
					C55.9,32,55.9,32.1,55.9,32.2z"/>
				<path class="st4" d="M60.3,31.1c0,0.1-0.1,0.1-0.2,0.1C60,31.1,60,31,60,30.9s0.1-0.1,0.2-0.1C60.3,30.9,60.3,31,60.3,31.1z"/>
				<path class="st4" d="M59.6,31.6c0,0.1-0.1,0.1-0.2,0.1c-0.1,0-0.1-0.1-0.1-0.2s0.1-0.1,0.2-0.1C59.6,31.5,59.6,31.6,59.6,31.6z"
					/>
				<path class="st4" d="M57.3,31.5c0,0.1-0.1,0.1-0.2,0.1c-0.1,0-0.1-0.1-0.1-0.2s0.1-0.1,0.2-0.1C57.3,31.4,57.4,31.4,57.3,31.5z"
					/>
				<path class="st4" d="M55.2,31.4c0,0.1-0.2,0.1-0.3,0.1s-0.1-0.2-0.1-0.3c0-0.1,0.2-0.1,0.3-0.1C55.2,31.2,55.2,31.3,55.2,31.4z"
					/>
				<path class="st4" d="M56.9,32.8c0,0.1-0.2,0.1-0.3,0.1s-0.1-0.2-0.1-0.3s0.2-0.1,0.3-0.1C56.9,32.6,56.9,32.8,56.9,32.8z"/>
				<path class="st4" d="M56.3,30.5c0,0.1-0.2,0.1-0.3,0.1s-0.1-0.2-0.1-0.3c0-0.1,0.2-0.1,0.3-0.1C56.3,30.3,56.3,30.4,56.3,30.5z"
					/>
				<path class="st4" d="M54.7,29c0,0.1-0.2,0.1-0.3,0.1s-0.1-0.2-0.1-0.3c0-0.1,0.2-0.1,0.3-0.1C54.7,28.8,54.8,28.9,54.7,29z"/>
			</g>
		</g>
	</g>
	<g id="Sombrilla_stroke_copia">
		<g>
			<g>
				<path class="st1" d="M52.3,19c-0.1,0-0.1,0-0.2,0l-0.4-0.2c-0.2-0.1-0.4-0.4-0.3-0.6L54.8,8c0-0.1,0.1-0.2,0.3-0.3
					c0.1,0,0.1,0,0.2,0c0.1,0,0.1,0,0.2,0l0.4,0.2c0.2,0.1,0.4,0.4,0.3,0.6l-3.4,10.2c0,0.1-0.1,0.2-0.3,0.3
					C52.5,19,52.4,19,52.3,19z"/>
				<path class="st1" d="M55.3,8.1l0.4,0.2l-3.4,10.2l-0.4-0.2L55.3,8.1 M55.3,7.1c-0.1,0-0.3,0-0.4,0.1c-0.3,0.1-0.5,0.3-0.5,0.6
					L50.9,18c-0.2,0.5,0.1,1,0.6,1.2l0.4,0.2c0.1,0.1,0.3,0.1,0.4,0.1c0.1,0,0.3,0,0.4-0.1c0.3-0.1,0.5-0.3,0.5-0.6l3.4-10.2
					c0.2-0.5-0.1-1-0.6-1.2l-0.4-0.2C55.6,7.2,55.4,7.1,55.3,7.1L55.3,7.1z"/>
			</g>
			<g>
				<g>
					<g>
						<g>
							<path class="st1" d="M46.3,3.6c-0.4,0-0.7-0.3-0.9-0.6c-0.1-0.5,0-1.3,1-1.9C46.5,1,46.7,1,46.8,1c0.1,0,0.1,0,0.2,0
								c2.1,0,10.5,0.5,10.6,0.5c0.3,0,0.5,0.2,0.5,0.5s-0.2,0.5-0.4,0.5c-0.3,0-7,1-9.9,1l0,0c-0.3,0-0.6,0-0.8,0
								C46.7,3.5,46.5,3.6,46.3,3.6z"/>
							<path class="st1" d="M46.8,1.4c0.1,0,0.2,0,0.3,0C49.1,1.5,57.6,2,57.6,2s-6.9,1-9.8,1c-0.3,0-0.6,0-0.8,0l0,0h-0.1
								c0,0,0,0-0.1,0c-0.2,0.1-0.4,0.2-0.5,0.2c-0.6,0-0.7-0.9,0.4-1.6C46.7,1.5,46.7,1.4,46.8,1.4 M46.8,0.4
								c-0.3,0-0.5,0.1-0.7,0.2c-1,0.7-1.4,1.6-1.1,2.4c0.2,0.6,0.7,1,1.3,1c0.3,0,0.5-0.1,0.8-0.2c0.2,0,0.5,0,0.7,0
								c3,0,9.7-0.9,9.9-1c0.5-0.1,0.9-0.5,0.9-1s-0.4-0.9-0.9-1c-0.3,0-8.6-0.4-10.5-0.5h-0.1C47,0.5,46.9,0.4,46.8,0.4L46.8,0.4z"
								/>
						</g>
						<g>
							<path class="st1" d="M46.3,3.6c-0.4,0-0.7-0.3-0.9-0.6c-0.1-0.5,0-1.3,1-1.9h0.1c0.1,0,0.1,0,0.2,0c0.1,0,0.2,0,0.3,0.1
								s0.2,0.2,0.2,0.4L47.3,3c0,0.2-0.1,0.3-0.2,0.4C46.8,3.5,46.5,3.6,46.3,3.6z"/>
							<path class="st1" d="M46.7,1.5l0.1,1.4c-0.2,0.1-0.3,0.2-0.5,0.2C45.7,3.1,45.6,2.2,46.7,1.5C46.6,1.5,46.6,1.5,46.7,1.5
								 M46.7,0.5c-0.1,0-0.3,0-0.4,0.1c-0.1,0-0.1,0.1-0.2,0.1c-0.9,0.6-1.4,1.6-1.1,2.4c0.2,0.6,0.7,1,1.3,1
								c0.4,0,0.7-0.1,1.1-0.4c0.3-0.2,0.4-0.5,0.4-0.9l-0.1-1.4c0-0.3-0.2-0.6-0.5-0.8C47,0.5,46.8,0.5,46.7,0.5L46.7,0.5z"/>
						</g>
						<g>
							<path class="st1" d="M47.5,5.6c-0.1,0-0.2,0-0.3-0.1c-1.4-0.4-1.6-1.4-1.6-1.8c0-0.7,0.4-1.4,1-1.6c0.1,0,0.3-0.1,0.3-0.1
								c1.2-0.1,10.3-0.7,10.7-0.7l0,0c0.2,0,0.5,0.2,0.5,0.4c0,0.3-0.1,0.5-0.4,0.6l-9,2.6C48.5,5.2,48,5.6,47.5,5.6L47.5,5.6z"/>
							<path class="st1" d="M57.6,2L57.6,2 M57.6,2l-9.1,2.6c0,0-0.5,0.5-1,0.5c-0.1,0-0.1,0-0.2,0c-1.8-0.6-1.2-2.1-0.6-2.4
								c0,0,0.1,0,0.2,0C48.2,2.6,57.6,2,57.6,2 M57.6,1L57.6,1C57.6,1,57.5,1,57.6,1C57,1,48.1,1.6,46.8,1.7c0,0-0.2,0-0.4,0.1
								c-0.8,0.3-1.3,1.2-1.3,2c0,1,0.7,1.8,1.9,2.2c0.2,0,0.3,0.1,0.5,0.1c0.7,0,1.2-0.4,1.5-0.6L57.8,3c0.4-0.1,0.7-0.5,0.7-1
								C58.6,1.4,58.2,1,57.6,1L57.6,1L57.6,1z M57.6,3L57.6,3L57.6,3L57.6,3z"/>
						</g>
						<g>
							<path class="st1" d="M47.3,5.8c-0.9,0-1.5-0.8-1.7-1.6s0.2-1.6,0.9-1.9c0.1,0,0.1,0,0.2,0c0.2,0,0.3,0.1,0.4,0.2l1.5,2.1
								c0.1,0.1,0.1,0.3,0.1,0.4s-0.1,0.3-0.2,0.3l-0.7,0.4c0,0-0.1,0-0.2,0.1C47.5,5.8,47.4,5.8,47.3,5.8z"/>
							<path class="st1" d="M46.7,2.7l1.5,2.1l-0.7,0.4c-0.1,0-0.1,0-0.2,0C46.2,5.3,45.5,3.3,46.7,2.7 M46.7,1.7
								c-0.1,0-0.3,0-0.4,0.1c-0.9,0.4-1.4,1.4-1.2,2.5c0.2,1,1,2,2.2,2c0.1,0,0.2,0,0.4,0c0.1,0,0.2-0.1,0.3-0.1l0.7-0.4
								C49,5.5,49.2,5.3,49.2,5c0.1-0.3,0-0.6-0.2-0.8l-1.5-2.1C47.3,1.9,47,1.7,46.7,1.7L46.7,1.7z"/>
						</g>
						<g>
							<path class="st1" d="M49.9,7.6c-1,0-1.7-0.3-2.1-0.9c-0.8-1-0.4-2.5-0.3-2.5c0-0.2,0.2-0.3,0.3-0.3c2.1-0.6,9.6-2.4,9.7-2.4
								h0.1c0.2,0,0.3,0.1,0.4,0.2c0.1,0.2,0.1,0.4,0,0.6c-0.1,0.2-3.3,4.7-7.2,5.3C50.5,7.6,50.2,7.6,49.9,7.6L49.9,7.6z"/>
							<path class="st1" d="M57.6,2L57.6,2 M57.6,2c0,0-3.1,4.5-6.9,5.1c-0.3,0-0.6,0.1-0.8,0.1c-2.8,0-2-2.8-2-2.8
								C50,3.8,57.6,2,57.6,2 M57.6,1L57.6,1c-0.1,0-0.2,0-0.3,0c-0.5,0.1-7.7,1.9-9.7,2.4c-0.3,0.1-0.6,0.4-0.7,0.7
								c-0.1,0.2-0.5,1.8,0.4,2.9c0.4,0.5,1.1,1.1,2.5,1.1c0.3,0,0.6,0,1-0.1c3.9-0.6,7.1-4.9,7.5-5.5c0.1-0.2,0.2-0.4,0.2-0.6
								C58.6,1.4,58.2,1,57.6,1L57.6,1L57.6,1z M57.6,3L57.6,3L57.6,3L57.6,3z"/>
						</g>
						<g>
							<path class="st1" d="M49.6,7.8c-1.1,0-1.9-0.5-2.3-1.4C47,5.5,47.1,4.6,47.6,4c0.1-0.1,0.2-0.2,0.4-0.2h0.1
								c0.1,0,0.2,0,0.3,0.1l3.5,2.5C51.9,6.6,52,6.8,52,7s-0.2,0.3-0.4,0.4c-0.1,0-0.3,0.1-0.4,0.1c-0.1,0-0.2,0-0.3,0.1
								C50.4,7.7,50,7.8,49.6,7.8L49.6,7.8z"/>
							<path class="st1" d="M48,4.4l3.5,2.5C51.2,7,51,7,50.7,7.1c-0.4,0.1-0.8,0.2-1.1,0.2C47.7,7.3,47.2,5.1,48,4.4
								C47.9,4.4,48,4.4,48,4.4 M48,3.4c-0.1,0-0.1,0-0.2,0c-0.3,0-0.5,0.2-0.7,0.3c-0.6,0.7-0.7,1.8-0.3,2.8
								c0.5,1.1,1.5,1.7,2.8,1.7C50,8.2,50.5,8.1,51,8c0.1,0,0.2,0,0.3-0.1c0.2,0,0.3-0.1,0.5-0.1c0.4-0.1,0.6-0.4,0.7-0.8
								c0.1-0.4-0.1-0.8-0.4-1l-3.5-2.5C48.4,3.4,48.2,3.4,48,3.4L48,3.4z"/>
						</g>
						<g>
							<path class="st1" d="M54.3,9.9c-1.5,0-4-1.3-4.1-2.7c-0.1-1.5,5-4.5,7.1-5.7c0.1,0,0.2-0.1,0.2-0.1c0.1,0,0.2,0,0.3,0.1
								C58,1.6,58,1.8,58,2l-2.2,7C55.7,9.4,55.4,9.9,54.3,9.9z"/>
							<path class="st1" d="M57.6,2c0,0-1.8,5.4-2.3,6.9c-0.1,0.4-0.5,0.6-1,0.6c-1.4,0-3.6-1.2-3.6-2.2C50.6,5.8,57.6,2,57.6,2
								 M57.6,1c-0.2,0-0.3,0-0.5,0.1c-7.5,4.1-7.4,5.7-7.4,6.2c0.1,1.7,2.9,3.2,4.6,3.2c1.4,0,1.9-0.9,2-1.3l2.3-6.9
								c0.1-0.4,0-0.8-0.3-1.1C58.1,1,57.8,1,57.6,1L57.6,1z M57.6,3L57.6,3L57.6,3L57.6,3z"/>
						</g>
						<g>
							<path class="st1" d="M54.3,9.9c-1.5,0-4-1.3-4.1-2.7c0-0.3,0.1-0.6,0.4-1C50.7,6.1,50.8,6,51,6c0.1,0,0.2,0,0.2,0.1l4.3,2.3
								c0.2,0.1,0.3,0.4,0.2,0.6C55.7,9.4,55.4,9.9,54.3,9.9L54.3,9.9z"/>
							<path class="st1" d="M51,6.6l4.3,2.3l0,0c-0.1,0.4-0.5,0.6-1,0.6c-1.4,0-3.6-1.2-3.6-2.2C50.7,7,50.8,6.8,51,6.6 M51,5.6
								c-0.3,0-0.6,0.1-0.8,0.4c-0.4,0.5-0.5,0.9-0.5,1.3c0.1,1.7,2.9,3.2,4.6,3.2c1.4,0,1.9-0.9,2-1.3c0.2-0.5,0-1-0.5-1.2
								l-4.3-2.3C51.3,5.6,51.2,5.6,51,5.6L51,5.6z"/>
						</g>
					</g>
				</g>
				<g>
					<g>
						<g>
							<path class="st1" d="M65.8,12c-0.4,0-0.8-0.2-1-0.9l0,0c-1.8-1.5-7.3-8.4-7.5-8.7c-0.2-0.2-0.1-0.5,0.1-0.7
								c0.1-0.1,0.2-0.1,0.3-0.1s0.2,0,0.3,0.1s6.7,6.1,8.2,7.5l0.1,0.1c0.1,0.1,0.3,0.2,0.4,0.5c0.2,0.8,0.2,1.5-0.2,1.9
								C66.3,11.8,66,12,65.8,12z"/>
							<path class="st1" d="M57.6,2c0,0,6.7,6.1,8.2,7.5c0.1,0.1,0.3,0.2,0.3,0.3c0.3,1,0,1.6-0.4,1.6c-0.2,0-0.4-0.2-0.5-0.7
								c0-0.1-0.1-0.1-0.2-0.2C63.3,9.2,57.6,2,57.6,2 M57.6,1c-0.2,0-0.5,0.1-0.7,0.3c-0.4,0.4-0.4,0.9-0.1,1.4
								c0.6,0.7,5.6,7.1,7.5,8.7c0.3,0.8,0.9,1.1,1.4,1.1c0.4,0,0.8-0.2,1.1-0.6c0.4-0.6,0.5-1.4,0.2-2.3c-0.1-0.4-0.4-0.6-0.5-0.8
								h-0.1c-1.5-1.4-8.2-7.5-8.2-7.5C58.1,1.1,57.8,1,57.6,1L57.6,1z"/>
						</g>
						<g>
							<path class="st1" d="M65.8,12c-0.4,0-0.8-0.3-1-1c0-0.2,0-0.3,0.1-0.5l0.9-1c0.1-0.1,0.2-0.2,0.4-0.2h0.1
								c0.2,0,0.3,0.2,0.4,0.3v0.1c0.2,0.7,0.2,1.4-0.2,1.8C66.3,11.8,66,12,65.8,12z"/>
							<path class="st1" d="M66.1,9.8L66.1,9.8c0.3,1.1,0,1.6-0.4,1.6c-0.2,0-0.4-0.2-0.5-0.6L66.1,9.8 M66.1,8.8
								c-0.3,0-0.6,0.1-0.7,0.3l-0.9,1c-0.2,0.2-0.3,0.6-0.2,0.9c0.3,1,0.9,1.4,1.5,1.4c0.4,0,0.8-0.2,1.1-0.6
								c0.4-0.6,0.5-1.4,0.2-2.3V9.4c-0.1-0.3-0.4-0.5-0.7-0.6C66.3,8.8,66.2,8.8,66.1,8.8L66.1,8.8z"/>
						</g>
						<g>
							<path class="st1" d="M64.5,12.8c-0.4,0-0.8-0.1-1.2-0.3c-0.6-0.3-0.8-1.2-0.9-1.6l-5.3-8.7c-0.1-0.2,0-0.5,0.2-0.6
								c0.1-0.1,0.2-0.1,0.3-0.1s0.3,0.1,0.4,0.2c0.3,0.3,6.8,7.6,7.6,8.6c0,0,0.1,0.1,0.2,0.2c0.3,0.5,0.2,1.2-0.1,1.7
								C65.5,12.6,65,12.8,64.5,12.8z"/>
							<path class="st1" d="M58.6,1.7c0,0,6.8,7.5,7.6,8.6c0,0,0.1,0.1,0.1,0.2c0.3,0.5,0.1,1.6-0.9,1.6c-0.3,0-0.6-0.1-0.9-0.3
								c-0.5-0.3-0.6-1.3-0.6-1.3L58.6,1.7 M58.6,0.7c-0.2,0-0.4,0-0.6,0.2c-0.4,0.3-0.5,0.9-0.3,1.3l5.2,8.6
								c0.1,0.5,0.3,1.4,1.1,1.8c0.5,0.3,1,0.4,1.4,0.4c0.7,0,1.3-0.3,1.7-0.9c0.4-0.7,0.4-1.5,0.1-2.2c0-0.1-0.2-0.3-0.2-0.3
								c-0.9-1-7.4-8.3-7.7-8.6C59.1,0.8,58.9,0.7,58.6,0.7L58.6,0.7z"/>
						</g>
						<g>
							<path class="st1" d="M64.2,13c-0.5,0-1-0.2-1.3-0.7c0,0,0-0.1-0.1-0.1l-0.3-0.9c0-0.1,0-0.3,0-0.4c0.1-0.1,0.2-0.2,0.3-0.2
								l2.3-0.4h0.1c0.2,0,0.4,0.1,0.5,0.3c0.3,0.6,0.2,1.2-0.1,1.7C65.4,12.7,64.8,13,64.2,13z"/>
							<path class="st1" d="M65.4,10.7c0.5,1-0.4,1.8-1.1,1.8c-0.3,0-0.7-0.1-0.9-0.5L63,11.1L65.4,10.7 M65.4,9.7
								c-0.1,0-0.1,0-0.2,0l-2.3,0.4c-0.3,0.1-0.5,0.2-0.7,0.5s-0.2,0.6-0.1,0.8l0.3,0.9c0,0.1,0.1,0.2,0.1,0.3
								c0.4,0.6,1,0.9,1.7,0.9c0.8,0,1.5-0.4,1.9-1s0.5-1.4,0.1-2.1C66.1,9.9,65.7,9.7,65.4,9.7L65.4,9.7z"/>
						</g>
						<g>
							<path class="st1" d="M61.9,12.9c-0.8,0-1.6-0.6-2.5-1.7c-2.5-3.2-2.3-9-2.3-9.2s0.2-0.4,0.4-0.5h0.1c0.2,0,0.3,0.1,0.4,0.2
								c0,0.1,4.7,7.1,5.9,9.1c0.1,0.1,0.1,0.3,0,0.4C63.9,11.3,63.3,12.9,61.9,12.9z"/>
							<path class="st1" d="M57.6,2c0,0,4.7,7.1,5.9,9.1c0,0-0.5,1.4-1.6,1.4c-0.5,0-1.2-0.4-2.1-1.5C57.4,7.8,57.6,2,57.6,2
								 M57.6,1c-0.1,0-0.2,0-0.3,0c-0.4,0.1-0.7,0.5-0.7,0.9c0,0.3-0.2,6.2,2.4,9.7c1,1.2,1.9,1.8,2.9,1.8c1.4,0,2.2-1.3,2.5-2
								c0.1-0.3,0.1-0.6-0.1-0.9c-1.2-2-5.7-8.8-5.9-9.1C58.2,1.1,57.9,1,57.6,1L57.6,1z"/>
						</g>
						<g>
							<path class="st1" d="M62,13.1c-0.7,0-1.7-0.3-2.5-1.9c-0.1-0.1-0.1-0.2-0.2-0.3c-0.1-0.1-0.2-0.2-0.3-0.4s-0.1-0.4,0-0.5
								s0.2-0.2,0.4-0.2h0.1l4.1,0.7c0.1,0,0.3,0.1,0.3,0.2C64,10.8,64,10.9,64,11c0,0.5-0.2,1-0.5,1.4C63.1,12.9,62.5,13.1,62,13.1
								z"/>
							<path class="st1" d="M59.4,10.3l4.1,0.7c0,0,0,0,0,0.1c0.1,0.7-0.6,1.5-1.5,1.5c-0.7,0-1.4-0.4-2.1-1.6
								C59.7,10.7,59.5,10.5,59.4,10.3 M59.4,9.3c-0.3,0-0.6,0.2-0.8,0.4c-0.2,0.3-0.2,0.7,0,1.1c0.1,0.1,0.2,0.3,0.3,0.4
								c0.1,0.1,0.1,0.2,0.2,0.3c1.1,1.8,2.3,2.1,3,2.1c0.7,0,1.4-0.3,1.9-0.8s0.7-1.2,0.7-1.8c0-0.2-0.1-0.4-0.2-0.6
								c-0.2-0.2-0.4-0.3-0.6-0.4l-4.1-0.7C59.5,9.3,59.4,9.3,59.4,9.3L59.4,9.3z"/>
						</g>
						<g>
							<path class="st1" d="M58.9,11.9c-1.2,0-3-0.8-3.8-1.8c-0.4-0.6-0.4-1.1-0.3-1.4l2.3-6.9c0.1-0.2,0.3-0.3,0.5-0.3l0,0
								c0.2,0,0.4,0.1,0.5,0.3c1.2,3.1,3,8.6,2.1,9.6C60,11.6,59.6,11.9,58.9,11.9L58.9,11.9z"/>
							<path class="st1" d="M57.6,2c0,0,3,8.1,2.2,9.1c-0.2,0.2-0.5,0.3-0.9,0.3c-1.5,0-4-1.3-3.6-2.5C55.8,7.4,57.6,2,57.6,2
								 M57.6,1L57.6,1c-0.4,0-0.8,0.3-1,0.7l-2.3,6.9c-0.2,0.6-0.1,1.2,0.3,1.8c0.9,1.2,2.9,2,4.2,2c0.9,0,1.4-0.4,1.6-0.6
								c0.3-0.4,1.2-1.4-2-10.1C58.4,1.2,58,1,57.6,1L57.6,1z"/>
						</g>
						<g>
							<path class="st1" d="M58.9,11.9c-1.2,0-3-0.8-3.8-1.8c-0.4-0.6-0.4-1.1-0.3-1.4c0-0.1,0.1-0.3,0.3-0.3c0.1,0,0.2-0.1,0.3-0.1
								h0.1l4.6,1.6c0.2,0.1,0.3,0.3,0.3,0.5c0,0.5-0.1,0.8-0.3,1C60,11.6,59.6,11.9,58.9,11.9z"/>
							<path class="st1" d="M55.3,8.8l4.6,1.6c0,0.3,0,0.6-0.1,0.7c-0.2,0.2-0.5,0.3-0.9,0.3C57.5,11.4,54.9,10,55.3,8.8L55.3,8.8
								 M55.3,7.8c-0.2,0-0.3,0-0.4,0.1c-0.2,0.1-0.4,0.3-0.5,0.6l0,0c-0.2,0.6-0.1,1.3,0.3,1.8c0.9,1.2,2.9,2,4.2,2
								c0.9,0,1.4-0.4,1.6-0.6c0.4-0.4,0.4-1,0.4-1.4s-0.3-0.8-0.7-0.9l-4.6-1.6C55.6,7.8,55.5,7.8,55.3,7.8L55.3,7.8z"/>
						</g>
					</g>
				</g>
			</g>
		</g>
	</g>
	<g id="Sombrilla_copia">
		<g>
			<g>
				<polygon class="st6" points="52.3,18.5 51.9,18.4 55.3,8.1 55.7,8.3 				"/>
			</g>
			<g>
				<g>
					<g>
						<g>
							<path class="st7" d="M57.6,2c0,0-8.6-0.4-10.5-0.5c-0.2,0-0.3-0.1-0.4,0c-1.3,0.9-0.8,2.1,0.1,1.4c0.1,0,0.1,0,0.2,0
								C49.1,3.2,57.6,2,57.6,2z"/>
						</g>
						<g>
							<path class="st8" d="M46.6,1.5c-1.3,0.9-0.8,2.1,0.1,1.4L46.6,1.5L46.6,1.5z"/>
						</g>
						<path class="st3" d="M57.6,2c0,0-9.4,0.6-10.7,0.7c0,0-0.1,0-0.2,0c-0.7,0.2-1.3,1.8,0.6,2.4c0.5,0.2,1.2-0.5,1.2-0.5L57.6,2z
							"/>
						<path class="st3" d="M47.5,5.2l0.7-0.4l-1.5-2.1C45.4,3.3,46.3,5.5,47.5,5.2z"/>
						<g>
							<path class="st7" d="M57.6,2c0,0-7.6,1.8-9.7,2.4c0,0-0.9,3.3,2.8,2.7C54.5,6.5,57.6,2,57.6,2z"/>
						</g>
						<g>
							<path class="st8" d="M47.9,4.4c-0.8,0.9-0.1,3.6,2.8,2.7C51,7,51.2,7,51.5,6.9L47.9,4.4C48,4.4,47.9,4.4,47.9,4.4z"/>
						</g>
						<path class="st3" d="M57.6,2c0,0-1.8,5.4-2.3,6.9s-4.6-0.3-4.6-1.7C50.6,5.8,57.6,2,57.6,2z"/>
						<path class="st3" d="M51,6.6c-0.2,0.2-0.3,0.5-0.3,0.7c0.1,1.4,4.1,3.1,4.6,1.7l0,0L51,6.6z"/>
					</g>
				</g>
				<g>
					<g>
						<path class="st3" d="M57.6,2c0,0,6.7,6.1,8.2,7.5c0.1,0.1,0.3,0.2,0.3,0.3c0.5,1.7-0.6,2.2-0.9,1c0-0.1-0.1-0.1-0.2-0.2
							C63.3,9.2,57.6,2,57.6,2z"/>
						<path class="st3" d="M66.1,9.8c0.5,1.6-0.6,2.2-0.9,1L66.1,9.8L66.1,9.8z"/>
						<g>
							<path class="st7" d="M57.6,2c0,0,6.8,7.5,7.6,8.6c0,0,0.1,0.1,0.1,0.2c0.4,0.7-0.1,2.3-1.8,1.4c-0.5-0.3-0.6-1.3-0.6-1.3
								L57.6,2z"/>
						</g>
						<g>
							<path class="st8" d="M63.3,12L63,11.1l2.3-0.4C66,12.1,64.1,13.1,63.3,12z"/>
						</g>
						<path class="st3" d="M57.6,2c0,0,4.7,7.1,5.9,9.1c0,0-1.2,3.2-3.7-0.1C57.4,7.8,57.6,2,57.6,2z"/>
						<path class="st3" d="M63.5,11.1c0.1,1.2-2,2.8-3.7-0.1c-0.1-0.2-0.3-0.5-0.5-0.7L63.5,11.1C63.5,11,63.5,11,63.5,11.1z"/>
						<g>
							<path class="st7" d="M57.6,2c0,0-1.8,5.4-2.3,6.9s3.6,3.2,4.4,2.2C60.6,10.1,57.6,2,57.6,2z"/>
						</g>
						<g>
							<path class="st8" d="M59.9,10.4c0,0.3,0,0.6-0.1,0.7c-0.8,1-4.9-0.8-4.4-2.2l0,0L59.9,10.4z"/>
						</g>
					</g>
				</g>
			</g>
		</g>
	</g>
	<g>
		<g id="Stroke_1_">
			<path class="st9" d="M12,12.2c0.3,0,0.6,0.1,0.9,0.2c0.3,0.1,0.6,0.3,1,0.5l0.4-2.7C13.9,10,13.5,9.8,13,9.7
				c-0.4-0.1-0.8-0.2-1.3-0.2c-1.1,0-2,0.3-2.7,0.9c-0.7,0.6-1,1.4-1,2.5c0,0.5,0.1,0.9,0.3,1.3c0.2,0.4,0.5,0.8,1.1,1.3
				c0.4,0.4,0.7,0.7,0.9,1c0.1,0.2,0.2,0.5,0.2,0.7c0,0.3-0.1,0.5-0.3,0.7s-0.4,0.2-0.7,0.2S8.8,18,8.4,17.9
				c-0.4-0.2-0.7-0.4-1.1-0.7l-0.5,2.9c0.3,0.2,0.7,0.4,1.2,0.5s1,0.2,1.5,0.2c1.2,0,2.2-0.3,2.9-1s1.1-1.6,1.1-2.7
				c0-0.5-0.1-1-0.3-1.4s-0.6-0.9-1.1-1.4c0,0-0.1-0.1-0.2-0.2c-0.6-0.6-0.8-1-0.8-1.3c0-0.2,0.1-0.4,0.2-0.5
				C11.6,12.3,11.8,12.2,12,12.2z"/>
			<path class="st9" d="M19.9,13.1L19.9,13.1c-0.7,0-1.2,0.5-1.3,1.1L18,17.9c0,0.2-0.1,0.3-0.2,0.4s-0.3,0.2-0.4,0.2
				s-0.3,0-0.3-0.1C17,18.3,17,18.2,17,18.1V18c0,0,0,0,0-0.1l0.5-3.3c0.1-0.8-0.5-1.6-1.3-1.6l0,0c-0.7,0-1.2,0.5-1.3,1.1l-0.5,3.4
				c0,0.2-0.1,0.3-0.1,0.5s0,0.3,0,0.5c0,0.7,0.3,1.3,0.8,1.7c0.5,0.4,1.2,0.6,2.1,0.6c1.1,0,2-0.3,2.6-0.8s1-1.4,1.2-2.5l0.5-3
				C21.3,13.9,20.7,13.1,19.9,13.1z"/>
			<path class="st9" d="M24.9,15.7c0.1-0.1,0.2-0.2,0.4-0.2c0.1,0,0.2,0,0.3,0.1c0.1,0.1,0.1,0.2,0.1,0.3c0,0,0,0.1,0,0.2v0.1
				l-0.5,2.9c-0.1,0.8,0.5,1.6,1.3,1.6l0,0c0.7,0,1.2-0.5,1.3-1.1l0.5-3.3c0-0.2,0.1-0.4,0.2-0.6c0.1-0.1,0.2-0.2,0.4-0.2
				c0.1,0,0.2,0,0.3,0.1c0.1,0.1,0.1,0.2,0.1,0.3c0,0,0,0.1,0,0.2v0.1l-0.5,2.9c-0.1,0.8,0.5,1.6,1.3,1.6l0,0c0.7,0,1.2-0.5,1.3-1.1
				l0.6-3.8c0-0.2,0.1-0.4,0.1-0.6c0-0.2,0-0.3,0-0.5c0-0.5-0.2-1-0.5-1.3s-0.8-0.5-1.4-0.5c-0.4,0-0.8,0.1-1.2,0.3s-0.6,0.5-0.8,1
				c0-0.4-0.2-0.7-0.5-1c-0.3-0.2-0.7-0.3-1.2-0.3c-0.4,0-0.7,0.1-1.1,0.2c-0.3,0.2-0.6,0.4-0.9,0.7l0.1-0.8h-2.5l-1,6.1
				c-0.1,0.8,0.5,1.6,1.3,1.6c0.7,0,1.2-0.5,1.3-1.1l0.5-3.3C24.7,16,24.8,15.8,24.9,15.7z"/>
			<path class="st9" d="M39.8,15.7c0.1-0.1,0.2-0.2,0.4-0.2c0.1,0,0.2,0,0.3,0.1s0.1,0.2,0.1,0.3c0,0,0,0.1,0,0.2v0.1l-0.5,2.9
				c-0.1,0.8,0.5,1.6,1.3,1.6l0,0c0.7,0,1.2-0.5,1.3-1.1l0.6-3.8c0-0.2,0.1-0.4,0.1-0.6c0-0.2,0-0.3,0-0.5c0-0.5-0.2-1-0.5-1.3
				s-0.8-0.5-1.4-0.5c-0.4,0-0.8,0.1-1.2,0.3c-0.3,0.2-0.6,0.5-0.8,1c-0.1-0.4-0.2-0.7-0.5-1c-0.1-0.1-0.5-0.2-1-0.2
				c-0.4,0-0.7,0.1-1.1,0.2c-0.3,0.2-0.6,0.4-0.9,0.7l0.1-0.8h-2.5l-1,6.1c-0.1,0.8,0.5,1.6,1.3,1.6l0,0c0.7,0,1.2-0.5,1.3-1.1
				l0.5-3.3c0-0.3,0.1-0.4,0.2-0.6c0.1-0.1,0.2-0.2,0.4-0.2c0.1,0,0.2,0,0.3,0.1s0.1,0.2,0.1,0.3c0,0,0,0.1,0,0.2v0.1l-0.5,2.9
				c-0.1,0.8,0.5,1.6,1.3,1.6l0,0c0.7,0,1.2-0.5,1.3-1.1l0.5-3.3C39.7,16,39.7,15.8,39.8,15.7z"/>
			<path class="st9" d="M47.8,12.9c-1.2,0-2.1,0.4-2.8,1.3c-0.7,0.9-1,2-1,3.4c0,1.1,0.3,1.9,0.8,2.5s1.3,0.9,2.4,0.9
				c1,0,1.7-0.3,2.3-0.8s0.9-1.2,1-2.1h-2.3c0,0.3-0.1,0.5-0.2,0.6c-0.1,0.1-0.3,0.2-0.6,0.2c-0.2,0-0.4-0.1-0.5-0.2
				s-0.2-0.3-0.2-0.6c0-0.1,0-0.2,0-0.3c0-0.1,0-0.3,0.1-0.6h4c0-0.3,0.1-0.6,0.1-0.9s0-0.5,0-0.7c0-0.9-0.3-1.5-0.8-2
				C49.5,13.1,48.8,12.9,47.8,12.9z M48.6,15.6c0,0.1,0,0.2,0,0.4H47c0.1-0.5,0.2-0.8,0.4-1s0.4-0.3,0.6-0.3c0.2,0,0.4,0.1,0.5,0.2
				c0.1,0.1,0.2,0.3,0.2,0.6C48.6,15.5,48.6,15.5,48.6,15.6z"/>
			<path class="st9" d="M55.7,13.3c-0.4,0.2-0.7,0.5-1,0.9l0.2-1.1h-2.6l-1,6.1c-0.1,0.8,0.5,1.6,1.3,1.6l0,0c0.7,0,1.2-0.5,1.3-1.1
				l0.4-2.3c0.1-0.7,0.3-1.1,0.6-1.4c0.3-0.3,0.8-0.4,1.5-0.4h0.1l0.4-2.7C56.5,12.9,56.1,13.1,55.7,13.3z"/>
			<path class="st9" d="M29.5,25.2c0.3,0,0.6,0.1,0.9,0.2c0.3,0.1,0.6,0.3,1,0.5l0.4-2.7c-0.4-0.2-0.8-0.4-1.3-0.5
				c-0.4-0.1-0.8-0.2-1.3-0.2c-1.1,0-2,0.3-2.7,0.9s-1,1.4-1,2.5c0,0.5,0.1,0.9,0.3,1.3c0.2,0.4,0.5,0.8,1.1,1.3
				c0.4,0.4,0.7,0.7,0.9,1c0.1,0.2,0.2,0.5,0.2,0.7c0,0.3-0.1,0.5-0.3,0.7c-0.2,0.2-0.4,0.2-0.7,0.2c-0.3,0-0.7-0.1-1.1-0.2
				c-0.4-0.2-0.7-0.4-1.1-0.7l-0.5,2.9c0.3,0.2,0.7,0.4,1.2,0.5s1,0.2,1.5,0.2c1.2,0,2.2-0.3,2.9-1s1.1-1.6,1.1-2.7
				c0-0.5-0.1-1-0.3-1.4s-0.6-0.9-1.1-1.4c0,0-0.1-0.1-0.2-0.2c-0.6-0.6-0.8-1-0.8-1.3c0-0.2,0.1-0.4,0.2-0.5
				C29,25.3,29.2,25.2,29.5,25.2z"/>
			<path class="st9" d="M36.5,26.1L36.3,27c-0.2-0.4-0.4-0.6-0.7-0.8C35.3,26,35,26,34.7,26c-0.9,0-1.7,0.5-2.3,1.5
				s-0.9,2.3-0.9,3.9c0,0.8,0.2,1.5,0.5,2s0.8,0.7,1.4,0.7c0.3,0,0.7-0.1,1-0.3s0.6-0.4,1-0.8l-0.1,0.8H38l1.2-7.6h-2.7V26.1z
				 M35.6,30.9c-0.2,0.5-0.4,0.7-0.7,0.7c-0.2,0-0.3-0.1-0.4-0.2c-0.1-0.2-0.1-0.4-0.1-0.7c0-0.6,0.1-1.2,0.3-1.7s0.4-0.7,0.7-0.7
				c0.2,0,0.3,0.1,0.4,0.2c0.1,0.1,0.1,0.4,0.1,0.7C35.9,29.8,35.8,30.4,35.6,30.9z"/>
			<path class="st9" d="M42.2,21.9L42.2,21.9c-0.7,0-1.3,0.5-1.4,1.1l-1.4,9.1c-0.1,0.8,0.5,1.6,1.3,1.6l0,0c0.7,0,1.2-0.5,1.3-1.1
				l1.4-9.1C43.6,22.6,43,21.9,42.2,21.9z"/>
			<path class="st9" d="M47.2,25.9c-1.2,0-2.1,0.4-2.8,1.3s-1,2-1,3.4c0,1.1,0.3,1.9,0.8,2.5s1.3,0.9,2.4,0.9c1,0,1.7-0.3,2.3-0.8
				s0.9-1.2,1-2.1h-2.3c0,0.3-0.1,0.5-0.2,0.6c-0.1,0.1-0.3,0.2-0.6,0.2c-0.2,0-0.4-0.1-0.5-0.2s-0.2-0.3-0.2-0.6c0-0.1,0-0.2,0-0.3
				c0-0.1,0-0.3,0.1-0.6h4c0-0.3,0.1-0.6,0.1-0.9s0-0.5,0-0.7c0-0.9-0.3-1.5-0.8-2C48.9,26.2,48.1,25.9,47.2,25.9z M47.9,28.6
				c0,0.1,0,0.2,0,0.4h-1.6c0.1-0.5,0.2-0.8,0.4-1s0.4-0.3,0.6-0.3c0.2,0,0.4,0.1,0.5,0.2s0.2,0.3,0.2,0.6
				C47.9,28.5,47.9,28.6,47.9,28.6z"/>
		</g>
		<g id="Texto_1_">
			<path class="st10" d="M12,12.2c0.3,0,0.6,0.1,0.9,0.2c0.3,0.1,0.6,0.3,1,0.5l0.4-2.7C13.9,10,13.5,9.8,13,9.7
				c-0.4-0.1-0.8-0.2-1.3-0.2c-1.1,0-2,0.3-2.7,0.9c-0.7,0.6-1,1.4-1,2.5c0,0.5,0.1,0.9,0.3,1.3c0.2,0.4,0.5,0.8,1.1,1.3
				c0.4,0.4,0.7,0.7,0.9,1c0.1,0.2,0.2,0.5,0.2,0.7c0,0.3-0.1,0.5-0.3,0.7s-0.4,0.2-0.7,0.2S8.8,18,8.4,17.9
				c-0.4-0.2-0.7-0.4-1.1-0.7l-0.5,2.9c0.3,0.2,0.7,0.4,1.2,0.5s1,0.2,1.5,0.2c1.2,0,2.2-0.3,2.9-1s1.1-1.6,1.1-2.7
				c0-0.5-0.1-1-0.3-1.4s-0.6-0.9-1.1-1.4c0,0-0.1-0.1-0.2-0.2c-0.6-0.6-0.8-1-0.8-1.3c0-0.2,0.1-0.4,0.2-0.5
				C11.6,12.3,11.8,12.2,12,12.2z"/>
			<path class="st10" d="M19.9,13.1L19.9,13.1c-0.7,0-1.2,0.5-1.3,1.1L18,17.9c0,0.2-0.1,0.3-0.2,0.4s-0.3,0.2-0.4,0.2
				s-0.3,0-0.3-0.1C17,18.3,17,18.2,17,18.1V18c0,0,0,0,0-0.1l0.5-3.3c0.1-0.8-0.5-1.6-1.3-1.6l0,0c-0.7,0-1.2,0.5-1.3,1.1l-0.5,3.4
				c0,0.2-0.1,0.3-0.1,0.5s0,0.3,0,0.5c0,0.7,0.3,1.3,0.8,1.7c0.5,0.4,1.2,0.6,2.1,0.6c1.1,0,2-0.3,2.6-0.8s1-1.4,1.2-2.5l0.5-3
				C21.3,13.9,20.7,13.1,19.9,13.1z"/>
			<path class="st10" d="M24.9,15.7c0.1-0.1,0.2-0.2,0.4-0.2c0.1,0,0.2,0,0.3,0.1c0.1,0.1,0.1,0.2,0.1,0.3c0,0,0,0.1,0,0.2v0.1
				l-0.5,2.9c-0.1,0.8,0.5,1.6,1.3,1.6l0,0c0.7,0,1.2-0.5,1.3-1.1l0.5-3.3c0-0.2,0.1-0.4,0.2-0.6c0.1-0.1,0.2-0.2,0.4-0.2
				c0.1,0,0.2,0,0.3,0.1c0.1,0.1,0.1,0.2,0.1,0.3c0,0,0,0.1,0,0.2v0.1l-0.5,2.9c-0.1,0.8,0.5,1.6,1.3,1.6l0,0c0.7,0,1.2-0.5,1.3-1.1
				l0.6-3.8c0-0.2,0.1-0.4,0.1-0.6c0-0.2,0-0.3,0-0.5c0-0.5-0.2-1-0.5-1.3s-0.8-0.5-1.4-0.5c-0.4,0-0.8,0.1-1.2,0.3s-0.6,0.5-0.8,1
				c0-0.4-0.2-0.7-0.5-1c-0.3-0.2-0.7-0.3-1.2-0.3c-0.4,0-0.7,0.1-1.1,0.2c-0.3,0.2-0.6,0.4-0.9,0.7l0.1-0.8h-1.3
				c-0.7,0-1.3,0.5-1.4,1.2l-0.8,4.9c-0.1,0.8,0.5,1.6,1.3,1.6c0.7,0,1.2-0.5,1.3-1.1l0.5-3.3C24.7,16,24.8,15.8,24.9,15.7z"/>
			<path class="st10" d="M39.8,15.7c0.1-0.1,0.2-0.2,0.4-0.2c0.1,0,0.2,0,0.3,0.1s0.1,0.2,0.1,0.3c0,0,0,0.1,0,0.2v0.1l-0.5,2.9
				c-0.1,0.8,0.5,1.6,1.3,1.6l0,0c0.7,0,1.2-0.5,1.3-1.1l0.6-3.8c0-0.2,0.1-0.4,0.1-0.6c0-0.2,0-0.3,0-0.5c0-0.5-0.2-1-0.5-1.3
				s-0.8-0.5-1.4-0.5c-0.4,0-0.8,0.1-1.2,0.3c-0.3,0.2-0.6,0.5-0.8,1c-0.1-0.4-0.2-0.7-0.5-1c-0.1-0.1-0.5-0.2-1-0.2
				c-0.4,0-0.7,0.1-1.1,0.2c-0.3,0.2-0.6,0.4-0.9,0.7l0.1-0.8h-1.3c-1.1-0.1-1.4,0.4-1.4,1.2l-0.8,4.9c-0.1,0.8,0.5,1.6,1.3,1.6l0,0
				c0.7,0,1.2-0.5,1.3-1.1l0.5-3.3c0-0.3,0.1-0.4,0.2-0.6c0.1-0.1,0.2-0.2,0.4-0.2c0.1,0,0.2,0,0.3,0.1s0.1,0.2,0.1,0.3
				c0,0,0,0.1,0,0.2v0.1l-0.5,2.9c-0.1,0.8,0.5,1.6,1.3,1.6l0,0c0.7,0,1.2-0.5,1.3-1.1l0.5-3.3C39.7,16,39.7,15.8,39.8,15.7z"/>
			<path class="st10" d="M47.8,12.9c-1.2,0-2.1,0.4-2.8,1.3c-0.7,0.9-1,2-1,3.4c0,1.1,0.3,1.9,0.8,2.5s1.3,0.9,2.4,0.9
				c1,0,1.7-0.3,2.3-0.8s0.9-1.2,1-2.1h-2.3c0,0.3-0.1,0.5-0.2,0.6c-0.1,0.1-0.3,0.2-0.6,0.2c-0.2,0-0.4-0.1-0.5-0.2
				s-0.2-0.3-0.2-0.6c0-0.1,0-0.2,0-0.3c0-0.1,0-0.3,0.1-0.6h4c0-0.3,0.1-0.6,0.1-0.9s0-0.5,0-0.7c0-0.9-0.3-1.5-0.8-2
				C49.5,13.1,48.8,12.9,47.8,12.9z M48.6,15.6c0,0.1,0,0.2,0,0.4H47c0.1-0.5,0.2-0.8,0.4-1s0.4-0.3,0.6-0.3c0.2,0,0.4,0.1,0.5,0.2
				c0.1,0.1,0.2,0.3,0.2,0.6C48.6,15.5,48.6,15.5,48.6,15.6z"/>
			<path class="st10" d="M55.7,13.3c-0.4,0.2-0.7,0.5-1,0.9l0.2-1.1h-1.4c-1.2-0.1-1.3,0.2-1.4,1.2l-0.8,4.9
				c-0.1,0.8,0.5,1.6,1.3,1.6l0,0c0.7,0,1.2-0.5,1.3-1.1l0.4-2.3c0.1-0.7,0.3-1.1,0.6-1.4c0.3-0.3,0.8-0.4,1.5-0.4h0.1l0.4-2.7
				C56.5,12.9,56.1,13.1,55.7,13.3z"/>
			<path class="st10" d="M29.5,25.2c0.3,0,0.6,0.1,0.9,0.2c0.3,0.1,0.6,0.3,1,0.5l0.4-2.7c-0.4-0.2-0.8-0.4-1.3-0.5
				c-0.4-0.1-0.8-0.2-1.3-0.2c-1.1,0-2,0.3-2.7,0.9s-1,1.4-1,2.5c0,0.5,0.1,0.9,0.3,1.3c0.2,0.4,0.5,0.8,1.1,1.3
				c0.4,0.4,0.7,0.7,0.9,1c0.1,0.2,0.2,0.5,0.2,0.7c0,0.3-0.1,0.5-0.3,0.7c-0.2,0.2-0.4,0.2-0.7,0.2c-0.3,0-0.7-0.1-1.1-0.2
				c-0.4-0.2-0.7-0.4-1.1-0.7l-0.5,2.9c0.3,0.2,0.7,0.4,1.2,0.5s1,0.2,1.5,0.2c1.2,0,2.2-0.3,2.9-1s1.1-1.6,1.1-2.7
				c0-0.5-0.1-1-0.3-1.4s-0.6-0.9-1.1-1.4c0,0-0.1-0.1-0.2-0.2c-0.6-0.6-0.8-1-0.8-1.3c0-0.2,0.1-0.4,0.2-0.5
				C29,25.3,29.2,25.2,29.5,25.2z"/>
			<path class="st10" d="M37.6,26.1h-1.1L36.3,27c-0.2-0.4-0.4-0.6-0.7-0.8C35.3,26,35,26,34.7,26c-0.9,0-1.7,0.5-2.3,1.5
				s-0.9,2.3-0.9,3.9c0,0.8,0.2,1.5,0.5,2s0.8,0.7,1.4,0.7c0.3,0,0.7-0.1,1-0.3s0.6-0.4,1-0.8l-0.1,0.8h1.6c1.1,0.1,1.3-0.5,1.4-1.2
				l0.8-4.9C39.1,26.9,38.6,26,37.6,26.1z M35.6,30.9c-0.2,0.5-0.4,0.7-0.7,0.7c-0.2,0-0.3-0.1-0.4-0.2c-0.1-0.2-0.1-0.4-0.1-0.7
				c0-0.6,0.1-1.2,0.3-1.7s0.4-0.7,0.7-0.7c0.2,0,0.3,0.1,0.4,0.2c0.1,0.1,0.1,0.4,0.1,0.7C35.9,29.8,35.8,30.4,35.6,30.9z"/>
			<path class="st10" d="M42.2,21.9L42.2,21.9c-0.7,0-1.3,0.5-1.4,1.1l-1.4,9.1c-0.1,0.8,0.5,1.6,1.3,1.6l0,0c0.7,0,1.2-0.5,1.3-1.1
				l1.4-9.1C43.6,22.6,43,21.9,42.2,21.9z"/>
			<path class="st10" d="M47.2,25.9c-1.2,0-2.1,0.4-2.8,1.3s-1,2-1,3.4c0,1.1,0.3,1.9,0.8,2.5s1.3,0.9,2.4,0.9c1,0,1.7-0.3,2.3-0.8
				s0.9-1.2,1-2.1h-2.3c0,0.3-0.1,0.5-0.2,0.6c-0.1,0.1-0.3,0.2-0.6,0.2c-0.2,0-0.4-0.1-0.5-0.2s-0.2-0.3-0.2-0.6c0-0.1,0-0.2,0-0.3
				c0-0.1,0-0.3,0.1-0.6h4c0-0.3,0.1-0.6,0.1-0.9s0-0.5,0-0.7c0-0.9-0.3-1.5-0.8-2C48.9,26.2,48.1,25.9,47.2,25.9z M47.9,28.6
				c0,0.1,0,0.2,0,0.4h-1.6c0.1-0.5,0.2-0.8,0.4-1s0.4-0.3,0.6-0.3c0.2,0,0.4,0.1,0.5,0.2s0.2,0.3,0.2,0.6
				C47.9,28.5,47.9,28.6,47.9,28.6z"/>
		</g>
	</g>
	<g id="Pelota_copia_2_1_">
		<g>
			<g>
				<g>
					<g>
						<path class="st1" d="M18.3,36.2c-0.3,0-0.6,0-0.9-0.1c-1.4-0.3-2.6-1.2-3.2-2.4c-0.4-0.8-0.5-1.7-0.3-2.6
							c0.1-0.4,0.2-0.7,0.4-1.1c0.1-0.2,0.3-0.5,0.5-0.7c0.5-0.6,1.1-1,1.8-1.3c0.4-0.2,0.8-0.2,1.2-0.3c0.1,0,0.3,0,0.4,0
							c0.3,0,0.6,0,0.9,0.1c1.2,0.2,2.3,1,2.9,2c0.1,0.2,0.3,0.4,0.3,0.7c0.3,0.8,0.4,1.6,0.2,2.4c-0.1,0.4-0.2,0.8-0.4,1.1
							c-0.1,0.1-0.1,0.2-0.2,0.4c-0.8,1.1-2,1.8-3.4,1.9C18.5,36.2,18.4,36.2,18.3,36.2z"/>
						<path class="st1" d="M18.3,28.1c0.3,0,0.6,0,0.9,0.1c1.2,0.2,2.1,0.9,2.7,1.8c0.1,0.2,0.2,0.4,0.3,0.6
							c0.3,0.7,0.3,1.4,0.2,2.2c-0.1,0.4-0.2,0.7-0.4,1c-0.1,0.1-0.1,0.2-0.2,0.3c-0.7,1-1.8,1.6-3.1,1.7c-0.1,0-0.2,0-0.4,0
							c-0.3,0-0.6,0-0.9-0.1c-1.4-0.3-2.4-1.1-2.9-2.2c-0.3-0.7-0.4-1.5-0.2-2.3c0.1-0.3,0.2-0.7,0.4-1c0.1-0.2,0.3-0.4,0.4-0.6
							c0.4-0.5,1-0.9,1.7-1.2c0.4-0.1,0.7-0.2,1.1-0.3C18,28.1,18.1,28.1,18.3,28.1 M18.3,27.3c-0.2,0-0.3,0-0.5,0
							c-0.5,0-0.9,0.1-1.3,0.3c-0.8,0.3-1.5,0.8-2,1.4c-0.2,0.2-0.4,0.5-0.5,0.8c-0.2,0.4-0.3,0.7-0.4,1.1c-0.2,1-0.1,1.9,0.3,2.8
							c0.6,1.4,1.9,2.3,3.5,2.7c0.3,0.1,0.7,0.1,1,0.1c0.1,0,0.3,0,0.4,0c1.5-0.1,2.8-0.9,3.6-2c0.1-0.1,0.2-0.3,0.2-0.4
							c0.2-0.4,0.4-0.8,0.5-1.2c0.2-0.9,0.1-1.8-0.2-2.6c-0.1-0.3-0.2-0.5-0.4-0.7c-0.7-1.1-1.9-1.9-3.2-2.1
							C19,27.4,18.6,27.3,18.3,27.3L18.3,27.3z"/>
					</g>
					<g>
						<path class="st11" d="M18.3,36.2c-0.3,0-0.6,0-0.9-0.1c-1.4-0.3-2.6-1.2-3.2-2.4c-0.4-0.8-0.5-1.7-0.3-2.6
							c0.1-0.4,0.2-0.7,0.4-1.1c0.1-0.2,0.3-0.5,0.5-0.7c0.1-0.1,0.2-0.1,0.3-0.1h0.1c0.1,0.1,0.2,0.2,0.2,0.4c0,0.1,0,0.3-0.1,0.5
							c-0.3,1.7-0.2,2.9,0.3,3.6c0.4,0.5,1.1,0.8,2,0.8c0.1,0,0.2,0,0.3,0c2.4,0,3.3-1.2,3.3-1.2c0.1-0.1,0.2-0.1,0.3-0.1
							c0.1,0,0.1,0,0.2,0.1c0.2,0.1,0.3,0.2,0.4,0.3s0.1,0.3,0.1,0.5c-0.1,0.1-0.1,0.2-0.2,0.4c-0.8,1.1-2,1.8-3.4,1.9
							C18.5,36.2,18.4,36.2,18.3,36.2z"/>
						<path class="st1" d="M15,29.5L15,29.5 M15,29.5c0,0.1,0,0.3-0.1,0.4c-0.5,2.6-0.1,4.8,2.7,4.9c0.1,0,0.2,0,0.3,0
							c2.6,0,3.6-1.4,3.6-1.4c0.1,0.1,0.2,0.2,0.3,0.3c-0.1,0.1-0.1,0.2-0.2,0.3c-0.7,1-1.8,1.6-3.1,1.7c-0.1,0-0.2,0-0.4,0
							c-0.3,0-0.6,0-0.9-0.1c-1.4-0.3-2.4-1.1-2.9-2.2c-0.3-0.7-0.4-1.5-0.2-2.3c0.1-0.3,0.2-0.7,0.4-1C14.7,29.9,14.9,29.7,15,29.5
							 M15,28.8L15,28.8c-0.2,0-0.3,0.1-0.4,0.1L14.5,29l0,0c-0.2,0.2-0.4,0.5-0.5,0.8c-0.2,0.4-0.3,0.7-0.4,1.1
							c-0.2,1-0.1,1.9,0.3,2.8c0.6,1.4,1.9,2.3,3.5,2.7c0.3,0.1,0.7,0.1,1,0.1c0.1,0,0.3,0,0.4,0c1.5-0.1,2.8-0.9,3.6-2
							c0.1-0.1,0.2-0.3,0.2-0.4c0.2-0.3,0.1-0.7-0.1-0.9c-0.1-0.1-0.3-0.3-0.5-0.4c-0.1-0.1-0.3-0.1-0.4-0.1c-0.2,0-0.4,0.1-0.6,0.3
							c0,0-0.9,1.1-3,1.1c-0.1,0-0.2,0-0.3,0c-0.8,0-1.4-0.3-1.7-0.7c-0.5-0.6-0.6-1.8-0.2-3.3c0-0.2,0.1-0.3,0.1-0.4v-0.1
							C15.8,29.1,15.5,28.8,15,28.8L15,28.8L15,28.8z M15,30.3L15,30.3L15,30.3L15,30.3z"/>
					</g>
				</g>
				<g>
					<g>
						<g>
							<g>
								<path class="st3" d="M18.6,31.7h-0.2l-0.1-0.1c-1.6-0.6-2.7-0.9-3.3-1c-0.1,0-0.3,0-0.4-0.1c-0.1,0-0.2-0.1-0.3-0.2
									c-0.1-0.1-0.1-0.2,0-0.4c0.2-0.3,0.4-0.6,0.6-0.8c0.8-0.8,1.8-1.3,3-1.4l0,0c0.2,0,0.3,0.1,0.4,0.2c0.2,0.6,0.5,1.5,0.7,2.3
									c0.1,0.8,0.1,1,0.1,1.1S19,31.5,19,31.5C18.8,31.7,18.7,31.7,18.6,31.7L18.6,31.7z"/>
								<path class="st1" d="M17.9,28.1c0.2,0.6,0.5,1.5,0.6,2.2c0.1,0.6,0.1,0.9,0.1,1c0,0,0,0,0,0.1l0,0c0,0,0,0-0.1,0l0,0
									c-0.1,0-1.9-0.8-3.4-1.1c-0.1,0-0.3,0-0.4-0.1c0.2-0.3,0.3-0.5,0.5-0.8C15.8,28.7,16.8,28.2,17.9,28.1 M17.9,27.4
									C17.8,27.4,17.8,27.4,17.9,27.4c-1.3,0.1-2.5,0.7-3.3,1.6c-0.3,0.3-0.5,0.6-0.7,0.9c-0.1,0.2-0.1,0.5,0,0.7
									c0.1,0.2,0.3,0.4,0.6,0.4c0.1,0,0.3,0,0.4,0.1c0.6,0.1,1.6,0.4,3.2,1h0.1c0.1,0,0.2,0.1,0.4,0.1c0.2,0,0.5-0.1,0.6-0.3
									c0.1-0.1,0.1-0.2,0.2-0.4c0-0.2,0-0.5-0.1-1.2c-0.1-0.8-0.4-1.7-0.7-2.3C18.5,27.5,18.2,27.4,17.9,27.4L17.9,27.4z"/>
							</g>
							<g>
								<path class="st3" d="M18.3,36.2c-0.3,0-0.6,0-0.9-0.1c-1.4-0.3-2.6-1.2-3.2-2.4c-0.1-0.2,0-0.4,0.2-0.5l0.6-0.3
									c0.7-0.4,1.6-0.8,2.2-1.1c0.5-0.3,0.9-0.5,1.1-0.6c0.1-0.1,0.1-0.1,0.2-0.1s0.2-0.1,0.3-0.1c0.1,0,0.3,0.1,0.4,0.2
									s0.1,0.2,0.1,0.4c0.1,0.7,0.3,2.1,0.2,3.2c0,0.5-0.1,0.9-0.3,1.2c-0.1,0.1-0.2,0.2-0.3,0.2C18.5,36.2,18.4,36.2,18.3,36.2z"
									/>
								<path class="st1" d="M18.6,31.3L18.6,31.3L18.6,31.3c0.1,0.1,0.1,0.1,0.1,0.3l0,0c0.1,0.5,0.3,2,0.2,3.1
									c0,0.4-0.1,0.8-0.2,1.1c-0.1,0-0.2,0-0.4,0c-0.3,0-0.6,0-0.9-0.1c-1.4-0.3-2.4-1.1-2.9-2.2c0.2-0.1,0.3-0.2,0.6-0.3
									c0.7-0.4,1.6-0.8,2.2-1.1C18,31.7,18.3,31.4,18.6,31.3C18.5,31.3,18.5,31.3,18.6,31.3C18.5,31.3,18.6,31.3,18.6,31.3
									 M18.6,30.6c-0.1,0-0.3,0-0.4,0.1h-0.1c0,0-0.1,0-0.2,0.1c-0.2,0.1-0.5,0.3-1,0.6c-0.5,0.2-1.3,0.6-2.2,1.1l-0.5,0.3h-0.1
									c-0.4,0.2-0.5,0.6-0.3,1c0.6,1.4,1.9,2.3,3.5,2.7c0.3,0.1,0.7,0.1,1,0.1c0.1,0,0.3,0,0.4,0c0.3,0,0.5-0.2,0.6-0.4
									c0.2-0.3,0.3-0.8,0.3-1.3c0.1-1.1-0.1-2.6-0.2-3.3c0-0.2-0.1-0.3-0.1-0.4c0,0,0-0.1-0.1-0.1l0,0
									C19.1,30.7,18.8,30.6,18.6,30.6L18.6,30.6z"/>
							</g>
							<g>
								<path class="st3" d="M21.7,34.4c-0.1,0-0.1,0-0.2-0.1s-0.3-0.2-0.6-0.4c-0.3-0.2-0.6-0.5-1-0.8c-0.7-0.6-1.2-1-1.5-1.4
									c-0.1-0.1-0.2-0.2-0.2-0.3v-0.1c0-0.1,0-0.2,0-0.3c0-0.1,0.1-0.2,0.2-0.2l0.2,0.3l-0.1-0.4c1.1-0.3,2.6-0.7,3.6-0.7l0,0
									c0.2,0,0.3,0.1,0.3,0.2c0.2,0.5,0.3,1.1,0.3,1.7c0,0.2,0,0.5-0.1,0.7c-0.1,0.5-0.3,1-0.7,1.4C22,34.4,21.8,34.4,21.7,34.4z"
									/>
								<path class="st1" d="M22.1,30.6c0.2,0.5,0.3,1,0.3,1.5c0,0.2,0,0.4-0.1,0.6c-0.1,0.5-0.3,0.9-0.6,1.3
									c-0.1-0.1-0.3-0.2-0.6-0.4c-0.3-0.2-0.6-0.5-1-0.8c-0.9-0.7-1.3-1.1-1.5-1.3l0,0c-0.1-0.1-0.2-0.2-0.2-0.2l0,0
									c0.1,0,0.1,0,0.2,0C20,30.9,21.3,30.6,22.1,30.6 M22.1,29.8L22.1,29.8c-1.1,0-2.6,0.4-3.7,0.7h-0.2
									c-0.2,0.1-0.4,0.2-0.5,0.4c-0.1,0.2-0.1,0.4-0.1,0.6c0,0,0,0.1,0.1,0.1c0.1,0.1,0.2,0.2,0.3,0.4c0.3,0.3,0.8,0.8,1.6,1.4
									c0.4,0.4,0.8,0.6,1.1,0.8c0.3,0.2,0.5,0.3,0.6,0.4c0.1,0.1,0.3,0.1,0.4,0.1c0.2,0,0.5-0.1,0.6-0.3c0.3-0.5,0.6-1,0.7-1.6
									c0.1-0.3,0.1-0.5,0.1-0.8c0-0.6-0.1-1.2-0.3-1.8C22.7,30,22.5,29.8,22.1,29.8L22.1,29.8z"/>
							</g>
						</g>
					</g>
					<g>
						<path class="st12" d="M18.3,36.2c-0.3,0-0.6,0-0.9-0.1c-1.4-0.3-2.6-1.2-3.2-2.4c-0.1-0.2,0-0.4,0.2-0.5l0.6-0.3
							c0.1,0,0.1,0,0.2,0h0.1c0.1,0,0.2,0.1,0.2,0.2c0.4,0.7,1.2,1.2,2.4,1.3c0.2,0,0.4,0,0.5,0c0.2,0,0.4,0,0.5,0l0,0
							c0.1,0,0.2,0,0.3,0.1c0.1,0.1,0.1,0.2,0.1,0.3c0,0.5-0.1,0.9-0.3,1.2c-0.1,0.1-0.2,0.2-0.3,0.2C18.5,36.2,18.4,36.2,18.3,36.2
							z"/>
						<path class="st1" d="M15,33.2c0.3,0.7,1.1,1.4,2.7,1.5c0.2,0,0.4,0,0.6,0s0.4,0,0.6,0c0,0.4-0.1,0.8-0.2,1.1
							c-0.1,0-0.2,0-0.4,0c-0.3,0-0.6,0-0.9-0.1c-1.4-0.3-2.4-1.1-2.9-2.2C14.6,33.4,14.8,33.3,15,33.2 M15,32.4
							c-0.1,0-0.2,0-0.4,0.1l-0.5,0.2H14c-0.4,0.2-0.5,0.6-0.3,1c0.6,1.4,1.9,2.3,3.5,2.7c0.3,0.1,0.7,0.1,1,0.1c0.1,0,0.3,0,0.4,0
							c0.3,0,0.5-0.2,0.6-0.4c0.2-0.3,0.2-0.8,0.3-1.3c0-0.2-0.1-0.4-0.2-0.6C19.2,34,19,34,18.9,34h-0.1c-0.2,0-0.3,0-0.5,0
							s-0.3,0-0.5,0c-1.1-0.1-1.8-0.5-2.1-1.1c-0.1-0.2-0.2-0.3-0.4-0.4C15.2,32.4,15.1,32.4,15,32.4L15,32.4z"/>
					</g>
					<g>
						<path class="st12" d="M15,30.6c-0.1,0-0.3,0-0.4-0.1c-0.1,0-0.2-0.1-0.3-0.2c-0.1-0.1-0.1-0.2,0-0.4c0.2-0.3,0.4-0.6,0.6-0.8
							C15,29,15.1,29,15.2,29h0.1c0.1,0.1,0.2,0.2,0.2,0.3c0,0.2,0,0.5-0.1,0.9C15.4,30.5,15.2,30.6,15,30.6L15,30.6z"/>
						<path class="st1" d="M15.1,29.4c0,0.2,0,0.5-0.1,0.8c-0.1,0-0.3,0-0.4-0.1C14.7,29.9,14.9,29.6,15.1,29.4 M15.1,28.7
							c-0.2,0-0.4,0.1-0.5,0.2c-0.3,0.3-0.5,0.6-0.7,0.9c-0.1,0.2-0.1,0.5,0,0.7c0.1,0.2,0.3,0.4,0.6,0.4c0.1,0,0.3,0,0.4,0.1H15
							c0.3,0,0.7-0.2,0.7-0.6c0.1-0.4,0.1-0.7,0.1-1s-0.2-0.6-0.5-0.7C15.3,28.7,15.2,28.7,15.1,28.7L15.1,28.7z"/>
					</g>
				</g>
				<g>
					<path class="st1" d="M18.5,32c-0.2,0-0.3-0.1-0.4-0.3C18,31.6,18,31.4,18,31.2c0.1-0.3,0.3-0.5,0.6-0.5h0.1
						c0.2,0,0.3,0.1,0.4,0.3c0.1,0.1,0.1,0.3,0.1,0.5c-0.1,0.3-0.3,0.5-0.6,0.5H18.5z"/>
					<path class="st1" d="M18.6,31.1C18.6,31.1,18.7,31.1,18.6,31.1c0.2,0,0.3,0.2,0.3,0.3c0,0.1-0.1,0.2-0.3,0.2c0,0,0,0-0.1,0
						c-0.2,0-0.2-0.2-0.2-0.3C18.4,31.2,18.5,31.1,18.6,31.1 M18.6,30.3c-0.5,0-0.9,0.3-1,0.8c-0.1,0.3,0,0.5,0.1,0.8
						c0.1,0.2,0.4,0.4,0.7,0.4c0.1,0,0.1,0,0.2,0c0.5,0,0.9-0.3,1-0.8c0.1-0.3,0-0.5-0.1-0.8c-0.1-0.2-0.4-0.4-0.7-0.4
						C18.8,30.3,18.7,30.3,18.6,30.3L18.6,30.3z"/>
				</g>
			</g>
		</g>
	</g>
	<g id="Pelota_copia_2">
		<g>
			<g>
				<g>
					<g>
						<path class="st8" d="M14.2,31.1c-0.2,0.8-0.1,1.6,0.2,2.3c0.5,1.1,1.6,2,2.9,2.2c0.4,0.1,0.8,0.1,1.2,0.1
							c1.3-0.1,2.4-0.7,3.1-1.7c0.1-0.1,0.1-0.2,0.2-0.3c0.2-0.3,0.3-0.6,0.4-1c0.2-0.8,0.1-1.5-0.2-2.2c-0.1-0.2-0.2-0.4-0.3-0.6
							c-0.6-0.9-1.5-1.6-2.7-1.8C18.6,28,18.1,28,17.7,28s-0.8,0.1-1.1,0.3c-0.7,0.2-1.2,0.6-1.7,1.2c-0.2,0.2-0.3,0.4-0.4,0.6
							C14.4,30.5,14.3,30.8,14.2,31.1z"/>
					</g>
					<path class="st11" d="M14.2,31.1c-0.2,0.8-0.1,1.6,0.2,2.3c0.5,1.1,1.6,2,2.9,2.2c0.4,0.1,0.8,0.1,1.2,0.1
						c1.3-0.1,2.4-0.7,3.1-1.7c0.1-0.1,0.1-0.2,0.2-0.3c-0.1-0.1-0.2-0.2-0.3-0.3c0,0-1.1,1.5-3.9,1.3c-2.8-0.1-3.2-2.3-2.7-4.9
						c0-0.2,0.1-0.3,0.1-0.4c-0.2,0.2-0.3,0.4-0.4,0.6C14.4,30.5,14.3,30.8,14.2,31.1z"/>
				</g>
				<g>
					<g>
						<g>
							<path class="st3" d="M14.6,30.2c0.1,0,0.3,0,0.4,0.1c1.6,0.3,3.3,1,3.4,1.1l0,0h0.1c0,0,0,0,0-0.1s0-0.4-0.1-1
								c-0.1-0.7-0.4-1.6-0.6-2.2c-1.1,0.1-2,0.6-2.7,1.3C14.9,29.6,14.7,29.9,14.6,30.2z"/>
							<path class="st3" d="M14.5,33.5c0.5,1.1,1.6,2,2.9,2.2c0.4,0.1,0.8,0.1,1.2,0.1c0.1-0.3,0.2-0.6,0.2-1.1
								c0.1-1.1-0.1-2.6-0.2-3.1l0,0c0-0.1,0-0.2,0-0.2l0,0c0,0,0,0-0.1,0l0,0c-0.2,0.1-0.5,0.3-1.3,0.7c-0.6,0.3-1.5,0.8-2.2,1.1
								C14.8,33.3,14.6,33.4,14.5,33.5z"/>
							<path class="st3" d="M18.5,31.3L18.5,31.3c0,0.1,0.1,0.1,0.2,0.2l0,0c0.2,0.2,0.6,0.6,1.5,1.3c0.4,0.3,0.8,0.6,1,0.8
								s0.4,0.3,0.6,0.4c0.3-0.4,0.5-0.8,0.6-1.3c0-0.2,0.1-0.4,0.1-0.6c0-0.5-0.1-1-0.3-1.5c-0.8,0-2.1,0.3-3.5,0.7
								C18.6,31.3,18.5,31.3,18.5,31.3z"/>
						</g>
					</g>
					<path class="st12" d="M14.5,33.5c0.5,1.1,1.6,2,2.9,2.2c0.4,0.1,0.8,0.1,1.2,0.1c0.1-0.3,0.2-0.6,0.2-1.1c-0.4,0-0.7,0-1.2,0
						c-1.6-0.2-2.3-0.8-2.7-1.5C14.8,33.3,14.6,33.4,14.5,33.5z"/>
					<path class="st12" d="M14.6,30.2c0.1,0,0.3,0,0.4,0.1c0.1-0.3,0.1-0.6,0.1-0.8C14.9,29.6,14.7,29.9,14.6,30.2z"/>
				</g>
				<path class="st1" d="M18.4,31.3c0,0.1,0.1,0.3,0.2,0.3c0.2,0,0.3-0.1,0.3-0.2s-0.1-0.3-0.2-0.3C18.5,31.1,18.4,31.2,18.4,31.3z"
					/>
			</g>
		</g>
	</g>
	<g id="Tabla_de_surf_copia_2_1_">
		<g>
			<path class="st13" d="M9,22.7C9.1,22.4,9.3,22,9.6,22c0.2,0,0.3,0.1,0.5,0.2c1.1,0.7,1.8,1.8,2.3,3c1.6,3.5,2.3,7.2,2.9,11
				c0,0.1,0,0.3,0,0.4c-0.1,0.1-0.3,0.2-0.5,0.2c-1.4,0.2-3.4,0.4-4.7-0.3c-1-3.1-1.9-6.2-1.7-9.5C8.4,25.5,8.6,24,9,22.7z"/>
			<path class="st14" d="M10.4,36c-0.1-0.4-0.2-0.8-0.3-1.2c-0.9-3.6-1.8-7.4-1.2-11.1c0.1-0.5,0.2-1,0.3-1.4
				c-0.1,0.1-0.1,0.2-0.1,0.4c-0.4,1.4-0.6,2.8-0.7,4.3c-0.2,3.3,0.7,6.4,1.7,9.5c0.2,0.1,0.4,0.2,0.6,0.2
				C10.5,36.5,10.4,36.3,10.4,36z"/>
			<path class="st15" d="M12.8,30c-0.1-0.1-0.3-0.1-0.4-0.1c-0.1,0-0.3-0.1-0.3-0.2s0-0.2,0-0.2c0.2-0.6,0.4-1.1,0.7-1.7
				c0.1-0.2,0.2-0.4,0.2-0.6s-0.1-0.5-0.3-0.6s-0.4-0.1-0.5-0.2C12,26.2,12,26,12.1,25.9c0-0.3,0.2-0.6,0.3-0.8
				c-0.1-0.2-0.2-0.4-0.3-0.6c-0.2,0.3-0.3,0.5-0.5,0.8c-0.3,0.4-0.6,0.8-0.7,1.3c0,0.1-0.1,0.3,0,0.4c0.1,0.3,0.6,0.2,0.8,0.4
				c0.1,0.1,0.1,0.3,0,0.5c-0.2,0.6-0.4,1.2-0.8,1.7c-0.1,0.2-0.3,0.5-0.3,0.7c0,0.1,0,0.1,0,0.2s0.1,0.1,0.2,0.2c0.2,0,0.4,0,0.5,0
				c0.2,0,0.4,0.1,0.4,0.2c0.1,0.1,0,0.3,0,0.4c-0.3,0.6-0.5,1.3-0.9,1.9c-0.1,0.2-0.2,0.5,0,0.7c0.3-0.2,0.5-0.6,0.7-0.9
				c0.4-0.7,0.9-1.4,1.3-2c0.1-0.1,0.2-0.3,0.2-0.5S13,30.1,12.8,30z"/>
			<path class="st16" d="M15.2,36.1c-0.2-1.7-0.5-3.4-0.9-5.1c0,0,0,0.1-0.1,0.1c-0.9,1.4-2,2.6-2.8,4c-0.3,0.6-0.4,1-0.4,1.7
				c1.2,0.2,2.6,0.1,3.7-0.1c0.2,0,0.4-0.1,0.5-0.2C15.3,36.4,15.2,36.2,15.2,36.1z"/>
			<path class="st17" d="M10.9,24.9c0.2-0.3,0.6-0.7,0.8-1.1c-0.3-0.4-0.6-0.8-0.9-1.2c-0.3,0.6-0.7,1.2-1,1.8
				c-0.2,0.5-0.5,0.9-0.6,1.4s-0.1,1,0.1,1.5c0.2,0.4,0.5,0.7,0.5,1.1s-0.3,0.9-0.1,1.2c0.2-0.1,0.4-0.3,0.5-0.4
				c0.2-0.2,0.3-0.4,0.4-0.7c0.1-0.2,0.1-0.5-0.1-0.7c-0.1-0.2-0.3-0.3-0.4-0.4c-0.3-0.4-0.2-0.9,0-1.3
				C10.3,25.7,10.6,25.3,10.9,24.9z"/>
			<path class="st18" d="M13.8,35.3c0,0.1,0.1,0.2,0.2,0.2c0.1,0,0.2-0.1,0.2-0.1c0-0.1,0.1-0.2,0.1-0.2c0-0.3,0.2-1.4-0.4-1.3
				C13.3,33.9,13.6,35,13.8,35.3z"/>
		</g>
	</g>
	<g id="Tabla_de_surf_copia_2">
		<g>
			<path class="st5" d="M9,22.7C9.1,22.4,9.3,22,9.6,22c0.2,0,0.3,0.1,0.5,0.2c1.1,0.7,1.8,1.8,2.3,3c1.6,3.5,2.3,7.2,2.9,11
				c0,0.1,0,0.3,0,0.4c-0.1,0.1-0.3,0.2-0.5,0.2c-1.4,0.2-3.4,0.4-4.7-0.3c-1-3.1-1.9-6.2-1.7-9.5C8.4,25.5,8.6,24,9,22.7z"/>
			<path class="st19" d="M10.4,36c-0.1-0.4-0.2-0.8-0.3-1.2c-0.9-3.6-1.8-7.4-1.2-11.1c0.1-0.5,0.2-1,0.3-1.4
				c-0.1,0.1-0.1,0.2-0.1,0.4c-0.4,1.4-0.6,2.8-0.7,4.3c-0.2,3.3,0.7,6.4,1.7,9.5c0.2,0.1,0.4,0.2,0.6,0.2
				C10.5,36.5,10.4,36.3,10.4,36z"/>
			<path class="st20" d="M12.8,30c-0.1-0.1-0.3-0.1-0.4-0.1c-0.1,0-0.3-0.1-0.3-0.2s0-0.2,0-0.2c0.2-0.6,0.4-1.1,0.7-1.7
				c0.1-0.2,0.2-0.4,0.2-0.6s-0.1-0.5-0.3-0.6s-0.4-0.1-0.5-0.2C12,26.2,12,26,12.1,25.9c0-0.3,0.2-0.6,0.3-0.8
				c-0.1-0.2-0.2-0.4-0.3-0.6c-0.2,0.3-0.3,0.5-0.5,0.8c-0.3,0.4-0.6,0.8-0.7,1.3c0,0.1-0.1,0.3,0,0.4c0.1,0.3,0.6,0.2,0.8,0.4
				c0.1,0.1,0.1,0.3,0,0.5c-0.2,0.6-0.4,1.2-0.8,1.7c-0.1,0.2-0.3,0.5-0.3,0.7c0,0.1,0,0.1,0,0.2s0.1,0.1,0.2,0.2c0.2,0,0.4,0,0.5,0
				c0.2,0,0.4,0.1,0.4,0.2c0.1,0.1,0,0.3,0,0.4c-0.3,0.6-0.5,1.3-0.9,1.9c-0.1,0.2-0.2,0.5,0,0.7c0.3-0.2,0.5-0.6,0.7-0.9
				c0.4-0.7,0.9-1.4,1.3-2c0.1-0.1,0.2-0.3,0.2-0.5S13,30.1,12.8,30z"/>
			<path class="st10" d="M10.9,24.9c0.2-0.3,0.6-0.7,0.8-1.1c-0.3-0.4-0.6-0.8-0.9-1.2c-0.3,0.6-0.7,1.2-1,1.8
				c-0.2,0.5-0.5,0.9-0.6,1.4s-0.1,1,0.1,1.5c0.2,0.4,0.5,0.7,0.5,1.1s-0.3,0.9-0.1,1.2c0.2-0.1,0.4-0.3,0.5-0.4
				c0.2-0.2,0.3-0.4,0.4-0.7c0.1-0.2,0.1-0.5-0.1-0.7c-0.1-0.2-0.3-0.3-0.4-0.4c-0.3-0.4-0.2-0.9,0-1.3
				C10.3,25.7,10.6,25.3,10.9,24.9z"/>
			<path class="st21" d="M13.8,35.3c0,0.1,0.1,0.2,0.2,0.2c0.1,0,0.2-0.1,0.2-0.1c0-0.1,0.1-0.2,0.1-0.2c0-0.3,0.2-1.4-0.4-1.3
				C13.3,33.9,13.6,35,13.8,35.3z"/>
		</g>
	</g>
	<g>
		<rect x="32.7" y="21.8" class="st1" width="7.2" height="3.5"/>
	</g>
	<g>
		<polygon class="st1" points="53.4,31.3 51.3,32.7 51.1,28.9 53.1,29 		"/>
	</g>
</g>
</svg>
