<?xml version="1.0" encoding="utf-8"?>
<!-- Generator: Adobe Illustrator 23.0.2, SVG Export Plug-In . SVG Version: 6.00 Build 0)  -->
<svg version="1.1" id="Capa_5" xmlns="http://www.w3.org/2000/svg" xmlns:xlink="http://www.w3.org/1999/xlink" x="0px" y="0px"
	 width="61.9513px" height="38px" viewBox="0 0 61.9513 38" style="enable-background:new 0 0 61.9513 38;" xml:space="preserve">
<style type="text/css">
	.st0{fill:#FFFFFF;stroke:#FFFFFF;stroke-width:5;stroke-linecap:round;stroke-linejoin:round;stroke-miterlimit:10;}
	.st1{fill:#1A88FF;}
	.st2{fill:#FF0B51;}
	.st3{fill:#BF084F;}
	.st4{fill:#FFFFFF;}
	.st5{fill:#5CA1FB;}
</style>
<g id="Capa_5_copia">
	<g>
		<polygon class="st0" points="22.5878,8.9691 22.5878,21.2953 54.298,16.5336 54.298,4.3295 		"/>
		<polygon class="st0" points="19.3082,21.588 19.3082,34.7142 59.029,28.6259 59.029,15.6296 		"/>
		<polygon class="st0" points="22.5878,18.9181 19.3082,21.588 22.5878,21.096 		"/>
		<polygon class="st0" points="59.029,28.6259 49.6312,29.9273 46.2496,35.3427 		"/>
		<path class="st0" d="M18.2463,21.3951l-2.0444-5.629c-0.0781-0.215-0.2752-0.3642-0.5033-0.3811l-5.9725-0.4415
			c-0.1965-0.0145-0.3871,0.0716-0.506,0.2287l-6.0705,8.0169c-0.1937,0.2558-0.1433,0.6202,0.1125,0.8139l8.0169,6.0705
			c0.2558,0.1937,0.6202,0.1434,0.8139-0.1125l6.0705-8.0169C18.2824,21.7871,18.3136,21.5804,18.2463,21.3951z"/>
		<path class="st0" d="M15.4173,17.2418c-0.1937,0.2558-0.5581,0.3062-0.8139,0.1125c-0.2558-0.1937-0.3062-0.5581-0.1125-0.8139
			c0.1937-0.2558,0.5581-0.3062,0.8139-0.1125C15.5607,16.6216,15.611,16.986,15.4173,17.2418z"/>
		<path class="st0" d="M19.2773,14.3658c-0.0444-0.0982-0.1316-0.1707-0.2367-0.1956l-1.7036-0.4071
			c-0.1873-0.0448-0.3753,0.0708-0.42,0.258c-0.0447,0.1873,0.0713,0.3761,0.258,0.42l0.606,0.1448
			c-2.0236,0.5133-2.8648,1.781-2.9015,1.8379c-0.1215,0.1879-0.0678,0.4376,0.1194,0.5601
			c0.0244,0.0159,0.0498,0.0289,0.0759,0.039c0.1746,0.0675,0.379,0.0066,0.4865-0.1556c0.0312-0.0471,0.7612-1.121,2.5627-1.5278
			l-0.2484,0.4678c-0.0902,0.17-0.0256,0.3811,0.1444,0.4714c0.0125,0.0066,0.0252,0.0124,0.0381,0.0174
			c0.1623,0.0628,0.3496-0.0043,0.4333-0.1618l0.7761-1.4616C19.3181,14.5774,19.3217,14.4642,19.2773,14.3658z"/>
		<g>
			<path class="st0" d="M15.6871,16.5422c-0.1075,0.1622-0.3119,0.2232-0.4865,0.1556c-0.0261-0.0101-0.0515-0.0231-0.0759-0.039
				c-0.1138-0.0745-0.1774-0.1961-0.1831-0.3222c-0.0363,0.0483-0.0571,0.0795-0.0621,0.0874
				c-0.1215,0.1879-0.0678,0.4376,0.1194,0.5601c0.0244,0.0159,0.0498,0.0289,0.0759,0.039
				c0.1746,0.0675,0.379,0.0066,0.4865-0.1556c0.0308-0.0466,0.7471-1.0989,2.5089-1.5148l0.1796-0.3383
				C16.4483,15.4212,15.7183,16.4951,15.6871,16.5422z"/>
			<path class="st0" d="M18.6173,15.8091c-0.0837,0.1575-0.271,0.2246-0.4333,0.1619c-0.0129-0.005-0.0256-0.0108-0.0381-0.0174
				c-0.1183-0.0628-0.184-0.1842-0.1836-0.3094l-0.0867,0.1633c-0.0902,0.17-0.0256,0.3811,0.1444,0.4714
				c0.0125,0.0066,0.0252,0.0124,0.0381,0.0174c0.1623,0.0628,0.3496-0.0043,0.4333-0.1618l0.7761-1.4616
				c0.027-0.0509,0.0396-0.1068,0.0396-0.1629L18.6173,15.8091z"/>
			<path class="st0" d="M18.0702,15.3527l-0.0687,0.1295c-0.0275,0.0518-0.039,0.1072-0.0391,0.162l0.1617-0.3044
				C18.1057,15.3438,18.0882,15.3484,18.0702,15.3527z"/>
		</g>
		<g>
			<path class="st0" d="M7.1834,22.2388c-0.626-0.8374-0.5659-1.5353,0.1799-2.0928c0.7458-0.5575,1.4314-0.4171,2.0574,0.4203
				c0.6307,0.8437,0.5735,1.5439-0.1723,2.1014C8.5026,23.2252,7.8141,23.0825,7.1834,22.2388z M8.5073,21.2491
				c-0.2804-0.3752-0.4892-0.512-0.6258-0.4099c-0.1373,0.1027-0.0651,0.3416,0.2153,0.7168
				c0.2852,0.3815,0.4958,0.5209,0.6331,0.4182C8.8665,21.872,8.7925,21.6306,8.5073,21.2491z M11.6837,26.101l-2.3886-7.7641
				l0.849-0.2834l2.3757,7.7468L11.6837,26.101z M12.4514,23.6094c-0.6263-0.8377-0.5661-1.5357,0.1797-2.0932
				c0.7458-0.5575,1.4314-0.4171,2.0577,0.4206c0.6307,0.8437,0.5729,1.5432-0.1728,2.1007
				C13.7701,24.5951,13.0821,24.4532,12.4514,23.6094z M13.7753,22.6198c-0.2807-0.3755-0.4895-0.5124-0.626-0.4103
				c-0.1373,0.1027-0.0651,0.3416,0.2156,0.7171c0.2849,0.3811,0.4958,0.5209,0.6331,0.4182
				C14.1345,23.2427,14.0602,23.0009,13.7753,22.6198z"/>
		</g>
		<g>
			<path class="st0" d="M24.5682,30.3863c-0.6336-0.5755-1.0588-1.5748-1.2749-2.9989c-0.2185-1.4396-0.1141-2.5355,0.3139-3.2884
				c0.4281-0.7524,1.2508-1.2215,2.4693-1.4064c1.2175-0.1848,2.1433,0.019,2.7754,0.6105
				c0.6312,0.5922,1.0563,1.6038,1.2736,3.0357c0.2076,1.3681,0.103,2.436-0.3149,3.2036c-0.418,0.7667-1.2434,1.2446-2.4773,1.4318
				C26.1234,31.1577,25.2008,30.9619,24.5682,30.3863z M27.7507,28.8049c0.1542-0.1814,0.246-0.4423,0.2753-0.7826
				c0.0294-0.3403,0.0015-0.7904-0.0837-1.3524c-0.1272-0.8381-0.3089-1.4239-0.5461-1.7563
				c-0.2361-0.3321-0.584-0.4635-1.0426-0.3939c-0.4509,0.0684-0.7419,0.2988-0.8721,0.6904
				c-0.1311,0.3923-0.1325,1.0079-0.0053,1.8459c0.1128,0.7434,0.2779,1.2972,0.495,1.6604c0.2172,0.3641,0.5787,0.5068,1.0846,0.43
				C27.3648,29.0995,27.5956,28.9865,27.7507,28.8049z"/>
			<path class="st0" d="M32.1116,29.5141c-0.3728-0.4324-0.6371-1.1587-0.792-2.1793l-0.4736-3.1205l2.0652-0.3134l0.4807,3.1678
				c0.0492,0.3244,0.096,0.5544,0.1401,0.6889c0.0451,0.1344,0.1152,0.2255,0.2111,0.2712c0.0958,0.0457,0.2433,0.054,0.4412,0.0239
				c0.1661-0.0252,0.4084-0.0817,0.7268-0.1705l-0.6356-4.1884l2.0517-0.3114l0.9002,5.9321l-2.0285,0.3078l-0.0415-0.2732
				c-0.3133,0.2263-0.5674,0.3814-0.7607,0.4681c-0.1925,0.0855-0.3919,0.1444-0.5976,0.1756
				C33.0471,30.107,32.4855,29.9473,32.1116,29.5141z"/>
			<path class="st0" d="M39.4943,28.8915c-0.3005-0.1124-0.5344-0.3258-0.7036-0.64c-0.1692-0.3141-0.2974-0.7559-0.3838-1.3246
				l-0.308-2.0295l-0.6044,0.0917L37.23,23.2455l0.6044-0.0917l-0.2341-1.5424l2.0652-0.3134l0.2341,1.5424l1.1741-0.1782
				l0.2646,1.7437l-1.1741,0.1782l0.3278,2.1598c0.036,0.2375,0.1396,0.3344,0.3111,0.2926l0.808-0.1108l0.3182,1.6151
				c-0.3267,0.1385-0.5691,0.2335-0.727,0.2861c-0.1581,0.0516-0.3316,0.0928-0.5218,0.1217
				C40.1899,29.023,39.7949,29.004,39.4943,28.8915z"/>
			<path class="st0" d="M41.803,20.2698l2.0643-0.3133l1.2387,8.1624l-2.0643,0.3133L41.803,20.2698z"/>
			<path class="st0" d="M46.6781,27.3223c-0.5025-0.4018-0.8336-1.1319-0.9944-2.192c-0.1644-1.0833-0.0609-1.9307,0.3126-2.5415
				c0.3726-0.6107,1.0247-0.9867,1.9583-1.1284c0.8622-0.1308,1.5581-0.0103,2.0877,0.3622
				c0.5308,0.3738,0.8599,0.9866,0.9896,1.8411l0.0445,1.4126l-3.2036,0.4862c0.0458,0.1392,0.1067,0.2347,0.184,0.2882
				c0.0761,0.0526,0.1755,0.0761,0.2962,0.0706c0.1195-0.0063,0.3222-0.0311,0.607-0.0743s0.6216-0.1022,1.0111-0.1781
				c0.3887-0.0748,0.6538-0.1308,0.7932-0.1688l0.3151-0.0844l0.2492,1.4794c-0.8354,0.4182-1.6595,0.6894-2.4744,0.8131
				C47.9053,27.8522,47.1795,27.7233,46.6781,27.3223z M48.9916,23.8154c-0.0469-0.309-0.1257-0.5094-0.2364-0.6012
				c-0.1109-0.0928-0.3014-0.1182-0.5698-0.0775c-0.2694,0.0409-0.439,0.1209-0.5096,0.2413
				c-0.0717,0.1195-0.0876,0.3343-0.0484,0.6444L48.9916,23.8154z"/>
			<path class="st0" d="M53.4932,26.7671c-0.3005-0.1124-0.5344-0.3258-0.7036-0.64c-0.1692-0.3141-0.2974-0.7559-0.3838-1.3246
				l-0.308-2.0295l-0.6044,0.0917l-0.2646-1.7437l0.6044-0.0917l-0.2341-1.5424l2.0652-0.3134l0.2341,1.5424l1.1741-0.1782
				l0.2646,1.7437l-1.1741,0.1782l0.3278,2.1598c0.036,0.2375,0.1396,0.3344,0.3111,0.2926l0.808-0.1108l0.3182,1.6151
				c-0.3267,0.1385-0.5691,0.2335-0.727,0.2861c-0.1581,0.0517-0.3316,0.0928-0.5218,0.1217
				C54.1888,26.8986,53.7938,26.8795,53.4932,26.7671z"/>
		</g>
		<g>
			<path class="st0" d="M28.33,17.5743l3.469-6.6915l-0.0352-0.2613l-4.2932,0.5789l-0.1091-0.8091l5.352-0.7216l0.1443,1.0704
				l-3.4806,6.6931l0.0321,0.2381l4.3048-0.5804l0.1107,0.8207l-5.352,0.7216L28.33,17.5743z"/>
			<path class="st0" d="M35.8174,17.4304c-0.4009-0.1593-0.7101-0.4507-0.9288-0.8735c-0.2186-0.4223-0.3771-0.9986-0.4754-1.7278
				c-0.1016-0.7534-0.0998-1.3691,0.0051-1.8473s0.3301-0.8476,0.6744-1.1079s0.8256-0.4326,1.444-0.5159
				c0.6262-0.0844,1.138-0.0446,1.5357,0.1201c0.3976,0.1642,0.7105,0.4609,0.9379,0.8905
				c0.2274,0.4295,0.3919,1.0208,0.4935,1.7742c0.0983,0.7292,0.0981,1.3269-0.0008,1.7921
				c-0.0988,0.4656-0.318,0.8282-0.6584,1.0875c-0.3404,0.2597-0.8314,0.4333-1.474,0.52
				C36.7368,17.6276,36.2183,17.5901,35.8174,17.4304z M38.2482,16.4128c0.2096-0.1775,0.3387-0.4334,0.3864-0.7665
				c0.0476-0.3336,0.0319-0.7936-0.0471-1.3801c-0.0834-0.6184-0.1949-1.0877-0.3347-1.4078
				c-0.1398-0.3206-0.3344-0.5363-0.584-0.648c-0.2486-0.1118-0.5873-0.1386-1.016-0.0808
				c-0.4278,0.0577-0.7492,0.1734-0.9641,0.3478c-0.214,0.1742-0.3484,0.4342-0.4031,0.7811
				c-0.0538,0.3462-0.039,0.8286,0.0443,1.447c0.078,0.5787,0.1845,1.0246,0.3192,1.337c0.1348,0.3129,0.3293,0.5271,0.5832,0.6422
				c0.253,0.1152,0.6016,0.1426,1.0458,0.0827C37.7145,16.7085,38.0376,16.5905,38.2482,16.4128z"/>
			<path class="st0" d="M40.549,10.9381l0.8797-0.1186l0.0561,0.4162c0.3304-0.2461,0.6388-0.4291,0.9252-0.5485
				s0.5917-0.201,0.9169-0.2448c0.5081-0.0685,0.9129-0.026,1.2163,0.1267c0.3034,0.1527,0.5398,0.4298,0.7111,0.8304
				c0.1713,0.4006,0.3062,0.9697,0.4056,1.7072l0.4233,3.1396l-0.8797,0.1186l-0.4201-3.1158
				c-0.0759-0.5628-0.168-0.9903-0.2754-1.2828c-0.1083-0.2919-0.2587-0.4938-0.4511-0.6048
				c-0.1924-0.1115-0.456-0.1445-0.7889-0.0996c-0.2691,0.0363-0.5403,0.1073-0.8129,0.2126s-0.4896,0.2133-0.652,0.3239
				l-0.212,0.1375l0.651,4.8284l-0.8913,0.1202L40.549,10.9381z"/>
			<path class="st0" d="M47.7382,15.6718c-0.3272-0.2707-0.5293-0.6953-0.6073-1.274c-0.077-0.571,0.0101-1.0143,0.262-1.3311
				c0.252-0.3163,0.6907-0.5489,1.3169-0.6984l1.8429-0.4298l-0.069-0.5115c-0.1015-0.753-0.4775-1.0861-1.1279-0.9984
				c-0.6417,0.0865-1.4157,0.2436-2.3222,0.4708l-0.1263-0.6732c0.8243-0.2885,1.5858-0.4804,2.2836-0.5745
				c0.6736-0.0908,1.1839-0.0039,1.5299,0.2598c0.347,0.2641,0.5645,0.7295,0.6542,1.3953l0.4105,3.0442
				c0.0638,0.2905,0.3167,0.4337,0.7606,0.4305l0.0588,0.7065c-0.6262,0.0844-1.1189-0.0107-1.4791-0.2849
				c-0.6628,0.4121-1.3556,0.6671-2.0766,0.7643C48.5024,16.0412,48.0653,15.9425,47.7382,15.6718z M50.6475,14.7104l0.2611-0.1318
				l-0.2646-1.9622l-1.738,0.4038c-0.3519,0.0795-0.5964,0.2174-0.7316,0.4135c-0.1352,0.1956-0.1794,0.4597-0.1345,0.7927
				c0.0984,0.7297,0.4485,1.0535,1.0515,0.9722C49.6217,15.1271,50.1408,14.9645,50.6475,14.7104z"/>
		</g>
	</g>
</g>
<g>
	<polygon class="st1" points="22.5878,8.9691 22.5878,21.2953 54.298,16.5336 54.298,4.3295 	"/>
	<polygon class="st2" points="19.3082,21.588 19.3082,34.7142 59.029,28.6259 59.029,15.6296 	"/>
	<polygon class="st3" points="22.5878,18.9181 19.3082,21.588 22.5878,21.096 	"/>
	<polygon class="st3" points="59.029,28.6259 49.6312,29.9273 46.2496,35.3427 	"/>
	<path class="st2" d="M18.2463,21.3951l-2.0444-5.629c-0.0781-0.215-0.2752-0.3642-0.5033-0.3811l-5.9725-0.4415
		c-0.1965-0.0145-0.3871,0.0716-0.506,0.2287l-6.0705,8.0169c-0.1937,0.2558-0.1433,0.6202,0.1125,0.8139l8.0169,6.0705
		c0.2558,0.1937,0.6202,0.1434,0.8139-0.1125l6.0705-8.0169C18.2824,21.7871,18.3136,21.5804,18.2463,21.3951z"/>
	<path class="st4" d="M15.4173,17.2418c-0.1937,0.2558-0.5581,0.3062-0.8139,0.1125c-0.2558-0.1937-0.3062-0.5581-0.1125-0.8139
		c0.1937-0.2558,0.5581-0.3062,0.8139-0.1125C15.5607,16.6216,15.611,16.986,15.4173,17.2418z"/>
	<path class="st5" d="M19.2773,14.3658c-0.0444-0.0982-0.1316-0.1707-0.2367-0.1956l-1.7036-0.4071
		c-0.1873-0.0448-0.3753,0.0708-0.42,0.258c-0.0447,0.1873,0.0713,0.3761,0.258,0.42l0.606,0.1448
		c-2.0236,0.5133-2.8648,1.781-2.9015,1.8379c-0.1215,0.1879-0.0678,0.4376,0.1194,0.5601c0.0244,0.0159,0.0498,0.0289,0.0759,0.039
		c0.1746,0.0675,0.379,0.0066,0.4865-0.1556c0.0312-0.0471,0.7612-1.121,2.5627-1.5278l-0.2484,0.4678
		c-0.0902,0.17-0.0256,0.3811,0.1444,0.4714c0.0125,0.0066,0.0252,0.0124,0.0381,0.0174c0.1623,0.0628,0.3496-0.0043,0.4333-0.1618
		l0.7761-1.4616C19.3181,14.5774,19.3217,14.4642,19.2773,14.3658z"/>
	<g>
		<path class="st5" d="M15.6871,16.5422c-0.1075,0.1622-0.3119,0.2232-0.4865,0.1556c-0.0261-0.0101-0.0515-0.0231-0.0759-0.039
			c-0.1138-0.0745-0.1774-0.1961-0.1831-0.3222c-0.0363,0.0483-0.0571,0.0795-0.0621,0.0874
			c-0.1215,0.1879-0.0678,0.4376,0.1194,0.5601c0.0244,0.0159,0.0498,0.0289,0.0759,0.039c0.1746,0.0675,0.379,0.0066,0.4865-0.1556
			c0.0308-0.0466,0.7471-1.0989,2.5089-1.5148l0.1796-0.3383C16.4483,15.4212,15.7183,16.4951,15.6871,16.5422z"/>
		<path class="st5" d="M18.6173,15.8091c-0.0837,0.1575-0.271,0.2246-0.4333,0.1619c-0.0129-0.005-0.0256-0.0108-0.0381-0.0174
			c-0.1183-0.0628-0.184-0.1842-0.1836-0.3094l-0.0867,0.1633c-0.0902,0.17-0.0256,0.3811,0.1444,0.4714
			c0.0125,0.0066,0.0252,0.0124,0.0381,0.0174c0.1623,0.0628,0.3496-0.0043,0.4333-0.1618l0.7761-1.4616
			c0.027-0.0509,0.0396-0.1068,0.0396-0.1629L18.6173,15.8091z"/>
		<path class="st5" d="M18.0702,15.3527l-0.0687,0.1295c-0.0275,0.0518-0.039,0.1072-0.0391,0.162l0.1617-0.3044
			C18.1057,15.3438,18.0882,15.3484,18.0702,15.3527z"/>
	</g>
	<g>
		<path class="st4" d="M7.1834,22.2388c-0.626-0.8374-0.5659-1.5353,0.1799-2.0928c0.7458-0.5575,1.4314-0.4171,2.0574,0.4203
			c0.6307,0.8437,0.5735,1.5439-0.1723,2.1014C8.5026,23.2252,7.8141,23.0825,7.1834,22.2388z M8.5073,21.2491
			c-0.2804-0.3752-0.4892-0.512-0.6258-0.4099c-0.1373,0.1027-0.0651,0.3416,0.2153,0.7168
			c0.2852,0.3815,0.4958,0.5209,0.6331,0.4182C8.8665,21.872,8.7925,21.6306,8.5073,21.2491z M11.6837,26.101l-2.3886-7.7641
			l0.849-0.2834l2.3757,7.7468L11.6837,26.101z M12.4514,23.6094c-0.6263-0.8377-0.5661-1.5357,0.1797-2.0932
			c0.7458-0.5575,1.4314-0.4171,2.0577,0.4206c0.6307,0.8437,0.5729,1.5432-0.1728,2.1007
			C13.7701,24.5951,13.0821,24.4532,12.4514,23.6094z M13.7753,22.6198c-0.2807-0.3755-0.4895-0.5124-0.626-0.4103
			c-0.1373,0.1027-0.0651,0.3416,0.2156,0.7171c0.2849,0.3811,0.4958,0.5209,0.6331,0.4182
			C14.1345,23.2427,14.0602,23.0009,13.7753,22.6198z"/>
	</g>
	<g>
		<path class="st4" d="M24.5682,30.3863c-0.6336-0.5755-1.0588-1.5748-1.2749-2.9989c-0.2185-1.4396-0.1141-2.5355,0.3139-3.2884
			c0.4281-0.7524,1.2508-1.2215,2.4693-1.4064c1.2175-0.1848,2.1433,0.019,2.7754,0.6105c0.6312,0.5922,1.0563,1.6038,1.2736,3.0357
			c0.2076,1.3681,0.103,2.436-0.3149,3.2036c-0.418,0.7667-1.2434,1.2446-2.4773,1.4318
			C26.1234,31.1577,25.2008,30.9619,24.5682,30.3863z M27.7507,28.8049c0.1542-0.1814,0.246-0.4423,0.2753-0.7826
			c0.0294-0.3403,0.0015-0.7904-0.0837-1.3524c-0.1272-0.8381-0.3089-1.4239-0.5461-1.7563
			c-0.2361-0.3321-0.584-0.4635-1.0426-0.3939c-0.4509,0.0684-0.7419,0.2988-0.8721,0.6904
			c-0.1311,0.3923-0.1325,1.0079-0.0053,1.8459c0.1128,0.7434,0.2779,1.2972,0.495,1.6604c0.2172,0.3641,0.5787,0.5068,1.0846,0.43
			C27.3648,29.0995,27.5956,28.9865,27.7507,28.8049z"/>
		<path class="st4" d="M32.1116,29.5141c-0.3728-0.4324-0.6371-1.1587-0.792-2.1793l-0.4736-3.1205l2.0652-0.3134l0.4807,3.1678
			c0.0492,0.3244,0.096,0.5544,0.1401,0.6889c0.0451,0.1344,0.1152,0.2255,0.2111,0.2712c0.0958,0.0457,0.2433,0.054,0.4412,0.0239
			c0.1661-0.0252,0.4084-0.0817,0.7268-0.1705l-0.6356-4.1884l2.0517-0.3114l0.9002,5.9321l-2.0285,0.3078l-0.0415-0.2732
			c-0.3133,0.2263-0.5674,0.3814-0.7607,0.4681c-0.1925,0.0855-0.3919,0.1444-0.5976,0.1756
			C33.0471,30.107,32.4855,29.9473,32.1116,29.5141z"/>
		<path class="st4" d="M39.4943,28.8915c-0.3005-0.1124-0.5344-0.3258-0.7036-0.64c-0.1692-0.3141-0.2974-0.7559-0.3838-1.3246
			l-0.308-2.0295l-0.6044,0.0917L37.23,23.2455l0.6044-0.0917l-0.2341-1.5424l2.0652-0.3134l0.2341,1.5424l1.1741-0.1782
			l0.2646,1.7437l-1.1741,0.1782l0.3278,2.1598c0.036,0.2375,0.1396,0.3344,0.3111,0.2926l0.808-0.1108l0.3182,1.6151
			c-0.3267,0.1385-0.5691,0.2335-0.727,0.2861c-0.1581,0.0516-0.3316,0.0928-0.5218,0.1217
			C40.1899,29.023,39.7949,29.004,39.4943,28.8915z"/>
		<path class="st4" d="M41.803,20.2698l2.0643-0.3133l1.2387,8.1624l-2.0643,0.3133L41.803,20.2698z"/>
		<path class="st4" d="M46.6781,27.3223c-0.5025-0.4018-0.8336-1.1319-0.9944-2.192c-0.1644-1.0833-0.0609-1.9307,0.3126-2.5415
			c0.3726-0.6107,1.0247-0.9867,1.9583-1.1284c0.8622-0.1308,1.5581-0.0103,2.0877,0.3622
			c0.5308,0.3738,0.8599,0.9866,0.9896,1.8411l0.0445,1.4126l-3.2036,0.4862c0.0458,0.1392,0.1067,0.2347,0.184,0.2882
			c0.0761,0.0526,0.1755,0.0761,0.2962,0.0706c0.1195-0.0063,0.3222-0.0311,0.607-0.0743s0.6216-0.1022,1.0111-0.1781
			c0.3887-0.0748,0.6538-0.1308,0.7932-0.1688l0.3151-0.0844l0.2492,1.4794c-0.8354,0.4182-1.6595,0.6894-2.4744,0.8131
			C47.9053,27.8522,47.1795,27.7233,46.6781,27.3223z M48.9916,23.8154c-0.0469-0.309-0.1257-0.5094-0.2364-0.6012
			c-0.1109-0.0928-0.3014-0.1182-0.5698-0.0775c-0.2694,0.0409-0.439,0.1209-0.5096,0.2413
			c-0.0717,0.1195-0.0876,0.3343-0.0484,0.6444L48.9916,23.8154z"/>
		<path class="st4" d="M53.4932,26.7671c-0.3005-0.1124-0.5344-0.3258-0.7036-0.64c-0.1692-0.3141-0.2974-0.7559-0.3838-1.3246
			l-0.308-2.0295l-0.6044,0.0917l-0.2646-1.7437l0.6044-0.0917l-0.2341-1.5424l2.0652-0.3134l0.2341,1.5424l1.1741-0.1782
			l0.2646,1.7437l-1.1741,0.1782l0.3278,2.1598c0.036,0.2375,0.1396,0.3344,0.3111,0.2926l0.808-0.1108l0.3182,1.6151
			c-0.3267,0.1385-0.5691,0.2335-0.727,0.2861c-0.1581,0.0517-0.3316,0.0928-0.5218,0.1217
			C54.1888,26.8986,53.7938,26.8795,53.4932,26.7671z"/>
	</g>
	<g>
		<path class="st4" d="M27.33,17.5743l3.469-6.6915l-0.0352-0.2613l-4.2932,0.5789l-0.1091-0.8091l5.352-0.7216l0.1443,1.0704
			l-3.4806,6.6931l0.0321,0.2381l4.3048-0.5804l0.1107,0.8207l-5.352,0.7216L27.33,17.5743z"/>
		<path class="st4" d="M34.8174,17.4304c-0.4009-0.1593-0.7101-0.4507-0.9288-0.8735c-0.2186-0.4223-0.3771-0.9986-0.4754-1.7278
			c-0.1016-0.7534-0.0998-1.3691,0.0051-1.8473s0.3301-0.8476,0.6744-1.1079s0.8256-0.4326,1.444-0.5159
			c0.6262-0.0844,1.138-0.0446,1.5357,0.1201c0.3976,0.1642,0.7105,0.4609,0.9379,0.8905c0.2274,0.4295,0.3919,1.0208,0.4935,1.7742
			c0.0983,0.7292,0.0981,1.3269-0.0008,1.7921c-0.0988,0.4656-0.318,0.8282-0.6584,1.0875c-0.3404,0.2597-0.8314,0.4333-1.474,0.52
			C35.7368,17.6276,35.2183,17.5901,34.8174,17.4304z M37.2482,16.4128c0.2096-0.1775,0.3387-0.4334,0.3864-0.7665
			c0.0476-0.3336,0.0319-0.7936-0.0471-1.3801c-0.0834-0.6184-0.1949-1.0877-0.3347-1.4078
			c-0.1398-0.3206-0.3344-0.5363-0.584-0.648c-0.2486-0.1118-0.5873-0.1386-1.016-0.0808
			c-0.4278,0.0577-0.7492,0.1734-0.9641,0.3478c-0.214,0.1742-0.3484,0.4342-0.4031,0.7811
			c-0.0538,0.3462-0.039,0.8286,0.0443,1.447c0.078,0.5787,0.1845,1.0246,0.3192,1.337c0.1348,0.3129,0.3293,0.5271,0.5832,0.6422
			c0.253,0.1152,0.6016,0.1426,1.0458,0.0827C36.7145,16.7085,37.0376,16.5905,37.2482,16.4128z"/>
		<path class="st4" d="M39.549,10.9381l0.8797-0.1186l0.0561,0.4162c0.3304-0.2461,0.6388-0.4291,0.9252-0.5485
			s0.5917-0.201,0.9169-0.2448c0.5081-0.0685,0.9129-0.026,1.2163,0.1267c0.3034,0.1527,0.5398,0.4298,0.7111,0.8304
			c0.1713,0.4006,0.3062,0.9697,0.4056,1.7072l0.4233,3.1396l-0.8797,0.1186l-0.4201-3.1158
			c-0.0759-0.5628-0.168-0.9903-0.2754-1.2828c-0.1083-0.2919-0.2587-0.4938-0.4511-0.6048
			c-0.1924-0.1115-0.456-0.1445-0.7889-0.0996c-0.2691,0.0363-0.5403,0.1073-0.8129,0.2126s-0.4896,0.2133-0.652,0.3239
			l-0.212,0.1375l0.651,4.8284l-0.8913,0.1202L39.549,10.9381z"/>
		<path class="st4" d="M46.7382,15.6718c-0.3272-0.2707-0.5293-0.6953-0.6073-1.274c-0.077-0.571,0.0101-1.0143,0.262-1.3311
			c0.252-0.3163,0.6907-0.5489,1.3169-0.6984l1.8429-0.4298l-0.069-0.5115c-0.1015-0.753-0.4775-1.0861-1.1279-0.9984
			c-0.6417,0.0865-1.4157,0.2436-2.3222,0.4708l-0.1263-0.6732c0.8243-0.2885,1.5858-0.4804,2.2836-0.5745
			c0.6736-0.0908,1.1839-0.0039,1.5299,0.2598c0.347,0.2641,0.5645,0.7295,0.6542,1.3953l0.4105,3.0442
			c0.0638,0.2905,0.3167,0.4337,0.7606,0.4305l0.0588,0.7065c-0.6262,0.0844-1.1189-0.0107-1.4791-0.2849
			c-0.6628,0.4121-1.3556,0.6671-2.0766,0.7643C47.5024,16.0412,47.0653,15.9425,46.7382,15.6718z M49.6475,14.7104l0.2611-0.1318
			l-0.2646-1.9622l-1.738,0.4038c-0.3519,0.0795-0.5964,0.2174-0.7316,0.4135c-0.1352,0.1956-0.1794,0.4597-0.1345,0.7927
			c0.0984,0.7297,0.4485,1.0535,1.0515,0.9722C48.6217,15.1271,49.1408,14.9645,49.6475,14.7104z"/>
	</g>
</g>
</svg>
